%TF.GenerationSoftware,KiCad,Pcbnew,(6.0.9)*%
%TF.CreationDate,2023-03-04T22:36:08+01:00*%
%TF.ProjectId,nard_sam,6e617264-5f73-4616-9d2e-6b696361645f,rev?*%
%TF.SameCoordinates,Original*%
%TF.FileFunction,Paste,Bot*%
%TF.FilePolarity,Positive*%
%FSLAX46Y46*%
G04 Gerber Fmt 4.6, Leading zero omitted, Abs format (unit mm)*
G04 Created by KiCad (PCBNEW (6.0.9)) date 2023-03-04 22:36:08*
%MOMM*%
%LPD*%
G01*
G04 APERTURE LIST*
G04 Aperture macros list*
%AMRoundRect*
0 Rectangle with rounded corners*
0 $1 Rounding radius*
0 $2 $3 $4 $5 $6 $7 $8 $9 X,Y pos of 4 corners*
0 Add a 4 corners polygon primitive as box body*
4,1,4,$2,$3,$4,$5,$6,$7,$8,$9,$2,$3,0*
0 Add four circle primitives for the rounded corners*
1,1,$1+$1,$2,$3*
1,1,$1+$1,$4,$5*
1,1,$1+$1,$6,$7*
1,1,$1+$1,$8,$9*
0 Add four rect primitives between the rounded corners*
20,1,$1+$1,$2,$3,$4,$5,0*
20,1,$1+$1,$4,$5,$6,$7,0*
20,1,$1+$1,$6,$7,$8,$9,0*
20,1,$1+$1,$8,$9,$2,$3,0*%
G04 Aperture macros list end*
%ADD10R,1.000000X2.510000*%
%ADD11RoundRect,0.325000X0.325000X0.525000X-0.325000X0.525000X-0.325000X-0.525000X0.325000X-0.525000X0*%
%ADD12RoundRect,0.300000X-0.300000X-0.700000X0.300000X-0.700000X0.300000X0.700000X-0.300000X0.700000X0*%
G04 APERTURE END LIST*
D10*
%TO.C,J3*%
X74110000Y-70345000D03*
X76650000Y-73655000D03*
X79190000Y-70345000D03*
X81730000Y-73655000D03*
X84270000Y-70345000D03*
X86810000Y-73655000D03*
X89350000Y-70345000D03*
X91890000Y-73655000D03*
%TD*%
D11*
%TO.C,J5*%
X97800000Y-78700000D03*
X99800000Y-78700000D03*
X101800000Y-78700000D03*
X103800000Y-78700000D03*
%TD*%
D10*
%TO.C,J4*%
X109670000Y-70345000D03*
X112210000Y-73655000D03*
X114750000Y-70345000D03*
X117290000Y-73655000D03*
X119830000Y-70345000D03*
X122370000Y-73655000D03*
X124910000Y-70345000D03*
X127450000Y-73655000D03*
X129990000Y-70345000D03*
X132530000Y-73655000D03*
%TD*%
D12*
%TO.C,J6*%
X74110000Y-67780000D03*
X76650000Y-67780000D03*
X79190000Y-67780000D03*
X81730000Y-67780000D03*
X84270000Y-67780000D03*
X86810000Y-67780000D03*
X89350000Y-67780000D03*
X91890000Y-67780000D03*
%TD*%
%TO.C,J7*%
X109670000Y-67780000D03*
X112210000Y-67780000D03*
X114750000Y-67780000D03*
X117290000Y-67780000D03*
X119830000Y-67780000D03*
X122370000Y-67780000D03*
X124910000Y-67780000D03*
X127450000Y-67780000D03*
X129990000Y-67780000D03*
X132530000Y-67780000D03*
%TD*%
M02*
