%TF.GenerationSoftware,KiCad,Pcbnew,8.0.6*%
%TF.CreationDate,2024-11-25T21:01:29+01:00*%
%TF.ProjectId,nard_sam,6e617264-5f73-4616-9d2e-6b696361645f,rev?*%
%TF.SameCoordinates,Original*%
%TF.FileFunction,Soldermask,Top*%
%TF.FilePolarity,Negative*%
%FSLAX46Y46*%
G04 Gerber Fmt 4.6, Leading zero omitted, Abs format (unit mm)*
G04 Created by KiCad (PCBNEW 8.0.6) date 2024-11-25 21:01:29*
%MOMM*%
%LPD*%
G01*
G04 APERTURE LIST*
G04 Aperture macros list*
%AMRoundRect*
0 Rectangle with rounded corners*
0 $1 Rounding radius*
0 $2 $3 $4 $5 $6 $7 $8 $9 X,Y pos of 4 corners*
0 Add a 4 corners polygon primitive as box body*
4,1,4,$2,$3,$4,$5,$6,$7,$8,$9,$2,$3,0*
0 Add four circle primitives for the rounded corners*
1,1,$1+$1,$2,$3*
1,1,$1+$1,$4,$5*
1,1,$1+$1,$6,$7*
1,1,$1+$1,$8,$9*
0 Add four rect primitives between the rounded corners*
20,1,$1+$1,$2,$3,$4,$5,0*
20,1,$1+$1,$4,$5,$6,$7,0*
20,1,$1+$1,$6,$7,$8,$9,0*
20,1,$1+$1,$8,$9,$2,$3,0*%
%AMFreePoly0*
4,1,19,0.379643,0.132453,0.384467,0.128033,0.490533,0.021967,0.512215,-0.024529,0.512500,-0.031066,0.512500,-0.075000,0.494953,-0.123209,0.450524,-0.148861,0.437500,-0.150000,-0.437500,-0.150000,-0.485709,-0.132453,-0.511361,-0.088024,-0.512500,-0.075000,-0.512500,0.075000,-0.494953,0.123209,-0.450524,0.148861,-0.437500,0.150000,0.331434,0.150000,0.379643,0.132453,0.379643,0.132453,
$1*%
%AMFreePoly1*
4,1,19,0.485709,0.132453,0.511361,0.088024,0.512500,0.075000,0.512500,0.031066,0.494953,-0.017143,0.490533,-0.021967,0.384467,-0.128033,0.337971,-0.149715,0.331434,-0.150000,-0.437500,-0.150000,-0.485709,-0.132453,-0.511361,-0.088024,-0.512500,-0.075000,-0.512500,0.075000,-0.494953,0.123209,-0.450524,0.148861,-0.437500,0.150000,0.437500,0.150000,0.485709,0.132453,0.485709,0.132453,
$1*%
%AMFreePoly2*
4,1,19,0.123209,0.494953,0.148861,0.450524,0.150000,0.437500,0.150000,-0.437500,0.132453,-0.485709,0.088024,-0.511361,0.075000,-0.512500,-0.075000,-0.512500,-0.123209,-0.494953,-0.148861,-0.450524,-0.150000,-0.437500,-0.150000,0.331434,-0.132453,0.379643,-0.128033,0.384467,-0.021967,0.490533,0.024529,0.512215,0.031066,0.512500,0.075000,0.512500,0.123209,0.494953,0.123209,0.494953,
$1*%
%AMFreePoly3*
4,1,19,0.017143,0.494953,0.021967,0.490533,0.128033,0.384467,0.149715,0.337971,0.150000,0.331434,0.150000,-0.437500,0.132453,-0.485709,0.088024,-0.511361,0.075000,-0.512500,-0.075000,-0.512500,-0.123209,-0.494953,-0.148861,-0.450524,-0.150000,-0.437500,-0.150000,0.437500,-0.132453,0.485709,-0.088024,0.511361,-0.075000,0.512500,-0.031066,0.512500,0.017143,0.494953,0.017143,0.494953,
$1*%
%AMFreePoly4*
4,1,19,0.485709,0.132453,0.511361,0.088024,0.512500,0.075000,0.512500,-0.075000,0.494953,-0.123209,0.450524,-0.148861,0.437500,-0.150000,-0.331434,-0.150000,-0.379643,-0.132453,-0.384467,-0.128033,-0.490533,-0.021967,-0.512215,0.024529,-0.512500,0.031066,-0.512500,0.075000,-0.494953,0.123209,-0.450524,0.148861,-0.437500,0.150000,0.437500,0.150000,0.485709,0.132453,0.485709,0.132453,
$1*%
%AMFreePoly5*
4,1,19,0.485709,0.132453,0.511361,0.088024,0.512500,0.075000,0.512500,-0.075000,0.494953,-0.123209,0.450524,-0.148861,0.437500,-0.150000,-0.437500,-0.150000,-0.485709,-0.132453,-0.511361,-0.088024,-0.512500,-0.075000,-0.512500,-0.031066,-0.494953,0.017143,-0.490533,0.021967,-0.384467,0.128033,-0.337971,0.149715,-0.331434,0.150000,0.437500,0.150000,0.485709,0.132453,0.485709,0.132453,
$1*%
%AMFreePoly6*
4,1,19,0.123209,0.494953,0.148861,0.450524,0.150000,0.437500,0.150000,-0.331434,0.132453,-0.379643,0.128033,-0.384467,0.021967,-0.490533,-0.024529,-0.512215,-0.031066,-0.512500,-0.075000,-0.512500,-0.123209,-0.494953,-0.148861,-0.450524,-0.150000,-0.437500,-0.150000,0.437500,-0.132453,0.485709,-0.088024,0.511361,-0.075000,0.512500,0.075000,0.512500,0.123209,0.494953,0.123209,0.494953,
$1*%
%AMFreePoly7*
4,1,19,0.123209,0.494953,0.148861,0.450524,0.150000,0.437500,0.150000,-0.437500,0.132453,-0.485709,0.088024,-0.511361,0.075000,-0.512500,0.031066,-0.512500,-0.017143,-0.494953,-0.021967,-0.490533,-0.128033,-0.384467,-0.149715,-0.337971,-0.150000,-0.331434,-0.150000,0.437500,-0.132453,0.485709,-0.088024,0.511361,-0.075000,0.512500,0.075000,0.512500,0.123209,0.494953,0.123209,0.494953,
$1*%
%AMFreePoly8*
4,1,19,0.500000,-0.750000,0.000000,-0.750000,0.000000,-0.744911,-0.071157,-0.744911,-0.207708,-0.704816,-0.327430,-0.627875,-0.420627,-0.520320,-0.479746,-0.390866,-0.500000,-0.250000,-0.500000,0.250000,-0.479746,0.390866,-0.420627,0.520320,-0.327430,0.627875,-0.207708,0.704816,-0.071157,0.744911,0.000000,0.744911,0.000000,0.750000,0.500000,0.750000,0.500000,-0.750000,0.500000,-0.750000,
$1*%
%AMFreePoly9*
4,1,19,0.000000,0.744911,0.071157,0.744911,0.207708,0.704816,0.327430,0.627875,0.420627,0.520320,0.479746,0.390866,0.500000,0.250000,0.500000,-0.250000,0.479746,-0.390866,0.420627,-0.520320,0.327430,-0.627875,0.207708,-0.704816,0.071157,-0.744911,0.000000,-0.744911,0.000000,-0.750000,-0.500000,-0.750000,-0.500000,0.750000,0.000000,0.750000,0.000000,0.744911,0.000000,0.744911,
$1*%
G04 Aperture macros list end*
%ADD10RoundRect,0.140000X-0.140000X-0.170000X0.140000X-0.170000X0.140000X0.170000X-0.140000X0.170000X0*%
%ADD11RoundRect,0.140000X0.170000X-0.140000X0.170000X0.140000X-0.170000X0.140000X-0.170000X-0.140000X0*%
%ADD12FreePoly0,270.000000*%
%ADD13RoundRect,0.075000X-0.075000X0.437500X-0.075000X-0.437500X0.075000X-0.437500X0.075000X0.437500X0*%
%ADD14FreePoly1,270.000000*%
%ADD15FreePoly2,270.000000*%
%ADD16RoundRect,0.075000X-0.437500X0.075000X-0.437500X-0.075000X0.437500X-0.075000X0.437500X0.075000X0*%
%ADD17FreePoly3,270.000000*%
%ADD18FreePoly4,270.000000*%
%ADD19FreePoly5,270.000000*%
%ADD20FreePoly6,270.000000*%
%ADD21FreePoly7,270.000000*%
%ADD22R,3.200000X3.200000*%
%ADD23RoundRect,0.100000X-0.100000X0.130000X-0.100000X-0.130000X0.100000X-0.130000X0.100000X0.130000X0*%
%ADD24RoundRect,0.218750X-0.256250X0.218750X-0.256250X-0.218750X0.256250X-0.218750X0.256250X0.218750X0*%
%ADD25RoundRect,0.140000X-0.170000X0.140000X-0.170000X-0.140000X0.170000X-0.140000X0.170000X0.140000X0*%
%ADD26RoundRect,0.400000X-1.850000X-0.400000X1.850000X-0.400000X1.850000X0.400000X-1.850000X0.400000X0*%
%ADD27RoundRect,0.400000X-0.400000X-0.400000X0.400000X-0.400000X0.400000X0.400000X-0.400000X0.400000X0*%
%ADD28RoundRect,0.200000X-0.450000X-0.200000X0.450000X-0.200000X0.450000X0.200000X-0.450000X0.200000X0*%
%ADD29RoundRect,0.500000X-0.900000X-0.500000X0.900000X-0.500000X0.900000X0.500000X-0.900000X0.500000X0*%
%ADD30RoundRect,0.500000X-1.750000X-0.500000X1.750000X-0.500000X1.750000X0.500000X-1.750000X0.500000X0*%
%ADD31RoundRect,0.135000X0.185000X-0.135000X0.185000X0.135000X-0.185000X0.135000X-0.185000X-0.135000X0*%
%ADD32RoundRect,0.135000X0.135000X0.185000X-0.135000X0.185000X-0.135000X-0.185000X0.135000X-0.185000X0*%
%ADD33RoundRect,0.400000X1.850000X0.400000X-1.850000X0.400000X-1.850000X-0.400000X1.850000X-0.400000X0*%
%ADD34RoundRect,0.400000X0.400000X0.400000X-0.400000X0.400000X-0.400000X-0.400000X0.400000X-0.400000X0*%
%ADD35RoundRect,0.200000X0.450000X0.200000X-0.450000X0.200000X-0.450000X-0.200000X0.450000X-0.200000X0*%
%ADD36RoundRect,0.500000X0.900000X0.500000X-0.900000X0.500000X-0.900000X-0.500000X0.900000X-0.500000X0*%
%ADD37RoundRect,0.500000X1.750000X0.500000X-1.750000X0.500000X-1.750000X-0.500000X1.750000X-0.500000X0*%
%ADD38R,1.100000X0.500000*%
%ADD39R,2.000000X2.000000*%
%ADD40RoundRect,0.135000X-0.185000X0.135000X-0.185000X-0.135000X0.185000X-0.135000X0.185000X0.135000X0*%
%ADD41RoundRect,0.135000X-0.135000X-0.185000X0.135000X-0.185000X0.135000X0.185000X-0.135000X0.185000X0*%
%ADD42FreePoly8,90.000000*%
%ADD43FreePoly9,90.000000*%
G04 APERTURE END LIST*
D10*
%TO.C,C1*%
X103406000Y-65565000D03*
X104366000Y-65565000D03*
%TD*%
D11*
%TO.C,C4*%
X99250000Y-65227000D03*
X99250000Y-64267000D03*
%TD*%
D12*
%TO.C,U1*%
X104749000Y-67484500D03*
D13*
X104099000Y-67484500D03*
X103449000Y-67484500D03*
X102799000Y-67484500D03*
X102149000Y-67484500D03*
D14*
X101499000Y-67484500D03*
D15*
X100761500Y-68222000D03*
D16*
X100761500Y-68872000D03*
X100761500Y-69522000D03*
X100761500Y-70172000D03*
X100761500Y-70822000D03*
D17*
X100761500Y-71472000D03*
D18*
X101499000Y-72209500D03*
D13*
X102149000Y-72209500D03*
X102799000Y-72209500D03*
X103449000Y-72209500D03*
X104099000Y-72209500D03*
D19*
X104749000Y-72209500D03*
D20*
X105486500Y-71472000D03*
D16*
X105486500Y-70822000D03*
X105486500Y-70172000D03*
X105486500Y-69522000D03*
X105486500Y-68872000D03*
D21*
X105486500Y-68222000D03*
D22*
X103124000Y-69847000D03*
%TD*%
D23*
%TO.C,D1*%
X106121200Y-74531000D03*
X106121200Y-75171000D03*
%TD*%
D24*
%TO.C,L1*%
X103759000Y-62745500D03*
X103759000Y-64320500D03*
%TD*%
D25*
%TO.C,C8*%
X107000000Y-74371000D03*
X107000000Y-75331000D03*
%TD*%
D10*
%TO.C,C2*%
X107749400Y-70497000D03*
X108709400Y-70497000D03*
%TD*%
D26*
%TO.C,J1*%
X91928000Y-65993000D03*
X91928000Y-68533000D03*
X91928000Y-71073000D03*
X91928000Y-73613000D03*
D27*
X80425000Y-65997000D03*
X80425000Y-68537000D03*
X80425000Y-71077000D03*
X80425000Y-73617000D03*
D28*
X96754000Y-76407000D03*
X96754000Y-77677000D03*
D29*
X82825000Y-62547000D03*
X82825000Y-77247000D03*
D30*
X87404000Y-63217000D03*
X87404000Y-77067000D03*
%TD*%
D25*
%TO.C,C3*%
X103250000Y-74371000D03*
X103250000Y-75331000D03*
%TD*%
D31*
%TO.C,R2*%
X101850000Y-75361000D03*
X101850000Y-74341000D03*
%TD*%
D11*
%TO.C,C6*%
X98250000Y-65227000D03*
X98250000Y-64267000D03*
%TD*%
D32*
%TO.C,R6*%
X105260000Y-74351000D03*
X104240000Y-74351000D03*
%TD*%
D33*
%TO.C,J2*%
X114808000Y-74186000D03*
X114808000Y-71646000D03*
X114808000Y-69106000D03*
X114808000Y-66566000D03*
D34*
X126311000Y-74182000D03*
X126311000Y-71642000D03*
X126311000Y-69102000D03*
X126311000Y-66562000D03*
D35*
X109982000Y-63772000D03*
X109982000Y-62502000D03*
D36*
X123911000Y-77632000D03*
X123911000Y-62932000D03*
D37*
X119332000Y-76962000D03*
X119332000Y-63112000D03*
%TD*%
D38*
%TO.C,U3*%
X82700000Y-66690000D03*
X82700000Y-67960000D03*
X82700000Y-69230000D03*
X82700000Y-70500000D03*
X88500000Y-70500000D03*
X88500000Y-69230000D03*
X88500000Y-67960000D03*
X88500000Y-66690000D03*
D39*
X85600000Y-68595000D03*
%TD*%
D32*
%TO.C,R7*%
X105260000Y-75351000D03*
X104240000Y-75351000D03*
%TD*%
D11*
%TO.C,C9*%
X100250000Y-65227000D03*
X100250000Y-64267000D03*
%TD*%
D25*
%TO.C,C5*%
X108000000Y-74371000D03*
X108000000Y-75331000D03*
%TD*%
%TO.C,C7*%
X109000000Y-74371000D03*
X109000000Y-75331000D03*
%TD*%
D40*
%TO.C,R4*%
X99060000Y-67308000D03*
X99060000Y-68328000D03*
%TD*%
D32*
%TO.C,R3*%
X108770000Y-69497000D03*
X107750000Y-69497000D03*
%TD*%
D41*
%TO.C,R5*%
X107165000Y-67050000D03*
X108185000Y-67050000D03*
%TD*%
D31*
%TO.C,R1*%
X100750000Y-75361000D03*
X100750000Y-74341000D03*
%TD*%
D42*
%TO.C,JP1*%
X99500000Y-78150000D03*
D43*
X99500000Y-76850000D03*
%TD*%
M02*
