%TF.GenerationSoftware,KiCad,Pcbnew,(6.0.9)*%
%TF.CreationDate,2023-03-04T22:36:08+01:00*%
%TF.ProjectId,nard_sam,6e617264-5f73-4616-9d2e-6b696361645f,rev?*%
%TF.SameCoordinates,Original*%
%TF.FileFunction,Copper,L2,Inr*%
%TF.FilePolarity,Positive*%
%FSLAX46Y46*%
G04 Gerber Fmt 4.6, Leading zero omitted, Abs format (unit mm)*
G04 Created by KiCad (PCBNEW (6.0.9)) date 2023-03-04 22:36:08*
%MOMM*%
%LPD*%
G01*
G04 APERTURE LIST*
%TA.AperFunction,ViaPad*%
%ADD10C,0.800000*%
%TD*%
G04 APERTURE END LIST*
D10*
%TO.N,+5V*%
X74110000Y-74327600D03*
X110675000Y-72550000D03*
X104952800Y-62763400D03*
%TO.N,GND*%
X132525000Y-65200000D03*
X101800000Y-63750000D03*
X103900000Y-69011800D03*
X84350000Y-74900000D03*
X130050000Y-74000000D03*
X91050000Y-77050000D03*
X78625000Y-75275000D03*
X129300000Y-63800000D03*
X91000000Y-63200000D03*
X126625000Y-77400000D03*
X107000000Y-62000000D03*
X115475000Y-77325000D03*
X103925000Y-70625000D03*
X115575000Y-63075000D03*
X99263200Y-63373000D03*
X106100000Y-76100000D03*
X112350000Y-62875000D03*
X74075000Y-65150000D03*
X105181400Y-64490600D03*
X102300000Y-69025000D03*
X73975000Y-78350000D03*
X120050000Y-73325000D03*
X84375000Y-64950000D03*
X79950000Y-62575000D03*
X109100000Y-72775000D03*
X78025000Y-65350000D03*
X123750000Y-65125000D03*
X102300000Y-70625000D03*
X119625000Y-65375000D03*
%TO.N,/PC0*%
X107075000Y-76850000D03*
%TO.N,/PC1*%
X108650000Y-76600000D03*
%TO.N,/USB_DM*%
X102768400Y-73456800D03*
%TO.N,/USB_DP*%
X103987600Y-73406000D03*
%TO.N,/~{RESET}*%
X107924600Y-71729600D03*
%TO.N,/SC1_VCC*%
X101168200Y-65252600D03*
X98425000Y-69900000D03*
%TO.N,/SC2_VCC*%
X105994200Y-65630800D03*
X107010200Y-73250800D03*
%TO.N,/SC1_CLK*%
X96050000Y-67625000D03*
X96050000Y-69375000D03*
%TO.N,/SC1_C4*%
X97850000Y-72100000D03*
X101912250Y-66187250D03*
%TO.N,/SC1_IO*%
X100100000Y-66200000D03*
X95200000Y-74750000D03*
%TO.N,/SC1_C8*%
X102225000Y-64975000D03*
X96375000Y-74775000D03*
%TO.N,/SC2_IO*%
X108150000Y-68125000D03*
X110950000Y-69975000D03*
%TO.N,/SC2_PRsNT*%
X106857800Y-70507600D03*
X106850000Y-63775000D03*
%TD*%
%TA.AperFunction,Conductor*%
%TO.N,GND*%
G36*
X134683621Y-60528502D02*
G01*
X134730114Y-60582158D01*
X134741500Y-60634500D01*
X134741500Y-80365500D01*
X134721498Y-80433621D01*
X134667842Y-80480114D01*
X134615500Y-80491500D01*
X72384500Y-80491500D01*
X72316379Y-80471498D01*
X72269886Y-80417842D01*
X72258500Y-80365500D01*
X72258500Y-76932150D01*
X79040482Y-76932150D01*
X79040998Y-76938294D01*
X79041729Y-76947000D01*
X79050060Y-77046206D01*
X79057852Y-77139004D01*
X79115069Y-77338545D01*
X79117887Y-77344027D01*
X79117888Y-77344031D01*
X79180628Y-77466109D01*
X79209955Y-77523173D01*
X79338894Y-77685854D01*
X79343581Y-77689843D01*
X79343584Y-77689846D01*
X79424253Y-77758500D01*
X79496976Y-77820392D01*
X79678180Y-77921664D01*
X79875603Y-77985810D01*
X80081725Y-78010389D01*
X80087860Y-78009917D01*
X80087862Y-78009917D01*
X80282555Y-77994936D01*
X80282560Y-77994935D01*
X80288696Y-77994463D01*
X80294626Y-77992807D01*
X80294628Y-77992807D01*
X80388664Y-77966552D01*
X80488632Y-77938640D01*
X80528190Y-77918658D01*
X80668416Y-77847825D01*
X80668418Y-77847824D01*
X80673917Y-77845046D01*
X80837495Y-77717245D01*
X80973133Y-77560106D01*
X81075667Y-77379614D01*
X81141190Y-77182644D01*
X81167207Y-76976698D01*
X81167622Y-76947000D01*
X81158111Y-76850000D01*
X106161496Y-76850000D01*
X106162186Y-76856565D01*
X106175181Y-76980202D01*
X106181458Y-77039928D01*
X106240473Y-77221556D01*
X106243776Y-77227278D01*
X106243777Y-77227279D01*
X106267204Y-77267856D01*
X106335960Y-77386944D01*
X106463747Y-77528866D01*
X106618248Y-77641118D01*
X106624276Y-77643802D01*
X106624278Y-77643803D01*
X106786681Y-77716109D01*
X106792712Y-77718794D01*
X106886113Y-77738647D01*
X106973056Y-77757128D01*
X106973061Y-77757128D01*
X106979513Y-77758500D01*
X107170487Y-77758500D01*
X107176939Y-77757128D01*
X107176944Y-77757128D01*
X107263887Y-77738647D01*
X107357288Y-77718794D01*
X107363319Y-77716109D01*
X107525722Y-77643803D01*
X107525724Y-77643802D01*
X107531752Y-77641118D01*
X107686253Y-77528866D01*
X107814040Y-77386944D01*
X107854510Y-77316848D01*
X107905891Y-77267856D01*
X107975605Y-77254419D01*
X108038279Y-77279510D01*
X108038747Y-77278866D01*
X108042136Y-77281328D01*
X108042138Y-77281330D01*
X108187503Y-77386944D01*
X108193248Y-77391118D01*
X108199276Y-77393802D01*
X108199278Y-77393803D01*
X108361681Y-77466109D01*
X108367712Y-77468794D01*
X108461112Y-77488647D01*
X108548056Y-77507128D01*
X108548061Y-77507128D01*
X108554513Y-77508500D01*
X108745487Y-77508500D01*
X108751939Y-77507128D01*
X108751944Y-77507128D01*
X108838888Y-77488647D01*
X108932288Y-77468794D01*
X108938319Y-77466109D01*
X109100722Y-77393803D01*
X109100724Y-77393802D01*
X109106752Y-77391118D01*
X109115205Y-77384977D01*
X109179112Y-77338545D01*
X109261253Y-77278866D01*
X109265675Y-77273955D01*
X109384621Y-77141852D01*
X109384622Y-77141851D01*
X109389040Y-77136944D01*
X109467124Y-77001699D01*
X109481223Y-76977279D01*
X109481224Y-76977278D01*
X109484527Y-76971556D01*
X109507127Y-76902000D01*
X111418502Y-76902000D01*
X111438457Y-77130087D01*
X111439881Y-77135400D01*
X111439881Y-77135402D01*
X111495784Y-77344031D01*
X111497716Y-77351243D01*
X111500039Y-77356224D01*
X111500039Y-77356225D01*
X111592151Y-77553762D01*
X111592154Y-77553767D01*
X111594477Y-77558749D01*
X111597634Y-77563257D01*
X111707503Y-77720166D01*
X111725802Y-77746300D01*
X111887700Y-77908198D01*
X111892208Y-77911355D01*
X111892211Y-77911357D01*
X111970389Y-77966098D01*
X112075251Y-78039523D01*
X112080233Y-78041846D01*
X112080238Y-78041849D01*
X112277775Y-78133961D01*
X112282757Y-78136284D01*
X112288065Y-78137706D01*
X112288067Y-78137707D01*
X112498598Y-78194119D01*
X112498600Y-78194119D01*
X112503913Y-78195543D01*
X112732000Y-78215498D01*
X112960087Y-78195543D01*
X112965400Y-78194119D01*
X112965402Y-78194119D01*
X113175933Y-78137707D01*
X113175935Y-78137706D01*
X113181243Y-78136284D01*
X113186225Y-78133961D01*
X113383762Y-78041849D01*
X113383767Y-78041846D01*
X113388749Y-78039523D01*
X113493611Y-77966098D01*
X113571789Y-77911357D01*
X113571792Y-77911355D01*
X113576300Y-77908198D01*
X113738198Y-77746300D01*
X113756498Y-77720166D01*
X113866366Y-77563257D01*
X113869523Y-77558749D01*
X113871846Y-77553767D01*
X113871849Y-77553762D01*
X113963961Y-77356225D01*
X113963961Y-77356224D01*
X113966284Y-77351243D01*
X113968217Y-77344031D01*
X114024119Y-77135402D01*
X114024119Y-77135400D01*
X114025543Y-77130087D01*
X114045498Y-76902000D01*
X114025543Y-76673913D01*
X114003979Y-76593435D01*
X113967707Y-76458067D01*
X113967706Y-76458065D01*
X113966284Y-76452757D01*
X113946380Y-76410072D01*
X113871849Y-76250238D01*
X113871846Y-76250233D01*
X113869523Y-76245251D01*
X113745952Y-76068774D01*
X113741357Y-76062211D01*
X113741355Y-76062208D01*
X113738198Y-76057700D01*
X113576300Y-75895802D01*
X113571792Y-75892645D01*
X113571789Y-75892643D01*
X113457708Y-75812763D01*
X113388749Y-75764477D01*
X113383767Y-75762154D01*
X113383762Y-75762151D01*
X113186225Y-75670039D01*
X113186224Y-75670039D01*
X113181243Y-75667716D01*
X113175935Y-75666294D01*
X113175933Y-75666293D01*
X112965402Y-75609881D01*
X112965400Y-75609881D01*
X112960087Y-75608457D01*
X112732000Y-75588502D01*
X112503913Y-75608457D01*
X112498600Y-75609881D01*
X112498598Y-75609881D01*
X112288067Y-75666293D01*
X112288065Y-75666294D01*
X112282757Y-75667716D01*
X112277776Y-75670039D01*
X112277775Y-75670039D01*
X112080238Y-75762151D01*
X112080233Y-75762154D01*
X112075251Y-75764477D01*
X112006292Y-75812763D01*
X111892211Y-75892643D01*
X111892208Y-75892645D01*
X111887700Y-75895802D01*
X111725802Y-76057700D01*
X111722645Y-76062208D01*
X111722643Y-76062211D01*
X111718048Y-76068774D01*
X111594477Y-76245251D01*
X111592154Y-76250233D01*
X111592151Y-76250238D01*
X111517620Y-76410072D01*
X111497716Y-76452757D01*
X111496294Y-76458065D01*
X111496293Y-76458067D01*
X111460021Y-76593435D01*
X111438457Y-76673913D01*
X111418502Y-76902000D01*
X109507127Y-76902000D01*
X109543542Y-76789928D01*
X109549367Y-76734511D01*
X109562814Y-76606565D01*
X109563504Y-76600000D01*
X109550127Y-76472721D01*
X109544232Y-76416635D01*
X109544232Y-76416633D01*
X109543542Y-76410072D01*
X109484527Y-76228444D01*
X109465554Y-76195581D01*
X109392341Y-76068774D01*
X109389040Y-76063056D01*
X109384218Y-76057700D01*
X109265675Y-75926045D01*
X109265674Y-75926044D01*
X109261253Y-75921134D01*
X109106752Y-75808882D01*
X109100724Y-75806198D01*
X109100722Y-75806197D01*
X108938319Y-75733891D01*
X108938318Y-75733891D01*
X108932288Y-75731206D01*
X108838888Y-75711353D01*
X108751944Y-75692872D01*
X108751939Y-75692872D01*
X108745487Y-75691500D01*
X108554513Y-75691500D01*
X108548061Y-75692872D01*
X108548056Y-75692872D01*
X108461112Y-75711353D01*
X108367712Y-75731206D01*
X108361682Y-75733891D01*
X108361681Y-75733891D01*
X108199278Y-75806197D01*
X108199276Y-75806198D01*
X108193248Y-75808882D01*
X108038747Y-75921134D01*
X108034326Y-75926044D01*
X108034325Y-75926045D01*
X107915783Y-76057700D01*
X107910960Y-76063056D01*
X107907659Y-76068774D01*
X107870491Y-76133151D01*
X107819109Y-76182144D01*
X107749395Y-76195581D01*
X107686721Y-76170490D01*
X107686253Y-76171134D01*
X107683704Y-76169282D01*
X107540472Y-76065217D01*
X107537094Y-76062763D01*
X107537093Y-76062762D01*
X107531752Y-76058882D01*
X107525724Y-76056198D01*
X107525722Y-76056197D01*
X107363319Y-75983891D01*
X107363318Y-75983891D01*
X107357288Y-75981206D01*
X107253232Y-75959088D01*
X107176944Y-75942872D01*
X107176939Y-75942872D01*
X107170487Y-75941500D01*
X106979513Y-75941500D01*
X106973061Y-75942872D01*
X106973056Y-75942872D01*
X106896768Y-75959088D01*
X106792712Y-75981206D01*
X106786682Y-75983891D01*
X106786681Y-75983891D01*
X106624278Y-76056197D01*
X106624276Y-76056198D01*
X106618248Y-76058882D01*
X106612907Y-76062762D01*
X106612906Y-76062763D01*
X106604633Y-76068774D01*
X106463747Y-76171134D01*
X106459326Y-76176044D01*
X106459325Y-76176045D01*
X106392522Y-76250238D01*
X106335960Y-76313056D01*
X106240473Y-76478444D01*
X106181458Y-76660072D01*
X106180768Y-76666633D01*
X106180768Y-76666635D01*
X106167810Y-76789928D01*
X106161496Y-76850000D01*
X81158111Y-76850000D01*
X81147365Y-76740408D01*
X81087368Y-76541685D01*
X81020877Y-76416635D01*
X80992809Y-76363847D01*
X80992808Y-76363845D01*
X80989913Y-76358401D01*
X80901698Y-76250238D01*
X80862610Y-76202311D01*
X80862607Y-76202308D01*
X80858715Y-76197536D01*
X80851770Y-76191790D01*
X80703518Y-76069145D01*
X80703519Y-76069145D01*
X80698770Y-76065217D01*
X80693353Y-76062288D01*
X80693350Y-76062286D01*
X80521590Y-75969416D01*
X80521585Y-75969414D01*
X80516170Y-75966486D01*
X80317871Y-75905102D01*
X80311746Y-75904458D01*
X80311745Y-75904458D01*
X80117554Y-75884048D01*
X80117552Y-75884048D01*
X80111425Y-75883404D01*
X80025515Y-75891223D01*
X79910836Y-75901659D01*
X79910833Y-75901660D01*
X79904697Y-75902218D01*
X79898791Y-75903956D01*
X79898787Y-75903957D01*
X79771228Y-75941500D01*
X79705560Y-75960827D01*
X79521600Y-76056999D01*
X79516800Y-76060859D01*
X79516799Y-76060859D01*
X79511379Y-76065217D01*
X79359823Y-76187071D01*
X79355865Y-76191788D01*
X79355863Y-76191790D01*
X79271954Y-76291789D01*
X79226391Y-76346089D01*
X79223427Y-76351481D01*
X79223424Y-76351485D01*
X79164830Y-76458067D01*
X79126387Y-76527995D01*
X79063621Y-76725861D01*
X79062935Y-76731978D01*
X79062934Y-76731982D01*
X79048960Y-76856565D01*
X79040482Y-76932150D01*
X72258500Y-76932150D01*
X72258500Y-74327600D01*
X73196496Y-74327600D01*
X73216458Y-74517528D01*
X73275473Y-74699156D01*
X73278776Y-74704878D01*
X73278777Y-74704879D01*
X73304828Y-74750000D01*
X73370960Y-74864544D01*
X73375378Y-74869451D01*
X73375379Y-74869452D01*
X73438836Y-74939928D01*
X73498747Y-75006466D01*
X73653248Y-75118718D01*
X73659276Y-75121402D01*
X73659278Y-75121403D01*
X73821681Y-75193709D01*
X73827712Y-75196394D01*
X73921113Y-75216247D01*
X74008056Y-75234728D01*
X74008061Y-75234728D01*
X74014513Y-75236100D01*
X74205487Y-75236100D01*
X74211939Y-75234728D01*
X74211944Y-75234728D01*
X74298887Y-75216247D01*
X74392288Y-75196394D01*
X74398319Y-75193709D01*
X74560722Y-75121403D01*
X74560724Y-75121402D01*
X74566752Y-75118718D01*
X74721253Y-75006466D01*
X74781164Y-74939928D01*
X74844621Y-74869452D01*
X74844622Y-74869451D01*
X74849040Y-74864544D01*
X74915172Y-74750000D01*
X94286496Y-74750000D01*
X94306458Y-74939928D01*
X94365473Y-75121556D01*
X94460960Y-75286944D01*
X94465378Y-75291851D01*
X94465379Y-75291852D01*
X94483470Y-75311944D01*
X94588747Y-75428866D01*
X94743248Y-75541118D01*
X94749276Y-75543802D01*
X94749278Y-75543803D01*
X94897693Y-75609881D01*
X94917712Y-75618794D01*
X95011113Y-75638647D01*
X95098056Y-75657128D01*
X95098061Y-75657128D01*
X95104513Y-75658500D01*
X95295487Y-75658500D01*
X95301939Y-75657128D01*
X95301944Y-75657128D01*
X95388887Y-75638647D01*
X95482288Y-75618794D01*
X95502307Y-75609881D01*
X95650722Y-75543803D01*
X95650724Y-75543802D01*
X95656752Y-75541118D01*
X95696234Y-75512433D01*
X95763100Y-75488574D01*
X95832252Y-75504653D01*
X95844351Y-75512429D01*
X95918248Y-75566118D01*
X95924276Y-75568802D01*
X95924278Y-75568803D01*
X96039642Y-75620166D01*
X96092712Y-75643794D01*
X96186112Y-75663647D01*
X96273056Y-75682128D01*
X96273061Y-75682128D01*
X96279513Y-75683500D01*
X96470487Y-75683500D01*
X96476939Y-75682128D01*
X96476944Y-75682128D01*
X96563888Y-75663647D01*
X96657288Y-75643794D01*
X96710358Y-75620166D01*
X96825722Y-75568803D01*
X96825724Y-75568802D01*
X96831752Y-75566118D01*
X96866162Y-75541118D01*
X96916351Y-75504653D01*
X96986253Y-75453866D01*
X97114040Y-75311944D01*
X97209527Y-75146556D01*
X97268542Y-74964928D01*
X97271860Y-74933365D01*
X97287814Y-74781565D01*
X97288504Y-74775000D01*
X97268542Y-74585072D01*
X97209527Y-74403444D01*
X97114040Y-74238056D01*
X97096679Y-74218774D01*
X96990675Y-74101045D01*
X96990674Y-74101044D01*
X96986253Y-74096134D01*
X96831752Y-73983882D01*
X96825724Y-73981198D01*
X96825722Y-73981197D01*
X96663319Y-73908891D01*
X96663318Y-73908891D01*
X96657288Y-73906206D01*
X96552305Y-73883891D01*
X96476944Y-73867872D01*
X96476939Y-73867872D01*
X96470487Y-73866500D01*
X96279513Y-73866500D01*
X96273061Y-73867872D01*
X96273056Y-73867872D01*
X96197695Y-73883891D01*
X96092712Y-73906206D01*
X96086682Y-73908891D01*
X96086681Y-73908891D01*
X95924278Y-73981197D01*
X95924276Y-73981198D01*
X95918248Y-73983882D01*
X95912904Y-73987764D01*
X95912905Y-73987764D01*
X95878767Y-74012567D01*
X95811900Y-74036426D01*
X95742748Y-74020347D01*
X95730649Y-74012571D01*
X95656752Y-73958882D01*
X95650724Y-73956198D01*
X95650722Y-73956197D01*
X95488319Y-73883891D01*
X95488318Y-73883891D01*
X95482288Y-73881206D01*
X95388887Y-73861353D01*
X95301944Y-73842872D01*
X95301939Y-73842872D01*
X95295487Y-73841500D01*
X95104513Y-73841500D01*
X95098061Y-73842872D01*
X95098056Y-73842872D01*
X95011113Y-73861353D01*
X94917712Y-73881206D01*
X94911682Y-73883891D01*
X94911681Y-73883891D01*
X94749278Y-73956197D01*
X94749276Y-73956198D01*
X94743248Y-73958882D01*
X94737907Y-73962762D01*
X94737906Y-73962763D01*
X94703497Y-73987763D01*
X94588747Y-74071134D01*
X94584326Y-74076044D01*
X94584325Y-74076045D01*
X94475311Y-74197118D01*
X94460960Y-74213056D01*
X94424523Y-74276166D01*
X94391038Y-74334165D01*
X94365473Y-74378444D01*
X94306458Y-74560072D01*
X94305768Y-74566633D01*
X94305768Y-74566635D01*
X94292500Y-74692871D01*
X94286496Y-74750000D01*
X74915172Y-74750000D01*
X74941223Y-74704879D01*
X74941224Y-74704878D01*
X74944527Y-74699156D01*
X75003542Y-74517528D01*
X75023504Y-74327600D01*
X75003542Y-74137672D01*
X74944527Y-73956044D01*
X74939798Y-73947852D01*
X74852341Y-73796374D01*
X74849040Y-73790656D01*
X74721253Y-73648734D01*
X74566752Y-73536482D01*
X74560724Y-73533798D01*
X74560722Y-73533797D01*
X74398319Y-73461491D01*
X74398318Y-73461491D01*
X74392288Y-73458806D01*
X74382851Y-73456800D01*
X101854896Y-73456800D01*
X101855586Y-73463365D01*
X101870179Y-73602206D01*
X101874858Y-73646728D01*
X101933873Y-73828356D01*
X102029360Y-73993744D01*
X102033778Y-73998651D01*
X102033779Y-73998652D01*
X102114903Y-74088749D01*
X102157147Y-74135666D01*
X102311648Y-74247918D01*
X102317676Y-74250602D01*
X102317678Y-74250603D01*
X102461194Y-74314500D01*
X102486112Y-74325594D01*
X102579513Y-74345447D01*
X102666456Y-74363928D01*
X102666461Y-74363928D01*
X102672913Y-74365300D01*
X102863887Y-74365300D01*
X102870339Y-74363928D01*
X102870344Y-74363928D01*
X102957287Y-74345447D01*
X103050688Y-74325594D01*
X103075606Y-74314500D01*
X103219122Y-74250603D01*
X103219124Y-74250602D01*
X103225152Y-74247918D01*
X103265265Y-74218774D01*
X103338899Y-74165276D01*
X103405767Y-74141417D01*
X103474918Y-74157498D01*
X103487021Y-74165276D01*
X103530848Y-74197118D01*
X103536876Y-74199802D01*
X103536878Y-74199803D01*
X103699281Y-74272109D01*
X103705312Y-74274794D01*
X103798713Y-74294647D01*
X103885656Y-74313128D01*
X103885661Y-74313128D01*
X103892113Y-74314500D01*
X104083087Y-74314500D01*
X104089539Y-74313128D01*
X104089544Y-74313128D01*
X104176487Y-74294647D01*
X104269888Y-74274794D01*
X104275919Y-74272109D01*
X104438322Y-74199803D01*
X104438324Y-74199802D01*
X104444352Y-74197118D01*
X104598853Y-74084866D01*
X104603275Y-74079955D01*
X104722221Y-73947852D01*
X104722222Y-73947851D01*
X104726640Y-73942944D01*
X104796426Y-73822071D01*
X104818823Y-73783279D01*
X104818824Y-73783278D01*
X104822127Y-73777556D01*
X104881142Y-73595928D01*
X104901104Y-73406000D01*
X104886481Y-73266872D01*
X104881832Y-73222635D01*
X104881832Y-73222633D01*
X104881142Y-73216072D01*
X104822127Y-73034444D01*
X104726640Y-72869056D01*
X104644594Y-72777934D01*
X104603275Y-72732045D01*
X104603274Y-72732044D01*
X104598853Y-72727134D01*
X104474420Y-72636728D01*
X104449694Y-72618763D01*
X104449693Y-72618762D01*
X104444352Y-72614882D01*
X104438324Y-72612198D01*
X104438322Y-72612197D01*
X104275919Y-72539891D01*
X104275918Y-72539891D01*
X104269888Y-72537206D01*
X104174060Y-72516837D01*
X104089544Y-72498872D01*
X104089539Y-72498872D01*
X104083087Y-72497500D01*
X103892113Y-72497500D01*
X103885661Y-72498872D01*
X103885656Y-72498872D01*
X103801140Y-72516837D01*
X103705312Y-72537206D01*
X103699282Y-72539891D01*
X103699281Y-72539891D01*
X103536878Y-72612197D01*
X103536876Y-72612198D01*
X103530848Y-72614882D01*
X103525507Y-72618762D01*
X103525506Y-72618763D01*
X103417101Y-72697524D01*
X103350233Y-72721383D01*
X103281082Y-72705302D01*
X103268979Y-72697524D01*
X103230494Y-72669563D01*
X103230493Y-72669562D01*
X103225152Y-72665682D01*
X103219124Y-72662998D01*
X103219122Y-72662997D01*
X103056719Y-72590691D01*
X103056718Y-72590691D01*
X103050688Y-72588006D01*
X102956808Y-72568051D01*
X102870344Y-72549672D01*
X102870339Y-72549672D01*
X102863887Y-72548300D01*
X102672913Y-72548300D01*
X102666461Y-72549672D01*
X102666456Y-72549672D01*
X102579992Y-72568051D01*
X102486112Y-72588006D01*
X102480082Y-72590691D01*
X102480081Y-72590691D01*
X102317678Y-72662997D01*
X102317676Y-72662998D01*
X102311648Y-72665682D01*
X102157147Y-72777934D01*
X102152726Y-72782844D01*
X102152725Y-72782845D01*
X102079520Y-72864148D01*
X102029360Y-72919856D01*
X101933873Y-73085244D01*
X101874858Y-73266872D01*
X101874168Y-73273433D01*
X101874168Y-73273435D01*
X101866772Y-73343803D01*
X101854896Y-73456800D01*
X74382851Y-73456800D01*
X74276362Y-73434165D01*
X74211944Y-73420472D01*
X74211939Y-73420472D01*
X74205487Y-73419100D01*
X74014513Y-73419100D01*
X74008061Y-73420472D01*
X74008056Y-73420472D01*
X73943638Y-73434165D01*
X73827712Y-73458806D01*
X73821682Y-73461491D01*
X73821681Y-73461491D01*
X73659278Y-73533797D01*
X73659276Y-73533798D01*
X73653248Y-73536482D01*
X73498747Y-73648734D01*
X73370960Y-73790656D01*
X73367659Y-73796374D01*
X73280203Y-73947852D01*
X73275473Y-73956044D01*
X73216458Y-74137672D01*
X73196496Y-74327600D01*
X72258500Y-74327600D01*
X72258500Y-72100000D01*
X96936496Y-72100000D01*
X96956458Y-72289928D01*
X97015473Y-72471556D01*
X97110960Y-72636944D01*
X97115378Y-72641851D01*
X97115379Y-72641852D01*
X97180212Y-72713856D01*
X97238747Y-72778866D01*
X97244224Y-72782845D01*
X97370753Y-72874774D01*
X97393248Y-72891118D01*
X97399276Y-72893802D01*
X97399278Y-72893803D01*
X97474467Y-72927279D01*
X97567712Y-72968794D01*
X97661113Y-72988647D01*
X97748056Y-73007128D01*
X97748061Y-73007128D01*
X97754513Y-73008500D01*
X97945487Y-73008500D01*
X97951939Y-73007128D01*
X97951944Y-73007128D01*
X98038887Y-72988647D01*
X98132288Y-72968794D01*
X98225533Y-72927279D01*
X98300722Y-72893803D01*
X98300724Y-72893802D01*
X98306752Y-72891118D01*
X98329248Y-72874774D01*
X98455776Y-72782845D01*
X98461253Y-72778866D01*
X98519788Y-72713856D01*
X98584621Y-72641852D01*
X98584622Y-72641851D01*
X98589040Y-72636944D01*
X98684527Y-72471556D01*
X98743542Y-72289928D01*
X98763504Y-72100000D01*
X98743542Y-71910072D01*
X98684527Y-71728444D01*
X98589040Y-71563056D01*
X98582031Y-71555271D01*
X98465675Y-71426045D01*
X98465674Y-71426044D01*
X98461253Y-71421134D01*
X98306752Y-71308882D01*
X98300724Y-71306198D01*
X98300722Y-71306197D01*
X98138319Y-71233891D01*
X98138318Y-71233891D01*
X98132288Y-71231206D01*
X98038887Y-71211353D01*
X97951944Y-71192872D01*
X97951939Y-71192872D01*
X97945487Y-71191500D01*
X97754513Y-71191500D01*
X97748061Y-71192872D01*
X97748056Y-71192872D01*
X97661113Y-71211353D01*
X97567712Y-71231206D01*
X97561682Y-71233891D01*
X97561681Y-71233891D01*
X97399278Y-71306197D01*
X97399276Y-71306198D01*
X97393248Y-71308882D01*
X97238747Y-71421134D01*
X97234326Y-71426044D01*
X97234325Y-71426045D01*
X97117970Y-71555271D01*
X97110960Y-71563056D01*
X97015473Y-71728444D01*
X96956458Y-71910072D01*
X96936496Y-72100000D01*
X72258500Y-72100000D01*
X72258500Y-69375000D01*
X95136496Y-69375000D01*
X95137186Y-69381565D01*
X95142608Y-69433148D01*
X95156458Y-69564928D01*
X95215473Y-69746556D01*
X95310960Y-69911944D01*
X95438747Y-70053866D01*
X95593248Y-70166118D01*
X95599276Y-70168802D01*
X95599278Y-70168803D01*
X95761681Y-70241109D01*
X95767712Y-70243794D01*
X95861112Y-70263647D01*
X95948056Y-70282128D01*
X95948061Y-70282128D01*
X95954513Y-70283500D01*
X96145487Y-70283500D01*
X96151939Y-70282128D01*
X96151944Y-70282128D01*
X96238888Y-70263647D01*
X96332288Y-70243794D01*
X96338319Y-70241109D01*
X96500722Y-70168803D01*
X96500724Y-70168802D01*
X96506752Y-70166118D01*
X96661253Y-70053866D01*
X96789040Y-69911944D01*
X96795936Y-69900000D01*
X97511496Y-69900000D01*
X97512186Y-69906565D01*
X97527152Y-70048955D01*
X97531458Y-70089928D01*
X97590473Y-70271556D01*
X97593776Y-70277278D01*
X97593777Y-70277279D01*
X97617098Y-70317672D01*
X97685960Y-70436944D01*
X97813747Y-70578866D01*
X97968248Y-70691118D01*
X97974276Y-70693802D01*
X97974278Y-70693803D01*
X98136681Y-70766109D01*
X98142712Y-70768794D01*
X98236112Y-70788647D01*
X98323056Y-70807128D01*
X98323061Y-70807128D01*
X98329513Y-70808500D01*
X98520487Y-70808500D01*
X98526939Y-70807128D01*
X98526944Y-70807128D01*
X98613888Y-70788647D01*
X98707288Y-70768794D01*
X98713319Y-70766109D01*
X98875722Y-70693803D01*
X98875724Y-70693802D01*
X98881752Y-70691118D01*
X99036253Y-70578866D01*
X99100421Y-70507600D01*
X105944296Y-70507600D01*
X105964258Y-70697528D01*
X106023273Y-70879156D01*
X106118760Y-71044544D01*
X106246547Y-71186466D01*
X106401048Y-71298718D01*
X106407076Y-71301402D01*
X106407078Y-71301403D01*
X106534297Y-71358044D01*
X106575512Y-71376394D01*
X106635642Y-71389175D01*
X106755856Y-71414728D01*
X106755861Y-71414728D01*
X106762313Y-71416100D01*
X106904109Y-71416100D01*
X106972230Y-71436102D01*
X107018723Y-71489758D01*
X107029419Y-71555269D01*
X107011096Y-71729600D01*
X107011786Y-71736165D01*
X107025972Y-71871134D01*
X107031058Y-71919528D01*
X107090073Y-72101156D01*
X107120179Y-72153301D01*
X107136916Y-72222296D01*
X107113695Y-72289388D01*
X107057888Y-72333275D01*
X107011059Y-72342300D01*
X106914713Y-72342300D01*
X106908261Y-72343672D01*
X106908256Y-72343672D01*
X106831103Y-72360072D01*
X106727912Y-72382006D01*
X106721882Y-72384691D01*
X106721881Y-72384691D01*
X106559478Y-72456997D01*
X106559476Y-72456998D01*
X106553448Y-72459682D01*
X106398947Y-72571934D01*
X106394526Y-72576844D01*
X106394525Y-72576845D01*
X106311042Y-72669563D01*
X106271160Y-72713856D01*
X106175673Y-72879244D01*
X106116658Y-73060872D01*
X106096696Y-73250800D01*
X106097386Y-73257365D01*
X106114353Y-73418794D01*
X106116658Y-73440728D01*
X106175673Y-73622356D01*
X106178976Y-73628078D01*
X106178977Y-73628079D01*
X106189744Y-73646728D01*
X106271160Y-73787744D01*
X106275578Y-73792651D01*
X106275579Y-73792652D01*
X106380241Y-73908891D01*
X106398947Y-73929666D01*
X106553448Y-74041918D01*
X106559476Y-74044602D01*
X106559478Y-74044603D01*
X106721881Y-74116909D01*
X106727912Y-74119594D01*
X106812962Y-74137672D01*
X106908256Y-74157928D01*
X106908261Y-74157928D01*
X106914713Y-74159300D01*
X107105687Y-74159300D01*
X107112139Y-74157928D01*
X107112144Y-74157928D01*
X107207438Y-74137672D01*
X107292488Y-74119594D01*
X107298519Y-74116909D01*
X107460922Y-74044603D01*
X107460924Y-74044602D01*
X107466952Y-74041918D01*
X107621453Y-73929666D01*
X107640159Y-73908891D01*
X107744821Y-73792652D01*
X107744822Y-73792651D01*
X107749240Y-73787744D01*
X107830656Y-73646728D01*
X107841423Y-73628079D01*
X107841424Y-73628078D01*
X107844727Y-73622356D01*
X107903742Y-73440728D01*
X107906048Y-73418794D01*
X107923014Y-73257365D01*
X107923704Y-73250800D01*
X107903742Y-73060872D01*
X107844727Y-72879244D01*
X107814621Y-72827099D01*
X107797884Y-72758104D01*
X107821105Y-72691012D01*
X107876912Y-72647125D01*
X107923741Y-72638100D01*
X108020087Y-72638100D01*
X108026539Y-72636728D01*
X108026544Y-72636728D01*
X108141950Y-72612197D01*
X108206888Y-72598394D01*
X108212919Y-72595709D01*
X108315584Y-72550000D01*
X109761496Y-72550000D01*
X109762186Y-72556565D01*
X109773655Y-72665682D01*
X109781458Y-72739928D01*
X109840473Y-72921556D01*
X109935960Y-73086944D01*
X109940378Y-73091851D01*
X109940379Y-73091852D01*
X110059325Y-73223955D01*
X110063747Y-73228866D01*
X110218248Y-73341118D01*
X110224276Y-73343802D01*
X110224278Y-73343803D01*
X110363976Y-73406000D01*
X110392712Y-73418794D01*
X110486112Y-73438647D01*
X110573056Y-73457128D01*
X110573061Y-73457128D01*
X110579513Y-73458500D01*
X110770487Y-73458500D01*
X110776939Y-73457128D01*
X110776944Y-73457128D01*
X110863888Y-73438647D01*
X110957288Y-73418794D01*
X110986024Y-73406000D01*
X111125722Y-73343803D01*
X111125724Y-73343802D01*
X111131752Y-73341118D01*
X111286253Y-73228866D01*
X111290675Y-73223955D01*
X111409621Y-73091852D01*
X111409622Y-73091851D01*
X111414040Y-73086944D01*
X111509527Y-72921556D01*
X111568542Y-72739928D01*
X111576346Y-72665682D01*
X111587814Y-72556565D01*
X111588504Y-72550000D01*
X111585426Y-72520718D01*
X111569232Y-72366635D01*
X111569232Y-72366633D01*
X111568542Y-72360072D01*
X111509527Y-72178444D01*
X111414040Y-72013056D01*
X111286253Y-71871134D01*
X111131752Y-71758882D01*
X111125724Y-71756198D01*
X111125722Y-71756197D01*
X110963319Y-71683891D01*
X110963318Y-71683891D01*
X110957288Y-71681206D01*
X110863888Y-71661353D01*
X110776944Y-71642872D01*
X110776939Y-71642872D01*
X110770487Y-71641500D01*
X110579513Y-71641500D01*
X110573061Y-71642872D01*
X110573056Y-71642872D01*
X110486112Y-71661353D01*
X110392712Y-71681206D01*
X110386682Y-71683891D01*
X110386681Y-71683891D01*
X110224278Y-71756197D01*
X110224276Y-71756198D01*
X110218248Y-71758882D01*
X110063747Y-71871134D01*
X109935960Y-72013056D01*
X109840473Y-72178444D01*
X109781458Y-72360072D01*
X109780768Y-72366633D01*
X109780768Y-72366635D01*
X109764574Y-72520718D01*
X109761496Y-72550000D01*
X108315584Y-72550000D01*
X108375322Y-72523403D01*
X108375324Y-72523402D01*
X108381352Y-72520718D01*
X108535853Y-72408466D01*
X108663640Y-72266544D01*
X108759127Y-72101156D01*
X108818142Y-71919528D01*
X108823229Y-71871134D01*
X108837414Y-71736165D01*
X108838104Y-71729600D01*
X108828989Y-71642872D01*
X108818832Y-71546235D01*
X108818832Y-71546233D01*
X108818142Y-71539672D01*
X108759127Y-71358044D01*
X108663640Y-71192656D01*
X108535853Y-71050734D01*
X108381352Y-70938482D01*
X108375324Y-70935798D01*
X108375322Y-70935797D01*
X108212919Y-70863491D01*
X108212918Y-70863491D01*
X108206888Y-70860806D01*
X108113487Y-70840953D01*
X108026544Y-70822472D01*
X108026539Y-70822472D01*
X108020087Y-70821100D01*
X107878291Y-70821100D01*
X107810170Y-70801098D01*
X107763677Y-70747442D01*
X107752981Y-70681931D01*
X107771304Y-70507600D01*
X107751342Y-70317672D01*
X107692327Y-70136044D01*
X107669327Y-70096206D01*
X107600141Y-69976374D01*
X107599348Y-69975000D01*
X110036496Y-69975000D01*
X110056458Y-70164928D01*
X110115473Y-70346556D01*
X110210960Y-70511944D01*
X110338747Y-70653866D01*
X110493248Y-70766118D01*
X110499276Y-70768802D01*
X110499278Y-70768803D01*
X110661681Y-70841109D01*
X110667712Y-70843794D01*
X110747747Y-70860806D01*
X110848056Y-70882128D01*
X110848061Y-70882128D01*
X110854513Y-70883500D01*
X111045487Y-70883500D01*
X111051939Y-70882128D01*
X111051944Y-70882128D01*
X111152253Y-70860806D01*
X111232288Y-70843794D01*
X111238319Y-70841109D01*
X111400722Y-70768803D01*
X111400724Y-70768802D01*
X111406752Y-70766118D01*
X111561253Y-70653866D01*
X111689040Y-70511944D01*
X111784527Y-70346556D01*
X111843542Y-70164928D01*
X111863504Y-69975000D01*
X111862532Y-69965748D01*
X111844232Y-69791635D01*
X111844232Y-69791633D01*
X111843542Y-69785072D01*
X111784527Y-69603444D01*
X111689040Y-69438056D01*
X111561253Y-69296134D01*
X111406752Y-69183882D01*
X111400724Y-69181198D01*
X111400722Y-69181197D01*
X111238319Y-69108891D01*
X111238318Y-69108891D01*
X111232288Y-69106206D01*
X111138887Y-69086353D01*
X111051944Y-69067872D01*
X111051939Y-69067872D01*
X111045487Y-69066500D01*
X110854513Y-69066500D01*
X110848061Y-69067872D01*
X110848056Y-69067872D01*
X110761113Y-69086353D01*
X110667712Y-69106206D01*
X110661682Y-69108891D01*
X110661681Y-69108891D01*
X110499278Y-69181197D01*
X110499276Y-69181198D01*
X110493248Y-69183882D01*
X110338747Y-69296134D01*
X110210960Y-69438056D01*
X110115473Y-69603444D01*
X110056458Y-69785072D01*
X110055768Y-69791633D01*
X110055768Y-69791635D01*
X110037468Y-69965748D01*
X110036496Y-69975000D01*
X107599348Y-69975000D01*
X107596840Y-69970656D01*
X107469053Y-69828734D01*
X107314552Y-69716482D01*
X107308524Y-69713798D01*
X107308522Y-69713797D01*
X107146119Y-69641491D01*
X107146118Y-69641491D01*
X107140088Y-69638806D01*
X107046688Y-69618953D01*
X106959744Y-69600472D01*
X106959739Y-69600472D01*
X106953287Y-69599100D01*
X106762313Y-69599100D01*
X106755861Y-69600472D01*
X106755856Y-69600472D01*
X106668912Y-69618953D01*
X106575512Y-69638806D01*
X106569482Y-69641491D01*
X106569481Y-69641491D01*
X106407078Y-69713797D01*
X106407076Y-69713798D01*
X106401048Y-69716482D01*
X106246547Y-69828734D01*
X106118760Y-69970656D01*
X106115459Y-69976374D01*
X106046274Y-70096206D01*
X106023273Y-70136044D01*
X105964258Y-70317672D01*
X105944296Y-70507600D01*
X99100421Y-70507600D01*
X99164040Y-70436944D01*
X99232902Y-70317672D01*
X99256223Y-70277279D01*
X99256224Y-70277278D01*
X99259527Y-70271556D01*
X99318542Y-70089928D01*
X99322849Y-70048955D01*
X99337814Y-69906565D01*
X99338504Y-69900000D01*
X99318542Y-69710072D01*
X99259527Y-69528444D01*
X99164040Y-69363056D01*
X99036253Y-69221134D01*
X98881752Y-69108882D01*
X98875724Y-69106198D01*
X98875722Y-69106197D01*
X98713319Y-69033891D01*
X98713318Y-69033891D01*
X98707288Y-69031206D01*
X98606247Y-69009729D01*
X98526944Y-68992872D01*
X98526939Y-68992872D01*
X98520487Y-68991500D01*
X98329513Y-68991500D01*
X98323061Y-68992872D01*
X98323056Y-68992872D01*
X98243753Y-69009729D01*
X98142712Y-69031206D01*
X98136682Y-69033891D01*
X98136681Y-69033891D01*
X97974278Y-69106197D01*
X97974276Y-69106198D01*
X97968248Y-69108882D01*
X97813747Y-69221134D01*
X97685960Y-69363056D01*
X97590473Y-69528444D01*
X97531458Y-69710072D01*
X97511496Y-69900000D01*
X96795936Y-69900000D01*
X96884527Y-69746556D01*
X96943542Y-69564928D01*
X96957393Y-69433148D01*
X96962814Y-69381565D01*
X96963504Y-69375000D01*
X96954807Y-69292251D01*
X96944232Y-69191635D01*
X96944232Y-69191633D01*
X96943542Y-69185072D01*
X96884527Y-69003444D01*
X96877406Y-68991109D01*
X96834109Y-68916118D01*
X96789040Y-68838056D01*
X96761752Y-68807749D01*
X96665675Y-68701045D01*
X96665674Y-68701044D01*
X96661253Y-68696134D01*
X96531601Y-68601936D01*
X96488247Y-68545714D01*
X96482172Y-68474977D01*
X96515304Y-68412186D01*
X96531601Y-68398064D01*
X96655909Y-68307749D01*
X96655911Y-68307747D01*
X96661253Y-68303866D01*
X96789040Y-68161944D01*
X96810370Y-68125000D01*
X107236496Y-68125000D01*
X107256458Y-68314928D01*
X107315473Y-68496556D01*
X107410960Y-68661944D01*
X107415378Y-68666851D01*
X107415379Y-68666852D01*
X107534325Y-68798955D01*
X107538747Y-68803866D01*
X107693248Y-68916118D01*
X107699276Y-68918802D01*
X107699278Y-68918803D01*
X107861681Y-68991109D01*
X107867712Y-68993794D01*
X107942680Y-69009729D01*
X108048056Y-69032128D01*
X108048061Y-69032128D01*
X108054513Y-69033500D01*
X108245487Y-69033500D01*
X108251939Y-69032128D01*
X108251944Y-69032128D01*
X108357320Y-69009729D01*
X108432288Y-68993794D01*
X108438319Y-68991109D01*
X108600722Y-68918803D01*
X108600724Y-68918802D01*
X108606752Y-68916118D01*
X108761253Y-68803866D01*
X108765675Y-68798955D01*
X108884621Y-68666852D01*
X108884622Y-68666851D01*
X108889040Y-68661944D01*
X108984527Y-68496556D01*
X109043542Y-68314928D01*
X109063504Y-68125000D01*
X109043542Y-67935072D01*
X108984527Y-67753444D01*
X108889040Y-67588056D01*
X108761253Y-67446134D01*
X108606752Y-67333882D01*
X108600724Y-67331198D01*
X108600722Y-67331197D01*
X108438319Y-67258891D01*
X108438318Y-67258891D01*
X108432288Y-67256206D01*
X108338888Y-67236353D01*
X108251944Y-67217872D01*
X108251939Y-67217872D01*
X108245487Y-67216500D01*
X108054513Y-67216500D01*
X108048061Y-67217872D01*
X108048056Y-67217872D01*
X107961112Y-67236353D01*
X107867712Y-67256206D01*
X107861682Y-67258891D01*
X107861681Y-67258891D01*
X107699278Y-67331197D01*
X107699276Y-67331198D01*
X107693248Y-67333882D01*
X107538747Y-67446134D01*
X107410960Y-67588056D01*
X107315473Y-67753444D01*
X107256458Y-67935072D01*
X107236496Y-68125000D01*
X96810370Y-68125000D01*
X96884527Y-67996556D01*
X96943542Y-67814928D01*
X96963504Y-67625000D01*
X96943542Y-67435072D01*
X96884527Y-67253444D01*
X96863990Y-67217872D01*
X96792341Y-67093774D01*
X96789040Y-67088056D01*
X96771697Y-67068794D01*
X96665675Y-66951045D01*
X96665674Y-66951044D01*
X96661253Y-66946134D01*
X96506752Y-66833882D01*
X96500724Y-66831198D01*
X96500722Y-66831197D01*
X96338319Y-66758891D01*
X96338318Y-66758891D01*
X96332288Y-66756206D01*
X96238887Y-66736353D01*
X96151944Y-66717872D01*
X96151939Y-66717872D01*
X96145487Y-66716500D01*
X95954513Y-66716500D01*
X95948061Y-66717872D01*
X95948056Y-66717872D01*
X95861113Y-66736353D01*
X95767712Y-66756206D01*
X95761682Y-66758891D01*
X95761681Y-66758891D01*
X95599278Y-66831197D01*
X95599276Y-66831198D01*
X95593248Y-66833882D01*
X95438747Y-66946134D01*
X95434326Y-66951044D01*
X95434325Y-66951045D01*
X95328304Y-67068794D01*
X95310960Y-67088056D01*
X95307659Y-67093774D01*
X95236011Y-67217872D01*
X95215473Y-67253444D01*
X95156458Y-67435072D01*
X95136496Y-67625000D01*
X95156458Y-67814928D01*
X95215473Y-67996556D01*
X95310960Y-68161944D01*
X95438747Y-68303866D01*
X95444089Y-68307747D01*
X95444091Y-68307749D01*
X95568399Y-68398064D01*
X95611753Y-68454286D01*
X95617828Y-68525023D01*
X95584696Y-68587814D01*
X95568400Y-68601936D01*
X95438747Y-68696134D01*
X95434326Y-68701044D01*
X95434325Y-68701045D01*
X95338249Y-68807749D01*
X95310960Y-68838056D01*
X95265891Y-68916118D01*
X95222595Y-68991109D01*
X95215473Y-69003444D01*
X95156458Y-69185072D01*
X95155768Y-69191633D01*
X95155768Y-69191635D01*
X95145193Y-69292251D01*
X95136496Y-69375000D01*
X72258500Y-69375000D01*
X72258500Y-66200000D01*
X99186496Y-66200000D01*
X99206458Y-66389928D01*
X99265473Y-66571556D01*
X99360960Y-66736944D01*
X99365378Y-66741851D01*
X99365379Y-66741852D01*
X99380721Y-66758891D01*
X99488747Y-66878866D01*
X99643248Y-66991118D01*
X99649276Y-66993802D01*
X99649278Y-66993803D01*
X99792156Y-67057416D01*
X99817712Y-67068794D01*
X99908332Y-67088056D01*
X99998056Y-67107128D01*
X99998061Y-67107128D01*
X100004513Y-67108500D01*
X100195487Y-67108500D01*
X100201939Y-67107128D01*
X100201944Y-67107128D01*
X100291668Y-67088056D01*
X100382288Y-67068794D01*
X100407844Y-67057416D01*
X100550722Y-66993803D01*
X100550724Y-66993802D01*
X100556752Y-66991118D01*
X100711253Y-66878866D01*
X100819279Y-66758891D01*
X100834621Y-66741852D01*
X100834622Y-66741851D01*
X100839040Y-66736944D01*
X100842339Y-66731231D01*
X100842342Y-66731226D01*
X100900687Y-66630169D01*
X100952070Y-66581176D01*
X101021783Y-66567740D01*
X101087694Y-66594127D01*
X101118924Y-66630167D01*
X101173210Y-66724194D01*
X101177628Y-66729101D01*
X101177629Y-66729102D01*
X101184690Y-66736944D01*
X101300997Y-66866116D01*
X101455498Y-66978368D01*
X101461526Y-66981052D01*
X101461528Y-66981053D01*
X101623931Y-67053359D01*
X101629962Y-67056044D01*
X101723362Y-67075897D01*
X101810306Y-67094378D01*
X101810311Y-67094378D01*
X101816763Y-67095750D01*
X102007737Y-67095750D01*
X102014189Y-67094378D01*
X102014194Y-67094378D01*
X102101138Y-67075897D01*
X102194538Y-67056044D01*
X102200569Y-67053359D01*
X102362972Y-66981053D01*
X102362974Y-66981052D01*
X102369002Y-66978368D01*
X102523503Y-66866116D01*
X102639810Y-66736944D01*
X102646871Y-66729102D01*
X102646872Y-66729101D01*
X102651290Y-66724194D01*
X102741619Y-66567740D01*
X102743473Y-66564529D01*
X102743474Y-66564528D01*
X102746777Y-66558806D01*
X102805792Y-66377178D01*
X102825754Y-66187250D01*
X102805792Y-65997322D01*
X102749615Y-65824428D01*
X102747587Y-65753462D01*
X102784250Y-65692664D01*
X102795387Y-65683557D01*
X102830359Y-65658148D01*
X102836253Y-65653866D01*
X102857022Y-65630800D01*
X105080696Y-65630800D01*
X105100658Y-65820728D01*
X105159673Y-66002356D01*
X105255160Y-66167744D01*
X105259578Y-66172651D01*
X105259579Y-66172652D01*
X105341678Y-66263832D01*
X105382947Y-66309666D01*
X105466836Y-66370615D01*
X105502059Y-66396206D01*
X105537448Y-66421918D01*
X105543476Y-66424602D01*
X105543478Y-66424603D01*
X105705881Y-66496909D01*
X105711912Y-66499594D01*
X105805313Y-66519447D01*
X105892256Y-66537928D01*
X105892261Y-66537928D01*
X105898713Y-66539300D01*
X106089687Y-66539300D01*
X106096139Y-66537928D01*
X106096144Y-66537928D01*
X106183087Y-66519447D01*
X106276488Y-66499594D01*
X106282519Y-66496909D01*
X106444922Y-66424603D01*
X106444924Y-66424602D01*
X106450952Y-66421918D01*
X106486342Y-66396206D01*
X106521564Y-66370615D01*
X106605453Y-66309666D01*
X106646722Y-66263832D01*
X106728821Y-66172652D01*
X106728822Y-66172651D01*
X106733240Y-66167744D01*
X106828727Y-66002356D01*
X106887742Y-65820728D01*
X106907704Y-65630800D01*
X106887742Y-65440872D01*
X106828727Y-65259244D01*
X106733240Y-65093856D01*
X106605453Y-64951934D01*
X106501122Y-64876133D01*
X106457769Y-64819912D01*
X106451694Y-64749176D01*
X106484825Y-64686384D01*
X106546645Y-64651473D01*
X106601381Y-64650951D01*
X106748056Y-64682128D01*
X106748061Y-64682128D01*
X106754513Y-64683500D01*
X106945487Y-64683500D01*
X106951939Y-64682128D01*
X106951944Y-64682128D01*
X107038887Y-64663647D01*
X107132288Y-64643794D01*
X107208800Y-64609729D01*
X107300722Y-64568803D01*
X107300724Y-64568802D01*
X107306752Y-64566118D01*
X107461253Y-64453866D01*
X107589040Y-64311944D01*
X107684527Y-64146556D01*
X107743542Y-63964928D01*
X107763504Y-63775000D01*
X107758903Y-63731225D01*
X107744232Y-63591635D01*
X107744232Y-63591633D01*
X107743542Y-63585072D01*
X107684527Y-63403444D01*
X107589040Y-63238056D01*
X107570216Y-63217150D01*
X125568482Y-63217150D01*
X125568998Y-63223294D01*
X125569729Y-63232000D01*
X125584126Y-63403444D01*
X125585852Y-63424004D01*
X125643069Y-63623545D01*
X125645887Y-63629027D01*
X125645888Y-63629031D01*
X125698409Y-63731225D01*
X125737955Y-63808173D01*
X125866894Y-63970854D01*
X125871581Y-63974843D01*
X125871584Y-63974846D01*
X125903778Y-64002245D01*
X126024976Y-64105392D01*
X126206180Y-64206664D01*
X126403603Y-64270810D01*
X126609725Y-64295389D01*
X126615860Y-64294917D01*
X126615862Y-64294917D01*
X126810555Y-64279936D01*
X126810560Y-64279935D01*
X126816696Y-64279463D01*
X126822626Y-64277807D01*
X126822628Y-64277807D01*
X126916664Y-64251551D01*
X127016632Y-64223640D01*
X127095340Y-64183882D01*
X127196416Y-64132825D01*
X127196418Y-64132824D01*
X127201917Y-64130046D01*
X127365495Y-64002245D01*
X127501133Y-63845106D01*
X127603667Y-63664614D01*
X127669190Y-63467644D01*
X127695207Y-63261698D01*
X127695428Y-63245848D01*
X127695573Y-63235522D01*
X127695573Y-63235518D01*
X127695622Y-63232000D01*
X127685490Y-63128671D01*
X127675966Y-63031534D01*
X127675965Y-63031531D01*
X127675365Y-63025408D01*
X127615368Y-62826685D01*
X127585209Y-62769965D01*
X127520809Y-62648847D01*
X127520808Y-62648845D01*
X127517913Y-62643401D01*
X127455760Y-62567194D01*
X127390610Y-62487311D01*
X127390607Y-62487308D01*
X127386715Y-62482536D01*
X127379770Y-62476790D01*
X127231518Y-62354145D01*
X127231519Y-62354145D01*
X127226770Y-62350217D01*
X127221353Y-62347288D01*
X127221350Y-62347286D01*
X127049590Y-62254416D01*
X127049585Y-62254414D01*
X127044170Y-62251486D01*
X126845871Y-62190102D01*
X126839746Y-62189458D01*
X126839745Y-62189458D01*
X126645554Y-62169048D01*
X126645552Y-62169048D01*
X126639425Y-62168404D01*
X126553515Y-62176223D01*
X126438836Y-62186659D01*
X126438833Y-62186660D01*
X126432697Y-62187218D01*
X126426791Y-62188956D01*
X126426787Y-62188957D01*
X126316053Y-62221548D01*
X126233560Y-62245827D01*
X126049600Y-62341999D01*
X125887823Y-62472071D01*
X125883865Y-62476788D01*
X125883863Y-62476790D01*
X125879042Y-62482536D01*
X125754391Y-62631089D01*
X125751427Y-62636481D01*
X125751424Y-62636485D01*
X125747622Y-62643401D01*
X125654387Y-62812995D01*
X125591621Y-63010861D01*
X125590935Y-63016978D01*
X125590934Y-63016982D01*
X125572952Y-63177301D01*
X125568482Y-63217150D01*
X107570216Y-63217150D01*
X107546221Y-63190500D01*
X107465675Y-63101045D01*
X107465674Y-63101044D01*
X107461253Y-63096134D01*
X107306752Y-62983882D01*
X107300724Y-62981198D01*
X107300722Y-62981197D01*
X107138319Y-62908891D01*
X107138318Y-62908891D01*
X107132288Y-62906206D01*
X107038888Y-62886353D01*
X106951944Y-62867872D01*
X106951939Y-62867872D01*
X106945487Y-62866500D01*
X106754513Y-62866500D01*
X106748061Y-62867872D01*
X106748056Y-62867872D01*
X106661112Y-62886353D01*
X106567712Y-62906206D01*
X106561682Y-62908891D01*
X106561681Y-62908891D01*
X106399278Y-62981197D01*
X106399276Y-62981198D01*
X106393248Y-62983882D01*
X106238747Y-63096134D01*
X106234326Y-63101044D01*
X106234325Y-63101045D01*
X106153780Y-63190500D01*
X106110960Y-63238056D01*
X106015473Y-63403444D01*
X105956458Y-63585072D01*
X105955768Y-63591633D01*
X105955768Y-63591635D01*
X105941097Y-63731225D01*
X105936496Y-63775000D01*
X105956458Y-63964928D01*
X106015473Y-64146556D01*
X106110960Y-64311944D01*
X106238747Y-64453866D01*
X106244089Y-64457747D01*
X106244091Y-64457749D01*
X106249229Y-64461482D01*
X106343078Y-64529667D01*
X106386431Y-64585888D01*
X106392506Y-64656624D01*
X106359375Y-64719416D01*
X106297555Y-64754327D01*
X106242819Y-64754849D01*
X106096144Y-64723672D01*
X106096139Y-64723672D01*
X106089687Y-64722300D01*
X105898713Y-64722300D01*
X105892261Y-64723672D01*
X105892256Y-64723672D01*
X105805312Y-64742153D01*
X105711912Y-64762006D01*
X105705882Y-64764691D01*
X105705881Y-64764691D01*
X105543478Y-64836997D01*
X105543476Y-64836998D01*
X105537448Y-64839682D01*
X105382947Y-64951934D01*
X105255160Y-65093856D01*
X105159673Y-65259244D01*
X105100658Y-65440872D01*
X105080696Y-65630800D01*
X102857022Y-65630800D01*
X102862933Y-65624235D01*
X102959621Y-65516852D01*
X102959622Y-65516851D01*
X102964040Y-65511944D01*
X103059527Y-65346556D01*
X103118542Y-65164928D01*
X103129290Y-65062672D01*
X103137814Y-64981565D01*
X103138504Y-64975000D01*
X103128113Y-64876134D01*
X103119232Y-64791635D01*
X103119232Y-64791633D01*
X103118542Y-64785072D01*
X103059527Y-64603444D01*
X103039710Y-64569119D01*
X102973168Y-64453866D01*
X102964040Y-64438056D01*
X102836253Y-64296134D01*
X102681752Y-64183882D01*
X102675724Y-64181198D01*
X102675722Y-64181197D01*
X102513319Y-64108891D01*
X102513318Y-64108891D01*
X102507288Y-64106206D01*
X102413887Y-64086353D01*
X102326944Y-64067872D01*
X102326939Y-64067872D01*
X102320487Y-64066500D01*
X102129513Y-64066500D01*
X102123061Y-64067872D01*
X102123056Y-64067872D01*
X102036113Y-64086353D01*
X101942712Y-64106206D01*
X101936682Y-64108891D01*
X101936681Y-64108891D01*
X101774278Y-64181197D01*
X101774276Y-64181198D01*
X101768248Y-64183882D01*
X101613747Y-64296134D01*
X101609326Y-64301044D01*
X101609325Y-64301045D01*
X101569939Y-64344788D01*
X101509494Y-64382028D01*
X101450107Y-64383725D01*
X101398141Y-64372679D01*
X101270144Y-64345472D01*
X101270139Y-64345472D01*
X101263687Y-64344100D01*
X101072713Y-64344100D01*
X101066261Y-64345472D01*
X101066256Y-64345472D01*
X100979313Y-64363953D01*
X100885912Y-64383806D01*
X100879882Y-64386491D01*
X100879881Y-64386491D01*
X100717478Y-64458797D01*
X100717476Y-64458798D01*
X100711448Y-64461482D01*
X100556947Y-64573734D01*
X100552526Y-64578644D01*
X100552525Y-64578645D01*
X100455517Y-64686384D01*
X100429160Y-64715656D01*
X100333673Y-64881044D01*
X100274658Y-65062672D01*
X100273969Y-65069231D01*
X100273968Y-65069234D01*
X100262466Y-65178671D01*
X100235453Y-65244327D01*
X100177231Y-65284957D01*
X100137156Y-65291500D01*
X100004513Y-65291500D01*
X99998061Y-65292872D01*
X99998056Y-65292872D01*
X99911113Y-65311353D01*
X99817712Y-65331206D01*
X99811682Y-65333891D01*
X99811681Y-65333891D01*
X99649278Y-65406197D01*
X99649276Y-65406198D01*
X99643248Y-65408882D01*
X99637907Y-65412762D01*
X99637906Y-65412763D01*
X99599218Y-65440872D01*
X99488747Y-65521134D01*
X99484326Y-65526044D01*
X99484325Y-65526045D01*
X99373657Y-65648955D01*
X99360960Y-65663056D01*
X99265473Y-65828444D01*
X99206458Y-66010072D01*
X99186496Y-66200000D01*
X72258500Y-66200000D01*
X72258500Y-63277000D01*
X92690502Y-63277000D01*
X92710457Y-63505087D01*
X92711881Y-63510400D01*
X92711881Y-63510402D01*
X92733648Y-63591635D01*
X92769716Y-63726243D01*
X92772039Y-63731224D01*
X92772039Y-63731225D01*
X92864151Y-63928762D01*
X92864154Y-63928767D01*
X92866477Y-63933749D01*
X92914439Y-64002245D01*
X92959431Y-64066500D01*
X92997802Y-64121300D01*
X93159700Y-64283198D01*
X93164208Y-64286355D01*
X93164211Y-64286357D01*
X93178174Y-64296134D01*
X93347251Y-64414523D01*
X93352233Y-64416846D01*
X93352238Y-64416849D01*
X93456278Y-64465363D01*
X93554757Y-64511284D01*
X93560065Y-64512706D01*
X93560067Y-64512707D01*
X93770598Y-64569119D01*
X93770600Y-64569119D01*
X93775913Y-64570543D01*
X94004000Y-64590498D01*
X94232087Y-64570543D01*
X94237400Y-64569119D01*
X94237402Y-64569119D01*
X94447933Y-64512707D01*
X94447935Y-64512706D01*
X94453243Y-64511284D01*
X94551722Y-64465363D01*
X94655762Y-64416849D01*
X94655767Y-64416846D01*
X94660749Y-64414523D01*
X94829826Y-64296134D01*
X94843789Y-64286357D01*
X94843792Y-64286355D01*
X94848300Y-64283198D01*
X95010198Y-64121300D01*
X95048570Y-64066500D01*
X95093561Y-64002245D01*
X95141523Y-63933749D01*
X95143846Y-63928767D01*
X95143849Y-63928762D01*
X95235961Y-63731225D01*
X95235961Y-63731224D01*
X95238284Y-63726243D01*
X95274353Y-63591635D01*
X95296119Y-63510402D01*
X95296119Y-63510400D01*
X95297543Y-63505087D01*
X95317498Y-63277000D01*
X95297543Y-63048913D01*
X95280118Y-62983882D01*
X95239707Y-62833067D01*
X95239706Y-62833065D01*
X95238284Y-62827757D01*
X95234139Y-62818868D01*
X95208274Y-62763400D01*
X104039296Y-62763400D01*
X104039986Y-62769965D01*
X104054588Y-62908891D01*
X104059258Y-62953328D01*
X104118273Y-63134956D01*
X104213760Y-63300344D01*
X104218178Y-63305251D01*
X104218179Y-63305252D01*
X104319574Y-63417863D01*
X104341547Y-63442266D01*
X104496048Y-63554518D01*
X104502076Y-63557202D01*
X104502078Y-63557203D01*
X104664481Y-63629509D01*
X104670512Y-63632194D01*
X104763913Y-63652047D01*
X104850856Y-63670528D01*
X104850861Y-63670528D01*
X104857313Y-63671900D01*
X105048287Y-63671900D01*
X105054739Y-63670528D01*
X105054744Y-63670528D01*
X105141687Y-63652047D01*
X105235088Y-63632194D01*
X105241119Y-63629509D01*
X105403522Y-63557203D01*
X105403524Y-63557202D01*
X105409552Y-63554518D01*
X105564053Y-63442266D01*
X105586026Y-63417863D01*
X105687421Y-63305252D01*
X105687422Y-63305251D01*
X105691840Y-63300344D01*
X105787327Y-63134956D01*
X105846342Y-62953328D01*
X105851013Y-62908891D01*
X105865614Y-62769965D01*
X105866304Y-62763400D01*
X105853692Y-62643401D01*
X105847032Y-62580035D01*
X105847032Y-62580033D01*
X105846342Y-62573472D01*
X105787327Y-62391844D01*
X105765562Y-62354145D01*
X105705239Y-62249664D01*
X105691840Y-62226456D01*
X105616367Y-62142634D01*
X105568475Y-62089445D01*
X105568474Y-62089444D01*
X105564053Y-62084534D01*
X105409552Y-61972282D01*
X105403524Y-61969598D01*
X105403522Y-61969597D01*
X105241119Y-61897291D01*
X105241118Y-61897291D01*
X105235088Y-61894606D01*
X105141687Y-61874753D01*
X105054744Y-61856272D01*
X105054739Y-61856272D01*
X105048287Y-61854900D01*
X104857313Y-61854900D01*
X104850861Y-61856272D01*
X104850856Y-61856272D01*
X104763913Y-61874753D01*
X104670512Y-61894606D01*
X104664482Y-61897291D01*
X104664481Y-61897291D01*
X104502078Y-61969597D01*
X104502076Y-61969598D01*
X104496048Y-61972282D01*
X104341547Y-62084534D01*
X104337126Y-62089444D01*
X104337125Y-62089445D01*
X104289234Y-62142634D01*
X104213760Y-62226456D01*
X104200361Y-62249664D01*
X104140039Y-62354145D01*
X104118273Y-62391844D01*
X104059258Y-62573472D01*
X104058568Y-62580033D01*
X104058568Y-62580035D01*
X104051908Y-62643401D01*
X104039296Y-62763400D01*
X95208274Y-62763400D01*
X95143849Y-62625238D01*
X95143846Y-62625233D01*
X95141523Y-62620251D01*
X95010198Y-62432700D01*
X94848300Y-62270802D01*
X94843792Y-62267645D01*
X94843789Y-62267643D01*
X94732129Y-62189458D01*
X94660749Y-62139477D01*
X94655767Y-62137154D01*
X94655762Y-62137151D01*
X94458225Y-62045039D01*
X94458224Y-62045039D01*
X94453243Y-62042716D01*
X94447935Y-62041294D01*
X94447933Y-62041293D01*
X94237402Y-61984881D01*
X94237400Y-61984881D01*
X94232087Y-61983457D01*
X94004000Y-61963502D01*
X93775913Y-61983457D01*
X93770600Y-61984881D01*
X93770598Y-61984881D01*
X93560067Y-62041293D01*
X93560065Y-62041294D01*
X93554757Y-62042716D01*
X93549776Y-62045039D01*
X93549775Y-62045039D01*
X93352238Y-62137151D01*
X93352233Y-62137154D01*
X93347251Y-62139477D01*
X93275871Y-62189458D01*
X93164211Y-62267643D01*
X93164208Y-62267645D01*
X93159700Y-62270802D01*
X92997802Y-62432700D01*
X92866477Y-62620251D01*
X92864154Y-62625233D01*
X92864151Y-62625238D01*
X92773861Y-62818868D01*
X92769716Y-62827757D01*
X92768294Y-62833065D01*
X92768293Y-62833067D01*
X92727882Y-62983882D01*
X92710457Y-63048913D01*
X92690502Y-63277000D01*
X72258500Y-63277000D01*
X72258500Y-60634500D01*
X72278502Y-60566379D01*
X72332158Y-60519886D01*
X72384500Y-60508500D01*
X134615500Y-60508500D01*
X134683621Y-60528502D01*
G37*
%TD.AperFunction*%
%TD*%
M02*
