%TF.GenerationSoftware,KiCad,Pcbnew,(6.0.9)*%
%TF.CreationDate,2023-03-04T22:36:08+01:00*%
%TF.ProjectId,nard_sam,6e617264-5f73-4616-9d2e-6b696361645f,rev?*%
%TF.SameCoordinates,Original*%
%TF.FileFunction,Legend,Top*%
%TF.FilePolarity,Positive*%
%FSLAX46Y46*%
G04 Gerber Fmt 4.6, Leading zero omitted, Abs format (unit mm)*
G04 Created by KiCad (PCBNEW (6.0.9)) date 2023-03-04 22:36:08*
%MOMM*%
%LPD*%
G01*
G04 APERTURE LIST*
%ADD10C,0.100000*%
%ADD11C,0.050000*%
%ADD12C,0.150000*%
%ADD13C,0.120000*%
G04 APERTURE END LIST*
D10*
X77105142Y-80256380D02*
X77105142Y-79256380D01*
X77486095Y-79256380D01*
X77581333Y-79304000D01*
X77628952Y-79351619D01*
X77676571Y-79446857D01*
X77676571Y-79589714D01*
X77628952Y-79684952D01*
X77581333Y-79732571D01*
X77486095Y-79780190D01*
X77105142Y-79780190D01*
X78295619Y-79256380D02*
X78486095Y-79256380D01*
X78581333Y-79304000D01*
X78676571Y-79399238D01*
X78724190Y-79589714D01*
X78724190Y-79923047D01*
X78676571Y-80113523D01*
X78581333Y-80208761D01*
X78486095Y-80256380D01*
X78295619Y-80256380D01*
X78200380Y-80208761D01*
X78105142Y-80113523D01*
X78057523Y-79923047D01*
X78057523Y-79589714D01*
X78105142Y-79399238D01*
X78200380Y-79304000D01*
X78295619Y-79256380D01*
X79724190Y-80256380D02*
X79390857Y-79780190D01*
X79152761Y-80256380D02*
X79152761Y-79256380D01*
X79533714Y-79256380D01*
X79628952Y-79304000D01*
X79676571Y-79351619D01*
X79724190Y-79446857D01*
X79724190Y-79589714D01*
X79676571Y-79684952D01*
X79628952Y-79732571D01*
X79533714Y-79780190D01*
X79152761Y-79780190D01*
X80009904Y-79256380D02*
X80581333Y-79256380D01*
X80295619Y-80256380D02*
X80295619Y-79256380D01*
X81438476Y-80256380D02*
X80867047Y-80256380D01*
X81152761Y-80256380D02*
X81152761Y-79256380D01*
X81057523Y-79399238D01*
X80962285Y-79494476D01*
X80867047Y-79542095D01*
X125605142Y-80256380D02*
X125605142Y-79256380D01*
X125986095Y-79256380D01*
X126081333Y-79304000D01*
X126128952Y-79351619D01*
X126176571Y-79446857D01*
X126176571Y-79589714D01*
X126128952Y-79684952D01*
X126081333Y-79732571D01*
X125986095Y-79780190D01*
X125605142Y-79780190D01*
X126795619Y-79256380D02*
X126986095Y-79256380D01*
X127081333Y-79304000D01*
X127176571Y-79399238D01*
X127224190Y-79589714D01*
X127224190Y-79923047D01*
X127176571Y-80113523D01*
X127081333Y-80208761D01*
X126986095Y-80256380D01*
X126795619Y-80256380D01*
X126700380Y-80208761D01*
X126605142Y-80113523D01*
X126557523Y-79923047D01*
X126557523Y-79589714D01*
X126605142Y-79399238D01*
X126700380Y-79304000D01*
X126795619Y-79256380D01*
X128224190Y-80256380D02*
X127890857Y-79780190D01*
X127652761Y-80256380D02*
X127652761Y-79256380D01*
X128033714Y-79256380D01*
X128128952Y-79304000D01*
X128176571Y-79351619D01*
X128224190Y-79446857D01*
X128224190Y-79589714D01*
X128176571Y-79684952D01*
X128128952Y-79732571D01*
X128033714Y-79780190D01*
X127652761Y-79780190D01*
X128509904Y-79256380D02*
X129081333Y-79256380D01*
X128795619Y-80256380D02*
X128795619Y-79256380D01*
X129367047Y-79351619D02*
X129414666Y-79304000D01*
X129509904Y-79256380D01*
X129748000Y-79256380D01*
X129843238Y-79304000D01*
X129890857Y-79351619D01*
X129938476Y-79446857D01*
X129938476Y-79542095D01*
X129890857Y-79684952D01*
X129319428Y-80256380D01*
X129938476Y-80256380D01*
X96892857Y-80202380D02*
X96892857Y-79202380D01*
X97464285Y-80202380D01*
X97464285Y-79202380D01*
X97892857Y-79916666D02*
X98369047Y-79916666D01*
X97797619Y-80202380D02*
X98130952Y-79202380D01*
X98464285Y-80202380D01*
X99369047Y-80202380D02*
X99035714Y-79726190D01*
X98797619Y-80202380D02*
X98797619Y-79202380D01*
X99178571Y-79202380D01*
X99273809Y-79250000D01*
X99321428Y-79297619D01*
X99369047Y-79392857D01*
X99369047Y-79535714D01*
X99321428Y-79630952D01*
X99273809Y-79678571D01*
X99178571Y-79726190D01*
X98797619Y-79726190D01*
X99797619Y-80202380D02*
X99797619Y-79202380D01*
X100035714Y-79202380D01*
X100178571Y-79250000D01*
X100273809Y-79345238D01*
X100321428Y-79440476D01*
X100369047Y-79630952D01*
X100369047Y-79773809D01*
X100321428Y-79964285D01*
X100273809Y-80059523D01*
X100178571Y-80154761D01*
X100035714Y-80202380D01*
X99797619Y-80202380D01*
X101511904Y-80154761D02*
X101654761Y-80202380D01*
X101892857Y-80202380D01*
X101988095Y-80154761D01*
X102035714Y-80107142D01*
X102083333Y-80011904D01*
X102083333Y-79916666D01*
X102035714Y-79821428D01*
X101988095Y-79773809D01*
X101892857Y-79726190D01*
X101702380Y-79678571D01*
X101607142Y-79630952D01*
X101559523Y-79583333D01*
X101511904Y-79488095D01*
X101511904Y-79392857D01*
X101559523Y-79297619D01*
X101607142Y-79250000D01*
X101702380Y-79202380D01*
X101940476Y-79202380D01*
X102083333Y-79250000D01*
X102464285Y-79916666D02*
X102940476Y-79916666D01*
X102369047Y-80202380D02*
X102702380Y-79202380D01*
X103035714Y-80202380D01*
X103369047Y-80202380D02*
X103369047Y-79202380D01*
X103702380Y-79916666D01*
X104035714Y-79202380D01*
X104035714Y-80202380D01*
X105130952Y-79202380D02*
X105464285Y-80202380D01*
X105797619Y-79202380D01*
X106654761Y-80202380D02*
X106083333Y-80202380D01*
X106369047Y-80202380D02*
X106369047Y-79202380D01*
X106273809Y-79345238D01*
X106178571Y-79440476D01*
X106083333Y-79488095D01*
X107083333Y-80107142D02*
X107130952Y-80154761D01*
X107083333Y-80202380D01*
X107035714Y-80154761D01*
X107083333Y-80107142D01*
X107083333Y-80202380D01*
X108083333Y-80202380D02*
X107511904Y-80202380D01*
X107797619Y-80202380D02*
X107797619Y-79202380D01*
X107702380Y-79345238D01*
X107607142Y-79440476D01*
X107511904Y-79488095D01*
X109226190Y-79297619D02*
X109273809Y-79250000D01*
X109369047Y-79202380D01*
X109607142Y-79202380D01*
X109702380Y-79250000D01*
X109750000Y-79297619D01*
X109797619Y-79392857D01*
X109797619Y-79488095D01*
X109750000Y-79630952D01*
X109178571Y-80202380D01*
X109797619Y-80202380D01*
X110416666Y-79202380D02*
X110511904Y-79202380D01*
X110607142Y-79250000D01*
X110654761Y-79297619D01*
X110702380Y-79392857D01*
X110750000Y-79583333D01*
X110750000Y-79821428D01*
X110702380Y-80011904D01*
X110654761Y-80107142D01*
X110607142Y-80154761D01*
X110511904Y-80202380D01*
X110416666Y-80202380D01*
X110321428Y-80154761D01*
X110273809Y-80107142D01*
X110226190Y-80011904D01*
X110178571Y-79821428D01*
X110178571Y-79583333D01*
X110226190Y-79392857D01*
X110273809Y-79297619D01*
X110321428Y-79250000D01*
X110416666Y-79202380D01*
X111130952Y-79297619D02*
X111178571Y-79250000D01*
X111273809Y-79202380D01*
X111511904Y-79202380D01*
X111607142Y-79250000D01*
X111654761Y-79297619D01*
X111702380Y-79392857D01*
X111702380Y-79488095D01*
X111654761Y-79630952D01*
X111083333Y-80202380D01*
X111702380Y-80202380D01*
X112035714Y-79202380D02*
X112654761Y-79202380D01*
X112321428Y-79583333D01*
X112464285Y-79583333D01*
X112559523Y-79630952D01*
X112607142Y-79678571D01*
X112654761Y-79773809D01*
X112654761Y-80011904D01*
X112607142Y-80107142D01*
X112559523Y-80154761D01*
X112464285Y-80202380D01*
X112178571Y-80202380D01*
X112083333Y-80154761D01*
X112035714Y-80107142D01*
D11*
%TO.C,C1*%
X103566666Y-66578571D02*
X103542857Y-66602380D01*
X103471428Y-66626190D01*
X103423809Y-66626190D01*
X103352380Y-66602380D01*
X103304761Y-66554761D01*
X103280952Y-66507142D01*
X103257142Y-66411904D01*
X103257142Y-66340476D01*
X103280952Y-66245238D01*
X103304761Y-66197619D01*
X103352380Y-66150000D01*
X103423809Y-66126190D01*
X103471428Y-66126190D01*
X103542857Y-66150000D01*
X103566666Y-66173809D01*
X104042857Y-66626190D02*
X103757142Y-66626190D01*
X103900000Y-66626190D02*
X103900000Y-66126190D01*
X103852380Y-66197619D01*
X103804761Y-66245238D01*
X103757142Y-66269047D01*
%TO.C,C4*%
X99428571Y-66301133D02*
X99452380Y-66324942D01*
X99476190Y-66396371D01*
X99476190Y-66443990D01*
X99452380Y-66515419D01*
X99404761Y-66563038D01*
X99357142Y-66586847D01*
X99261904Y-66610657D01*
X99190476Y-66610657D01*
X99095238Y-66586847D01*
X99047619Y-66563038D01*
X99000000Y-66515419D01*
X98976190Y-66443990D01*
X98976190Y-66396371D01*
X99000000Y-66324942D01*
X99023809Y-66301133D01*
X99142857Y-65872561D02*
X99476190Y-65872561D01*
X98952380Y-65991609D02*
X99309523Y-66110657D01*
X99309523Y-65801133D01*
%TO.C,U1*%
X105443047Y-66073190D02*
X105443047Y-66477952D01*
X105466857Y-66525571D01*
X105490666Y-66549380D01*
X105538285Y-66573190D01*
X105633523Y-66573190D01*
X105681142Y-66549380D01*
X105704952Y-66525571D01*
X105728761Y-66477952D01*
X105728761Y-66073190D01*
X106228761Y-66573190D02*
X105943047Y-66573190D01*
X106085904Y-66573190D02*
X106085904Y-66073190D01*
X106038285Y-66144619D01*
X105990666Y-66192238D01*
X105943047Y-66216047D01*
%TO.C,D1*%
X105777152Y-73826190D02*
X105777152Y-73326190D01*
X105896200Y-73326190D01*
X105967628Y-73350000D01*
X106015247Y-73397619D01*
X106039057Y-73445238D01*
X106062866Y-73540476D01*
X106062866Y-73611904D01*
X106039057Y-73707142D01*
X106015247Y-73754761D01*
X105967628Y-73802380D01*
X105896200Y-73826190D01*
X105777152Y-73826190D01*
X106539057Y-73826190D02*
X106253342Y-73826190D01*
X106396200Y-73826190D02*
X106396200Y-73326190D01*
X106348580Y-73397619D01*
X106300961Y-73445238D01*
X106253342Y-73469047D01*
%TO.C,L1*%
X104925666Y-63796690D02*
X104687571Y-63796690D01*
X104687571Y-63296690D01*
X105354238Y-63796690D02*
X105068523Y-63796690D01*
X105211380Y-63796690D02*
X105211380Y-63296690D01*
X105163761Y-63368119D01*
X105116142Y-63415738D01*
X105068523Y-63439547D01*
%TO.C,C8*%
X106941666Y-76303571D02*
X106917857Y-76327380D01*
X106846428Y-76351190D01*
X106798809Y-76351190D01*
X106727380Y-76327380D01*
X106679761Y-76279761D01*
X106655952Y-76232142D01*
X106632142Y-76136904D01*
X106632142Y-76065476D01*
X106655952Y-75970238D01*
X106679761Y-75922619D01*
X106727380Y-75875000D01*
X106798809Y-75851190D01*
X106846428Y-75851190D01*
X106917857Y-75875000D01*
X106941666Y-75898809D01*
X107227380Y-76065476D02*
X107179761Y-76041666D01*
X107155952Y-76017857D01*
X107132142Y-75970238D01*
X107132142Y-75946428D01*
X107155952Y-75898809D01*
X107179761Y-75875000D01*
X107227380Y-75851190D01*
X107322619Y-75851190D01*
X107370238Y-75875000D01*
X107394047Y-75898809D01*
X107417857Y-75946428D01*
X107417857Y-75970238D01*
X107394047Y-76017857D01*
X107370238Y-76041666D01*
X107322619Y-76065476D01*
X107227380Y-76065476D01*
X107179761Y-76089285D01*
X107155952Y-76113095D01*
X107132142Y-76160714D01*
X107132142Y-76255952D01*
X107155952Y-76303571D01*
X107179761Y-76327380D01*
X107227380Y-76351190D01*
X107322619Y-76351190D01*
X107370238Y-76327380D01*
X107394047Y-76303571D01*
X107417857Y-76255952D01*
X107417857Y-76160714D01*
X107394047Y-76113095D01*
X107370238Y-76089285D01*
X107322619Y-76065476D01*
%TO.C,C2*%
X106850666Y-71552571D02*
X106826857Y-71576380D01*
X106755428Y-71600190D01*
X106707809Y-71600190D01*
X106636380Y-71576380D01*
X106588761Y-71528761D01*
X106564952Y-71481142D01*
X106541142Y-71385904D01*
X106541142Y-71314476D01*
X106564952Y-71219238D01*
X106588761Y-71171619D01*
X106636380Y-71124000D01*
X106707809Y-71100190D01*
X106755428Y-71100190D01*
X106826857Y-71124000D01*
X106850666Y-71147809D01*
X107041142Y-71147809D02*
X107064952Y-71124000D01*
X107112571Y-71100190D01*
X107231619Y-71100190D01*
X107279238Y-71124000D01*
X107303047Y-71147809D01*
X107326857Y-71195428D01*
X107326857Y-71243047D01*
X107303047Y-71314476D01*
X107017333Y-71600190D01*
X107326857Y-71600190D01*
D12*
%TO.C,J1*%
X97166666Y-61577380D02*
X97166666Y-62291666D01*
X97119047Y-62434523D01*
X97023809Y-62529761D01*
X96880952Y-62577380D01*
X96785714Y-62577380D01*
X98166666Y-62577380D02*
X97595238Y-62577380D01*
X97880952Y-62577380D02*
X97880952Y-61577380D01*
X97785714Y-61720238D01*
X97690476Y-61815476D01*
X97595238Y-61863095D01*
D11*
%TO.C,C3*%
X103428571Y-76434333D02*
X103452380Y-76458142D01*
X103476190Y-76529571D01*
X103476190Y-76577190D01*
X103452380Y-76648619D01*
X103404761Y-76696238D01*
X103357142Y-76720047D01*
X103261904Y-76743857D01*
X103190476Y-76743857D01*
X103095238Y-76720047D01*
X103047619Y-76696238D01*
X103000000Y-76648619D01*
X102976190Y-76577190D01*
X102976190Y-76529571D01*
X103000000Y-76458142D01*
X103023809Y-76434333D01*
X102976190Y-76267666D02*
X102976190Y-75958142D01*
X103166666Y-76124809D01*
X103166666Y-76053380D01*
X103190476Y-76005761D01*
X103214285Y-75981952D01*
X103261904Y-75958142D01*
X103380952Y-75958142D01*
X103428571Y-75981952D01*
X103452380Y-76005761D01*
X103476190Y-76053380D01*
X103476190Y-76196238D01*
X103452380Y-76243857D01*
X103428571Y-76267666D01*
%TO.C,R2*%
X102051190Y-76434333D02*
X101813095Y-76601000D01*
X102051190Y-76720047D02*
X101551190Y-76720047D01*
X101551190Y-76529571D01*
X101575000Y-76481952D01*
X101598809Y-76458142D01*
X101646428Y-76434333D01*
X101717857Y-76434333D01*
X101765476Y-76458142D01*
X101789285Y-76481952D01*
X101813095Y-76529571D01*
X101813095Y-76720047D01*
X101598809Y-76243857D02*
X101575000Y-76220047D01*
X101551190Y-76172428D01*
X101551190Y-76053380D01*
X101575000Y-76005761D01*
X101598809Y-75981952D01*
X101646428Y-75958142D01*
X101694047Y-75958142D01*
X101765476Y-75981952D01*
X102051190Y-76267666D01*
X102051190Y-75958142D01*
%TO.C,C6*%
X98476571Y-66301133D02*
X98500380Y-66324942D01*
X98524190Y-66396371D01*
X98524190Y-66443990D01*
X98500380Y-66515419D01*
X98452761Y-66563038D01*
X98405142Y-66586847D01*
X98309904Y-66610657D01*
X98238476Y-66610657D01*
X98143238Y-66586847D01*
X98095619Y-66563038D01*
X98048000Y-66515419D01*
X98024190Y-66443990D01*
X98024190Y-66396371D01*
X98048000Y-66324942D01*
X98071809Y-66301133D01*
X98024190Y-65872561D02*
X98024190Y-65967800D01*
X98048000Y-66015419D01*
X98071809Y-66039228D01*
X98143238Y-66086847D01*
X98238476Y-66110657D01*
X98428952Y-66110657D01*
X98476571Y-66086847D01*
X98500380Y-66063038D01*
X98524190Y-66015419D01*
X98524190Y-65920180D01*
X98500380Y-65872561D01*
X98476571Y-65848752D01*
X98428952Y-65824942D01*
X98309904Y-65824942D01*
X98262285Y-65848752D01*
X98238476Y-65872561D01*
X98214666Y-65920180D01*
X98214666Y-66015419D01*
X98238476Y-66063038D01*
X98262285Y-66086847D01*
X98309904Y-66110657D01*
%TO.C,R6*%
X104666666Y-76457190D02*
X104500000Y-76219095D01*
X104380952Y-76457190D02*
X104380952Y-75957190D01*
X104571428Y-75957190D01*
X104619047Y-75981000D01*
X104642857Y-76004809D01*
X104666666Y-76052428D01*
X104666666Y-76123857D01*
X104642857Y-76171476D01*
X104619047Y-76195285D01*
X104571428Y-76219095D01*
X104380952Y-76219095D01*
X105095238Y-75957190D02*
X105000000Y-75957190D01*
X104952380Y-75981000D01*
X104928571Y-76004809D01*
X104880952Y-76076238D01*
X104857142Y-76171476D01*
X104857142Y-76361952D01*
X104880952Y-76409571D01*
X104904761Y-76433380D01*
X104952380Y-76457190D01*
X105047619Y-76457190D01*
X105095238Y-76433380D01*
X105119047Y-76409571D01*
X105142857Y-76361952D01*
X105142857Y-76242904D01*
X105119047Y-76195285D01*
X105095238Y-76171476D01*
X105047619Y-76147666D01*
X104952380Y-76147666D01*
X104904761Y-76171476D01*
X104880952Y-76195285D01*
X104857142Y-76242904D01*
D12*
%TO.C,J2*%
X108841666Y-77552380D02*
X108841666Y-78266666D01*
X108794047Y-78409523D01*
X108698809Y-78504761D01*
X108555952Y-78552380D01*
X108460714Y-78552380D01*
X109270238Y-77647619D02*
X109317857Y-77600000D01*
X109413095Y-77552380D01*
X109651190Y-77552380D01*
X109746428Y-77600000D01*
X109794047Y-77647619D01*
X109841666Y-77742857D01*
X109841666Y-77838095D01*
X109794047Y-77980952D01*
X109222619Y-78552380D01*
X109841666Y-78552380D01*
D11*
%TO.C,R7*%
X104666666Y-77077190D02*
X104500000Y-76839095D01*
X104380952Y-77077190D02*
X104380952Y-76577190D01*
X104571428Y-76577190D01*
X104619047Y-76601000D01*
X104642857Y-76624809D01*
X104666666Y-76672428D01*
X104666666Y-76743857D01*
X104642857Y-76791476D01*
X104619047Y-76815285D01*
X104571428Y-76839095D01*
X104380952Y-76839095D01*
X104833333Y-76577190D02*
X105166666Y-76577190D01*
X104952380Y-77077190D01*
%TO.C,C9*%
X100528571Y-63383333D02*
X100552380Y-63407142D01*
X100576190Y-63478571D01*
X100576190Y-63526190D01*
X100552380Y-63597619D01*
X100504761Y-63645238D01*
X100457142Y-63669047D01*
X100361904Y-63692857D01*
X100290476Y-63692857D01*
X100195238Y-63669047D01*
X100147619Y-63645238D01*
X100100000Y-63597619D01*
X100076190Y-63526190D01*
X100076190Y-63478571D01*
X100100000Y-63407142D01*
X100123809Y-63383333D01*
X100576190Y-63145238D02*
X100576190Y-63050000D01*
X100552380Y-63002380D01*
X100528571Y-62978571D01*
X100457142Y-62930952D01*
X100361904Y-62907142D01*
X100171428Y-62907142D01*
X100123809Y-62930952D01*
X100100000Y-62954761D01*
X100076190Y-63002380D01*
X100076190Y-63097619D01*
X100100000Y-63145238D01*
X100123809Y-63169047D01*
X100171428Y-63192857D01*
X100290476Y-63192857D01*
X100338095Y-63169047D01*
X100361904Y-63145238D01*
X100385714Y-63097619D01*
X100385714Y-63002380D01*
X100361904Y-62954761D01*
X100338095Y-62930952D01*
X100290476Y-62907142D01*
%TO.C,C5*%
X108178571Y-73434333D02*
X108202380Y-73458142D01*
X108226190Y-73529571D01*
X108226190Y-73577190D01*
X108202380Y-73648619D01*
X108154761Y-73696238D01*
X108107142Y-73720047D01*
X108011904Y-73743857D01*
X107940476Y-73743857D01*
X107845238Y-73720047D01*
X107797619Y-73696238D01*
X107750000Y-73648619D01*
X107726190Y-73577190D01*
X107726190Y-73529571D01*
X107750000Y-73458142D01*
X107773809Y-73434333D01*
X107726190Y-72981952D02*
X107726190Y-73220047D01*
X107964285Y-73243857D01*
X107940476Y-73220047D01*
X107916666Y-73172428D01*
X107916666Y-73053380D01*
X107940476Y-73005761D01*
X107964285Y-72981952D01*
X108011904Y-72958142D01*
X108130952Y-72958142D01*
X108178571Y-72981952D01*
X108202380Y-73005761D01*
X108226190Y-73053380D01*
X108226190Y-73172428D01*
X108202380Y-73220047D01*
X108178571Y-73243857D01*
%TO.C,C7*%
X108916666Y-73629571D02*
X108892857Y-73653380D01*
X108821428Y-73677190D01*
X108773809Y-73677190D01*
X108702380Y-73653380D01*
X108654761Y-73605761D01*
X108630952Y-73558142D01*
X108607142Y-73462904D01*
X108607142Y-73391476D01*
X108630952Y-73296238D01*
X108654761Y-73248619D01*
X108702380Y-73201000D01*
X108773809Y-73177190D01*
X108821428Y-73177190D01*
X108892857Y-73201000D01*
X108916666Y-73224809D01*
X109083333Y-73177190D02*
X109416666Y-73177190D01*
X109202380Y-73677190D01*
%TO.C,R4*%
X99551190Y-69433333D02*
X99313095Y-69600000D01*
X99551190Y-69719047D02*
X99051190Y-69719047D01*
X99051190Y-69528571D01*
X99075000Y-69480952D01*
X99098809Y-69457142D01*
X99146428Y-69433333D01*
X99217857Y-69433333D01*
X99265476Y-69457142D01*
X99289285Y-69480952D01*
X99313095Y-69528571D01*
X99313095Y-69719047D01*
X99217857Y-69004761D02*
X99551190Y-69004761D01*
X99027380Y-69123809D02*
X99384523Y-69242857D01*
X99384523Y-68933333D01*
%TO.C,R3*%
X106698266Y-69720590D02*
X106531600Y-69482495D01*
X106412552Y-69720590D02*
X106412552Y-69220590D01*
X106603028Y-69220590D01*
X106650647Y-69244400D01*
X106674457Y-69268209D01*
X106698266Y-69315828D01*
X106698266Y-69387257D01*
X106674457Y-69434876D01*
X106650647Y-69458685D01*
X106603028Y-69482495D01*
X106412552Y-69482495D01*
X106864933Y-69220590D02*
X107174457Y-69220590D01*
X107007790Y-69411066D01*
X107079219Y-69411066D01*
X107126838Y-69434876D01*
X107150647Y-69458685D01*
X107174457Y-69506304D01*
X107174457Y-69625352D01*
X107150647Y-69672971D01*
X107126838Y-69696780D01*
X107079219Y-69720590D01*
X106936361Y-69720590D01*
X106888742Y-69696780D01*
X106864933Y-69672971D01*
%TO.C,R5*%
X107016666Y-66451190D02*
X106850000Y-66213095D01*
X106730952Y-66451190D02*
X106730952Y-65951190D01*
X106921428Y-65951190D01*
X106969047Y-65975000D01*
X106992857Y-65998809D01*
X107016666Y-66046428D01*
X107016666Y-66117857D01*
X106992857Y-66165476D01*
X106969047Y-66189285D01*
X106921428Y-66213095D01*
X106730952Y-66213095D01*
X107469047Y-65951190D02*
X107230952Y-65951190D01*
X107207142Y-66189285D01*
X107230952Y-66165476D01*
X107278571Y-66141666D01*
X107397619Y-66141666D01*
X107445238Y-66165476D01*
X107469047Y-66189285D01*
X107492857Y-66236904D01*
X107492857Y-66355952D01*
X107469047Y-66403571D01*
X107445238Y-66427380D01*
X107397619Y-66451190D01*
X107278571Y-66451190D01*
X107230952Y-66427380D01*
X107207142Y-66403571D01*
%TO.C,R1*%
X101026190Y-76408333D02*
X100788095Y-76575000D01*
X101026190Y-76694047D02*
X100526190Y-76694047D01*
X100526190Y-76503571D01*
X100550000Y-76455952D01*
X100573809Y-76432142D01*
X100621428Y-76408333D01*
X100692857Y-76408333D01*
X100740476Y-76432142D01*
X100764285Y-76455952D01*
X100788095Y-76503571D01*
X100788095Y-76694047D01*
X101026190Y-75932142D02*
X101026190Y-76217857D01*
X101026190Y-76075000D02*
X100526190Y-76075000D01*
X100597619Y-76122619D01*
X100645238Y-76170238D01*
X100669047Y-76217857D01*
D13*
%TO.C,C1*%
X103778164Y-65925000D02*
X103993836Y-65925000D01*
X103778164Y-65205000D02*
X103993836Y-65205000D01*
%TO.C,C4*%
X98890000Y-64854836D02*
X98890000Y-64639164D01*
X99610000Y-64854836D02*
X99610000Y-64639164D01*
%TO.C,U1*%
X100514000Y-67237000D02*
X101089000Y-67237000D01*
X100514000Y-71882000D02*
X100514000Y-72457000D01*
X100514000Y-72457000D02*
X101089000Y-72457000D01*
X105734000Y-71882000D02*
X105734000Y-72457000D01*
X100514000Y-67812000D02*
X100514000Y-67237000D01*
X105734000Y-67812000D02*
X105734000Y-67237000D01*
X105734000Y-72457000D02*
X105159000Y-72457000D01*
D10*
%TO.C,D1*%
X106171200Y-73991000D02*
G75*
G03*
X106171200Y-73991000I-50000J0D01*
G01*
D13*
%TO.C,L1*%
X104269000Y-63370221D02*
X104269000Y-63695779D01*
X103249000Y-63370221D02*
X103249000Y-63695779D01*
%TO.C,C8*%
X106640000Y-74743164D02*
X106640000Y-74958836D01*
X107360000Y-74743164D02*
X107360000Y-74958836D01*
%TO.C,C2*%
X108121564Y-70857000D02*
X108337236Y-70857000D01*
X108121564Y-70137000D02*
X108337236Y-70137000D01*
%TO.C,J1*%
X69576000Y-74375000D02*
X75164000Y-77931000D01*
X96525000Y-78197000D02*
X75125000Y-78197000D01*
X95484000Y-61167000D02*
X75164000Y-61167000D01*
X98024000Y-78947000D02*
X98024000Y-73867000D01*
X71525000Y-72797000D02*
X71525000Y-61497000D01*
X96525000Y-61497000D02*
X96525000Y-75772000D01*
X98024000Y-73867000D02*
X95484000Y-73867000D01*
X75164000Y-62691000D02*
X69576000Y-62691000D01*
X75164000Y-78947000D02*
X98024000Y-78947000D01*
X96525000Y-61497000D02*
X71525000Y-61497000D01*
X95484000Y-73867000D02*
X95484000Y-61167000D01*
X75164000Y-61167000D02*
X75164000Y-78947000D01*
X75125000Y-78197000D02*
X71525000Y-72797000D01*
X69576000Y-62691000D02*
X69576000Y-74375000D01*
%TO.C,C3*%
X103610000Y-74743164D02*
X103610000Y-74958836D01*
X102890000Y-74743164D02*
X102890000Y-74958836D01*
%TO.C,R2*%
X102230000Y-75004641D02*
X102230000Y-74697359D01*
X101470000Y-75004641D02*
X101470000Y-74697359D01*
%TO.C,C6*%
X97890000Y-64854836D02*
X97890000Y-64639164D01*
X98610000Y-64854836D02*
X98610000Y-64639164D01*
%TO.C,R6*%
X104903641Y-74731000D02*
X104596359Y-74731000D01*
X104903641Y-73971000D02*
X104596359Y-73971000D01*
%TO.C,J2*%
X135211000Y-67382000D02*
X135211000Y-78682000D01*
X110211000Y-78682000D02*
X135211000Y-78682000D01*
X110211000Y-61982000D02*
X131611000Y-61982000D01*
X131611000Y-61982000D02*
X135211000Y-67382000D01*
X137160000Y-65804000D02*
X131572000Y-62248000D01*
X110211000Y-78682000D02*
X110211000Y-64407000D01*
X111252000Y-66312000D02*
X111252000Y-79012000D01*
X137160000Y-77488000D02*
X137160000Y-65804000D01*
X131572000Y-61232000D02*
X108712000Y-61232000D01*
X111252000Y-79012000D02*
X131572000Y-79012000D01*
X131572000Y-79012000D02*
X131572000Y-61232000D01*
X108712000Y-66312000D02*
X111252000Y-66312000D01*
X131572000Y-77488000D02*
X137160000Y-77488000D01*
X108712000Y-61232000D02*
X108712000Y-66312000D01*
%TO.C,R7*%
X104903641Y-74971000D02*
X104596359Y-74971000D01*
X104903641Y-75731000D02*
X104596359Y-75731000D01*
%TO.C,C9*%
X99890000Y-64854836D02*
X99890000Y-64639164D01*
X100610000Y-64854836D02*
X100610000Y-64639164D01*
%TO.C,C5*%
X108360000Y-74743164D02*
X108360000Y-74958836D01*
X107640000Y-74743164D02*
X107640000Y-74958836D01*
%TO.C,C7*%
X108640000Y-74743164D02*
X108640000Y-74958836D01*
X109360000Y-74743164D02*
X109360000Y-74958836D01*
%TO.C,R4*%
X98680000Y-67664359D02*
X98680000Y-67971641D01*
X99440000Y-67664359D02*
X99440000Y-67971641D01*
%TO.C,R3*%
X108413641Y-69877000D02*
X108106359Y-69877000D01*
X108413641Y-69117000D02*
X108106359Y-69117000D01*
%TO.C,R5*%
X107521359Y-67430000D02*
X107828641Y-67430000D01*
X107521359Y-66670000D02*
X107828641Y-66670000D01*
%TO.C,R1*%
X101130000Y-75004641D02*
X101130000Y-74697359D01*
X100370000Y-75004641D02*
X100370000Y-74697359D01*
%TD*%
M02*
