%TF.GenerationSoftware,KiCad,Pcbnew,8.0.6*%
%TF.CreationDate,2024-11-25T21:01:29+01:00*%
%TF.ProjectId,nard_sam,6e617264-5f73-4616-9d2e-6b696361645f,rev?*%
%TF.SameCoordinates,Original*%
%TF.FileFunction,Copper,L1,Top*%
%TF.FilePolarity,Positive*%
%FSLAX46Y46*%
G04 Gerber Fmt 4.6, Leading zero omitted, Abs format (unit mm)*
G04 Created by KiCad (PCBNEW 8.0.6) date 2024-11-25 21:01:29*
%MOMM*%
%LPD*%
G01*
G04 APERTURE LIST*
G04 Aperture macros list*
%AMRoundRect*
0 Rectangle with rounded corners*
0 $1 Rounding radius*
0 $2 $3 $4 $5 $6 $7 $8 $9 X,Y pos of 4 corners*
0 Add a 4 corners polygon primitive as box body*
4,1,4,$2,$3,$4,$5,$6,$7,$8,$9,$2,$3,0*
0 Add four circle primitives for the rounded corners*
1,1,$1+$1,$2,$3*
1,1,$1+$1,$4,$5*
1,1,$1+$1,$6,$7*
1,1,$1+$1,$8,$9*
0 Add four rect primitives between the rounded corners*
20,1,$1+$1,$2,$3,$4,$5,0*
20,1,$1+$1,$4,$5,$6,$7,0*
20,1,$1+$1,$6,$7,$8,$9,0*
20,1,$1+$1,$8,$9,$2,$3,0*%
%AMFreePoly0*
4,1,19,0.379643,0.132453,0.384467,0.128033,0.490533,0.021967,0.512215,-0.024529,0.512500,-0.031066,0.512500,-0.075000,0.494953,-0.123209,0.450524,-0.148861,0.437500,-0.150000,-0.437500,-0.150000,-0.485709,-0.132453,-0.511361,-0.088024,-0.512500,-0.075000,-0.512500,0.075000,-0.494953,0.123209,-0.450524,0.148861,-0.437500,0.150000,0.331434,0.150000,0.379643,0.132453,0.379643,0.132453,
$1*%
%AMFreePoly1*
4,1,19,0.485709,0.132453,0.511361,0.088024,0.512500,0.075000,0.512500,0.031066,0.494953,-0.017143,0.490533,-0.021967,0.384467,-0.128033,0.337971,-0.149715,0.331434,-0.150000,-0.437500,-0.150000,-0.485709,-0.132453,-0.511361,-0.088024,-0.512500,-0.075000,-0.512500,0.075000,-0.494953,0.123209,-0.450524,0.148861,-0.437500,0.150000,0.437500,0.150000,0.485709,0.132453,0.485709,0.132453,
$1*%
%AMFreePoly2*
4,1,19,0.123209,0.494953,0.148861,0.450524,0.150000,0.437500,0.150000,-0.437500,0.132453,-0.485709,0.088024,-0.511361,0.075000,-0.512500,-0.075000,-0.512500,-0.123209,-0.494953,-0.148861,-0.450524,-0.150000,-0.437500,-0.150000,0.331434,-0.132453,0.379643,-0.128033,0.384467,-0.021967,0.490533,0.024529,0.512215,0.031066,0.512500,0.075000,0.512500,0.123209,0.494953,0.123209,0.494953,
$1*%
%AMFreePoly3*
4,1,19,0.017143,0.494953,0.021967,0.490533,0.128033,0.384467,0.149715,0.337971,0.150000,0.331434,0.150000,-0.437500,0.132453,-0.485709,0.088024,-0.511361,0.075000,-0.512500,-0.075000,-0.512500,-0.123209,-0.494953,-0.148861,-0.450524,-0.150000,-0.437500,-0.150000,0.437500,-0.132453,0.485709,-0.088024,0.511361,-0.075000,0.512500,-0.031066,0.512500,0.017143,0.494953,0.017143,0.494953,
$1*%
%AMFreePoly4*
4,1,19,0.485709,0.132453,0.511361,0.088024,0.512500,0.075000,0.512500,-0.075000,0.494953,-0.123209,0.450524,-0.148861,0.437500,-0.150000,-0.331434,-0.150000,-0.379643,-0.132453,-0.384467,-0.128033,-0.490533,-0.021967,-0.512215,0.024529,-0.512500,0.031066,-0.512500,0.075000,-0.494953,0.123209,-0.450524,0.148861,-0.437500,0.150000,0.437500,0.150000,0.485709,0.132453,0.485709,0.132453,
$1*%
%AMFreePoly5*
4,1,19,0.485709,0.132453,0.511361,0.088024,0.512500,0.075000,0.512500,-0.075000,0.494953,-0.123209,0.450524,-0.148861,0.437500,-0.150000,-0.437500,-0.150000,-0.485709,-0.132453,-0.511361,-0.088024,-0.512500,-0.075000,-0.512500,-0.031066,-0.494953,0.017143,-0.490533,0.021967,-0.384467,0.128033,-0.337971,0.149715,-0.331434,0.150000,0.437500,0.150000,0.485709,0.132453,0.485709,0.132453,
$1*%
%AMFreePoly6*
4,1,19,0.123209,0.494953,0.148861,0.450524,0.150000,0.437500,0.150000,-0.331434,0.132453,-0.379643,0.128033,-0.384467,0.021967,-0.490533,-0.024529,-0.512215,-0.031066,-0.512500,-0.075000,-0.512500,-0.123209,-0.494953,-0.148861,-0.450524,-0.150000,-0.437500,-0.150000,0.437500,-0.132453,0.485709,-0.088024,0.511361,-0.075000,0.512500,0.075000,0.512500,0.123209,0.494953,0.123209,0.494953,
$1*%
%AMFreePoly7*
4,1,19,0.123209,0.494953,0.148861,0.450524,0.150000,0.437500,0.150000,-0.437500,0.132453,-0.485709,0.088024,-0.511361,0.075000,-0.512500,0.031066,-0.512500,-0.017143,-0.494953,-0.021967,-0.490533,-0.128033,-0.384467,-0.149715,-0.337971,-0.150000,-0.331434,-0.150000,0.437500,-0.132453,0.485709,-0.088024,0.511361,-0.075000,0.512500,0.075000,0.512500,0.123209,0.494953,0.123209,0.494953,
$1*%
%AMFreePoly8*
4,1,19,0.500000,-0.750000,0.000000,-0.750000,0.000000,-0.744911,-0.071157,-0.744911,-0.207708,-0.704816,-0.327430,-0.627875,-0.420627,-0.520320,-0.479746,-0.390866,-0.500000,-0.250000,-0.500000,0.250000,-0.479746,0.390866,-0.420627,0.520320,-0.327430,0.627875,-0.207708,0.704816,-0.071157,0.744911,0.000000,0.744911,0.000000,0.750000,0.500000,0.750000,0.500000,-0.750000,0.500000,-0.750000,
$1*%
%AMFreePoly9*
4,1,19,0.000000,0.744911,0.071157,0.744911,0.207708,0.704816,0.327430,0.627875,0.420627,0.520320,0.479746,0.390866,0.500000,0.250000,0.500000,-0.250000,0.479746,-0.390866,0.420627,-0.520320,0.327430,-0.627875,0.207708,-0.704816,0.071157,-0.744911,0.000000,-0.744911,0.000000,-0.750000,-0.500000,-0.750000,-0.500000,0.750000,0.000000,0.750000,0.000000,0.744911,0.000000,0.744911,
$1*%
G04 Aperture macros list end*
%TA.AperFunction,SMDPad,CuDef*%
%ADD10RoundRect,0.140000X-0.140000X-0.170000X0.140000X-0.170000X0.140000X0.170000X-0.140000X0.170000X0*%
%TD*%
%TA.AperFunction,SMDPad,CuDef*%
%ADD11RoundRect,0.140000X0.170000X-0.140000X0.170000X0.140000X-0.170000X0.140000X-0.170000X-0.140000X0*%
%TD*%
%TA.AperFunction,SMDPad,CuDef*%
%ADD12FreePoly0,270.000000*%
%TD*%
%TA.AperFunction,SMDPad,CuDef*%
%ADD13RoundRect,0.075000X-0.075000X0.437500X-0.075000X-0.437500X0.075000X-0.437500X0.075000X0.437500X0*%
%TD*%
%TA.AperFunction,SMDPad,CuDef*%
%ADD14FreePoly1,270.000000*%
%TD*%
%TA.AperFunction,SMDPad,CuDef*%
%ADD15FreePoly2,270.000000*%
%TD*%
%TA.AperFunction,SMDPad,CuDef*%
%ADD16RoundRect,0.075000X-0.437500X0.075000X-0.437500X-0.075000X0.437500X-0.075000X0.437500X0.075000X0*%
%TD*%
%TA.AperFunction,SMDPad,CuDef*%
%ADD17FreePoly3,270.000000*%
%TD*%
%TA.AperFunction,SMDPad,CuDef*%
%ADD18FreePoly4,270.000000*%
%TD*%
%TA.AperFunction,SMDPad,CuDef*%
%ADD19FreePoly5,270.000000*%
%TD*%
%TA.AperFunction,SMDPad,CuDef*%
%ADD20FreePoly6,270.000000*%
%TD*%
%TA.AperFunction,SMDPad,CuDef*%
%ADD21FreePoly7,270.000000*%
%TD*%
%TA.AperFunction,HeatsinkPad*%
%ADD22R,3.200000X3.200000*%
%TD*%
%TA.AperFunction,SMDPad,CuDef*%
%ADD23RoundRect,0.100000X-0.100000X0.130000X-0.100000X-0.130000X0.100000X-0.130000X0.100000X0.130000X0*%
%TD*%
%TA.AperFunction,SMDPad,CuDef*%
%ADD24RoundRect,0.218750X-0.256250X0.218750X-0.256250X-0.218750X0.256250X-0.218750X0.256250X0.218750X0*%
%TD*%
%TA.AperFunction,SMDPad,CuDef*%
%ADD25RoundRect,0.140000X-0.170000X0.140000X-0.170000X-0.140000X0.170000X-0.140000X0.170000X0.140000X0*%
%TD*%
%TA.AperFunction,SMDPad,CuDef*%
%ADD26RoundRect,0.400000X-1.850000X-0.400000X1.850000X-0.400000X1.850000X0.400000X-1.850000X0.400000X0*%
%TD*%
%TA.AperFunction,SMDPad,CuDef*%
%ADD27RoundRect,0.400000X-0.400000X-0.400000X0.400000X-0.400000X0.400000X0.400000X-0.400000X0.400000X0*%
%TD*%
%TA.AperFunction,SMDPad,CuDef*%
%ADD28RoundRect,0.200000X-0.450000X-0.200000X0.450000X-0.200000X0.450000X0.200000X-0.450000X0.200000X0*%
%TD*%
%TA.AperFunction,SMDPad,CuDef*%
%ADD29RoundRect,0.500000X-0.900000X-0.500000X0.900000X-0.500000X0.900000X0.500000X-0.900000X0.500000X0*%
%TD*%
%TA.AperFunction,SMDPad,CuDef*%
%ADD30RoundRect,0.500000X-1.750000X-0.500000X1.750000X-0.500000X1.750000X0.500000X-1.750000X0.500000X0*%
%TD*%
%TA.AperFunction,SMDPad,CuDef*%
%ADD31RoundRect,0.135000X0.185000X-0.135000X0.185000X0.135000X-0.185000X0.135000X-0.185000X-0.135000X0*%
%TD*%
%TA.AperFunction,SMDPad,CuDef*%
%ADD32RoundRect,0.135000X0.135000X0.185000X-0.135000X0.185000X-0.135000X-0.185000X0.135000X-0.185000X0*%
%TD*%
%TA.AperFunction,SMDPad,CuDef*%
%ADD33RoundRect,0.400000X1.850000X0.400000X-1.850000X0.400000X-1.850000X-0.400000X1.850000X-0.400000X0*%
%TD*%
%TA.AperFunction,SMDPad,CuDef*%
%ADD34RoundRect,0.400000X0.400000X0.400000X-0.400000X0.400000X-0.400000X-0.400000X0.400000X-0.400000X0*%
%TD*%
%TA.AperFunction,SMDPad,CuDef*%
%ADD35RoundRect,0.200000X0.450000X0.200000X-0.450000X0.200000X-0.450000X-0.200000X0.450000X-0.200000X0*%
%TD*%
%TA.AperFunction,SMDPad,CuDef*%
%ADD36RoundRect,0.500000X0.900000X0.500000X-0.900000X0.500000X-0.900000X-0.500000X0.900000X-0.500000X0*%
%TD*%
%TA.AperFunction,SMDPad,CuDef*%
%ADD37RoundRect,0.500000X1.750000X0.500000X-1.750000X0.500000X-1.750000X-0.500000X1.750000X-0.500000X0*%
%TD*%
%TA.AperFunction,SMDPad,CuDef*%
%ADD38R,1.100000X0.500000*%
%TD*%
%TA.AperFunction,SMDPad,CuDef*%
%ADD39R,2.000000X2.000000*%
%TD*%
%TA.AperFunction,SMDPad,CuDef*%
%ADD40RoundRect,0.135000X-0.185000X0.135000X-0.185000X-0.135000X0.185000X-0.135000X0.185000X0.135000X0*%
%TD*%
%TA.AperFunction,SMDPad,CuDef*%
%ADD41RoundRect,0.135000X-0.135000X-0.185000X0.135000X-0.185000X0.135000X0.185000X-0.135000X0.185000X0*%
%TD*%
%TA.AperFunction,SMDPad,CuDef*%
%ADD42FreePoly8,90.000000*%
%TD*%
%TA.AperFunction,SMDPad,CuDef*%
%ADD43FreePoly9,90.000000*%
%TD*%
%TA.AperFunction,ViaPad*%
%ADD44C,0.800000*%
%TD*%
%TA.AperFunction,Conductor*%
%ADD45C,0.250000*%
%TD*%
G04 APERTURE END LIST*
D10*
%TO.P,C1,1*%
%TO.N,/VDD5*%
X103406000Y-65565000D03*
%TO.P,C1,2*%
%TO.N,GND*%
X104366000Y-65565000D03*
%TD*%
D11*
%TO.P,C4,1*%
%TO.N,/SC1_VCC*%
X99250000Y-65227000D03*
%TO.P,C4,2*%
%TO.N,GND*%
X99250000Y-64267000D03*
%TD*%
D12*
%TO.P,U1,1,SC2_RST_N*%
%TO.N,/SC2_RST*%
X104749000Y-67484500D03*
D13*
%TO.P,U1,2,SC2_VCC*%
%TO.N,/SC2_VCC*%
X104099000Y-67484500D03*
%TO.P,U1,3,VDD5*%
%TO.N,/VDD5*%
X103449000Y-67484500D03*
%TO.P,U1,4,SC1_C8*%
%TO.N,/SC1_C8*%
X102799000Y-67484500D03*
%TO.P,U1,5,SC1_C4*%
%TO.N,/SC1_C4*%
X102149000Y-67484500D03*
D14*
%TO.P,U1,6,SC1_IO*%
%TO.N,/SC1_IO*%
X101499000Y-67484500D03*
D15*
%TO.P,U1,7,SC1_CLK*%
%TO.N,Net-(U1-SC1_CLK)*%
X100761500Y-68222000D03*
D16*
%TO.P,U1,8,SC1_RST_N*%
%TO.N,/SC1_RST*%
X100761500Y-68872000D03*
%TO.P,U1,9,SC1_VCC*%
%TO.N,/SC1_VCC*%
X100761500Y-69522000D03*
%TO.P,U1,10,SC1_PRSNT_N/JTAG_TMS*%
%TO.N,/SC1_PRSNT*%
X100761500Y-70172000D03*
%TO.P,U1,11,SPI1_MISO/RXD*%
%TO.N,/SEC_RXD*%
X100761500Y-70822000D03*
D17*
%TO.P,U1,12,SPI1_CLK/CTS_IN*%
%TO.N,/SEC_CTS*%
X100761500Y-71472000D03*
D18*
%TO.P,U1,13,SPI1_CE/RTS_OUT*%
%TO.N,/SEC_RTS*%
X101499000Y-72209500D03*
D13*
%TO.P,U1,14,SPI1_MOSI/TXD*%
%TO.N,/SEC_TXD*%
X102149000Y-72209500D03*
%TO.P,U1,15,test*%
%TO.N,unconnected-(U1-test-Pad15)*%
X102799000Y-72209500D03*
%TO.P,U1,16,USBUP_DM*%
%TO.N,/USB_DM*%
X103449000Y-72209500D03*
%TO.P,U1,17,USBUP_DP*%
%TO.N,/USB_DP*%
X104099000Y-72209500D03*
D19*
%TO.P,U1,18,VDD33*%
%TO.N,+3.3VA*%
X104749000Y-72209500D03*
D20*
%TO.P,U1,19,JTAG_CLK*%
%TO.N,unconnected-(U1-JTAG_CLK-Pad19)*%
X105486500Y-71472000D03*
D16*
%TO.P,U1,20,SC_LED_ACT_N/JTAG_TDO*%
%TO.N,/LED_ACT*%
X105486500Y-70822000D03*
%TO.P,U1,21,SC2_PRSNT_N/JTAG_TDI*%
%TO.N,/SC2_PRsNT*%
X105486500Y-70172000D03*
%TO.P,U1,22,~{RESET}*%
%TO.N,/~{RESET}*%
X105486500Y-69522000D03*
%TO.P,U1,23,SC2_IO*%
%TO.N,/SC2_IO*%
X105486500Y-68872000D03*
D21*
%TO.P,U1,24,SC2_CLK*%
%TO.N,Net-(U1-SC2_CLK)*%
X105486500Y-68222000D03*
D22*
%TO.P,U1,25,VSS(flag)*%
%TO.N,GND*%
X103124000Y-69847000D03*
%TD*%
D23*
%TO.P,D1,1,K*%
%TO.N,/LED_ACT*%
X106121200Y-74531000D03*
%TO.P,D1,2,A*%
%TO.N,Net-(D1-A)*%
X106121200Y-75171000D03*
%TD*%
D24*
%TO.P,L1,1,1*%
%TO.N,+5V*%
X103759000Y-62745500D03*
%TO.P,L1,2,2*%
%TO.N,/VDD5*%
X103759000Y-64320500D03*
%TD*%
D25*
%TO.P,C8,1*%
%TO.N,/SC2_VCC*%
X107000000Y-74371000D03*
%TO.P,C8,2*%
%TO.N,GND*%
X107000000Y-75331000D03*
%TD*%
D10*
%TO.P,C2,1*%
%TO.N,/~{RESET}*%
X107749400Y-70497000D03*
%TO.P,C2,2*%
%TO.N,GND*%
X108709400Y-70497000D03*
%TD*%
D26*
%TO.P,J1,1,VCC*%
%TO.N,/SC1_VCC*%
X91928000Y-65993000D03*
%TO.P,J1,2,RST*%
%TO.N,/SC1_RST*%
X91928000Y-68533000D03*
%TO.P,J1,3,CLK*%
%TO.N,/SC1_CLK*%
X91928000Y-71073000D03*
%TO.P,J1,4,C4*%
%TO.N,/SC1_C4*%
X91928000Y-73613000D03*
D27*
%TO.P,J1,5,GND*%
%TO.N,GND*%
X80425000Y-65997000D03*
%TO.P,J1,6,VPP*%
%TO.N,unconnected-(J1-VPP-Pad6)*%
X80425000Y-68537000D03*
%TO.P,J1,7,I/O*%
%TO.N,/SC1_IO*%
X80425000Y-71077000D03*
%TO.P,J1,8,C8*%
%TO.N,/SC1_C8*%
X80425000Y-73617000D03*
D28*
%TO.P,J1,CSW,detect*%
%TO.N,/SC1_PRSNT*%
X96754000Y-76407000D03*
%TO.P,J1,DSW,detect*%
%TO.N,GND*%
X96754000Y-77677000D03*
D29*
%TO.P,J1,sh,shield*%
X82825000Y-62547000D03*
X82825000Y-77247000D03*
D30*
X87404000Y-63217000D03*
X87404000Y-77067000D03*
%TD*%
D25*
%TO.P,C3,1*%
%TO.N,+3.3VA*%
X103250000Y-74371000D03*
%TO.P,C3,2*%
%TO.N,GND*%
X103250000Y-75331000D03*
%TD*%
D31*
%TO.P,R2,1*%
%TO.N,/PC0*%
X101850000Y-75361000D03*
%TO.P,R2,2*%
%TO.N,/SEC_TXD*%
X101850000Y-74341000D03*
%TD*%
D11*
%TO.P,C6,1*%
%TO.N,/SC1_VCC*%
X98250000Y-65227000D03*
%TO.P,C6,2*%
%TO.N,GND*%
X98250000Y-64267000D03*
%TD*%
D32*
%TO.P,R6,1*%
%TO.N,/LED_ACT*%
X105260000Y-74351000D03*
%TO.P,R6,2*%
%TO.N,+3.3VA*%
X104240000Y-74351000D03*
%TD*%
D33*
%TO.P,J2,1,VCC*%
%TO.N,/SC2_VCC*%
X114808000Y-74186000D03*
%TO.P,J2,2,RST*%
%TO.N,/SC2_RST*%
X114808000Y-71646000D03*
%TO.P,J2,3,CLK*%
%TO.N,/SC2_CLK*%
X114808000Y-69106000D03*
%TO.P,J2,4,C4*%
%TO.N,unconnected-(J2-C4-Pad4)*%
X114808000Y-66566000D03*
D34*
%TO.P,J2,5,GND*%
%TO.N,GND*%
X126311000Y-74182000D03*
%TO.P,J2,6,VPP*%
%TO.N,unconnected-(J2-VPP-Pad6)*%
X126311000Y-71642000D03*
%TO.P,J2,7,I/O*%
%TO.N,/SC2_IO*%
X126311000Y-69102000D03*
%TO.P,J2,8,C8*%
%TO.N,unconnected-(J2-C8-Pad8)*%
X126311000Y-66562000D03*
D35*
%TO.P,J2,CSW,detect*%
%TO.N,/SC2_PRsNT*%
X109982000Y-63772000D03*
%TO.P,J2,DSW,detect*%
%TO.N,GND*%
X109982000Y-62502000D03*
D36*
%TO.P,J2,sh,shield*%
X123911000Y-77632000D03*
X123911000Y-62932000D03*
D37*
X119332000Y-76962000D03*
X119332000Y-63112000D03*
%TD*%
D38*
%TO.P,U3,1,GND*%
%TO.N,GND*%
X82700000Y-66690000D03*
%TO.P,U3,2,SWIO*%
%TO.N,unconnected-(U3-SWIO-Pad2)*%
X82700000Y-67960000D03*
%TO.P,U3,3,I/O*%
%TO.N,/SC1_IO*%
X82700000Y-69230000D03*
%TO.P,U3,4,NC*%
%TO.N,unconnected-(U3-NC-Pad4)*%
X82700000Y-70500000D03*
%TO.P,U3,5,NC*%
%TO.N,unconnected-(U3-NC-Pad5)*%
X88500000Y-70500000D03*
%TO.P,U3,6,CLK*%
%TO.N,/SC1_CLK*%
X88500000Y-69230000D03*
%TO.P,U3,7,RST*%
%TO.N,/SC1_RST*%
X88500000Y-67960000D03*
%TO.P,U3,8,VCC*%
%TO.N,/SC1_VCC*%
X88500000Y-66690000D03*
D39*
%TO.P,U3,9,NC*%
%TO.N,unconnected-(U3-NC-Pad9)*%
X85600000Y-68595000D03*
%TD*%
D32*
%TO.P,R7,1*%
%TO.N,Net-(D1-A)*%
X105260000Y-75351000D03*
%TO.P,R7,2*%
%TO.N,+3.3VA*%
X104240000Y-75351000D03*
%TD*%
D11*
%TO.P,C9,1*%
%TO.N,/SC1_VCC*%
X100250000Y-65227000D03*
%TO.P,C9,2*%
%TO.N,GND*%
X100250000Y-64267000D03*
%TD*%
D25*
%TO.P,C5,1*%
%TO.N,/SC2_VCC*%
X108000000Y-74371000D03*
%TO.P,C5,2*%
%TO.N,GND*%
X108000000Y-75331000D03*
%TD*%
%TO.P,C7,1*%
%TO.N,/SC2_VCC*%
X109000000Y-74371000D03*
%TO.P,C7,2*%
%TO.N,GND*%
X109000000Y-75331000D03*
%TD*%
D40*
%TO.P,R4,1*%
%TO.N,Net-(U1-SC1_CLK)*%
X99060000Y-67308000D03*
%TO.P,R4,2*%
%TO.N,/SC1_CLK*%
X99060000Y-68328000D03*
%TD*%
D32*
%TO.P,R3,1*%
%TO.N,+5V*%
X108770000Y-69497000D03*
%TO.P,R3,2*%
%TO.N,/~{RESET}*%
X107750000Y-69497000D03*
%TD*%
D41*
%TO.P,R5,1*%
%TO.N,Net-(U1-SC2_CLK)*%
X107165000Y-67050000D03*
%TO.P,R5,2*%
%TO.N,/SC2_CLK*%
X108185000Y-67050000D03*
%TD*%
D31*
%TO.P,R1,1*%
%TO.N,/PC1*%
X100750000Y-75361000D03*
%TO.P,R1,2*%
%TO.N,/SEC_RXD*%
X100750000Y-74341000D03*
%TD*%
D42*
%TO.P,JP1,1,A*%
%TO.N,GND*%
X99500000Y-78150000D03*
D43*
%TO.P,JP1,2,B*%
%TO.N,/SC1_PRSNT*%
X99500000Y-76850000D03*
%TD*%
D44*
%TO.N,+5V*%
X74110000Y-74327600D03*
X110675000Y-72550000D03*
X104952800Y-62763400D03*
%TO.N,GND*%
X132525000Y-65200000D03*
X101800000Y-63750000D03*
X103900000Y-69011800D03*
X84350000Y-74900000D03*
X130050000Y-74000000D03*
X91050000Y-77050000D03*
X78625000Y-75275000D03*
X129300000Y-63800000D03*
X91000000Y-63200000D03*
X126625000Y-77400000D03*
X107000000Y-62000000D03*
X115475000Y-77325000D03*
X103925000Y-70625000D03*
X115575000Y-63075000D03*
X99263200Y-63373000D03*
X106100000Y-76100000D03*
X112350000Y-62875000D03*
X74075000Y-65150000D03*
X105181400Y-64490600D03*
X102300000Y-69025000D03*
X73975000Y-78350000D03*
X120050000Y-73325000D03*
X84375000Y-64950000D03*
X79950000Y-62575000D03*
X109100000Y-72775000D03*
X78025000Y-65350000D03*
X123750000Y-65125000D03*
X102300000Y-70625000D03*
X119625000Y-65375000D03*
%TO.N,/PC0*%
X107075000Y-76850000D03*
%TO.N,/PC1*%
X108650000Y-76600000D03*
%TO.N,/USB_DM*%
X102768400Y-73456800D03*
%TO.N,/USB_DP*%
X103987600Y-73406000D03*
%TO.N,/~{RESET}*%
X107924600Y-71729600D03*
%TO.N,/SC1_VCC*%
X101168200Y-65252600D03*
X98425000Y-69900000D03*
%TO.N,/SC2_VCC*%
X105994200Y-65630800D03*
X107010200Y-73250800D03*
%TO.N,/SC1_CLK*%
X96050000Y-67625000D03*
X96050000Y-69375000D03*
%TO.N,/SC1_C4*%
X97850000Y-72100000D03*
X101912250Y-66187250D03*
%TO.N,/SC1_IO*%
X100100000Y-66200000D03*
X95200000Y-74750000D03*
%TO.N,/SC1_C8*%
X102225000Y-64975000D03*
X96375000Y-74775000D03*
%TO.N,/SC2_IO*%
X108150000Y-68125000D03*
X110950000Y-69975000D03*
%TO.N,/SC2_PRsNT*%
X106857800Y-70507600D03*
X106850000Y-63775000D03*
%TD*%
D45*
%TO.N,Net-(D1-A)*%
X105941200Y-75351000D02*
X106121200Y-75171000D01*
X105260000Y-75351000D02*
X105941200Y-75351000D01*
%TO.N,+5V*%
X108770000Y-69497000D02*
X109247000Y-69497000D01*
X109800000Y-71675000D02*
X110675000Y-72550000D01*
X109800000Y-70050000D02*
X109800000Y-71675000D01*
X104934900Y-62745500D02*
X104952800Y-62763400D01*
X103759000Y-62745500D02*
X104934900Y-62745500D01*
X109247000Y-69497000D02*
X109800000Y-70050000D01*
%TO.N,GND*%
X106100000Y-76100000D02*
X106231000Y-76100000D01*
X104366000Y-65565000D02*
X104767400Y-65565000D01*
X89353400Y-77063600D02*
X89350000Y-77067000D01*
X99500000Y-78150000D02*
X97227000Y-78150000D01*
X105181400Y-65151000D02*
X105181400Y-64490600D01*
X103250000Y-75331000D02*
X103250000Y-75800000D01*
X97227000Y-78150000D02*
X96754000Y-77677000D01*
X81118000Y-66690000D02*
X80425000Y-65997000D01*
X103550000Y-76100000D02*
X106100000Y-76100000D01*
X107000000Y-75331000D02*
X108000000Y-75331000D01*
X82700000Y-66690000D02*
X81118000Y-66690000D01*
X103250000Y-75800000D02*
X103550000Y-76100000D01*
X99250000Y-64267000D02*
X99250000Y-63386200D01*
X98250000Y-63751200D02*
X98628200Y-63373000D01*
X106231000Y-76100000D02*
X107000000Y-75331000D01*
X109100000Y-70887600D02*
X109100000Y-72775000D01*
X104767400Y-65565000D02*
X105181400Y-65151000D01*
X89321200Y-77038200D02*
X89350000Y-77067000D01*
X99847400Y-63373000D02*
X99263200Y-63373000D01*
X108709400Y-70497000D02*
X109100000Y-70887600D01*
X100250000Y-63775600D02*
X99847400Y-63373000D01*
X98250000Y-64267000D02*
X98250000Y-63751200D01*
X108000000Y-75331000D02*
X109000000Y-75331000D01*
X98628200Y-63373000D02*
X99263200Y-63373000D01*
X99250000Y-63386200D02*
X99263200Y-63373000D01*
X100250000Y-64267000D02*
X100250000Y-63775600D01*
%TO.N,/PC0*%
X103339000Y-76850000D02*
X101850000Y-75361000D01*
X107075000Y-76850000D02*
X103339000Y-76850000D01*
%TO.N,/PC1*%
X108650000Y-76600000D02*
X107675000Y-77575000D01*
X107675000Y-77575000D02*
X102964000Y-77575000D01*
X102964000Y-77575000D02*
X100750000Y-75361000D01*
%TO.N,Net-(U1-SC1_CLK)*%
X100761500Y-68222000D02*
X99974000Y-68222000D01*
X99974000Y-68222000D02*
X99060000Y-67308000D01*
%TO.N,+3.3VA*%
X104749000Y-72209500D02*
X104749000Y-73842000D01*
X104240000Y-75351000D02*
X104240000Y-74351000D01*
X103250000Y-74371000D02*
X104220000Y-74371000D01*
X104220000Y-74371000D02*
X104240000Y-74351000D01*
X104749000Y-73842000D02*
X104240000Y-74351000D01*
%TO.N,Net-(U1-SC2_CLK)*%
X106547000Y-68222000D02*
X106550000Y-68225000D01*
X105486500Y-68222000D02*
X106547000Y-68222000D01*
X107165000Y-67610000D02*
X107165000Y-67050000D01*
X106550000Y-68225000D02*
X107165000Y-67610000D01*
%TO.N,/USB_DM*%
X103449000Y-72209500D02*
X103449000Y-72776200D01*
X103449000Y-72776200D02*
X102768400Y-73456800D01*
%TO.N,/USB_DP*%
X104099000Y-72209500D02*
X104099000Y-73294600D01*
X104099000Y-73294600D02*
X103987600Y-73406000D01*
%TO.N,/SEC_RXD*%
X100750000Y-74341000D02*
X100750000Y-73902200D01*
X100750000Y-73902200D02*
X99695000Y-72847200D01*
X99695000Y-72847200D02*
X99695000Y-71069200D01*
X99942200Y-70822000D02*
X100761500Y-70822000D01*
X99695000Y-71069200D02*
X99942200Y-70822000D01*
%TO.N,/SEC_TXD*%
X101850000Y-73308400D02*
X101850000Y-74341000D01*
X102149000Y-73009400D02*
X101850000Y-73308400D01*
X102149000Y-72209500D02*
X102149000Y-73009400D01*
%TO.N,/VDD5*%
X103406000Y-64673500D02*
X103759000Y-64320500D01*
X103406000Y-65565000D02*
X103406000Y-64673500D01*
X103449000Y-67484500D02*
X103449000Y-65608000D01*
X103449000Y-65608000D02*
X103406000Y-65565000D01*
%TO.N,/~{RESET}*%
X107749400Y-70497000D02*
X107749400Y-71554400D01*
X105486500Y-69522000D02*
X107725000Y-69522000D01*
X107749400Y-70497000D02*
X107749400Y-69497600D01*
X107749400Y-71554400D02*
X107924600Y-71729600D01*
X107725000Y-69522000D02*
X107750000Y-69497000D01*
X107749400Y-69497600D02*
X107750000Y-69497000D01*
%TO.N,/SC1_VCC*%
X88500000Y-66690000D02*
X91231000Y-66690000D01*
X101168200Y-65252600D02*
X100275600Y-65252600D01*
X99250000Y-65227000D02*
X98250000Y-65227000D01*
X98198000Y-65227000D02*
X98250000Y-65227000D01*
X97432000Y-65993000D02*
X98198000Y-65227000D01*
X91231000Y-66690000D02*
X91928000Y-65993000D01*
X98803000Y-69522000D02*
X98425000Y-69900000D01*
X100761500Y-69522000D02*
X98803000Y-69522000D01*
X91928000Y-65993000D02*
X97432000Y-65993000D01*
X100250000Y-65227000D02*
X99250000Y-65227000D01*
X100275600Y-65252600D02*
X100250000Y-65227000D01*
%TO.N,/SC2_VCC*%
X104099000Y-67484500D02*
X104099000Y-66637000D01*
X114623000Y-74371000D02*
X114808000Y-74186000D01*
X107000000Y-74371000D02*
X108000000Y-74371000D01*
X108000000Y-74371000D02*
X109000000Y-74371000D01*
X107010200Y-73250800D02*
X107010200Y-74360800D01*
X105308400Y-66316600D02*
X105994200Y-65630800D01*
X104419400Y-66316600D02*
X105054400Y-66316600D01*
X105054400Y-66316600D02*
X105308400Y-66316600D01*
X109000000Y-74371000D02*
X114623000Y-74371000D01*
X104099000Y-66637000D02*
X104267000Y-66469000D01*
X107010200Y-74360800D02*
X107000000Y-74371000D01*
X104267000Y-66469000D02*
X104419400Y-66316600D01*
%TO.N,/LED_ACT*%
X106375200Y-71282515D02*
X106375200Y-72898000D01*
X106375200Y-72898000D02*
X106121200Y-73152000D01*
X105260000Y-74351000D02*
X105941200Y-74351000D01*
X105914685Y-70822000D02*
X106375200Y-71282515D01*
X106121200Y-73152000D02*
X106121200Y-74531000D01*
X105941200Y-74351000D02*
X106121200Y-74531000D01*
X105486500Y-70822000D02*
X105914685Y-70822000D01*
%TO.N,/SC1_RST*%
X91355000Y-67960000D02*
X91928000Y-68533000D01*
X97958000Y-68533000D02*
X91928000Y-68533000D01*
X98450000Y-69025000D02*
X97958000Y-68533000D01*
X99928000Y-68872000D02*
X99775000Y-69025000D01*
X88500000Y-67960000D02*
X91355000Y-67960000D01*
X99775000Y-69025000D02*
X98450000Y-69025000D01*
X100761500Y-68872000D02*
X99928000Y-68872000D01*
%TO.N,/SC1_CLK*%
X96050000Y-70000000D02*
X96050000Y-69375000D01*
X91928000Y-71073000D02*
X94977000Y-71073000D01*
X94977000Y-71073000D02*
X96050000Y-70000000D01*
X88500000Y-69230000D02*
X88730000Y-69230000D01*
X88730000Y-69230000D02*
X90573000Y-71073000D01*
X90573000Y-71073000D02*
X91928000Y-71073000D01*
X96075000Y-67650000D02*
X96050000Y-67625000D01*
X99060000Y-68328000D02*
X98503000Y-68328000D01*
X97825000Y-67650000D02*
X96075000Y-67650000D01*
X98503000Y-68328000D02*
X97825000Y-67650000D01*
%TO.N,/SC1_C4*%
X102149000Y-67484500D02*
X102149000Y-66424000D01*
X102149000Y-67324000D02*
X102125000Y-67300000D01*
X102149000Y-67484500D02*
X102149000Y-67324000D01*
X91928000Y-73613000D02*
X96337000Y-73613000D01*
X96337000Y-73613000D02*
X97850000Y-72100000D01*
X102149000Y-66424000D02*
X101912250Y-66187250D01*
%TO.N,/SC1_IO*%
X82700000Y-69230000D02*
X82272000Y-69230000D01*
X80425000Y-71077000D02*
X82423000Y-73075000D01*
X89550000Y-74800000D02*
X95150000Y-74800000D01*
X87825000Y-73075000D02*
X89550000Y-74800000D01*
X95150000Y-74800000D02*
X95200000Y-74750000D01*
X82423000Y-73075000D02*
X87825000Y-73075000D01*
X100100000Y-66200000D02*
X100850000Y-66200000D01*
X82272000Y-69230000D02*
X80425000Y-71077000D01*
X100850000Y-66200000D02*
X101499000Y-66849000D01*
X101499000Y-66849000D02*
X101499000Y-67484500D01*
%TO.N,/SC1_C8*%
X94325000Y-75350000D02*
X94675000Y-75700000D01*
X95500000Y-75700000D02*
X96375000Y-74825000D01*
X89050000Y-75350000D02*
X94325000Y-75350000D01*
X80433000Y-73625000D02*
X87325000Y-73625000D01*
X87325000Y-73625000D02*
X89050000Y-75350000D01*
X102225000Y-64975000D02*
X102799000Y-65549000D01*
X96375000Y-74825000D02*
X96375000Y-74775000D01*
X102799000Y-65549000D02*
X102799000Y-67484500D01*
X80425000Y-73617000D02*
X80433000Y-73625000D01*
X94675000Y-75700000D02*
X95500000Y-75700000D01*
%TO.N,/SC1_PRSNT*%
X99200000Y-75775000D02*
X98568000Y-76407000D01*
X99200000Y-75775000D02*
X99200000Y-76550000D01*
X99955804Y-70172000D02*
X99200000Y-70927804D01*
X100761500Y-70172000D02*
X99955804Y-70172000D01*
X98568000Y-76407000D02*
X96754000Y-76407000D01*
X99200000Y-76550000D02*
X99500000Y-76850000D01*
X99200000Y-70927804D02*
X99200000Y-75775000D01*
%TO.N,/SC2_RST*%
X110000000Y-65925000D02*
X111900000Y-67825000D01*
X104749000Y-67484500D02*
X105440500Y-67484500D01*
X107000000Y-65925000D02*
X110000000Y-65925000D01*
X105440500Y-67484500D02*
X107000000Y-65925000D01*
X117600000Y-70375000D02*
X116329000Y-71646000D01*
X111900000Y-67825000D02*
X117100000Y-67825000D01*
X117600000Y-68325000D02*
X117600000Y-70375000D01*
X117100000Y-67825000D02*
X117600000Y-68325000D01*
X116329000Y-71646000D02*
X114808000Y-71646000D01*
%TO.N,/SC2_CLK*%
X109975000Y-67050000D02*
X108185000Y-67050000D01*
X112031000Y-69106000D02*
X109975000Y-67050000D01*
X114808000Y-69106000D02*
X112031000Y-69106000D01*
%TO.N,/SC2_IO*%
X107525000Y-68125000D02*
X108150000Y-68125000D01*
X117100000Y-72925000D02*
X120923000Y-69102000D01*
X105486500Y-68872000D02*
X106778000Y-68872000D01*
X120923000Y-69102000D02*
X126311000Y-69102000D01*
X112525000Y-72925000D02*
X117100000Y-72925000D01*
X110950000Y-69975000D02*
X110950000Y-71350000D01*
X110950000Y-71350000D02*
X112525000Y-72925000D01*
X106778000Y-68872000D02*
X107525000Y-68125000D01*
%TO.N,/SC2_PRsNT*%
X106522200Y-70172000D02*
X106857800Y-70507600D01*
X105486500Y-70172000D02*
X106522200Y-70172000D01*
X106850000Y-63775000D02*
X106853000Y-63772000D01*
X106853000Y-63772000D02*
X109982000Y-63772000D01*
%TD*%
%TA.AperFunction,Conductor*%
%TO.N,GND*%
G36*
X109076342Y-71296688D02*
G01*
X109135959Y-71335242D01*
X109165268Y-71399906D01*
X109166500Y-71417483D01*
X109166500Y-71612606D01*
X109166500Y-71737394D01*
X109190845Y-71859785D01*
X109238600Y-71975075D01*
X109307929Y-72078833D01*
X109307931Y-72078835D01*
X109727877Y-72498781D01*
X109761903Y-72561093D01*
X109764092Y-72574705D01*
X109781457Y-72739927D01*
X109798270Y-72791670D01*
X109840473Y-72921556D01*
X109856715Y-72949688D01*
X109935958Y-73086941D01*
X109935965Y-73086951D01*
X110063744Y-73228864D01*
X110063747Y-73228866D01*
X110218248Y-73341118D01*
X110392712Y-73418794D01*
X110579513Y-73458500D01*
X110770487Y-73458500D01*
X110957288Y-73418794D01*
X111131752Y-73341118D01*
X111286253Y-73228866D01*
X111311185Y-73201176D01*
X111414034Y-73086951D01*
X111414035Y-73086949D01*
X111414040Y-73086944D01*
X111469929Y-72990140D01*
X111521310Y-72941149D01*
X111591024Y-72927712D01*
X111656935Y-72954099D01*
X111668142Y-72964047D01*
X112065893Y-73361798D01*
X112099919Y-73424110D01*
X112098505Y-73483504D01*
X112055471Y-73644111D01*
X112018519Y-73704734D01*
X111954659Y-73735755D01*
X111933764Y-73737500D01*
X109643404Y-73737500D01*
X109577658Y-73718195D01*
X109577451Y-73718547D01*
X109576066Y-73717727D01*
X109575283Y-73717498D01*
X109573265Y-73716071D01*
X109429599Y-73631107D01*
X109429598Y-73631106D01*
X109429597Y-73631106D01*
X109350925Y-73608250D01*
X109272252Y-73585393D01*
X109235493Y-73582500D01*
X109235484Y-73582500D01*
X108764516Y-73582500D01*
X108764507Y-73582500D01*
X108727748Y-73585393D01*
X108727747Y-73585393D01*
X108570399Y-73631107D01*
X108564135Y-73634812D01*
X108495318Y-73652269D01*
X108435865Y-73634812D01*
X108429600Y-73631107D01*
X108272252Y-73585393D01*
X108235493Y-73582500D01*
X108235484Y-73582500D01*
X108028779Y-73582500D01*
X107960658Y-73562498D01*
X107914165Y-73508842D01*
X107903469Y-73443330D01*
X107917639Y-73308501D01*
X107923704Y-73250800D01*
X107903742Y-73060872D01*
X107844727Y-72879244D01*
X107826545Y-72847752D01*
X107814622Y-72827100D01*
X107797884Y-72758104D01*
X107821105Y-72691013D01*
X107876912Y-72647126D01*
X107923741Y-72638100D01*
X108020087Y-72638100D01*
X108206888Y-72598394D01*
X108381352Y-72520718D01*
X108535853Y-72408466D01*
X108535855Y-72408464D01*
X108663634Y-72266551D01*
X108663635Y-72266549D01*
X108663640Y-72266544D01*
X108759127Y-72101156D01*
X108818142Y-71919528D01*
X108838104Y-71729600D01*
X108820599Y-71563048D01*
X108818142Y-71539669D01*
X108798717Y-71479889D01*
X108796688Y-71408921D01*
X108833349Y-71348123D01*
X108897061Y-71316797D01*
X108913628Y-71315047D01*
X108914865Y-71314998D01*
X108951568Y-71312109D01*
X108951577Y-71312107D01*
X109005346Y-71296486D01*
X109076342Y-71296688D01*
G37*
%TD.AperFunction*%
%TA.AperFunction,Conductor*%
G36*
X103822218Y-68469994D02*
G01*
X103871676Y-68490481D01*
X103985756Y-68505500D01*
X103985763Y-68505500D01*
X104212237Y-68505500D01*
X104212244Y-68505500D01*
X104326324Y-68490481D01*
X104326324Y-68490480D01*
X104334512Y-68489403D01*
X104334686Y-68490730D01*
X104397124Y-68492212D01*
X104455922Y-68532002D01*
X104483875Y-68597265D01*
X104481077Y-68636419D01*
X104481597Y-68636488D01*
X104465500Y-68758753D01*
X104465500Y-68985246D01*
X104480519Y-69099324D01*
X104501005Y-69148783D01*
X104508594Y-69219373D01*
X104501005Y-69245217D01*
X104480519Y-69294675D01*
X104465500Y-69408753D01*
X104465500Y-69635246D01*
X104480519Y-69749324D01*
X104501005Y-69798783D01*
X104508594Y-69869373D01*
X104501005Y-69895217D01*
X104480519Y-69944675D01*
X104465500Y-70058753D01*
X104465500Y-70285246D01*
X104480519Y-70399324D01*
X104501005Y-70448783D01*
X104508594Y-70519373D01*
X104501005Y-70545217D01*
X104480519Y-70594675D01*
X104465500Y-70708753D01*
X104465500Y-70935246D01*
X104481597Y-71057512D01*
X104480271Y-71057686D01*
X104478782Y-71120138D01*
X104438985Y-71178932D01*
X104373719Y-71206877D01*
X104334580Y-71204077D01*
X104334512Y-71204597D01*
X104212246Y-71188500D01*
X104212244Y-71188500D01*
X103985756Y-71188500D01*
X103985753Y-71188500D01*
X103871675Y-71203519D01*
X103822217Y-71224005D01*
X103751627Y-71231594D01*
X103725783Y-71224005D01*
X103676324Y-71203519D01*
X103562246Y-71188500D01*
X103562244Y-71188500D01*
X103335756Y-71188500D01*
X103335753Y-71188500D01*
X103221675Y-71203519D01*
X103172217Y-71224005D01*
X103101627Y-71231594D01*
X103075783Y-71224005D01*
X103026324Y-71203519D01*
X102912246Y-71188500D01*
X102912244Y-71188500D01*
X102685756Y-71188500D01*
X102685753Y-71188500D01*
X102571675Y-71203519D01*
X102522217Y-71224005D01*
X102451627Y-71231594D01*
X102425783Y-71224005D01*
X102376324Y-71203519D01*
X102262246Y-71188500D01*
X102262244Y-71188500D01*
X102035756Y-71188500D01*
X102035753Y-71188500D01*
X101913488Y-71204597D01*
X101913313Y-71203272D01*
X101850857Y-71201781D01*
X101792064Y-71161982D01*
X101764122Y-71096715D01*
X101766924Y-71057580D01*
X101766403Y-71057512D01*
X101774474Y-70996204D01*
X101782500Y-70935244D01*
X101782500Y-70708756D01*
X101767481Y-70594676D01*
X101746994Y-70545218D01*
X101739405Y-70474630D01*
X101746995Y-70448781D01*
X101751712Y-70437394D01*
X101767481Y-70399324D01*
X101782500Y-70285244D01*
X101782500Y-70058756D01*
X101767481Y-69944676D01*
X101746994Y-69895218D01*
X101739405Y-69824630D01*
X101746995Y-69798781D01*
X101750843Y-69789491D01*
X101767481Y-69749324D01*
X101782500Y-69635244D01*
X101782500Y-69408756D01*
X101767481Y-69294676D01*
X101746994Y-69245218D01*
X101739405Y-69174630D01*
X101746995Y-69148781D01*
X101764631Y-69106204D01*
X101767481Y-69099324D01*
X101782500Y-68985244D01*
X101782500Y-68758756D01*
X101767481Y-68644676D01*
X101767480Y-68644675D01*
X101766403Y-68636488D01*
X101767729Y-68636313D01*
X101769213Y-68573871D01*
X101809005Y-68515074D01*
X101874269Y-68487124D01*
X101913419Y-68489924D01*
X101913488Y-68489403D01*
X101921675Y-68490480D01*
X101921676Y-68490481D01*
X102035756Y-68505500D01*
X102035763Y-68505500D01*
X102262237Y-68505500D01*
X102262244Y-68505500D01*
X102376324Y-68490481D01*
X102425781Y-68469994D01*
X102496370Y-68462405D01*
X102522218Y-68469994D01*
X102571676Y-68490481D01*
X102685756Y-68505500D01*
X102685763Y-68505500D01*
X102912237Y-68505500D01*
X102912244Y-68505500D01*
X103026324Y-68490481D01*
X103075781Y-68469994D01*
X103146370Y-68462405D01*
X103172218Y-68469994D01*
X103221676Y-68490481D01*
X103335756Y-68505500D01*
X103335763Y-68505500D01*
X103562237Y-68505500D01*
X103562244Y-68505500D01*
X103676324Y-68490481D01*
X103725781Y-68469994D01*
X103796370Y-68462405D01*
X103822218Y-68469994D01*
G37*
%TD.AperFunction*%
%TA.AperFunction,Conductor*%
G36*
X135192121Y-60020002D02*
G01*
X135238614Y-60073658D01*
X135250000Y-60126000D01*
X135250000Y-80874000D01*
X135229998Y-80942121D01*
X135176342Y-80988614D01*
X135124000Y-81000000D01*
X71876000Y-81000000D01*
X71807879Y-80979998D01*
X71761386Y-80926342D01*
X71750000Y-80874000D01*
X71750000Y-77796526D01*
X80917000Y-77796526D01*
X80931583Y-77944594D01*
X80931585Y-77944606D01*
X80989219Y-78134599D01*
X80989225Y-78134614D01*
X81082824Y-78309724D01*
X81208788Y-78463211D01*
X81362275Y-78589175D01*
X81537385Y-78682774D01*
X81537400Y-78682780D01*
X81727393Y-78740414D01*
X81727405Y-78740416D01*
X81875473Y-78754999D01*
X81875491Y-78755000D01*
X82571000Y-78755000D01*
X82571000Y-77501000D01*
X83079000Y-77501000D01*
X83079000Y-78755000D01*
X83774509Y-78755000D01*
X83774526Y-78754999D01*
X83922594Y-78740416D01*
X83922606Y-78740414D01*
X84112599Y-78682780D01*
X84112614Y-78682774D01*
X84287724Y-78589175D01*
X84441211Y-78463211D01*
X84567175Y-78309724D01*
X84633041Y-78186498D01*
X84682793Y-78135850D01*
X84752029Y-78120140D01*
X84818768Y-78144356D01*
X84841562Y-78165960D01*
X84937788Y-78283211D01*
X85091275Y-78409175D01*
X85266385Y-78502774D01*
X85266400Y-78502780D01*
X85456393Y-78560414D01*
X85456405Y-78560416D01*
X85604473Y-78574999D01*
X85604491Y-78575000D01*
X87150000Y-78575000D01*
X87658000Y-78575000D01*
X89203509Y-78575000D01*
X89203526Y-78574999D01*
X89351594Y-78560416D01*
X89351606Y-78560414D01*
X89541599Y-78502780D01*
X89541614Y-78502774D01*
X89716724Y-78409175D01*
X89870211Y-78283211D01*
X89996175Y-78129724D01*
X90089774Y-77954614D01*
X90089780Y-77954599D01*
X90095962Y-77934221D01*
X95596001Y-77934221D01*
X95602481Y-78005553D01*
X95653633Y-78169706D01*
X95742578Y-78316840D01*
X95742586Y-78316850D01*
X95864149Y-78438413D01*
X95864159Y-78438421D01*
X96011293Y-78527366D01*
X96175447Y-78578518D01*
X96246777Y-78584999D01*
X96500000Y-78584999D01*
X97008000Y-78584999D01*
X97261222Y-78584999D01*
X97332553Y-78578518D01*
X97496706Y-78527366D01*
X97643840Y-78438421D01*
X97643850Y-78438413D01*
X97765413Y-78316850D01*
X97765421Y-78316840D01*
X97854366Y-78169706D01*
X97905518Y-78005553D01*
X97905518Y-78005552D01*
X97912000Y-77934222D01*
X97912000Y-77931000D01*
X97008000Y-77931000D01*
X97008000Y-78584999D01*
X96500000Y-78584999D01*
X96500000Y-77931000D01*
X95596001Y-77931000D01*
X95596001Y-77934221D01*
X90095962Y-77934221D01*
X90147414Y-77764606D01*
X90147416Y-77764594D01*
X90161999Y-77616526D01*
X90162000Y-77616508D01*
X90162000Y-77321000D01*
X87658000Y-77321000D01*
X87658000Y-78575000D01*
X87150000Y-78575000D01*
X87150000Y-77321000D01*
X84776000Y-77321000D01*
X84776000Y-77375000D01*
X84755998Y-77443121D01*
X84702342Y-77489614D01*
X84650000Y-77501000D01*
X83079000Y-77501000D01*
X82571000Y-77501000D01*
X80917000Y-77501000D01*
X80917000Y-77796526D01*
X71750000Y-77796526D01*
X71750000Y-76946997D01*
X79551415Y-76946997D01*
X79551415Y-76947002D01*
X79571904Y-77096078D01*
X79571906Y-77096086D01*
X79631860Y-77234116D01*
X79668266Y-77278864D01*
X79726831Y-77350849D01*
X79726837Y-77350853D01*
X79726838Y-77350854D01*
X79849767Y-77437627D01*
X79849773Y-77437630D01*
X79849775Y-77437632D01*
X79991573Y-77488028D01*
X80141710Y-77498297D01*
X80289050Y-77467680D01*
X80422665Y-77398446D01*
X80532647Y-77295730D01*
X80610838Y-77167151D01*
X80627505Y-77107666D01*
X80651438Y-77022250D01*
X80651439Y-77022240D01*
X80654000Y-76947004D01*
X80654000Y-76946995D01*
X80651439Y-76871759D01*
X80651438Y-76871749D01*
X80610838Y-76726849D01*
X80592974Y-76697473D01*
X80917000Y-76697473D01*
X80917000Y-76993000D01*
X82571000Y-76993000D01*
X82571000Y-75739000D01*
X83079000Y-75739000D01*
X83079000Y-76993000D01*
X84603000Y-76993000D01*
X84603000Y-76939000D01*
X84623002Y-76870879D01*
X84676658Y-76824386D01*
X84729000Y-76813000D01*
X87150000Y-76813000D01*
X87150000Y-75559000D01*
X85604473Y-75559000D01*
X85456405Y-75573583D01*
X85456393Y-75573585D01*
X85266400Y-75631219D01*
X85266385Y-75631225D01*
X85091275Y-75724824D01*
X84937788Y-75850788D01*
X84811825Y-76004273D01*
X84745958Y-76127502D01*
X84696205Y-76178150D01*
X84626969Y-76193859D01*
X84560230Y-76169643D01*
X84537437Y-76148039D01*
X84441211Y-76030788D01*
X84287724Y-75904824D01*
X84112614Y-75811225D01*
X84112599Y-75811219D01*
X83922606Y-75753585D01*
X83922594Y-75753583D01*
X83774526Y-75739000D01*
X83079000Y-75739000D01*
X82571000Y-75739000D01*
X81875473Y-75739000D01*
X81727405Y-75753583D01*
X81727393Y-75753585D01*
X81537400Y-75811219D01*
X81537385Y-75811225D01*
X81362275Y-75904824D01*
X81208788Y-76030788D01*
X81082824Y-76184275D01*
X80989225Y-76359385D01*
X80989219Y-76359400D01*
X80931585Y-76549393D01*
X80931583Y-76549405D01*
X80917000Y-76697473D01*
X80592974Y-76697473D01*
X80532647Y-76598270D01*
X80480325Y-76549405D01*
X80422665Y-76495554D01*
X80383052Y-76475028D01*
X80289052Y-76426320D01*
X80210859Y-76410072D01*
X80141710Y-76395703D01*
X80141708Y-76395703D01*
X79991576Y-76405971D01*
X79991574Y-76405971D01*
X79991573Y-76405972D01*
X79874521Y-76447573D01*
X79849772Y-76456369D01*
X79849767Y-76456372D01*
X79726838Y-76543145D01*
X79726829Y-76543153D01*
X79631860Y-76659883D01*
X79571906Y-76797913D01*
X79571904Y-76797921D01*
X79551415Y-76946997D01*
X71750000Y-76946997D01*
X71750000Y-74327600D01*
X73196496Y-74327600D01*
X73216457Y-74517527D01*
X73246526Y-74610070D01*
X73275473Y-74699156D01*
X73275476Y-74699161D01*
X73370958Y-74864541D01*
X73370965Y-74864551D01*
X73498744Y-75006464D01*
X73523571Y-75024502D01*
X73653248Y-75118718D01*
X73827712Y-75196394D01*
X74014513Y-75236100D01*
X74205487Y-75236100D01*
X74392288Y-75196394D01*
X74566752Y-75118718D01*
X74721253Y-75006466D01*
X74723023Y-75004500D01*
X74849034Y-74864551D01*
X74849035Y-74864549D01*
X74849040Y-74864544D01*
X74944527Y-74699156D01*
X75003542Y-74517528D01*
X75023504Y-74327600D01*
X75003542Y-74137672D01*
X74944527Y-73956044D01*
X74849040Y-73790656D01*
X74849038Y-73790654D01*
X74849034Y-73790648D01*
X74721255Y-73648735D01*
X74566752Y-73536482D01*
X74392288Y-73458806D01*
X74205487Y-73419100D01*
X74014513Y-73419100D01*
X73827711Y-73458806D01*
X73653247Y-73536482D01*
X73498744Y-73648735D01*
X73370965Y-73790648D01*
X73370958Y-73790658D01*
X73275476Y-73956038D01*
X73275473Y-73956045D01*
X73216457Y-74137672D01*
X73196496Y-74327600D01*
X71750000Y-74327600D01*
X71750000Y-68073422D01*
X79116500Y-68073422D01*
X79116500Y-69000578D01*
X79116843Y-69004931D01*
X79122743Y-69079904D01*
X79129790Y-69106204D01*
X79170971Y-69259895D01*
X79172171Y-69264371D01*
X79256836Y-69430537D01*
X79258872Y-69434531D01*
X79258876Y-69434537D01*
X79379054Y-69582945D01*
X79532601Y-69707285D01*
X79531245Y-69708958D01*
X79570933Y-69755205D01*
X79580702Y-69825526D01*
X79550901Y-69889966D01*
X79532176Y-69906190D01*
X79532601Y-69906715D01*
X79379054Y-70031054D01*
X79258876Y-70179462D01*
X79258872Y-70179468D01*
X79172170Y-70349630D01*
X79128678Y-70511945D01*
X79122743Y-70534096D01*
X79117975Y-70594676D01*
X79116500Y-70613422D01*
X79116500Y-71540578D01*
X79118428Y-71565068D01*
X79122743Y-71619904D01*
X79122744Y-71619907D01*
X79171098Y-71800369D01*
X79172171Y-71804371D01*
X79256836Y-71970537D01*
X79258872Y-71974531D01*
X79258876Y-71974537D01*
X79379054Y-72122945D01*
X79532601Y-72247285D01*
X79531245Y-72248958D01*
X79570933Y-72295205D01*
X79580702Y-72365526D01*
X79550901Y-72429966D01*
X79532176Y-72446190D01*
X79532601Y-72446715D01*
X79379054Y-72571054D01*
X79258876Y-72719462D01*
X79258872Y-72719468D01*
X79172170Y-72889630D01*
X79143864Y-72995270D01*
X79122743Y-73074096D01*
X79118989Y-73121793D01*
X79116500Y-73153422D01*
X79116500Y-74080578D01*
X79117725Y-74096136D01*
X79122743Y-74159904D01*
X79122744Y-74159907D01*
X79172170Y-74344369D01*
X79258872Y-74514531D01*
X79258876Y-74514537D01*
X79379054Y-74662945D01*
X79527462Y-74783123D01*
X79527465Y-74783125D01*
X79527470Y-74783129D01*
X79697629Y-74869829D01*
X79882096Y-74919257D01*
X79961419Y-74925500D01*
X80888580Y-74925499D01*
X80967904Y-74919257D01*
X81152371Y-74869829D01*
X81322530Y-74783129D01*
X81470945Y-74662945D01*
X81591129Y-74514530D01*
X81677829Y-74344371D01*
X81677830Y-74344365D01*
X81679756Y-74339350D01*
X81722840Y-74282920D01*
X81789593Y-74258741D01*
X81797389Y-74258500D01*
X87010406Y-74258500D01*
X87078527Y-74278502D01*
X87099501Y-74295405D01*
X88148001Y-75343905D01*
X88182027Y-75406217D01*
X88176962Y-75477032D01*
X88134415Y-75533868D01*
X88067895Y-75558679D01*
X88058906Y-75559000D01*
X87658000Y-75559000D01*
X87658000Y-76813000D01*
X90162000Y-76813000D01*
X90162000Y-76517491D01*
X90161999Y-76517473D01*
X90147416Y-76369405D01*
X90147414Y-76369393D01*
X90089780Y-76179400D01*
X90089777Y-76179392D01*
X90084168Y-76168899D01*
X90069695Y-76099393D01*
X90095097Y-76033096D01*
X90152309Y-75991057D01*
X90195289Y-75983500D01*
X94010405Y-75983500D01*
X94078526Y-76003502D01*
X94099500Y-76020405D01*
X94271167Y-76192072D01*
X94374925Y-76261401D01*
X94490215Y-76309155D01*
X94612606Y-76333500D01*
X94612607Y-76333500D01*
X95469500Y-76333500D01*
X95537621Y-76353502D01*
X95584114Y-76407158D01*
X95595500Y-76459499D01*
X95595500Y-76664261D01*
X95601986Y-76735646D01*
X95601986Y-76735647D01*
X95653170Y-76899906D01*
X95653172Y-76899911D01*
X95653173Y-76899913D01*
X95699954Y-76977299D01*
X95718079Y-77045941D01*
X95699955Y-77107666D01*
X95653634Y-77184290D01*
X95602481Y-77348446D01*
X95602481Y-77348447D01*
X95596000Y-77419777D01*
X95596000Y-77423000D01*
X97911999Y-77423000D01*
X97911999Y-77419778D01*
X97905518Y-77348445D01*
X97860503Y-77203985D01*
X97859333Y-77132998D01*
X97896728Y-77072648D01*
X97960814Y-77042095D01*
X97980798Y-77040500D01*
X98110500Y-77040500D01*
X98178621Y-77060502D01*
X98225114Y-77114158D01*
X98236500Y-77166500D01*
X98236500Y-77350000D01*
X98238288Y-77375000D01*
X98241727Y-77423081D01*
X98267654Y-77511379D01*
X98282904Y-77563316D01*
X98317089Y-77616508D01*
X98344778Y-77659594D01*
X98361923Y-77686271D01*
X98472381Y-77781984D01*
X98605330Y-77842700D01*
X98750000Y-77863500D01*
X98750003Y-77863500D01*
X99285764Y-77863500D01*
X99785763Y-77863500D01*
X100249994Y-77863500D01*
X100250000Y-77863500D01*
X100323079Y-77858273D01*
X100463316Y-77817096D01*
X100586271Y-77738077D01*
X100681984Y-77627619D01*
X100742700Y-77494670D01*
X100763500Y-77350000D01*
X100763500Y-76778111D01*
X100742700Y-76633442D01*
X100722226Y-76563713D01*
X100722226Y-76492718D01*
X100760609Y-76432992D01*
X100825190Y-76403499D01*
X100895464Y-76413602D01*
X100932217Y-76439121D01*
X102560167Y-78067071D01*
X102663925Y-78136400D01*
X102779215Y-78184155D01*
X102901606Y-78208500D01*
X102901607Y-78208500D01*
X107737393Y-78208500D01*
X107737394Y-78208500D01*
X107859785Y-78184155D01*
X107975075Y-78136400D01*
X108078833Y-78067071D01*
X108600499Y-77545405D01*
X108662811Y-77511379D01*
X108689594Y-77508500D01*
X108745487Y-77508500D01*
X108932288Y-77468794D01*
X109106752Y-77391118D01*
X109261253Y-77278866D01*
X109346410Y-77184290D01*
X109389034Y-77136951D01*
X109389035Y-77136949D01*
X109389040Y-77136944D01*
X109484527Y-76971556D01*
X109536323Y-76812145D01*
X111934515Y-76812145D01*
X111934515Y-76991855D01*
X111945618Y-77040500D01*
X111974503Y-77167056D01*
X111974506Y-77167063D01*
X112052476Y-77328969D01*
X112052477Y-77328970D01*
X112052478Y-77328972D01*
X112164525Y-77469475D01*
X112305028Y-77581522D01*
X112466941Y-77659496D01*
X112642145Y-77699485D01*
X112821853Y-77699485D01*
X112821855Y-77699485D01*
X112997059Y-77659496D01*
X113158972Y-77581522D01*
X113246745Y-77511526D01*
X116574000Y-77511526D01*
X116588583Y-77659594D01*
X116588585Y-77659606D01*
X116646219Y-77849599D01*
X116646225Y-77849614D01*
X116739824Y-78024724D01*
X116865788Y-78178211D01*
X117019275Y-78304175D01*
X117194385Y-78397774D01*
X117194400Y-78397780D01*
X117384393Y-78455414D01*
X117384405Y-78455416D01*
X117532473Y-78469999D01*
X117532491Y-78470000D01*
X119078000Y-78470000D01*
X119586000Y-78470000D01*
X121131509Y-78470000D01*
X121131526Y-78469999D01*
X121279594Y-78455416D01*
X121279606Y-78455414D01*
X121469599Y-78397780D01*
X121469614Y-78397774D01*
X121644724Y-78304175D01*
X121802996Y-78174285D01*
X121804322Y-78175900D01*
X121858248Y-78146439D01*
X121929065Y-78151487D01*
X121985910Y-78194020D01*
X122010453Y-78257202D01*
X122017583Y-78329595D01*
X122017585Y-78329606D01*
X122075219Y-78519599D01*
X122075225Y-78519614D01*
X122168824Y-78694724D01*
X122294788Y-78848211D01*
X122448275Y-78974175D01*
X122623385Y-79067774D01*
X122623400Y-79067780D01*
X122813393Y-79125414D01*
X122813405Y-79125416D01*
X122961473Y-79139999D01*
X122961491Y-79140000D01*
X123657000Y-79140000D01*
X124165000Y-79140000D01*
X124860509Y-79140000D01*
X124860526Y-79139999D01*
X125008594Y-79125416D01*
X125008606Y-79125414D01*
X125198599Y-79067780D01*
X125198614Y-79067774D01*
X125373724Y-78974175D01*
X125527211Y-78848211D01*
X125653175Y-78694724D01*
X125746774Y-78519614D01*
X125746780Y-78519599D01*
X125804414Y-78329606D01*
X125804416Y-78329594D01*
X125818999Y-78181526D01*
X125819000Y-78181508D01*
X125819000Y-77886000D01*
X124165000Y-77886000D01*
X124165000Y-79140000D01*
X123657000Y-79140000D01*
X123657000Y-77378000D01*
X124165000Y-77378000D01*
X125819000Y-77378000D01*
X125819000Y-77082491D01*
X125818999Y-77082473D01*
X125804416Y-76934405D01*
X125804414Y-76934393D01*
X125746780Y-76744400D01*
X125746774Y-76744385D01*
X125653175Y-76569275D01*
X125527211Y-76415788D01*
X125373724Y-76289824D01*
X125198614Y-76196225D01*
X125198599Y-76196219D01*
X125008606Y-76138585D01*
X125008594Y-76138583D01*
X124860526Y-76124000D01*
X124165000Y-76124000D01*
X124165000Y-77378000D01*
X123657000Y-77378000D01*
X123657000Y-76124000D01*
X122961473Y-76124000D01*
X122813405Y-76138583D01*
X122813393Y-76138585D01*
X122623400Y-76196219D01*
X122623385Y-76196225D01*
X122448275Y-76289824D01*
X122290004Y-76419715D01*
X122288684Y-76418107D01*
X122234693Y-76447573D01*
X122163879Y-76442491D01*
X122107053Y-76399931D01*
X122082546Y-76336796D01*
X122075416Y-76264404D01*
X122075414Y-76264393D01*
X122017780Y-76074400D01*
X122017774Y-76074385D01*
X121924175Y-75899275D01*
X121798211Y-75745788D01*
X121644724Y-75619824D01*
X121469614Y-75526225D01*
X121469599Y-75526219D01*
X121279606Y-75468585D01*
X121279594Y-75468583D01*
X121131526Y-75454000D01*
X119586000Y-75454000D01*
X119586000Y-78470000D01*
X119078000Y-78470000D01*
X119078000Y-77216000D01*
X116574000Y-77216000D01*
X116574000Y-77511526D01*
X113246745Y-77511526D01*
X113299475Y-77469475D01*
X113411522Y-77328972D01*
X113489496Y-77167059D01*
X113529485Y-76991855D01*
X113532000Y-76902000D01*
X113529485Y-76812145D01*
X113526238Y-76797921D01*
X113521718Y-76778114D01*
X113489496Y-76636941D01*
X113411522Y-76475028D01*
X113299475Y-76334525D01*
X113158972Y-76222478D01*
X113158970Y-76222477D01*
X113158969Y-76222476D01*
X112997063Y-76144506D01*
X112997064Y-76144506D01*
X112997059Y-76144504D01*
X112997057Y-76144503D01*
X112997056Y-76144503D01*
X112913074Y-76125335D01*
X112821855Y-76104515D01*
X112821853Y-76104515D01*
X112642147Y-76104515D01*
X112642145Y-76104515D01*
X112562169Y-76122768D01*
X112466943Y-76144503D01*
X112466936Y-76144506D01*
X112305030Y-76222476D01*
X112164525Y-76334525D01*
X112052476Y-76475030D01*
X111974506Y-76636936D01*
X111974503Y-76636943D01*
X111969267Y-76659885D01*
X111934515Y-76812145D01*
X109536323Y-76812145D01*
X109543542Y-76789928D01*
X109563504Y-76600000D01*
X109543542Y-76410072D01*
X109484527Y-76228444D01*
X109481081Y-76222476D01*
X109464831Y-76194330D01*
X109448092Y-76125335D01*
X109471311Y-76058242D01*
X109509811Y-76022874D01*
X109570321Y-75987089D01*
X109686085Y-75871325D01*
X109686091Y-75871318D01*
X109769429Y-75730401D01*
X109811673Y-75585000D01*
X106941237Y-75585000D01*
X106873116Y-75564998D01*
X106826623Y-75511342D01*
X106816315Y-75442554D01*
X106821099Y-75406217D01*
X106829700Y-75340885D01*
X106829700Y-75285500D01*
X106849702Y-75217379D01*
X106903358Y-75170886D01*
X106955700Y-75159500D01*
X107235493Y-75159500D01*
X107235493Y-75159499D01*
X107272254Y-75156606D01*
X107429597Y-75110894D01*
X107431836Y-75109569D01*
X107435859Y-75107191D01*
X107504674Y-75089730D01*
X107564141Y-75107191D01*
X107570399Y-75110892D01*
X107570400Y-75110892D01*
X107570403Y-75110894D01*
X107727746Y-75156606D01*
X107764506Y-75159499D01*
X107764507Y-75159500D01*
X107764516Y-75159500D01*
X108235493Y-75159500D01*
X108235493Y-75159499D01*
X108272254Y-75156606D01*
X108429597Y-75110894D01*
X108431836Y-75109569D01*
X108435859Y-75107191D01*
X108504674Y-75089730D01*
X108564141Y-75107191D01*
X108570399Y-75110892D01*
X108570400Y-75110892D01*
X108570403Y-75110894D01*
X108727746Y-75156606D01*
X108764506Y-75159499D01*
X108764507Y-75159500D01*
X108764516Y-75159500D01*
X109235493Y-75159500D01*
X109235493Y-75159499D01*
X109272254Y-75156606D01*
X109429597Y-75110894D01*
X109457240Y-75094546D01*
X109521379Y-75077000D01*
X109811673Y-75077000D01*
X109828305Y-75054848D01*
X109885202Y-75012382D01*
X109929066Y-75004500D01*
X112074390Y-75004500D01*
X112142511Y-75024502D01*
X112186657Y-75073297D01*
X112191870Y-75083528D01*
X112191875Y-75083537D01*
X112312054Y-75231945D01*
X112460462Y-75352123D01*
X112460465Y-75352125D01*
X112460470Y-75352129D01*
X112630629Y-75438829D01*
X112815096Y-75488257D01*
X112894419Y-75494500D01*
X116721580Y-75494499D01*
X116800904Y-75488257D01*
X116800910Y-75488255D01*
X116800913Y-75488255D01*
X116806604Y-75487278D01*
X116806859Y-75488765D01*
X116870616Y-75490274D01*
X116929418Y-75530059D01*
X116957376Y-75595319D01*
X116945613Y-75665335D01*
X116912204Y-75707695D01*
X116865789Y-75745787D01*
X116739824Y-75899275D01*
X116646225Y-76074385D01*
X116646219Y-76074400D01*
X116588585Y-76264393D01*
X116588583Y-76264405D01*
X116574000Y-76412473D01*
X116574000Y-76708000D01*
X119078000Y-76708000D01*
X119078000Y-75454000D01*
X117532473Y-75454000D01*
X117378403Y-75469174D01*
X117308650Y-75455945D01*
X117257122Y-75407104D01*
X117240179Y-75338159D01*
X117263201Y-75270999D01*
X117286760Y-75245861D01*
X117303945Y-75231945D01*
X117424129Y-75083530D01*
X117510829Y-74913371D01*
X117560257Y-74728904D01*
X117566500Y-74649581D01*
X117566500Y-74645565D01*
X125003000Y-74645565D01*
X125009238Y-74724821D01*
X125009239Y-74724825D01*
X125058639Y-74909191D01*
X125145291Y-75079255D01*
X125145293Y-75079259D01*
X125265409Y-75227590D01*
X125413740Y-75347706D01*
X125413744Y-75347708D01*
X125583808Y-75434360D01*
X125768174Y-75483760D01*
X125768178Y-75483761D01*
X125847434Y-75489999D01*
X125847439Y-75490000D01*
X126057000Y-75490000D01*
X126565000Y-75490000D01*
X126774561Y-75490000D01*
X126774565Y-75489999D01*
X126853821Y-75483761D01*
X126853825Y-75483760D01*
X127038191Y-75434360D01*
X127208255Y-75347708D01*
X127208259Y-75347706D01*
X127356590Y-75227590D01*
X127476706Y-75079259D01*
X127476708Y-75079255D01*
X127563360Y-74909191D01*
X127612760Y-74724825D01*
X127612761Y-74724821D01*
X127618999Y-74645565D01*
X127619000Y-74645561D01*
X127619000Y-74436000D01*
X126565000Y-74436000D01*
X126565000Y-75490000D01*
X126057000Y-75490000D01*
X126057000Y-74436000D01*
X125003000Y-74436000D01*
X125003000Y-74645565D01*
X117566500Y-74645565D01*
X117566499Y-73722420D01*
X117560257Y-73643096D01*
X117519396Y-73490601D01*
X117521086Y-73419626D01*
X117552008Y-73368896D01*
X121148499Y-69772405D01*
X121210811Y-69738379D01*
X121237594Y-69735500D01*
X124936336Y-69735500D01*
X125004457Y-69755502D01*
X125050950Y-69809158D01*
X125058041Y-69828889D01*
X125058171Y-69829371D01*
X125132373Y-69975000D01*
X125144872Y-69999531D01*
X125144876Y-69999537D01*
X125265054Y-70147945D01*
X125418601Y-70272285D01*
X125417245Y-70273958D01*
X125456933Y-70320205D01*
X125466702Y-70390526D01*
X125436901Y-70454966D01*
X125418176Y-70471190D01*
X125418601Y-70471715D01*
X125265054Y-70596054D01*
X125144876Y-70744462D01*
X125144872Y-70744468D01*
X125058170Y-70914630D01*
X125019885Y-71057512D01*
X125008743Y-71099096D01*
X125002500Y-71178419D01*
X125002500Y-71178422D01*
X125002500Y-72105578D01*
X125003867Y-72122945D01*
X125008743Y-72184904D01*
X125008744Y-72184907D01*
X125057140Y-72365526D01*
X125058171Y-72369371D01*
X125141343Y-72532606D01*
X125144872Y-72539531D01*
X125144876Y-72539537D01*
X125265054Y-72687945D01*
X125418601Y-72812285D01*
X125417345Y-72813835D01*
X125457396Y-72860511D01*
X125467160Y-72930833D01*
X125437356Y-72995270D01*
X125418470Y-73011636D01*
X125418875Y-73012136D01*
X125265409Y-73136409D01*
X125145293Y-73284740D01*
X125145291Y-73284744D01*
X125058639Y-73454808D01*
X125009239Y-73639174D01*
X125009238Y-73639178D01*
X125003000Y-73718434D01*
X125003000Y-73928000D01*
X127619000Y-73928000D01*
X127619000Y-73718438D01*
X127618999Y-73718434D01*
X127612761Y-73639178D01*
X127612760Y-73639174D01*
X127563360Y-73454808D01*
X127476708Y-73284744D01*
X127476706Y-73284740D01*
X127356590Y-73136409D01*
X127203125Y-73012136D01*
X127204441Y-73010510D01*
X127164607Y-72964097D01*
X127154837Y-72893775D01*
X127184636Y-72829335D01*
X127203776Y-72812750D01*
X127203399Y-72812285D01*
X127356945Y-72687945D01*
X127386436Y-72651527D01*
X127477129Y-72539530D01*
X127563829Y-72369371D01*
X127613257Y-72184904D01*
X127619500Y-72105581D01*
X127619499Y-71178420D01*
X127613257Y-71099096D01*
X127563829Y-70914629D01*
X127477129Y-70744470D01*
X127462736Y-70726696D01*
X127356945Y-70596054D01*
X127203399Y-70471715D01*
X127204756Y-70470038D01*
X127165075Y-70423814D01*
X127155294Y-70353494D01*
X127185084Y-70289050D01*
X127203825Y-70272811D01*
X127203399Y-70272285D01*
X127356945Y-70147945D01*
X127392937Y-70103499D01*
X127477129Y-69999530D01*
X127563829Y-69829371D01*
X127613257Y-69644904D01*
X127619500Y-69565581D01*
X127619499Y-68638420D01*
X127613257Y-68559096D01*
X127563829Y-68374629D01*
X127477129Y-68204470D01*
X127477123Y-68204462D01*
X127356945Y-68056054D01*
X127203399Y-67931715D01*
X127204756Y-67930038D01*
X127165075Y-67883814D01*
X127155294Y-67813494D01*
X127185084Y-67749050D01*
X127203825Y-67732811D01*
X127203399Y-67732285D01*
X127356945Y-67607945D01*
X127406814Y-67546362D01*
X127477129Y-67459530D01*
X127563829Y-67289371D01*
X127613257Y-67104904D01*
X127619500Y-67025581D01*
X127619499Y-66098420D01*
X127613257Y-66019096D01*
X127563829Y-65834629D01*
X127477129Y-65664470D01*
X127477123Y-65664462D01*
X127356945Y-65516054D01*
X127208537Y-65395876D01*
X127208531Y-65395872D01*
X127208530Y-65395871D01*
X127038371Y-65309171D01*
X127038370Y-65309170D01*
X127038369Y-65309170D01*
X126875874Y-65265630D01*
X126853904Y-65259743D01*
X126774581Y-65253500D01*
X126774577Y-65253500D01*
X125847421Y-65253500D01*
X125801928Y-65257080D01*
X125768096Y-65259743D01*
X125768092Y-65259743D01*
X125768092Y-65259744D01*
X125583630Y-65309170D01*
X125413468Y-65395872D01*
X125413462Y-65395876D01*
X125265054Y-65516054D01*
X125144876Y-65664462D01*
X125144872Y-65664468D01*
X125058170Y-65834630D01*
X125008935Y-66018379D01*
X125008743Y-66019096D01*
X125003229Y-66089158D01*
X125002500Y-66098422D01*
X125002500Y-67025578D01*
X125005774Y-67067185D01*
X125008743Y-67104904D01*
X125015091Y-67128594D01*
X125057056Y-67285213D01*
X125058171Y-67289371D01*
X125114798Y-67400509D01*
X125144872Y-67459531D01*
X125144876Y-67459537D01*
X125265054Y-67607945D01*
X125418601Y-67732285D01*
X125417245Y-67733958D01*
X125456933Y-67780205D01*
X125466702Y-67850526D01*
X125436901Y-67914966D01*
X125418176Y-67931190D01*
X125418601Y-67931715D01*
X125265054Y-68056054D01*
X125144876Y-68204462D01*
X125144872Y-68204468D01*
X125144871Y-68204470D01*
X125058171Y-68374629D01*
X125058043Y-68375106D01*
X125057893Y-68375352D01*
X125055807Y-68380788D01*
X125054812Y-68380406D01*
X125021096Y-68435729D01*
X124957237Y-68466754D01*
X124936336Y-68468500D01*
X120860603Y-68468500D01*
X120793149Y-68481918D01*
X120738215Y-68492845D01*
X120738213Y-68492845D01*
X120738207Y-68492847D01*
X120640067Y-68533499D01*
X120640066Y-68533500D01*
X120622925Y-68540600D01*
X120519171Y-68609926D01*
X120519164Y-68609931D01*
X118402398Y-70726696D01*
X118340086Y-70760722D01*
X118269270Y-70755657D01*
X118212435Y-70713110D01*
X118187624Y-70646590D01*
X118196895Y-70589381D01*
X118209155Y-70559785D01*
X118209233Y-70559394D01*
X118233500Y-70437394D01*
X118233500Y-68262606D01*
X118209155Y-68140215D01*
X118202853Y-68125000D01*
X118161401Y-68024925D01*
X118092072Y-67921167D01*
X117552429Y-67381525D01*
X117518405Y-67319213D01*
X117519818Y-67259820D01*
X117560257Y-67108904D01*
X117566500Y-67029581D01*
X117566499Y-66102420D01*
X117560257Y-66023096D01*
X117510829Y-65838629D01*
X117424129Y-65668470D01*
X117420890Y-65664470D01*
X117303945Y-65520054D01*
X117155537Y-65399876D01*
X117155531Y-65399872D01*
X117155530Y-65399871D01*
X116985371Y-65313171D01*
X116985370Y-65313170D01*
X116985369Y-65313170D01*
X116855707Y-65278427D01*
X116800904Y-65263743D01*
X116721581Y-65257500D01*
X116721577Y-65257500D01*
X112894421Y-65257500D01*
X112848928Y-65261080D01*
X112815096Y-65263743D01*
X112815092Y-65263743D01*
X112815092Y-65263744D01*
X112630630Y-65313170D01*
X112460468Y-65399872D01*
X112460462Y-65399876D01*
X112312054Y-65520054D01*
X112191876Y-65668462D01*
X112191872Y-65668468D01*
X112105170Y-65838630D01*
X112064849Y-65989111D01*
X112055743Y-66023096D01*
X112051521Y-66076739D01*
X112049500Y-66102422D01*
X112049500Y-66774405D01*
X112029498Y-66842526D01*
X111975842Y-66889019D01*
X111905568Y-66899123D01*
X111840988Y-66869629D01*
X111834405Y-66863500D01*
X110403835Y-65432931D01*
X110403833Y-65432929D01*
X110300075Y-65363600D01*
X110184785Y-65315845D01*
X110111086Y-65301185D01*
X110062396Y-65291500D01*
X110062394Y-65291500D01*
X107062394Y-65291500D01*
X106937606Y-65291500D01*
X106937595Y-65291500D01*
X106933042Y-65291948D01*
X106863290Y-65278713D01*
X106811767Y-65229868D01*
X106811585Y-65229554D01*
X106747866Y-65119190D01*
X106733240Y-65093856D01*
X106733238Y-65093854D01*
X106733234Y-65093848D01*
X106605455Y-64951935D01*
X106504950Y-64878914D01*
X106501121Y-64876132D01*
X106457768Y-64819911D01*
X106451693Y-64749175D01*
X106484824Y-64686383D01*
X106546644Y-64651472D01*
X106601380Y-64650951D01*
X106754508Y-64683500D01*
X106754513Y-64683500D01*
X106945487Y-64683500D01*
X107132288Y-64643794D01*
X107306752Y-64566118D01*
X107461253Y-64453866D01*
X107461255Y-64453864D01*
X107467264Y-64447191D01*
X107527709Y-64409950D01*
X107560901Y-64405500D01*
X108911338Y-64405500D01*
X108979459Y-64425502D01*
X109000433Y-64442405D01*
X109091839Y-64533811D01*
X109091844Y-64533815D01*
X109091845Y-64533816D01*
X109239087Y-64622827D01*
X109403351Y-64674013D01*
X109474735Y-64680500D01*
X110489264Y-64680499D01*
X110560649Y-64674013D01*
X110724913Y-64622827D01*
X110872155Y-64533816D01*
X110993816Y-64412155D01*
X111082827Y-64264913D01*
X111134013Y-64100649D01*
X111140500Y-64029265D01*
X111140499Y-63661526D01*
X116574000Y-63661526D01*
X116588583Y-63809594D01*
X116588585Y-63809606D01*
X116646219Y-63999599D01*
X116646225Y-63999614D01*
X116739824Y-64174724D01*
X116865788Y-64328211D01*
X117019275Y-64454175D01*
X117194385Y-64547774D01*
X117194400Y-64547780D01*
X117384393Y-64605414D01*
X117384405Y-64605416D01*
X117532473Y-64619999D01*
X117532491Y-64620000D01*
X119078000Y-64620000D01*
X119078000Y-63366000D01*
X119586000Y-63366000D01*
X119586000Y-64620000D01*
X121131509Y-64620000D01*
X121131526Y-64619999D01*
X121279594Y-64605416D01*
X121279606Y-64605414D01*
X121469599Y-64547780D01*
X121469614Y-64547774D01*
X121644724Y-64454175D01*
X121798211Y-64328211D01*
X121924175Y-64174724D01*
X121990041Y-64051498D01*
X122039793Y-64000850D01*
X122109029Y-63985140D01*
X122175768Y-64009356D01*
X122198562Y-64030960D01*
X122294788Y-64148211D01*
X122448275Y-64274175D01*
X122623385Y-64367774D01*
X122623400Y-64367780D01*
X122813393Y-64425414D01*
X122813405Y-64425416D01*
X122961473Y-64439999D01*
X122961491Y-64440000D01*
X123657000Y-64440000D01*
X124165000Y-64440000D01*
X124860509Y-64440000D01*
X124860526Y-64439999D01*
X125008594Y-64425416D01*
X125008606Y-64425414D01*
X125198599Y-64367780D01*
X125198614Y-64367774D01*
X125373724Y-64274175D01*
X125527211Y-64148211D01*
X125653175Y-63994724D01*
X125746774Y-63819614D01*
X125746780Y-63819599D01*
X125804414Y-63629606D01*
X125804416Y-63629594D01*
X125818999Y-63481526D01*
X125819000Y-63481508D01*
X125819000Y-63231997D01*
X126079415Y-63231997D01*
X126079415Y-63232002D01*
X126099904Y-63381078D01*
X126099906Y-63381086D01*
X126159860Y-63519116D01*
X126206979Y-63577032D01*
X126254831Y-63635849D01*
X126254837Y-63635853D01*
X126254838Y-63635854D01*
X126377767Y-63722627D01*
X126377773Y-63722630D01*
X126377775Y-63722632D01*
X126519573Y-63773028D01*
X126669710Y-63783297D01*
X126817050Y-63752680D01*
X126950665Y-63683446D01*
X127060647Y-63580730D01*
X127138838Y-63452151D01*
X127152487Y-63403438D01*
X127179438Y-63307250D01*
X127179439Y-63307240D01*
X127179674Y-63300351D01*
X127182000Y-63232000D01*
X127179439Y-63156756D01*
X127179438Y-63156754D01*
X127179438Y-63156749D01*
X127138838Y-63011849D01*
X127060647Y-62883270D01*
X127025056Y-62850030D01*
X126950665Y-62780554D01*
X126946138Y-62778208D01*
X126817052Y-62711320D01*
X126743380Y-62696011D01*
X126669710Y-62680703D01*
X126669708Y-62680703D01*
X126519576Y-62690971D01*
X126519574Y-62690971D01*
X126519573Y-62690972D01*
X126400043Y-62733453D01*
X126377772Y-62741369D01*
X126377767Y-62741372D01*
X126254838Y-62828145D01*
X126254829Y-62828153D01*
X126159860Y-62944883D01*
X126099906Y-63082913D01*
X126099904Y-63082921D01*
X126079415Y-63231997D01*
X125819000Y-63231997D01*
X125819000Y-63186000D01*
X124165000Y-63186000D01*
X124165000Y-64440000D01*
X123657000Y-64440000D01*
X123657000Y-63186000D01*
X122133000Y-63186000D01*
X122133000Y-63240000D01*
X122112998Y-63308121D01*
X122059342Y-63354614D01*
X122007000Y-63366000D01*
X119586000Y-63366000D01*
X119078000Y-63366000D01*
X116574000Y-63366000D01*
X116574000Y-63661526D01*
X111140499Y-63661526D01*
X111140499Y-63514736D01*
X111134013Y-63443351D01*
X111082827Y-63279087D01*
X111036044Y-63201699D01*
X111017921Y-63133057D01*
X111036045Y-63071331D01*
X111082365Y-62994709D01*
X111133518Y-62830553D01*
X111133518Y-62830552D01*
X111140000Y-62759222D01*
X111140000Y-62756000D01*
X108824001Y-62756000D01*
X108824001Y-62759221D01*
X108830481Y-62830554D01*
X108875497Y-62975015D01*
X108876667Y-63046002D01*
X108839272Y-63106352D01*
X108775186Y-63136905D01*
X108755202Y-63138500D01*
X107555498Y-63138500D01*
X107487377Y-63118498D01*
X107466197Y-63100496D01*
X107466153Y-63100546D01*
X107464417Y-63098983D01*
X107461864Y-63096813D01*
X107461253Y-63096134D01*
X107461248Y-63096131D01*
X107461248Y-63096130D01*
X107306752Y-62983882D01*
X107132288Y-62906206D01*
X106945487Y-62866500D01*
X106754513Y-62866500D01*
X106567711Y-62906206D01*
X106393247Y-62983882D01*
X106238744Y-63096135D01*
X106110965Y-63238048D01*
X106110958Y-63238058D01*
X106015476Y-63403438D01*
X106015473Y-63403445D01*
X105956457Y-63585072D01*
X105936496Y-63775000D01*
X105956457Y-63964927D01*
X105985168Y-64053289D01*
X106015473Y-64146556D01*
X106015476Y-64146561D01*
X106110958Y-64311941D01*
X106110965Y-64311951D01*
X106238744Y-64453864D01*
X106238747Y-64453866D01*
X106343077Y-64529667D01*
X106386431Y-64585888D01*
X106392506Y-64656624D01*
X106359375Y-64719416D01*
X106297555Y-64754327D01*
X106242819Y-64754849D01*
X106089687Y-64722300D01*
X105898713Y-64722300D01*
X105711911Y-64762006D01*
X105537447Y-64839682D01*
X105382946Y-64951934D01*
X105264661Y-65083303D01*
X105204215Y-65120542D01*
X105133231Y-65119190D01*
X105074247Y-65079676D01*
X105062572Y-65063131D01*
X105022091Y-64994681D01*
X105022085Y-64994674D01*
X104906325Y-64878914D01*
X104906318Y-64878908D01*
X104793182Y-64812000D01*
X104744729Y-64760107D01*
X104731974Y-64690740D01*
X104742499Y-64587719D01*
X104742500Y-64587711D01*
X104742499Y-64053290D01*
X104732324Y-63953686D01*
X104691513Y-63830528D01*
X104689073Y-63759574D01*
X104725381Y-63698564D01*
X104788910Y-63666869D01*
X104837317Y-63667650D01*
X104857310Y-63671900D01*
X104857313Y-63671900D01*
X105048287Y-63671900D01*
X105235088Y-63632194D01*
X105409552Y-63554518D01*
X105564053Y-63442266D01*
X105570943Y-63434614D01*
X105691834Y-63300351D01*
X105691835Y-63300349D01*
X105691840Y-63300344D01*
X105787327Y-63134956D01*
X105846342Y-62953328D01*
X105866304Y-62763400D01*
X105846342Y-62573472D01*
X105842768Y-62562473D01*
X116574000Y-62562473D01*
X116574000Y-62858000D01*
X119078000Y-62858000D01*
X119078000Y-61604000D01*
X119586000Y-61604000D01*
X119586000Y-62858000D01*
X121960000Y-62858000D01*
X121960000Y-62804000D01*
X121980002Y-62735879D01*
X122033658Y-62689386D01*
X122086000Y-62678000D01*
X123657000Y-62678000D01*
X124165000Y-62678000D01*
X125819000Y-62678000D01*
X125819000Y-62382491D01*
X125818999Y-62382473D01*
X125804416Y-62234405D01*
X125804414Y-62234393D01*
X125746780Y-62044400D01*
X125746774Y-62044385D01*
X125653175Y-61869275D01*
X125527211Y-61715788D01*
X125373724Y-61589824D01*
X125198614Y-61496225D01*
X125198599Y-61496219D01*
X125008606Y-61438585D01*
X125008594Y-61438583D01*
X124860526Y-61424000D01*
X124165000Y-61424000D01*
X124165000Y-62678000D01*
X123657000Y-62678000D01*
X123657000Y-61424000D01*
X122961473Y-61424000D01*
X122813405Y-61438583D01*
X122813393Y-61438585D01*
X122623400Y-61496219D01*
X122623385Y-61496225D01*
X122448275Y-61589824D01*
X122294788Y-61715788D01*
X122168825Y-61869273D01*
X122102958Y-61992502D01*
X122053205Y-62043150D01*
X121983969Y-62058859D01*
X121917230Y-62034643D01*
X121894437Y-62013039D01*
X121798211Y-61895788D01*
X121644724Y-61769824D01*
X121469614Y-61676225D01*
X121469599Y-61676219D01*
X121279606Y-61618585D01*
X121279594Y-61618583D01*
X121131526Y-61604000D01*
X119586000Y-61604000D01*
X119078000Y-61604000D01*
X117532473Y-61604000D01*
X117384405Y-61618583D01*
X117384393Y-61618585D01*
X117194400Y-61676219D01*
X117194385Y-61676225D01*
X117019275Y-61769824D01*
X116865788Y-61895788D01*
X116739824Y-62049275D01*
X116646225Y-62224385D01*
X116646219Y-62224400D01*
X116588585Y-62414393D01*
X116588583Y-62414405D01*
X116574000Y-62562473D01*
X105842768Y-62562473D01*
X105787327Y-62391844D01*
X105702418Y-62244777D01*
X108824000Y-62244777D01*
X108824000Y-62248000D01*
X109728000Y-62248000D01*
X110236000Y-62248000D01*
X111139999Y-62248000D01*
X111139999Y-62244778D01*
X111133518Y-62173446D01*
X111082366Y-62009293D01*
X110993421Y-61862159D01*
X110993413Y-61862149D01*
X110871850Y-61740586D01*
X110871840Y-61740578D01*
X110724706Y-61651633D01*
X110560552Y-61600481D01*
X110489223Y-61594000D01*
X110236000Y-61594000D01*
X110236000Y-62248000D01*
X109728000Y-62248000D01*
X109728000Y-61594000D01*
X109474778Y-61594000D01*
X109403446Y-61600481D01*
X109239293Y-61651633D01*
X109092159Y-61740578D01*
X109092149Y-61740586D01*
X108970586Y-61862149D01*
X108970578Y-61862159D01*
X108881633Y-62009293D01*
X108830481Y-62173446D01*
X108830481Y-62173447D01*
X108824000Y-62244777D01*
X105702418Y-62244777D01*
X105691840Y-62226456D01*
X105691838Y-62226454D01*
X105691834Y-62226448D01*
X105564055Y-62084535D01*
X105409552Y-61972282D01*
X105235088Y-61894606D01*
X105048287Y-61854900D01*
X104857313Y-61854900D01*
X104670509Y-61894606D01*
X104560058Y-61943782D01*
X104489691Y-61953216D01*
X104442664Y-61935916D01*
X104324694Y-61863152D01*
X104324693Y-61863151D01*
X104324692Y-61863151D01*
X104163314Y-61809676D01*
X104163311Y-61809675D01*
X104163309Y-61809675D01*
X104063719Y-61799500D01*
X103454289Y-61799500D01*
X103354690Y-61809675D01*
X103354687Y-61809675D01*
X103354686Y-61809676D01*
X103274723Y-61836172D01*
X103193307Y-61863151D01*
X103048612Y-61952400D01*
X103048606Y-61952405D01*
X102928405Y-62072606D01*
X102928400Y-62072612D01*
X102839151Y-62217307D01*
X102785675Y-62378690D01*
X102775500Y-62478280D01*
X102775500Y-63012710D01*
X102785675Y-63112309D01*
X102785676Y-63112314D01*
X102827343Y-63238058D01*
X102839151Y-63273692D01*
X102928400Y-63418387D01*
X102928405Y-63418393D01*
X102953917Y-63443905D01*
X102987943Y-63506217D01*
X102982878Y-63577032D01*
X102953917Y-63622095D01*
X102928405Y-63647606D01*
X102928400Y-63647612D01*
X102839151Y-63792307D01*
X102839151Y-63792308D01*
X102798630Y-63914595D01*
X102785675Y-63953690D01*
X102776338Y-64045070D01*
X102749515Y-64110805D01*
X102691411Y-64151603D01*
X102620474Y-64154511D01*
X102599742Y-64147369D01*
X102597911Y-64146554D01*
X102507288Y-64106206D01*
X102320487Y-64066500D01*
X102129513Y-64066500D01*
X101942711Y-64106206D01*
X101768247Y-64183882D01*
X101613746Y-64296134D01*
X101569936Y-64344789D01*
X101509489Y-64382028D01*
X101450104Y-64383724D01*
X101263687Y-64344100D01*
X101072713Y-64344100D01*
X100885911Y-64383806D01*
X100792458Y-64425414D01*
X100728559Y-64453864D01*
X100706168Y-64463833D01*
X100635801Y-64473267D01*
X100619767Y-64469723D01*
X100522255Y-64441394D01*
X100522251Y-64441393D01*
X100485493Y-64438500D01*
X100485484Y-64438500D01*
X100014516Y-64438500D01*
X100014507Y-64438500D01*
X99977748Y-64441393D01*
X99977747Y-64441393D01*
X99820399Y-64487107D01*
X99814135Y-64490812D01*
X99745318Y-64508269D01*
X99685865Y-64490812D01*
X99679600Y-64487107D01*
X99522252Y-64441393D01*
X99485493Y-64438500D01*
X99485484Y-64438500D01*
X99014516Y-64438500D01*
X99014507Y-64438500D01*
X98977748Y-64441393D01*
X98977747Y-64441393D01*
X98820399Y-64487107D01*
X98814135Y-64490812D01*
X98745318Y-64508269D01*
X98685865Y-64490812D01*
X98679600Y-64487107D01*
X98522252Y-64441393D01*
X98485493Y-64438500D01*
X98485484Y-64438500D01*
X98014516Y-64438500D01*
X98014507Y-64438500D01*
X97977748Y-64441393D01*
X97977747Y-64441393D01*
X97820401Y-64487106D01*
X97792760Y-64503454D01*
X97728621Y-64521000D01*
X97438327Y-64521000D01*
X97480570Y-64666401D01*
X97490014Y-64682369D01*
X97507474Y-64751185D01*
X97490017Y-64810643D01*
X97480104Y-64827405D01*
X97434394Y-64984744D01*
X97434393Y-64984748D01*
X97431500Y-65021506D01*
X97431500Y-65045404D01*
X97411498Y-65113525D01*
X97394596Y-65134499D01*
X97206501Y-65322595D01*
X97144189Y-65356620D01*
X97117405Y-65359500D01*
X94752664Y-65359500D01*
X94684543Y-65339498D01*
X94638050Y-65285842D01*
X94630958Y-65266110D01*
X94630829Y-65265629D01*
X94544129Y-65095470D01*
X94542816Y-65093848D01*
X94423945Y-64947054D01*
X94275537Y-64826876D01*
X94275531Y-64826872D01*
X94275530Y-64826871D01*
X94105371Y-64740171D01*
X94105370Y-64740170D01*
X94105369Y-64740170D01*
X93937679Y-64695238D01*
X93920904Y-64690743D01*
X93841581Y-64684500D01*
X93841577Y-64684500D01*
X90014421Y-64684500D01*
X89949989Y-64689571D01*
X89935096Y-64690743D01*
X89935094Y-64690743D01*
X89935086Y-64690744D01*
X89929396Y-64691722D01*
X89929141Y-64690241D01*
X89865350Y-64688714D01*
X89806559Y-64648913D01*
X89778619Y-64583646D01*
X89790401Y-64513633D01*
X89823797Y-64471302D01*
X89870212Y-64433210D01*
X89996175Y-64279724D01*
X90089774Y-64104614D01*
X90089780Y-64104599D01*
X90147414Y-63914606D01*
X90147416Y-63914594D01*
X90161999Y-63766526D01*
X90162000Y-63766508D01*
X90162000Y-63471000D01*
X87658000Y-63471000D01*
X87658000Y-64725000D01*
X89203509Y-64725000D01*
X89203524Y-64724999D01*
X89357595Y-64709825D01*
X89427348Y-64723054D01*
X89478876Y-64771894D01*
X89495820Y-64840839D01*
X89472798Y-64908000D01*
X89449242Y-64933137D01*
X89432051Y-64947058D01*
X89311876Y-65095462D01*
X89311872Y-65095468D01*
X89225170Y-65265630D01*
X89175744Y-65450092D01*
X89175743Y-65450096D01*
X89175422Y-65454178D01*
X89169500Y-65529422D01*
X89169500Y-65805500D01*
X89149498Y-65873621D01*
X89095842Y-65920114D01*
X89043500Y-65931500D01*
X87901350Y-65931500D01*
X87840803Y-65938009D01*
X87840795Y-65938011D01*
X87703797Y-65989110D01*
X87703792Y-65989112D01*
X87586738Y-66076738D01*
X87499112Y-66193792D01*
X87499110Y-66193797D01*
X87448011Y-66330795D01*
X87448009Y-66330803D01*
X87441500Y-66391350D01*
X87441500Y-66988649D01*
X87448009Y-67049196D01*
X87448011Y-67049204D01*
X87499110Y-67186202D01*
X87499113Y-67186207D01*
X87546486Y-67249491D01*
X87571297Y-67316012D01*
X87556205Y-67385386D01*
X87546486Y-67400509D01*
X87499113Y-67463792D01*
X87499110Y-67463797D01*
X87448011Y-67600795D01*
X87448009Y-67600803D01*
X87441500Y-67661350D01*
X87441500Y-68258649D01*
X87448009Y-68319196D01*
X87448011Y-68319204D01*
X87499110Y-68456202D01*
X87499113Y-68456207D01*
X87546486Y-68519491D01*
X87571297Y-68586012D01*
X87556205Y-68655386D01*
X87546486Y-68670509D01*
X87499113Y-68733792D01*
X87499110Y-68733797D01*
X87448011Y-68870795D01*
X87448009Y-68870803D01*
X87441500Y-68931350D01*
X87441500Y-69528649D01*
X87448009Y-69589196D01*
X87448011Y-69589204D01*
X87499110Y-69726202D01*
X87499113Y-69726207D01*
X87546486Y-69789491D01*
X87571297Y-69856012D01*
X87556205Y-69925386D01*
X87546486Y-69940509D01*
X87499113Y-70003792D01*
X87499110Y-70003797D01*
X87448011Y-70140795D01*
X87448009Y-70140803D01*
X87441500Y-70201350D01*
X87441500Y-70798649D01*
X87448009Y-70859196D01*
X87448011Y-70859204D01*
X87499110Y-70996202D01*
X87499112Y-70996207D01*
X87586738Y-71113261D01*
X87703792Y-71200887D01*
X87703794Y-71200888D01*
X87703796Y-71200889D01*
X87762875Y-71222924D01*
X87840795Y-71251988D01*
X87840803Y-71251990D01*
X87901350Y-71258499D01*
X87901355Y-71258499D01*
X87901362Y-71258500D01*
X87901368Y-71258500D01*
X89043500Y-71258500D01*
X89111621Y-71278502D01*
X89158114Y-71332158D01*
X89169500Y-71384499D01*
X89169500Y-71536577D01*
X89171743Y-71565068D01*
X89175743Y-71615904D01*
X89180699Y-71634400D01*
X89223622Y-71794593D01*
X89225171Y-71800371D01*
X89285884Y-71919528D01*
X89311872Y-71970531D01*
X89311876Y-71970537D01*
X89432054Y-72118945D01*
X89585601Y-72243285D01*
X89584245Y-72244958D01*
X89623933Y-72291205D01*
X89633702Y-72361526D01*
X89603901Y-72425966D01*
X89585176Y-72442190D01*
X89585601Y-72442715D01*
X89432054Y-72567054D01*
X89311876Y-72715462D01*
X89311872Y-72715468D01*
X89225170Y-72885630D01*
X89175744Y-73070092D01*
X89175743Y-73070096D01*
X89170524Y-73136409D01*
X89169500Y-73149422D01*
X89169500Y-73219406D01*
X89149498Y-73287527D01*
X89095842Y-73334020D01*
X89025568Y-73344124D01*
X88960988Y-73314630D01*
X88954405Y-73308501D01*
X88228835Y-72582931D01*
X88228833Y-72582929D01*
X88125075Y-72513600D01*
X88009785Y-72465845D01*
X87934505Y-72450871D01*
X87887396Y-72441500D01*
X87887394Y-72441500D01*
X82737596Y-72441500D01*
X82669475Y-72421498D01*
X82648501Y-72404595D01*
X81770404Y-71526498D01*
X81736378Y-71464186D01*
X81733499Y-71437403D01*
X81733499Y-71318845D01*
X81753501Y-71250724D01*
X81807157Y-71204231D01*
X81877431Y-71194127D01*
X81903533Y-71200790D01*
X81903793Y-71200887D01*
X81903796Y-71200889D01*
X82000738Y-71237047D01*
X82040798Y-71251989D01*
X82040803Y-71251990D01*
X82101350Y-71258499D01*
X82101355Y-71258499D01*
X82101362Y-71258500D01*
X82101368Y-71258500D01*
X83298632Y-71258500D01*
X83298638Y-71258500D01*
X83298645Y-71258499D01*
X83298649Y-71258499D01*
X83359196Y-71251990D01*
X83359199Y-71251989D01*
X83359201Y-71251989D01*
X83496204Y-71200889D01*
X83496337Y-71200790D01*
X83613261Y-71113261D01*
X83700887Y-70996207D01*
X83700887Y-70996206D01*
X83700889Y-70996204D01*
X83751989Y-70859201D01*
X83755290Y-70828502D01*
X83758499Y-70798649D01*
X83758500Y-70798632D01*
X83758500Y-70201367D01*
X83758499Y-70201350D01*
X83751990Y-70140803D01*
X83751988Y-70140795D01*
X83711056Y-70031054D01*
X83700889Y-70003796D01*
X83653512Y-69940508D01*
X83628702Y-69873989D01*
X83643793Y-69804615D01*
X83653509Y-69789495D01*
X83700889Y-69726204D01*
X83751989Y-69589201D01*
X83754529Y-69565581D01*
X83758499Y-69528649D01*
X83758500Y-69528632D01*
X83758500Y-68931367D01*
X83758499Y-68931350D01*
X83751990Y-68870803D01*
X83751988Y-68870795D01*
X83710201Y-68758763D01*
X83700889Y-68733796D01*
X83653512Y-68670508D01*
X83628702Y-68603989D01*
X83643793Y-68534615D01*
X83653509Y-68519495D01*
X83700889Y-68456204D01*
X83751989Y-68319201D01*
X83752449Y-68314928D01*
X83758499Y-68258649D01*
X83758500Y-68258632D01*
X83758500Y-67661367D01*
X83758499Y-67661350D01*
X83751990Y-67600803D01*
X83751988Y-67600795D01*
X83731681Y-67546350D01*
X84091500Y-67546350D01*
X84091500Y-69643649D01*
X84098009Y-69704196D01*
X84098011Y-69704204D01*
X84149110Y-69841202D01*
X84149112Y-69841207D01*
X84236738Y-69958261D01*
X84353792Y-70045887D01*
X84353794Y-70045888D01*
X84353796Y-70045889D01*
X84398047Y-70062394D01*
X84490795Y-70096988D01*
X84490803Y-70096990D01*
X84551350Y-70103499D01*
X84551355Y-70103499D01*
X84551362Y-70103500D01*
X84551368Y-70103500D01*
X86648632Y-70103500D01*
X86648638Y-70103500D01*
X86648645Y-70103499D01*
X86648649Y-70103499D01*
X86709196Y-70096990D01*
X86709199Y-70096989D01*
X86709201Y-70096989D01*
X86846204Y-70045889D01*
X86963261Y-69958261D01*
X87016802Y-69886739D01*
X87050887Y-69841207D01*
X87050887Y-69841206D01*
X87050889Y-69841204D01*
X87101989Y-69704201D01*
X87102088Y-69703285D01*
X87108499Y-69643649D01*
X87108500Y-69643632D01*
X87108500Y-67546367D01*
X87108499Y-67546350D01*
X87101990Y-67485803D01*
X87101988Y-67485795D01*
X87070021Y-67400091D01*
X87050889Y-67348796D01*
X87050888Y-67348794D01*
X87050887Y-67348792D01*
X86963261Y-67231738D01*
X86846207Y-67144112D01*
X86846202Y-67144110D01*
X86709204Y-67093011D01*
X86709196Y-67093009D01*
X86648649Y-67086500D01*
X86648638Y-67086500D01*
X84551362Y-67086500D01*
X84551350Y-67086500D01*
X84490803Y-67093009D01*
X84490795Y-67093011D01*
X84353797Y-67144110D01*
X84353792Y-67144112D01*
X84236738Y-67231738D01*
X84149112Y-67348792D01*
X84149110Y-67348797D01*
X84098011Y-67485795D01*
X84098009Y-67485803D01*
X84091500Y-67546350D01*
X83731681Y-67546350D01*
X83700889Y-67463797D01*
X83700889Y-67463796D01*
X83694471Y-67455222D01*
X83653201Y-67400091D01*
X83628390Y-67333570D01*
X83643482Y-67264196D01*
X83653202Y-67249072D01*
X83700443Y-67185966D01*
X83700444Y-67185964D01*
X83751494Y-67049093D01*
X83757999Y-66988597D01*
X83758000Y-66988585D01*
X83758000Y-66940000D01*
X82576000Y-66940000D01*
X82507879Y-66919998D01*
X82461386Y-66866342D01*
X82450000Y-66814000D01*
X82450000Y-66440000D01*
X82950000Y-66440000D01*
X83758000Y-66440000D01*
X83758000Y-66391414D01*
X83757999Y-66391402D01*
X83751494Y-66330906D01*
X83700444Y-66194035D01*
X83700444Y-66194034D01*
X83612904Y-66077095D01*
X83495965Y-65989555D01*
X83359093Y-65938505D01*
X83298597Y-65932000D01*
X82950000Y-65932000D01*
X82950000Y-66440000D01*
X82450000Y-66440000D01*
X82450000Y-65932000D01*
X82101402Y-65932000D01*
X82040905Y-65938505D01*
X81903032Y-65989929D01*
X81832216Y-65994993D01*
X81769904Y-65960968D01*
X81735879Y-65898656D01*
X81733000Y-65871873D01*
X81733000Y-65533438D01*
X81732999Y-65533434D01*
X81726761Y-65454178D01*
X81726760Y-65454174D01*
X81677360Y-65269808D01*
X81590708Y-65099744D01*
X81590706Y-65099740D01*
X81470590Y-64951409D01*
X81322259Y-64831293D01*
X81322255Y-64831291D01*
X81152191Y-64744639D01*
X80967825Y-64695239D01*
X80967821Y-64695238D01*
X80888565Y-64689000D01*
X80679000Y-64689000D01*
X80679000Y-66125000D01*
X80658998Y-66193121D01*
X80605342Y-66239614D01*
X80553000Y-66251000D01*
X79117000Y-66251000D01*
X79117000Y-66460565D01*
X79123238Y-66539821D01*
X79123239Y-66539825D01*
X79172639Y-66724191D01*
X79259291Y-66894255D01*
X79259293Y-66894259D01*
X79379409Y-67042590D01*
X79532875Y-67166864D01*
X79531557Y-67168491D01*
X79571388Y-67214893D01*
X79581164Y-67285213D01*
X79551370Y-67349656D01*
X79532225Y-67366251D01*
X79532601Y-67366715D01*
X79379054Y-67491054D01*
X79258876Y-67639462D01*
X79258872Y-67639468D01*
X79172170Y-67809630D01*
X79138344Y-67935871D01*
X79122743Y-67994096D01*
X79117867Y-68056054D01*
X79116500Y-68073422D01*
X71750000Y-68073422D01*
X71750000Y-65533434D01*
X79117000Y-65533434D01*
X79117000Y-65743000D01*
X80171000Y-65743000D01*
X80171000Y-64689000D01*
X79961434Y-64689000D01*
X79882178Y-64695238D01*
X79882174Y-64695239D01*
X79697808Y-64744639D01*
X79527744Y-64831291D01*
X79527740Y-64831293D01*
X79379409Y-64951409D01*
X79259293Y-65099740D01*
X79259291Y-65099744D01*
X79172639Y-65269808D01*
X79123239Y-65454174D01*
X79123238Y-65454178D01*
X79117000Y-65533434D01*
X71750000Y-65533434D01*
X71750000Y-63096526D01*
X80917000Y-63096526D01*
X80931583Y-63244594D01*
X80931585Y-63244606D01*
X80989219Y-63434599D01*
X80989225Y-63434614D01*
X81082824Y-63609724D01*
X81208788Y-63763211D01*
X81362275Y-63889175D01*
X81537385Y-63982774D01*
X81537400Y-63982780D01*
X81727393Y-64040414D01*
X81727405Y-64040416D01*
X81875473Y-64054999D01*
X81875491Y-64055000D01*
X82571000Y-64055000D01*
X83079000Y-64055000D01*
X83774509Y-64055000D01*
X83774526Y-64054999D01*
X83922594Y-64040416D01*
X83922606Y-64040414D01*
X84112599Y-63982780D01*
X84112614Y-63982774D01*
X84287724Y-63889175D01*
X84445996Y-63759285D01*
X84447322Y-63760900D01*
X84501248Y-63731439D01*
X84572065Y-63736487D01*
X84628910Y-63779020D01*
X84653453Y-63842202D01*
X84660583Y-63914595D01*
X84660585Y-63914606D01*
X84718219Y-64104599D01*
X84718225Y-64104614D01*
X84811824Y-64279724D01*
X84937788Y-64433211D01*
X85091275Y-64559175D01*
X85266385Y-64652774D01*
X85266400Y-64652780D01*
X85456393Y-64710414D01*
X85456405Y-64710416D01*
X85604473Y-64724999D01*
X85604491Y-64725000D01*
X87150000Y-64725000D01*
X87150000Y-63187145D01*
X93206515Y-63187145D01*
X93206515Y-63366855D01*
X93223727Y-63442264D01*
X93246503Y-63542056D01*
X93246506Y-63542063D01*
X93324476Y-63703969D01*
X93324477Y-63703970D01*
X93324478Y-63703972D01*
X93436525Y-63844475D01*
X93577028Y-63956522D01*
X93738941Y-64034496D01*
X93914145Y-64074485D01*
X94093853Y-64074485D01*
X94093855Y-64074485D01*
X94269059Y-64034496D01*
X94313695Y-64013000D01*
X97438327Y-64013000D01*
X97996000Y-64013000D01*
X97996000Y-63480459D01*
X98504000Y-63480459D01*
X98504000Y-64013000D01*
X98996000Y-64013000D01*
X98996000Y-63480459D01*
X99504000Y-63480459D01*
X99504000Y-64013000D01*
X99996000Y-64013000D01*
X100504000Y-64013000D01*
X101061673Y-64013000D01*
X101019429Y-63867598D01*
X100936091Y-63726681D01*
X100936085Y-63726674D01*
X100820325Y-63610914D01*
X100820318Y-63610908D01*
X100679400Y-63527570D01*
X100679402Y-63527570D01*
X100522173Y-63481890D01*
X100504000Y-63480459D01*
X100504000Y-64013000D01*
X99996000Y-64013000D01*
X99996000Y-63480459D01*
X99977828Y-63481890D01*
X99977825Y-63481890D01*
X99820600Y-63527570D01*
X99814134Y-63531394D01*
X99745317Y-63548850D01*
X99685866Y-63531394D01*
X99679399Y-63527570D01*
X99522173Y-63481890D01*
X99504000Y-63480459D01*
X98996000Y-63480459D01*
X98977828Y-63481890D01*
X98977825Y-63481890D01*
X98820600Y-63527570D01*
X98814134Y-63531394D01*
X98745317Y-63548850D01*
X98685866Y-63531394D01*
X98679399Y-63527570D01*
X98522173Y-63481890D01*
X98504000Y-63480459D01*
X97996000Y-63480459D01*
X97977828Y-63481890D01*
X97977825Y-63481890D01*
X97820598Y-63527570D01*
X97679681Y-63610908D01*
X97679674Y-63610914D01*
X97563914Y-63726674D01*
X97563908Y-63726681D01*
X97480570Y-63867598D01*
X97438327Y-64013000D01*
X94313695Y-64013000D01*
X94430972Y-63956522D01*
X94571475Y-63844475D01*
X94683522Y-63703972D01*
X94761496Y-63542059D01*
X94801485Y-63366855D01*
X94804000Y-63277000D01*
X94801485Y-63187145D01*
X94761496Y-63011941D01*
X94683522Y-62850028D01*
X94571475Y-62709525D01*
X94430972Y-62597478D01*
X94430970Y-62597477D01*
X94430969Y-62597476D01*
X94269063Y-62519506D01*
X94269064Y-62519506D01*
X94269059Y-62519504D01*
X94269057Y-62519503D01*
X94269056Y-62519503D01*
X94197483Y-62503167D01*
X94093855Y-62479515D01*
X94093853Y-62479515D01*
X93914147Y-62479515D01*
X93914145Y-62479515D01*
X93834169Y-62497768D01*
X93738943Y-62519503D01*
X93738936Y-62519506D01*
X93577030Y-62597476D01*
X93436525Y-62709525D01*
X93324476Y-62850030D01*
X93246506Y-63011936D01*
X93246503Y-63011943D01*
X93224955Y-63106352D01*
X93206515Y-63187145D01*
X87150000Y-63187145D01*
X87150000Y-62963000D01*
X87658000Y-62963000D01*
X90162000Y-62963000D01*
X90162000Y-62667491D01*
X90161999Y-62667473D01*
X90147416Y-62519405D01*
X90147414Y-62519393D01*
X90089780Y-62329400D01*
X90089774Y-62329385D01*
X89996175Y-62154275D01*
X89870211Y-62000788D01*
X89716724Y-61874824D01*
X89541614Y-61781225D01*
X89541599Y-61781219D01*
X89351606Y-61723585D01*
X89351594Y-61723583D01*
X89203526Y-61709000D01*
X87658000Y-61709000D01*
X87658000Y-62963000D01*
X87150000Y-62963000D01*
X87150000Y-61709000D01*
X85604473Y-61709000D01*
X85456405Y-61723583D01*
X85456393Y-61723585D01*
X85266400Y-61781219D01*
X85266385Y-61781225D01*
X85091275Y-61874824D01*
X84933004Y-62004715D01*
X84931684Y-62003107D01*
X84877693Y-62032573D01*
X84806879Y-62027491D01*
X84750053Y-61984931D01*
X84725546Y-61921796D01*
X84718416Y-61849404D01*
X84718414Y-61849393D01*
X84660780Y-61659400D01*
X84660774Y-61659385D01*
X84567175Y-61484275D01*
X84441211Y-61330788D01*
X84287724Y-61204824D01*
X84112614Y-61111225D01*
X84112599Y-61111219D01*
X83922606Y-61053585D01*
X83922594Y-61053583D01*
X83774526Y-61039000D01*
X83079000Y-61039000D01*
X83079000Y-64055000D01*
X82571000Y-64055000D01*
X82571000Y-62801000D01*
X80917000Y-62801000D01*
X80917000Y-63096526D01*
X71750000Y-63096526D01*
X71750000Y-61997473D01*
X80917000Y-61997473D01*
X80917000Y-62293000D01*
X82571000Y-62293000D01*
X82571000Y-61039000D01*
X81875473Y-61039000D01*
X81727405Y-61053583D01*
X81727393Y-61053585D01*
X81537400Y-61111219D01*
X81537385Y-61111225D01*
X81362275Y-61204824D01*
X81208788Y-61330788D01*
X81082824Y-61484275D01*
X80989225Y-61659385D01*
X80989219Y-61659400D01*
X80931585Y-61849393D01*
X80931583Y-61849405D01*
X80917000Y-61997473D01*
X71750000Y-61997473D01*
X71750000Y-60126000D01*
X71770002Y-60057879D01*
X71823658Y-60011386D01*
X71876000Y-60000000D01*
X135124000Y-60000000D01*
X135192121Y-60020002D01*
G37*
%TD.AperFunction*%
%TD*%
M02*
