%TF.GenerationSoftware,KiCad,Pcbnew,8.0.6*%
%TF.CreationDate,2024-11-25T21:01:29+01:00*%
%TF.ProjectId,nard_sam,6e617264-5f73-4616-9d2e-6b696361645f,rev?*%
%TF.SameCoordinates,Original*%
%TF.FileFunction,Legend,Bot*%
%TF.FilePolarity,Positive*%
%FSLAX46Y46*%
G04 Gerber Fmt 4.6, Leading zero omitted, Abs format (unit mm)*
G04 Created by KiCad (PCBNEW 8.0.6) date 2024-11-25 21:01:29*
%MOMM*%
%LPD*%
G01*
G04 APERTURE LIST*
%ADD10C,0.150000*%
%ADD11C,0.050000*%
%ADD12C,0.120000*%
G04 APERTURE END LIST*
D10*
X101095238Y-76437704D02*
X101095238Y-77237704D01*
X101095238Y-77237704D02*
X101285714Y-77237704D01*
X101285714Y-77237704D02*
X101400000Y-77199609D01*
X101400000Y-77199609D02*
X101476190Y-77123419D01*
X101476190Y-77123419D02*
X101514285Y-77047228D01*
X101514285Y-77047228D02*
X101552381Y-76894847D01*
X101552381Y-76894847D02*
X101552381Y-76780561D01*
X101552381Y-76780561D02*
X101514285Y-76628180D01*
X101514285Y-76628180D02*
X101476190Y-76551990D01*
X101476190Y-76551990D02*
X101400000Y-76475800D01*
X101400000Y-76475800D02*
X101285714Y-76437704D01*
X101285714Y-76437704D02*
X101095238Y-76437704D01*
X101895238Y-76742466D02*
X102504762Y-76742466D01*
X102200000Y-76437704D02*
X102200000Y-77047228D01*
X107538095Y-78337704D02*
X107271428Y-78718657D01*
X107080952Y-78337704D02*
X107080952Y-79137704D01*
X107080952Y-79137704D02*
X107385714Y-79137704D01*
X107385714Y-79137704D02*
X107461904Y-79099609D01*
X107461904Y-79099609D02*
X107499999Y-79061514D01*
X107499999Y-79061514D02*
X107538095Y-78985323D01*
X107538095Y-78985323D02*
X107538095Y-78871038D01*
X107538095Y-78871038D02*
X107499999Y-78794847D01*
X107499999Y-78794847D02*
X107461904Y-78756752D01*
X107461904Y-78756752D02*
X107385714Y-78718657D01*
X107385714Y-78718657D02*
X107080952Y-78718657D01*
X107880952Y-78756752D02*
X108147618Y-78756752D01*
X108261904Y-78337704D02*
X107880952Y-78337704D01*
X107880952Y-78337704D02*
X107880952Y-79137704D01*
X107880952Y-79137704D02*
X108261904Y-79137704D01*
X108566666Y-78375800D02*
X108680952Y-78337704D01*
X108680952Y-78337704D02*
X108871428Y-78337704D01*
X108871428Y-78337704D02*
X108947619Y-78375800D01*
X108947619Y-78375800D02*
X108985714Y-78413895D01*
X108985714Y-78413895D02*
X109023809Y-78490085D01*
X109023809Y-78490085D02*
X109023809Y-78566276D01*
X109023809Y-78566276D02*
X108985714Y-78642466D01*
X108985714Y-78642466D02*
X108947619Y-78680561D01*
X108947619Y-78680561D02*
X108871428Y-78718657D01*
X108871428Y-78718657D02*
X108719047Y-78756752D01*
X108719047Y-78756752D02*
X108642857Y-78794847D01*
X108642857Y-78794847D02*
X108604762Y-78832942D01*
X108604762Y-78832942D02*
X108566666Y-78909133D01*
X108566666Y-78909133D02*
X108566666Y-78985323D01*
X108566666Y-78985323D02*
X108604762Y-79061514D01*
X108604762Y-79061514D02*
X108642857Y-79099609D01*
X108642857Y-79099609D02*
X108719047Y-79137704D01*
X108719047Y-79137704D02*
X108909524Y-79137704D01*
X108909524Y-79137704D02*
X109023809Y-79099609D01*
X109366667Y-78756752D02*
X109633333Y-78756752D01*
X109747619Y-78337704D02*
X109366667Y-78337704D01*
X109366667Y-78337704D02*
X109366667Y-79137704D01*
X109366667Y-79137704D02*
X109747619Y-79137704D01*
X109976191Y-79137704D02*
X110433334Y-79137704D01*
X110204762Y-78337704D02*
X110204762Y-79137704D01*
X99095238Y-76437704D02*
X99095238Y-77237704D01*
X99095238Y-77237704D02*
X99285714Y-77237704D01*
X99285714Y-77237704D02*
X99400000Y-77199609D01*
X99400000Y-77199609D02*
X99476190Y-77123419D01*
X99476190Y-77123419D02*
X99514285Y-77047228D01*
X99514285Y-77047228D02*
X99552381Y-76894847D01*
X99552381Y-76894847D02*
X99552381Y-76780561D01*
X99552381Y-76780561D02*
X99514285Y-76628180D01*
X99514285Y-76628180D02*
X99476190Y-76551990D01*
X99476190Y-76551990D02*
X99400000Y-76475800D01*
X99400000Y-76475800D02*
X99285714Y-76437704D01*
X99285714Y-76437704D02*
X99095238Y-76437704D01*
X99895238Y-76742466D02*
X100504762Y-76742466D01*
X103390476Y-77199609D02*
X103314286Y-77237704D01*
X103314286Y-77237704D02*
X103200000Y-77237704D01*
X103200000Y-77237704D02*
X103085714Y-77199609D01*
X103085714Y-77199609D02*
X103009524Y-77123419D01*
X103009524Y-77123419D02*
X102971429Y-77047228D01*
X102971429Y-77047228D02*
X102933333Y-76894847D01*
X102933333Y-76894847D02*
X102933333Y-76780561D01*
X102933333Y-76780561D02*
X102971429Y-76628180D01*
X102971429Y-76628180D02*
X103009524Y-76551990D01*
X103009524Y-76551990D02*
X103085714Y-76475800D01*
X103085714Y-76475800D02*
X103200000Y-76437704D01*
X103200000Y-76437704D02*
X103276191Y-76437704D01*
X103276191Y-76437704D02*
X103390476Y-76475800D01*
X103390476Y-76475800D02*
X103428572Y-76513895D01*
X103428572Y-76513895D02*
X103428572Y-76780561D01*
X103428572Y-76780561D02*
X103276191Y-76780561D01*
X103771429Y-76437704D02*
X103771429Y-77237704D01*
X103771429Y-77237704D02*
X104228572Y-76437704D01*
X104228572Y-76437704D02*
X104228572Y-77237704D01*
X104609524Y-76437704D02*
X104609524Y-77237704D01*
X104609524Y-77237704D02*
X104800000Y-77237704D01*
X104800000Y-77237704D02*
X104914286Y-77199609D01*
X104914286Y-77199609D02*
X104990476Y-77123419D01*
X104990476Y-77123419D02*
X105028571Y-77047228D01*
X105028571Y-77047228D02*
X105066667Y-76894847D01*
X105066667Y-76894847D02*
X105066667Y-76780561D01*
X105066667Y-76780561D02*
X105028571Y-76628180D01*
X105028571Y-76628180D02*
X104990476Y-76551990D01*
X104990476Y-76551990D02*
X104914286Y-76475800D01*
X104914286Y-76475800D02*
X104800000Y-76437704D01*
X104800000Y-76437704D02*
X104609524Y-76437704D01*
X95533333Y-77237704D02*
X95800000Y-76437704D01*
X95800000Y-76437704D02*
X96066666Y-77237704D01*
X96599999Y-76856752D02*
X96714285Y-76818657D01*
X96714285Y-76818657D02*
X96752380Y-76780561D01*
X96752380Y-76780561D02*
X96790476Y-76704371D01*
X96790476Y-76704371D02*
X96790476Y-76590085D01*
X96790476Y-76590085D02*
X96752380Y-76513895D01*
X96752380Y-76513895D02*
X96714285Y-76475800D01*
X96714285Y-76475800D02*
X96638095Y-76437704D01*
X96638095Y-76437704D02*
X96333333Y-76437704D01*
X96333333Y-76437704D02*
X96333333Y-77237704D01*
X96333333Y-77237704D02*
X96599999Y-77237704D01*
X96599999Y-77237704D02*
X96676190Y-77199609D01*
X96676190Y-77199609D02*
X96714285Y-77161514D01*
X96714285Y-77161514D02*
X96752380Y-77085323D01*
X96752380Y-77085323D02*
X96752380Y-77009133D01*
X96752380Y-77009133D02*
X96714285Y-76932942D01*
X96714285Y-76932942D02*
X96676190Y-76894847D01*
X96676190Y-76894847D02*
X96599999Y-76856752D01*
X96599999Y-76856752D02*
X96333333Y-76856752D01*
X97133333Y-77237704D02*
X97133333Y-76590085D01*
X97133333Y-76590085D02*
X97171428Y-76513895D01*
X97171428Y-76513895D02*
X97209523Y-76475800D01*
X97209523Y-76475800D02*
X97285714Y-76437704D01*
X97285714Y-76437704D02*
X97438095Y-76437704D01*
X97438095Y-76437704D02*
X97514285Y-76475800D01*
X97514285Y-76475800D02*
X97552380Y-76513895D01*
X97552380Y-76513895D02*
X97590476Y-76590085D01*
X97590476Y-76590085D02*
X97590476Y-77237704D01*
X97933332Y-76475800D02*
X98047618Y-76437704D01*
X98047618Y-76437704D02*
X98238094Y-76437704D01*
X98238094Y-76437704D02*
X98314285Y-76475800D01*
X98314285Y-76475800D02*
X98352380Y-76513895D01*
X98352380Y-76513895D02*
X98390475Y-76590085D01*
X98390475Y-76590085D02*
X98390475Y-76666276D01*
X98390475Y-76666276D02*
X98352380Y-76742466D01*
X98352380Y-76742466D02*
X98314285Y-76780561D01*
X98314285Y-76780561D02*
X98238094Y-76818657D01*
X98238094Y-76818657D02*
X98085713Y-76856752D01*
X98085713Y-76856752D02*
X98009523Y-76894847D01*
X98009523Y-76894847D02*
X97971428Y-76932942D01*
X97971428Y-76932942D02*
X97933332Y-77009133D01*
X97933332Y-77009133D02*
X97933332Y-77085323D01*
X97933332Y-77085323D02*
X97971428Y-77161514D01*
X97971428Y-77161514D02*
X98009523Y-77199609D01*
X98009523Y-77199609D02*
X98085713Y-77237704D01*
X98085713Y-77237704D02*
X98276190Y-77237704D01*
X98276190Y-77237704D02*
X98390475Y-77199609D01*
D11*
X106969048Y-78071290D02*
X107254762Y-78071290D01*
X107111905Y-77571290D02*
X107111905Y-78071290D01*
X107421428Y-77571290D02*
X107421428Y-78071290D01*
X107421428Y-78071290D02*
X107611904Y-78071290D01*
X107611904Y-78071290D02*
X107659523Y-78047480D01*
X107659523Y-78047480D02*
X107683333Y-78023671D01*
X107683333Y-78023671D02*
X107707142Y-77976052D01*
X107707142Y-77976052D02*
X107707142Y-77904623D01*
X107707142Y-77904623D02*
X107683333Y-77857004D01*
X107683333Y-77857004D02*
X107659523Y-77833195D01*
X107659523Y-77833195D02*
X107611904Y-77809385D01*
X107611904Y-77809385D02*
X107421428Y-77809385D01*
X108183333Y-77571290D02*
X107897619Y-77571290D01*
X108040476Y-77571290D02*
X108040476Y-78071290D01*
X108040476Y-78071290D02*
X107992857Y-77999861D01*
X107992857Y-77999861D02*
X107945238Y-77952242D01*
X107945238Y-77952242D02*
X107897619Y-77928433D01*
D10*
X94366666Y-71895180D02*
X94366666Y-71180895D01*
X94366666Y-71180895D02*
X94319047Y-71038038D01*
X94319047Y-71038038D02*
X94223809Y-70942800D01*
X94223809Y-70942800D02*
X94080952Y-70895180D01*
X94080952Y-70895180D02*
X93985714Y-70895180D01*
X94747619Y-71895180D02*
X95366666Y-71895180D01*
X95366666Y-71895180D02*
X95033333Y-71514228D01*
X95033333Y-71514228D02*
X95176190Y-71514228D01*
X95176190Y-71514228D02*
X95271428Y-71466609D01*
X95271428Y-71466609D02*
X95319047Y-71418990D01*
X95319047Y-71418990D02*
X95366666Y-71323752D01*
X95366666Y-71323752D02*
X95366666Y-71085657D01*
X95366666Y-71085657D02*
X95319047Y-70990419D01*
X95319047Y-70990419D02*
X95271428Y-70942800D01*
X95271428Y-70942800D02*
X95176190Y-70895180D01*
X95176190Y-70895180D02*
X94890476Y-70895180D01*
X94890476Y-70895180D02*
X94795238Y-70942800D01*
X94795238Y-70942800D02*
X94747619Y-70990419D01*
X95766666Y-79475180D02*
X95766666Y-78760895D01*
X95766666Y-78760895D02*
X95719047Y-78618038D01*
X95719047Y-78618038D02*
X95623809Y-78522800D01*
X95623809Y-78522800D02*
X95480952Y-78475180D01*
X95480952Y-78475180D02*
X95385714Y-78475180D01*
X96719047Y-79475180D02*
X96242857Y-79475180D01*
X96242857Y-79475180D02*
X96195238Y-78998990D01*
X96195238Y-78998990D02*
X96242857Y-79046609D01*
X96242857Y-79046609D02*
X96338095Y-79094228D01*
X96338095Y-79094228D02*
X96576190Y-79094228D01*
X96576190Y-79094228D02*
X96671428Y-79046609D01*
X96671428Y-79046609D02*
X96719047Y-78998990D01*
X96719047Y-78998990D02*
X96766666Y-78903752D01*
X96766666Y-78903752D02*
X96766666Y-78665657D01*
X96766666Y-78665657D02*
X96719047Y-78570419D01*
X96719047Y-78570419D02*
X96671428Y-78522800D01*
X96671428Y-78522800D02*
X96576190Y-78475180D01*
X96576190Y-78475180D02*
X96338095Y-78475180D01*
X96338095Y-78475180D02*
X96242857Y-78522800D01*
X96242857Y-78522800D02*
X96195238Y-78570419D01*
X106266666Y-72570180D02*
X106266666Y-71855895D01*
X106266666Y-71855895D02*
X106219047Y-71713038D01*
X106219047Y-71713038D02*
X106123809Y-71617800D01*
X106123809Y-71617800D02*
X105980952Y-71570180D01*
X105980952Y-71570180D02*
X105885714Y-71570180D01*
X107171428Y-72236847D02*
X107171428Y-71570180D01*
X106933333Y-72617800D02*
X106695238Y-71903514D01*
X106695238Y-71903514D02*
X107314285Y-71903514D01*
X94416666Y-69020180D02*
X94416666Y-68305895D01*
X94416666Y-68305895D02*
X94369047Y-68163038D01*
X94369047Y-68163038D02*
X94273809Y-68067800D01*
X94273809Y-68067800D02*
X94130952Y-68020180D01*
X94130952Y-68020180D02*
X94035714Y-68020180D01*
X95321428Y-69020180D02*
X95130952Y-69020180D01*
X95130952Y-69020180D02*
X95035714Y-68972561D01*
X95035714Y-68972561D02*
X94988095Y-68924942D01*
X94988095Y-68924942D02*
X94892857Y-68782085D01*
X94892857Y-68782085D02*
X94845238Y-68591609D01*
X94845238Y-68591609D02*
X94845238Y-68210657D01*
X94845238Y-68210657D02*
X94892857Y-68115419D01*
X94892857Y-68115419D02*
X94940476Y-68067800D01*
X94940476Y-68067800D02*
X95035714Y-68020180D01*
X95035714Y-68020180D02*
X95226190Y-68020180D01*
X95226190Y-68020180D02*
X95321428Y-68067800D01*
X95321428Y-68067800D02*
X95369047Y-68115419D01*
X95369047Y-68115419D02*
X95416666Y-68210657D01*
X95416666Y-68210657D02*
X95416666Y-68448752D01*
X95416666Y-68448752D02*
X95369047Y-68543990D01*
X95369047Y-68543990D02*
X95321428Y-68591609D01*
X95321428Y-68591609D02*
X95226190Y-68639228D01*
X95226190Y-68639228D02*
X95035714Y-68639228D01*
X95035714Y-68639228D02*
X94940476Y-68591609D01*
X94940476Y-68591609D02*
X94892857Y-68543990D01*
X94892857Y-68543990D02*
X94845238Y-68448752D01*
X106391666Y-69045180D02*
X106391666Y-68330895D01*
X106391666Y-68330895D02*
X106344047Y-68188038D01*
X106344047Y-68188038D02*
X106248809Y-68092800D01*
X106248809Y-68092800D02*
X106105952Y-68045180D01*
X106105952Y-68045180D02*
X106010714Y-68045180D01*
X106772619Y-69045180D02*
X107439285Y-69045180D01*
X107439285Y-69045180D02*
X107010714Y-68045180D01*
D12*
%TO.C,TP1*%
X106500000Y-78700000D02*
G75*
G02*
X105100000Y-78700000I-700000J0D01*
G01*
X105100000Y-78700000D02*
G75*
G02*
X106500000Y-78700000I700000J0D01*
G01*
%TO.C,J3*%
X72780000Y-73330000D02*
X72780000Y-70670000D01*
X73350000Y-69150000D02*
X73350000Y-70670000D01*
X73350000Y-70670000D02*
X72780000Y-70670000D01*
X75890000Y-73330000D02*
X72780000Y-73330000D01*
X78430000Y-70670000D02*
X74870000Y-70670000D01*
X80970000Y-73330000D02*
X77410000Y-73330000D01*
X83510000Y-70670000D02*
X79950000Y-70670000D01*
X86050000Y-73330000D02*
X82490000Y-73330000D01*
X88590000Y-70670000D02*
X85030000Y-70670000D01*
X91130000Y-73330000D02*
X87570000Y-73330000D01*
X93220000Y-70670000D02*
X90110000Y-70670000D01*
X93220000Y-73330000D02*
X92650000Y-73330000D01*
X93220000Y-73330000D02*
X93220000Y-70670000D01*
%TO.C,J5*%
X104610000Y-79970000D02*
X96990000Y-79970000D01*
X96990000Y-77430000D01*
X104610000Y-77430000D01*
X104610000Y-79970000D01*
%TO.C,J4*%
X108340000Y-73330000D02*
X108340000Y-70670000D01*
X108910000Y-69150000D02*
X108910000Y-70670000D01*
X108910000Y-70670000D02*
X108340000Y-70670000D01*
X111450000Y-73330000D02*
X108340000Y-73330000D01*
X113990000Y-70670000D02*
X110430000Y-70670000D01*
X116530000Y-73330000D02*
X112970000Y-73330000D01*
X119070000Y-70670000D02*
X115510000Y-70670000D01*
X121610000Y-73330000D02*
X118050000Y-73330000D01*
X124150000Y-70670000D02*
X120590000Y-70670000D01*
X126690000Y-73330000D02*
X123130000Y-73330000D01*
X129230000Y-70670000D02*
X125670000Y-70670000D01*
X131770000Y-73330000D02*
X128210000Y-73330000D01*
X133860000Y-70670000D02*
X130750000Y-70670000D01*
X133860000Y-73330000D02*
X133290000Y-73330000D01*
X133860000Y-73330000D02*
X133860000Y-70670000D01*
%TO.C,J6*%
X72205000Y-69050000D02*
X93795000Y-69050000D01*
X93795000Y-56350000D01*
X72205000Y-56350000D01*
X72205000Y-69050000D01*
%TO.C,J7*%
X107765000Y-69050000D02*
X134435000Y-69050000D01*
X134435000Y-56350000D01*
X107765000Y-56350000D01*
X107765000Y-69050000D01*
%TD*%
M02*
