%TF.GenerationSoftware,KiCad,Pcbnew,(6.0.9)*%
%TF.CreationDate,2023-03-04T22:36:08+01:00*%
%TF.ProjectId,nard_sam,6e617264-5f73-4616-9d2e-6b696361645f,rev?*%
%TF.SameCoordinates,Original*%
%TF.FileFunction,Copper,L1,Top*%
%TF.FilePolarity,Positive*%
%FSLAX46Y46*%
G04 Gerber Fmt 4.6, Leading zero omitted, Abs format (unit mm)*
G04 Created by KiCad (PCBNEW (6.0.9)) date 2023-03-04 22:36:08*
%MOMM*%
%LPD*%
G01*
G04 APERTURE LIST*
G04 Aperture macros list*
%AMRoundRect*
0 Rectangle with rounded corners*
0 $1 Rounding radius*
0 $2 $3 $4 $5 $6 $7 $8 $9 X,Y pos of 4 corners*
0 Add a 4 corners polygon primitive as box body*
4,1,4,$2,$3,$4,$5,$6,$7,$8,$9,$2,$3,0*
0 Add four circle primitives for the rounded corners*
1,1,$1+$1,$2,$3*
1,1,$1+$1,$4,$5*
1,1,$1+$1,$6,$7*
1,1,$1+$1,$8,$9*
0 Add four rect primitives between the rounded corners*
20,1,$1+$1,$2,$3,$4,$5,0*
20,1,$1+$1,$4,$5,$6,$7,0*
20,1,$1+$1,$6,$7,$8,$9,0*
20,1,$1+$1,$8,$9,$2,$3,0*%
%AMFreePoly0*
4,1,48,0.084742,0.510782,0.088024,0.511361,0.090910,0.509695,0.100652,0.507977,0.115579,0.495451,0.132453,0.485709,0.134767,0.479350,0.139952,0.475000,0.143336,0.455809,0.150000,0.437500,0.150000,-0.437500,0.148282,-0.447242,0.148861,-0.450524,0.147195,-0.453410,0.145477,-0.463152,0.132951,-0.478079,0.123209,-0.494953,0.116850,-0.497267,0.112500,-0.502452,0.093309,-0.505836,
0.075000,-0.512500,0.031066,-0.512500,0.026480,-0.511691,0.024530,-0.512214,0.021542,-0.510821,0.005414,-0.507977,-0.007130,-0.497451,-0.021967,-0.490533,-0.128033,-0.384467,-0.130703,-0.380653,-0.132453,-0.379643,-0.133581,-0.376543,-0.142973,-0.363130,-0.144400,-0.346819,-0.150000,-0.331434,-0.150000,0.437500,-0.148282,0.447242,-0.148861,0.450524,-0.147195,0.453410,-0.145477,0.463152,
-0.132951,0.478079,-0.123209,0.494953,-0.116850,0.497267,-0.112500,0.502452,-0.093309,0.505836,-0.075000,0.512500,0.075000,0.512500,0.084742,0.510782,0.084742,0.510782,$1*%
%AMFreePoly1*
4,1,48,0.084742,0.510782,0.088024,0.511361,0.090910,0.509695,0.100652,0.507977,0.115579,0.495451,0.132453,0.485709,0.134767,0.479350,0.139952,0.475000,0.143336,0.455809,0.150000,0.437500,0.150000,-0.331434,0.149191,-0.336020,0.149714,-0.337970,0.148321,-0.340958,0.145477,-0.357086,0.134951,-0.369630,0.128033,-0.384467,0.021967,-0.490533,0.018153,-0.493203,0.017143,-0.494953,
0.014043,-0.496081,0.000630,-0.505473,-0.015681,-0.506900,-0.031066,-0.512500,-0.075000,-0.512500,-0.084742,-0.510782,-0.088024,-0.511361,-0.090910,-0.509695,-0.100652,-0.507977,-0.115579,-0.495451,-0.132453,-0.485709,-0.134767,-0.479350,-0.139952,-0.475000,-0.143336,-0.455809,-0.150000,-0.437500,-0.150000,0.437500,-0.148282,0.447242,-0.148861,0.450524,-0.147195,0.453410,-0.145477,0.463152,
-0.132951,0.478079,-0.123209,0.494953,-0.116850,0.497267,-0.112500,0.502452,-0.093309,0.505836,-0.075000,0.512500,0.075000,0.512500,0.084742,0.510782,0.084742,0.510782,$1*%
%AMFreePoly2*
4,1,48,0.447242,0.148282,0.450524,0.148861,0.453410,0.147195,0.463152,0.145477,0.478079,0.132951,0.494953,0.123209,0.497267,0.116850,0.502452,0.112500,0.505836,0.093309,0.512500,0.075000,0.512500,-0.075000,0.510782,-0.084742,0.511361,-0.088024,0.509695,-0.090910,0.507977,-0.100652,0.495451,-0.115579,0.485709,-0.132453,0.479350,-0.134767,0.475000,-0.139952,0.455809,-0.143336,
0.437500,-0.150000,-0.437500,-0.150000,-0.447242,-0.148282,-0.450524,-0.148861,-0.453410,-0.147195,-0.463152,-0.145477,-0.478079,-0.132951,-0.494953,-0.123209,-0.497267,-0.116850,-0.502452,-0.112500,-0.505836,-0.093309,-0.512500,-0.075000,-0.512500,-0.031066,-0.511691,-0.026480,-0.512214,-0.024530,-0.510821,-0.021542,-0.507977,-0.005414,-0.497451,0.007130,-0.490533,0.021967,-0.384467,0.128033,
-0.380653,0.130703,-0.379643,0.132453,-0.376543,0.133581,-0.363130,0.142973,-0.346819,0.144400,-0.331434,0.150000,0.437500,0.150000,0.447242,0.148282,0.447242,0.148282,$1*%
%AMFreePoly3*
4,1,48,0.447242,0.148282,0.450524,0.148861,0.453410,0.147195,0.463152,0.145477,0.478079,0.132951,0.494953,0.123209,0.497267,0.116850,0.502452,0.112500,0.505836,0.093309,0.512500,0.075000,0.512500,-0.075000,0.510782,-0.084742,0.511361,-0.088024,0.509695,-0.090910,0.507977,-0.100652,0.495451,-0.115579,0.485709,-0.132453,0.479350,-0.134767,0.475000,-0.139952,0.455809,-0.143336,
0.437500,-0.150000,-0.331434,-0.150000,-0.336020,-0.149191,-0.337970,-0.149714,-0.340958,-0.148321,-0.357086,-0.145477,-0.369630,-0.134951,-0.384467,-0.128033,-0.490533,-0.021967,-0.493203,-0.018153,-0.494953,-0.017143,-0.496081,-0.014043,-0.505473,-0.000630,-0.506900,0.015681,-0.512500,0.031066,-0.512500,0.075000,-0.510782,0.084742,-0.511361,0.088024,-0.509695,0.090910,-0.507977,0.100652,
-0.495451,0.115579,-0.485709,0.132453,-0.479350,0.134767,-0.475000,0.139952,-0.455809,0.143336,-0.437500,0.150000,0.437500,0.150000,0.447242,0.148282,0.447242,0.148282,$1*%
%AMFreePoly4*
4,1,48,-0.026480,0.511691,-0.024530,0.512214,-0.021542,0.510821,-0.005414,0.507977,0.007130,0.497451,0.021967,0.490533,0.128033,0.384467,0.130703,0.380653,0.132453,0.379643,0.133581,0.376543,0.142973,0.363130,0.144400,0.346819,0.150000,0.331434,0.150000,-0.437500,0.148282,-0.447242,0.148861,-0.450524,0.147195,-0.453410,0.145477,-0.463152,0.132951,-0.478079,0.123209,-0.494953,
0.116850,-0.497267,0.112500,-0.502452,0.093309,-0.505836,0.075000,-0.512500,-0.075000,-0.512500,-0.084742,-0.510782,-0.088024,-0.511361,-0.090910,-0.509695,-0.100652,-0.507977,-0.115579,-0.495451,-0.132453,-0.485709,-0.134767,-0.479350,-0.139952,-0.475000,-0.143336,-0.455809,-0.150000,-0.437500,-0.150000,0.437500,-0.148282,0.447242,-0.148861,0.450524,-0.147195,0.453410,-0.145477,0.463152,
-0.132951,0.478079,-0.123209,0.494953,-0.116850,0.497267,-0.112500,0.502452,-0.093309,0.505836,-0.075000,0.512500,-0.031066,0.512500,-0.026480,0.511691,-0.026480,0.511691,$1*%
%AMFreePoly5*
4,1,48,0.084742,0.510782,0.088024,0.511361,0.090910,0.509695,0.100652,0.507977,0.115579,0.495451,0.132453,0.485709,0.134767,0.479350,0.139952,0.475000,0.143336,0.455809,0.150000,0.437500,0.150000,-0.437500,0.148282,-0.447242,0.148861,-0.450524,0.147195,-0.453410,0.145477,-0.463152,0.132951,-0.478079,0.123209,-0.494953,0.116850,-0.497267,0.112500,-0.502452,0.093309,-0.505836,
0.075000,-0.512500,-0.075000,-0.512500,-0.084742,-0.510782,-0.088024,-0.511361,-0.090910,-0.509695,-0.100652,-0.507977,-0.115579,-0.495451,-0.132453,-0.485709,-0.134767,-0.479350,-0.139952,-0.475000,-0.143336,-0.455809,-0.150000,-0.437500,-0.150000,0.331434,-0.149191,0.336020,-0.149714,0.337970,-0.148321,0.340958,-0.145477,0.357086,-0.134951,0.369630,-0.128033,0.384467,-0.021967,0.490533,
-0.018153,0.493203,-0.017143,0.494953,-0.014043,0.496081,-0.000630,0.505473,0.015681,0.506900,0.031066,0.512500,0.075000,0.512500,0.084742,0.510782,0.084742,0.510782,$1*%
%AMFreePoly6*
4,1,48,0.447242,0.148282,0.450524,0.148861,0.453410,0.147195,0.463152,0.145477,0.478079,0.132951,0.494953,0.123209,0.497267,0.116850,0.502452,0.112500,0.505836,0.093309,0.512500,0.075000,0.512500,0.031066,0.511691,0.026480,0.512214,0.024530,0.510821,0.021542,0.507977,0.005414,0.497451,-0.007130,0.490533,-0.021967,0.384467,-0.128033,0.380653,-0.130703,0.379643,-0.132453,
0.376543,-0.133581,0.363130,-0.142973,0.346819,-0.144400,0.331434,-0.150000,-0.437500,-0.150000,-0.447242,-0.148282,-0.450524,-0.148861,-0.453410,-0.147195,-0.463152,-0.145477,-0.478079,-0.132951,-0.494953,-0.123209,-0.497267,-0.116850,-0.502452,-0.112500,-0.505836,-0.093309,-0.512500,-0.075000,-0.512500,0.075000,-0.510782,0.084742,-0.511361,0.088024,-0.509695,0.090910,-0.507977,0.100652,
-0.495451,0.115579,-0.485709,0.132453,-0.479350,0.134767,-0.475000,0.139952,-0.455809,0.143336,-0.437500,0.150000,0.437500,0.150000,0.447242,0.148282,0.447242,0.148282,$1*%
%AMFreePoly7*
4,1,48,0.336020,0.149191,0.337970,0.149714,0.340958,0.148321,0.357086,0.145477,0.369630,0.134951,0.384467,0.128033,0.490533,0.021967,0.493203,0.018153,0.494953,0.017143,0.496081,0.014043,0.505473,0.000630,0.506900,-0.015681,0.512500,-0.031066,0.512500,-0.075000,0.510782,-0.084742,0.511361,-0.088024,0.509695,-0.090910,0.507977,-0.100652,0.495451,-0.115579,0.485709,-0.132453,
0.479350,-0.134767,0.475000,-0.139952,0.455809,-0.143336,0.437500,-0.150000,-0.437500,-0.150000,-0.447242,-0.148282,-0.450524,-0.148861,-0.453410,-0.147195,-0.463152,-0.145477,-0.478079,-0.132951,-0.494953,-0.123209,-0.497267,-0.116850,-0.502452,-0.112500,-0.505836,-0.093309,-0.512500,-0.075000,-0.512500,0.075000,-0.510782,0.084742,-0.511361,0.088024,-0.509695,0.090910,-0.507977,0.100652,
-0.495451,0.115579,-0.485709,0.132453,-0.479350,0.134767,-0.475000,0.139952,-0.455809,0.143336,-0.437500,0.150000,0.331434,0.150000,0.336020,0.149191,0.336020,0.149191,$1*%
G04 Aperture macros list end*
%TA.AperFunction,SMDPad,CuDef*%
%ADD10RoundRect,0.140000X-0.140000X-0.170000X0.140000X-0.170000X0.140000X0.170000X-0.140000X0.170000X0*%
%TD*%
%TA.AperFunction,SMDPad,CuDef*%
%ADD11RoundRect,0.140000X0.170000X-0.140000X0.170000X0.140000X-0.170000X0.140000X-0.170000X-0.140000X0*%
%TD*%
%TA.AperFunction,SMDPad,CuDef*%
%ADD12R,3.200000X3.200000*%
%TD*%
%TA.AperFunction,SMDPad,CuDef*%
%ADD13FreePoly0,270.000000*%
%TD*%
%TA.AperFunction,SMDPad,CuDef*%
%ADD14RoundRect,0.075000X-0.437500X0.075000X-0.437500X-0.075000X0.437500X-0.075000X0.437500X0.075000X0*%
%TD*%
%TA.AperFunction,SMDPad,CuDef*%
%ADD15FreePoly1,270.000000*%
%TD*%
%TA.AperFunction,SMDPad,CuDef*%
%ADD16FreePoly2,270.000000*%
%TD*%
%TA.AperFunction,SMDPad,CuDef*%
%ADD17RoundRect,0.075000X-0.075000X0.437500X-0.075000X-0.437500X0.075000X-0.437500X0.075000X0.437500X0*%
%TD*%
%TA.AperFunction,SMDPad,CuDef*%
%ADD18FreePoly3,270.000000*%
%TD*%
%TA.AperFunction,SMDPad,CuDef*%
%ADD19FreePoly4,270.000000*%
%TD*%
%TA.AperFunction,SMDPad,CuDef*%
%ADD20FreePoly5,270.000000*%
%TD*%
%TA.AperFunction,SMDPad,CuDef*%
%ADD21FreePoly6,270.000000*%
%TD*%
%TA.AperFunction,SMDPad,CuDef*%
%ADD22FreePoly7,270.000000*%
%TD*%
%TA.AperFunction,SMDPad,CuDef*%
%ADD23RoundRect,0.100000X-0.100000X0.130000X-0.100000X-0.130000X0.100000X-0.130000X0.100000X0.130000X0*%
%TD*%
%TA.AperFunction,SMDPad,CuDef*%
%ADD24RoundRect,0.218750X-0.256250X0.218750X-0.256250X-0.218750X0.256250X-0.218750X0.256250X0.218750X0*%
%TD*%
%TA.AperFunction,SMDPad,CuDef*%
%ADD25RoundRect,0.140000X-0.170000X0.140000X-0.170000X-0.140000X0.170000X-0.140000X0.170000X0.140000X0*%
%TD*%
%TA.AperFunction,SMDPad,CuDef*%
%ADD26RoundRect,0.400000X-1.850000X-0.400000X1.850000X-0.400000X1.850000X0.400000X-1.850000X0.400000X0*%
%TD*%
%TA.AperFunction,SMDPad,CuDef*%
%ADD27RoundRect,0.400000X-0.400000X-0.400000X0.400000X-0.400000X0.400000X0.400000X-0.400000X0.400000X0*%
%TD*%
%TA.AperFunction,SMDPad,CuDef*%
%ADD28RoundRect,0.200000X-0.450000X-0.200000X0.450000X-0.200000X0.450000X0.200000X-0.450000X0.200000X0*%
%TD*%
%TA.AperFunction,SMDPad,CuDef*%
%ADD29RoundRect,0.500000X-1.750000X-0.500000X1.750000X-0.500000X1.750000X0.500000X-1.750000X0.500000X0*%
%TD*%
%TA.AperFunction,SMDPad,CuDef*%
%ADD30RoundRect,0.500000X-0.900000X-0.500000X0.900000X-0.500000X0.900000X0.500000X-0.900000X0.500000X0*%
%TD*%
%TA.AperFunction,SMDPad,CuDef*%
%ADD31RoundRect,0.135000X0.185000X-0.135000X0.185000X0.135000X-0.185000X0.135000X-0.185000X-0.135000X0*%
%TD*%
%TA.AperFunction,SMDPad,CuDef*%
%ADD32RoundRect,0.135000X0.135000X0.185000X-0.135000X0.185000X-0.135000X-0.185000X0.135000X-0.185000X0*%
%TD*%
%TA.AperFunction,SMDPad,CuDef*%
%ADD33RoundRect,0.400000X1.850000X0.400000X-1.850000X0.400000X-1.850000X-0.400000X1.850000X-0.400000X0*%
%TD*%
%TA.AperFunction,SMDPad,CuDef*%
%ADD34RoundRect,0.400000X0.400000X0.400000X-0.400000X0.400000X-0.400000X-0.400000X0.400000X-0.400000X0*%
%TD*%
%TA.AperFunction,SMDPad,CuDef*%
%ADD35RoundRect,0.200000X0.450000X0.200000X-0.450000X0.200000X-0.450000X-0.200000X0.450000X-0.200000X0*%
%TD*%
%TA.AperFunction,SMDPad,CuDef*%
%ADD36RoundRect,0.500000X0.900000X0.500000X-0.900000X0.500000X-0.900000X-0.500000X0.900000X-0.500000X0*%
%TD*%
%TA.AperFunction,SMDPad,CuDef*%
%ADD37RoundRect,0.500000X1.750000X0.500000X-1.750000X0.500000X-1.750000X-0.500000X1.750000X-0.500000X0*%
%TD*%
%TA.AperFunction,SMDPad,CuDef*%
%ADD38RoundRect,0.135000X-0.185000X0.135000X-0.185000X-0.135000X0.185000X-0.135000X0.185000X0.135000X0*%
%TD*%
%TA.AperFunction,SMDPad,CuDef*%
%ADD39RoundRect,0.135000X-0.135000X-0.185000X0.135000X-0.185000X0.135000X0.185000X-0.135000X0.185000X0*%
%TD*%
%TA.AperFunction,ViaPad*%
%ADD40C,0.800000*%
%TD*%
%TA.AperFunction,Conductor*%
%ADD41C,0.250000*%
%TD*%
G04 APERTURE END LIST*
D10*
%TO.P,C1,1*%
%TO.N,/VDD5*%
X103406000Y-65565000D03*
%TO.P,C1,2*%
%TO.N,GND*%
X104366000Y-65565000D03*
%TD*%
D11*
%TO.P,C4,1*%
%TO.N,/SC1_VCC*%
X99250000Y-65227000D03*
%TO.P,C4,2*%
%TO.N,GND*%
X99250000Y-64267000D03*
%TD*%
D12*
%TO.P,U1,25,VSS(flag)*%
%TO.N,GND*%
X103124000Y-69847000D03*
D13*
%TO.P,U1,24,SC2_CLK*%
%TO.N,Net-(R5-Pad1)*%
X105486500Y-68222000D03*
D14*
%TO.P,U1,23,SC2_IO*%
%TO.N,/SC2_IO*%
X105486500Y-68872000D03*
%TO.P,U1,22,~{RESET}*%
%TO.N,/~{RESET}*%
X105486500Y-69522000D03*
%TO.P,U1,21,SC2_PRSNT_N/JTAG_TDI*%
%TO.N,/SC2_PRsNT*%
X105486500Y-70172000D03*
%TO.P,U1,20,SC_LED_ACT_N/JTAG_TDO*%
%TO.N,/LED_ACT*%
X105486500Y-70822000D03*
D15*
%TO.P,U1,19,JTAG_CLK*%
%TO.N,unconnected-(U1-Pad19)*%
X105486500Y-71472000D03*
D16*
%TO.P,U1,18,VDD33*%
%TO.N,+3.3VA*%
X104749000Y-72209500D03*
D17*
%TO.P,U1,17,USBUP_DP*%
%TO.N,/USB_DP*%
X104099000Y-72209500D03*
%TO.P,U1,16,USBUP_DM*%
%TO.N,/USB_DM*%
X103449000Y-72209500D03*
%TO.P,U1,15,test*%
%TO.N,unconnected-(U1-Pad15)*%
X102799000Y-72209500D03*
%TO.P,U1,14,SPI1_MOSI/TXD*%
%TO.N,/SEC_TXD*%
X102149000Y-72209500D03*
D18*
%TO.P,U1,13,SPI1_CE/RTS_OUT*%
%TO.N,/SEC_RTS*%
X101499000Y-72209500D03*
D19*
%TO.P,U1,12,SPI1_CLK/CTS_IN*%
%TO.N,/SEC_CTS*%
X100761500Y-71472000D03*
D14*
%TO.P,U1,11,SPI1_MISO/RXD*%
%TO.N,/SEC_RXD*%
X100761500Y-70822000D03*
%TO.P,U1,10,SC1_PRSNT_N/JTAG_TMS*%
%TO.N,/SC1_PRSNT*%
X100761500Y-70172000D03*
%TO.P,U1,9,SC1_VCC*%
%TO.N,/SC1_VCC*%
X100761500Y-69522000D03*
%TO.P,U1,8,SC1_RST_N*%
%TO.N,/SC1_RST*%
X100761500Y-68872000D03*
D20*
%TO.P,U1,7,SC1_CLK*%
%TO.N,Net-(R4-Pad1)*%
X100761500Y-68222000D03*
D21*
%TO.P,U1,6,SC1_IO*%
%TO.N,/SC1_IO*%
X101499000Y-67484500D03*
D17*
%TO.P,U1,5,SC1_C4*%
%TO.N,/SC1_C4*%
X102149000Y-67484500D03*
%TO.P,U1,4,SC1_C8*%
%TO.N,/SC1_C8*%
X102799000Y-67484500D03*
%TO.P,U1,3,VDD5*%
%TO.N,/VDD5*%
X103449000Y-67484500D03*
%TO.P,U1,2,SC2_VCC*%
%TO.N,/SC2_VCC*%
X104099000Y-67484500D03*
D22*
%TO.P,U1,1,SC2_RST_N*%
%TO.N,/SC2_RST*%
X104749000Y-67484500D03*
%TD*%
D23*
%TO.P,D1,2,A*%
%TO.N,Net-(D1-Pad2)*%
X106121200Y-75171000D03*
%TO.P,D1,1,K*%
%TO.N,/LED_ACT*%
X106121200Y-74531000D03*
%TD*%
D24*
%TO.P,L1,1,1*%
%TO.N,+5V*%
X103759000Y-62745500D03*
%TO.P,L1,2,2*%
%TO.N,/VDD5*%
X103759000Y-64320500D03*
%TD*%
D25*
%TO.P,C8,1*%
%TO.N,/SC2_VCC*%
X107000000Y-74371000D03*
%TO.P,C8,2*%
%TO.N,GND*%
X107000000Y-75331000D03*
%TD*%
D10*
%TO.P,C2,1*%
%TO.N,/~{RESET}*%
X107749400Y-70497000D03*
%TO.P,C2,2*%
%TO.N,GND*%
X108709400Y-70497000D03*
%TD*%
D26*
%TO.P,J1,1,VCC*%
%TO.N,/SC1_VCC*%
X91928000Y-65993000D03*
%TO.P,J1,2,RST*%
%TO.N,/SC1_RST*%
X91928000Y-68533000D03*
%TO.P,J1,3,CLK*%
%TO.N,/SC1_CLK*%
X91928000Y-71073000D03*
%TO.P,J1,4,C4*%
%TO.N,/SC1_C4*%
X91928000Y-73613000D03*
D27*
%TO.P,J1,5,GND*%
%TO.N,GND*%
X80425000Y-65997000D03*
%TO.P,J1,6,VPP*%
%TO.N,unconnected-(J1-Pad6)*%
X80425000Y-68537000D03*
%TO.P,J1,7,I/O*%
%TO.N,/SC1_IO*%
X80425000Y-71077000D03*
%TO.P,J1,8,C8*%
%TO.N,/SC1_C8*%
X80425000Y-73617000D03*
D28*
%TO.P,J1,CSW,detect*%
%TO.N,/SC1_PRSNT*%
X96754000Y-76407000D03*
%TO.P,J1,DSW,detect*%
%TO.N,GND*%
X96754000Y-77677000D03*
D29*
%TO.P,J1,sh,shield*%
X87404000Y-77067000D03*
X87404000Y-63217000D03*
D30*
X82825000Y-77247000D03*
X82825000Y-62547000D03*
%TD*%
D25*
%TO.P,C3,1*%
%TO.N,+3.3VA*%
X103250000Y-74371000D03*
%TO.P,C3,2*%
%TO.N,GND*%
X103250000Y-75331000D03*
%TD*%
D31*
%TO.P,R2,1*%
%TO.N,/PC0*%
X101850000Y-75361000D03*
%TO.P,R2,2*%
%TO.N,/SEC_TXD*%
X101850000Y-74341000D03*
%TD*%
D11*
%TO.P,C6,1*%
%TO.N,/SC1_VCC*%
X98250000Y-65227000D03*
%TO.P,C6,2*%
%TO.N,GND*%
X98250000Y-64267000D03*
%TD*%
D32*
%TO.P,R6,1*%
%TO.N,/LED_ACT*%
X105260000Y-74351000D03*
%TO.P,R6,2*%
%TO.N,+3.3VA*%
X104240000Y-74351000D03*
%TD*%
D33*
%TO.P,J2,1,VCC*%
%TO.N,/SC2_VCC*%
X114808000Y-74186000D03*
%TO.P,J2,2,RST*%
%TO.N,/SC2_RST*%
X114808000Y-71646000D03*
%TO.P,J2,3,CLK*%
%TO.N,/SC2_CLK*%
X114808000Y-69106000D03*
%TO.P,J2,4,C4*%
%TO.N,unconnected-(J2-Pad4)*%
X114808000Y-66566000D03*
D34*
%TO.P,J2,5,GND*%
%TO.N,GND*%
X126311000Y-74182000D03*
%TO.P,J2,6,VPP*%
%TO.N,unconnected-(J2-Pad6)*%
X126311000Y-71642000D03*
%TO.P,J2,7,I/O*%
%TO.N,/SC2_IO*%
X126311000Y-69102000D03*
%TO.P,J2,8,C8*%
%TO.N,unconnected-(J2-Pad8)*%
X126311000Y-66562000D03*
D35*
%TO.P,J2,CSW,detect*%
%TO.N,/SC2_PRsNT*%
X109982000Y-63772000D03*
%TO.P,J2,DSW,detect*%
%TO.N,GND*%
X109982000Y-62502000D03*
D36*
%TO.P,J2,sh,shield*%
X123911000Y-62932000D03*
D37*
X119332000Y-76962000D03*
X119332000Y-63112000D03*
D36*
X123911000Y-77632000D03*
%TD*%
D32*
%TO.P,R7,2*%
%TO.N,+3.3VA*%
X104240000Y-75351000D03*
%TO.P,R7,1*%
%TO.N,Net-(D1-Pad2)*%
X105260000Y-75351000D03*
%TD*%
D11*
%TO.P,C9,1*%
%TO.N,/SC1_VCC*%
X100250000Y-65227000D03*
%TO.P,C9,2*%
%TO.N,GND*%
X100250000Y-64267000D03*
%TD*%
D25*
%TO.P,C5,1*%
%TO.N,/SC2_VCC*%
X108000000Y-74371000D03*
%TO.P,C5,2*%
%TO.N,GND*%
X108000000Y-75331000D03*
%TD*%
%TO.P,C7,1*%
%TO.N,/SC2_VCC*%
X109000000Y-74371000D03*
%TO.P,C7,2*%
%TO.N,GND*%
X109000000Y-75331000D03*
%TD*%
D38*
%TO.P,R4,1*%
%TO.N,Net-(R4-Pad1)*%
X99060000Y-67308000D03*
%TO.P,R4,2*%
%TO.N,/SC1_CLK*%
X99060000Y-68328000D03*
%TD*%
D32*
%TO.P,R3,1*%
%TO.N,+5V*%
X108770000Y-69497000D03*
%TO.P,R3,2*%
%TO.N,/~{RESET}*%
X107750000Y-69497000D03*
%TD*%
D39*
%TO.P,R5,1*%
%TO.N,Net-(R5-Pad1)*%
X107165000Y-67050000D03*
%TO.P,R5,2*%
%TO.N,/SC2_CLK*%
X108185000Y-67050000D03*
%TD*%
D31*
%TO.P,R1,1*%
%TO.N,/PC1*%
X100750000Y-75361000D03*
%TO.P,R1,2*%
%TO.N,/SEC_RXD*%
X100750000Y-74341000D03*
%TD*%
D40*
%TO.N,+5V*%
X74110000Y-74327600D03*
X110675000Y-72550000D03*
X104952800Y-62763400D03*
%TO.N,GND*%
X132525000Y-65200000D03*
X101800000Y-63750000D03*
X103900000Y-69011800D03*
X84350000Y-74900000D03*
X130050000Y-74000000D03*
X91050000Y-77050000D03*
X78625000Y-75275000D03*
X129300000Y-63800000D03*
X91000000Y-63200000D03*
X126625000Y-77400000D03*
X107000000Y-62000000D03*
X115475000Y-77325000D03*
X103925000Y-70625000D03*
X115575000Y-63075000D03*
X99263200Y-63373000D03*
X106100000Y-76100000D03*
X112350000Y-62875000D03*
X74075000Y-65150000D03*
X105181400Y-64490600D03*
X102300000Y-69025000D03*
X73975000Y-78350000D03*
X120050000Y-73325000D03*
X84375000Y-64950000D03*
X79950000Y-62575000D03*
X109100000Y-72775000D03*
X78025000Y-65350000D03*
X123750000Y-65125000D03*
X102300000Y-70625000D03*
X119625000Y-65375000D03*
%TO.N,/PC0*%
X107075000Y-76850000D03*
%TO.N,/PC1*%
X108650000Y-76600000D03*
%TO.N,/USB_DM*%
X102768400Y-73456800D03*
%TO.N,/USB_DP*%
X103987600Y-73406000D03*
%TO.N,/~{RESET}*%
X107924600Y-71729600D03*
%TO.N,/SC1_VCC*%
X101168200Y-65252600D03*
X98425000Y-69900000D03*
%TO.N,/SC2_VCC*%
X105994200Y-65630800D03*
X107010200Y-73250800D03*
%TO.N,/SC1_CLK*%
X96050000Y-67625000D03*
X96050000Y-69375000D03*
%TO.N,/SC1_C4*%
X97850000Y-72100000D03*
X101912250Y-66187250D03*
%TO.N,/SC1_IO*%
X100100000Y-66200000D03*
X95200000Y-74750000D03*
%TO.N,/SC1_C8*%
X102225000Y-64975000D03*
X96375000Y-74775000D03*
%TO.N,/SC2_IO*%
X108150000Y-68125000D03*
X110950000Y-69975000D03*
%TO.N,/SC2_PRsNT*%
X106857800Y-70507600D03*
X106850000Y-63775000D03*
%TD*%
D41*
%TO.N,+5V*%
X108770000Y-69497000D02*
X109247000Y-69497000D01*
X109800000Y-71675000D02*
X110675000Y-72550000D01*
X109800000Y-70050000D02*
X109800000Y-71675000D01*
X104934900Y-62745500D02*
X104952800Y-62763400D01*
X103759000Y-62745500D02*
X104934900Y-62745500D01*
X109247000Y-69497000D02*
X109800000Y-70050000D01*
%TO.N,GND*%
X106100000Y-76100000D02*
X106231000Y-76100000D01*
X104366000Y-65565000D02*
X104767400Y-65565000D01*
X89353400Y-77063600D02*
X89350000Y-77067000D01*
X105181400Y-65151000D02*
X105181400Y-64490600D01*
X103250000Y-75331000D02*
X103250000Y-75800000D01*
X103550000Y-76100000D02*
X106100000Y-76100000D01*
X107000000Y-75331000D02*
X108000000Y-75331000D01*
X103250000Y-75800000D02*
X103550000Y-76100000D01*
X99250000Y-64267000D02*
X99250000Y-63386200D01*
X98250000Y-63751200D02*
X98628200Y-63373000D01*
X106231000Y-76100000D02*
X107000000Y-75331000D01*
X109100000Y-70887600D02*
X109100000Y-72775000D01*
X104767400Y-65565000D02*
X105181400Y-65151000D01*
X89321200Y-77038200D02*
X89350000Y-77067000D01*
X99847400Y-63373000D02*
X99263200Y-63373000D01*
X108709400Y-70497000D02*
X109100000Y-70887600D01*
X100250000Y-63775600D02*
X99847400Y-63373000D01*
X98250000Y-64267000D02*
X98250000Y-63751200D01*
X108000000Y-75331000D02*
X109000000Y-75331000D01*
X98628200Y-63373000D02*
X99263200Y-63373000D01*
X99250000Y-63386200D02*
X99263200Y-63373000D01*
X100250000Y-64267000D02*
X100250000Y-63775600D01*
%TO.N,/PC0*%
X103339000Y-76850000D02*
X101850000Y-75361000D01*
X107075000Y-76850000D02*
X103339000Y-76850000D01*
%TO.N,/PC1*%
X108650000Y-76600000D02*
X107675000Y-77575000D01*
X107675000Y-77575000D02*
X102964000Y-77575000D01*
X102964000Y-77575000D02*
X100750000Y-75361000D01*
%TO.N,+3.3VA*%
X104749000Y-72209500D02*
X104749000Y-73842000D01*
X104240000Y-75351000D02*
X104240000Y-74351000D01*
X103250000Y-74371000D02*
X104220000Y-74371000D01*
X104220000Y-74371000D02*
X104240000Y-74351000D01*
X104749000Y-73842000D02*
X104240000Y-74351000D01*
%TO.N,Net-(D1-Pad2)*%
X105941200Y-75351000D02*
X106121200Y-75171000D01*
X105260000Y-75351000D02*
X105941200Y-75351000D01*
%TO.N,/USB_DM*%
X103449000Y-72209500D02*
X103449000Y-72776200D01*
X103449000Y-72776200D02*
X102768400Y-73456800D01*
%TO.N,/USB_DP*%
X104099000Y-72209500D02*
X104099000Y-73294600D01*
X104099000Y-73294600D02*
X103987600Y-73406000D01*
%TO.N,/SEC_RXD*%
X100750000Y-74341000D02*
X100750000Y-73902200D01*
X100750000Y-73902200D02*
X99695000Y-72847200D01*
X99695000Y-72847200D02*
X99695000Y-71069200D01*
X99942200Y-70822000D02*
X100761500Y-70822000D01*
X99695000Y-71069200D02*
X99942200Y-70822000D01*
%TO.N,/SEC_TXD*%
X101850000Y-73308400D02*
X101850000Y-74341000D01*
X102149000Y-73009400D02*
X101850000Y-73308400D01*
X102149000Y-72209500D02*
X102149000Y-73009400D01*
%TO.N,/VDD5*%
X103406000Y-64673500D02*
X103759000Y-64320500D01*
X103406000Y-65565000D02*
X103406000Y-64673500D01*
X103449000Y-67484500D02*
X103449000Y-65608000D01*
X103449000Y-65608000D02*
X103406000Y-65565000D01*
%TO.N,/~{RESET}*%
X107749400Y-70497000D02*
X107749400Y-71554400D01*
X105486500Y-69522000D02*
X107725000Y-69522000D01*
X107749400Y-70497000D02*
X107749400Y-69497600D01*
X107749400Y-71554400D02*
X107924600Y-71729600D01*
X107725000Y-69522000D02*
X107750000Y-69497000D01*
X107749400Y-69497600D02*
X107750000Y-69497000D01*
%TO.N,/SC1_VCC*%
X101168200Y-65252600D02*
X100275600Y-65252600D01*
X99250000Y-65227000D02*
X98250000Y-65227000D01*
X98198000Y-65227000D02*
X98250000Y-65227000D01*
X97432000Y-65993000D02*
X98198000Y-65227000D01*
X98803000Y-69522000D02*
X98425000Y-69900000D01*
X100761500Y-69522000D02*
X98803000Y-69522000D01*
X91928000Y-65993000D02*
X97432000Y-65993000D01*
X100250000Y-65227000D02*
X99250000Y-65227000D01*
X100275600Y-65252600D02*
X100250000Y-65227000D01*
%TO.N,/SC2_VCC*%
X104099000Y-67484500D02*
X104099000Y-66637000D01*
X114623000Y-74371000D02*
X114808000Y-74186000D01*
X107000000Y-74371000D02*
X108000000Y-74371000D01*
X108000000Y-74371000D02*
X109000000Y-74371000D01*
X107010200Y-73250800D02*
X107010200Y-74360800D01*
X105308400Y-66316600D02*
X105994200Y-65630800D01*
X104419400Y-66316600D02*
X105054400Y-66316600D01*
X105054400Y-66316600D02*
X105308400Y-66316600D01*
X109000000Y-74371000D02*
X114623000Y-74371000D01*
X104099000Y-66637000D02*
X104267000Y-66469000D01*
X107010200Y-74360800D02*
X107000000Y-74371000D01*
X104267000Y-66469000D02*
X104419400Y-66316600D01*
%TO.N,/LED_ACT*%
X106375200Y-71282515D02*
X106375200Y-72898000D01*
X106375200Y-72898000D02*
X106121200Y-73152000D01*
X105260000Y-74351000D02*
X105941200Y-74351000D01*
X105914685Y-70822000D02*
X106375200Y-71282515D01*
X106121200Y-73152000D02*
X106121200Y-74531000D01*
X105941200Y-74351000D02*
X106121200Y-74531000D01*
X105486500Y-70822000D02*
X105914685Y-70822000D01*
%TO.N,/SC1_RST*%
X97958000Y-68533000D02*
X91928000Y-68533000D01*
X98450000Y-69025000D02*
X97958000Y-68533000D01*
X99928000Y-68872000D02*
X99775000Y-69025000D01*
X99775000Y-69025000D02*
X98450000Y-69025000D01*
X100761500Y-68872000D02*
X99928000Y-68872000D01*
%TO.N,/SC1_CLK*%
X96050000Y-70000000D02*
X96050000Y-69375000D01*
X91928000Y-71073000D02*
X94977000Y-71073000D01*
X94977000Y-71073000D02*
X96050000Y-70000000D01*
X96075000Y-67650000D02*
X96050000Y-67625000D01*
X99060000Y-68328000D02*
X98503000Y-68328000D01*
X97825000Y-67650000D02*
X96075000Y-67650000D01*
X98503000Y-68328000D02*
X97825000Y-67650000D01*
%TO.N,/SC1_C4*%
X102149000Y-67484500D02*
X102149000Y-66424000D01*
X102149000Y-67324000D02*
X102125000Y-67300000D01*
X102149000Y-67484500D02*
X102149000Y-67324000D01*
X91928000Y-73613000D02*
X96337000Y-73613000D01*
X96337000Y-73613000D02*
X97850000Y-72100000D01*
X102149000Y-66424000D02*
X101912250Y-66187250D01*
%TO.N,/SC1_IO*%
X80425000Y-71077000D02*
X82423000Y-73075000D01*
X89550000Y-74800000D02*
X95150000Y-74800000D01*
X87825000Y-73075000D02*
X89550000Y-74800000D01*
X95150000Y-74800000D02*
X95200000Y-74750000D01*
X82423000Y-73075000D02*
X87825000Y-73075000D01*
X100100000Y-66200000D02*
X100850000Y-66200000D01*
X100850000Y-66200000D02*
X101499000Y-66849000D01*
X101499000Y-66849000D02*
X101499000Y-67484500D01*
%TO.N,/SC1_C8*%
X94325000Y-75350000D02*
X94675000Y-75700000D01*
X95500000Y-75700000D02*
X96375000Y-74825000D01*
X89050000Y-75350000D02*
X94325000Y-75350000D01*
X80433000Y-73625000D02*
X87325000Y-73625000D01*
X87325000Y-73625000D02*
X89050000Y-75350000D01*
X102225000Y-64975000D02*
X102799000Y-65549000D01*
X96375000Y-74825000D02*
X96375000Y-74775000D01*
X102799000Y-65549000D02*
X102799000Y-67484500D01*
X80425000Y-73617000D02*
X80433000Y-73625000D01*
X94675000Y-75700000D02*
X95500000Y-75700000D01*
%TO.N,/SC1_PRSNT*%
X99200000Y-75775000D02*
X98568000Y-76407000D01*
X99955804Y-70172000D02*
X99200000Y-70927804D01*
X100761500Y-70172000D02*
X99955804Y-70172000D01*
X98568000Y-76407000D02*
X96754000Y-76407000D01*
X99200000Y-70927804D02*
X99200000Y-75775000D01*
%TO.N,/SC2_RST*%
X110000000Y-65925000D02*
X111900000Y-67825000D01*
X104749000Y-67484500D02*
X105440500Y-67484500D01*
X107000000Y-65925000D02*
X110000000Y-65925000D01*
X105440500Y-67484500D02*
X107000000Y-65925000D01*
X117600000Y-70375000D02*
X116329000Y-71646000D01*
X111900000Y-67825000D02*
X117100000Y-67825000D01*
X117600000Y-68325000D02*
X117600000Y-70375000D01*
X117100000Y-67825000D02*
X117600000Y-68325000D01*
X116329000Y-71646000D02*
X114808000Y-71646000D01*
%TO.N,/SC2_CLK*%
X109975000Y-67050000D02*
X108185000Y-67050000D01*
X112031000Y-69106000D02*
X109975000Y-67050000D01*
X114808000Y-69106000D02*
X112031000Y-69106000D01*
%TO.N,/SC2_IO*%
X107525000Y-68125000D02*
X108150000Y-68125000D01*
X117100000Y-72925000D02*
X120923000Y-69102000D01*
X105486500Y-68872000D02*
X106778000Y-68872000D01*
X120923000Y-69102000D02*
X126311000Y-69102000D01*
X112525000Y-72925000D02*
X117100000Y-72925000D01*
X110950000Y-69975000D02*
X110950000Y-71350000D01*
X110950000Y-71350000D02*
X112525000Y-72925000D01*
X106778000Y-68872000D02*
X107525000Y-68125000D01*
%TO.N,/SC2_PRsNT*%
X106522200Y-70172000D02*
X106857800Y-70507600D01*
X105486500Y-70172000D02*
X106522200Y-70172000D01*
X106850000Y-63775000D02*
X106853000Y-63772000D01*
X106853000Y-63772000D02*
X109982000Y-63772000D01*
%TO.N,Net-(R4-Pad1)*%
X100761500Y-68222000D02*
X99974000Y-68222000D01*
X99974000Y-68222000D02*
X99060000Y-67308000D01*
%TO.N,Net-(R5-Pad1)*%
X106547000Y-68222000D02*
X106550000Y-68225000D01*
X105486500Y-68222000D02*
X106547000Y-68222000D01*
X107165000Y-67610000D02*
X107165000Y-67050000D01*
X106550000Y-68225000D02*
X107165000Y-67610000D01*
%TD*%
%TA.AperFunction,Conductor*%
%TO.N,GND*%
G36*
X134683621Y-60528502D02*
G01*
X134730114Y-60582158D01*
X134741500Y-60634500D01*
X134741500Y-80365500D01*
X134721498Y-80433621D01*
X134667842Y-80480114D01*
X134615500Y-80491500D01*
X72384500Y-80491500D01*
X72316379Y-80471498D01*
X72269886Y-80417842D01*
X72258500Y-80365500D01*
X72258500Y-76932150D01*
X79040482Y-76932150D01*
X79040998Y-76938294D01*
X79041729Y-76947000D01*
X79049586Y-77040562D01*
X79057852Y-77139004D01*
X79115069Y-77338545D01*
X79117887Y-77344027D01*
X79117888Y-77344031D01*
X79155459Y-77417135D01*
X79209955Y-77523173D01*
X79338894Y-77685854D01*
X79343581Y-77689843D01*
X79343584Y-77689846D01*
X79492284Y-77816399D01*
X79496976Y-77820392D01*
X79678180Y-77921664D01*
X79875603Y-77985810D01*
X80081725Y-78010389D01*
X80087860Y-78009917D01*
X80087862Y-78009917D01*
X80282555Y-77994936D01*
X80282560Y-77994935D01*
X80288696Y-77994463D01*
X80294626Y-77992807D01*
X80294628Y-77992807D01*
X80388664Y-77966552D01*
X80488632Y-77938640D01*
X80495951Y-77934943D01*
X80668416Y-77847825D01*
X80668418Y-77847824D01*
X80673917Y-77845046D01*
X80722670Y-77806956D01*
X80788664Y-77780778D01*
X80858335Y-77794436D01*
X80909562Y-77843592D01*
X80923757Y-77881340D01*
X80955162Y-78037091D01*
X80958752Y-78048833D01*
X81029978Y-78219943D01*
X81035778Y-78230759D01*
X81138885Y-78384779D01*
X81146678Y-78394266D01*
X81277734Y-78525322D01*
X81287221Y-78533115D01*
X81441241Y-78636222D01*
X81452057Y-78642022D01*
X81623167Y-78713248D01*
X81634909Y-78716838D01*
X81818055Y-78753767D01*
X81827267Y-78754923D01*
X81830319Y-78755000D01*
X82552885Y-78755000D01*
X82568124Y-78750525D01*
X82569329Y-78749135D01*
X82571000Y-78741452D01*
X82571000Y-78736885D01*
X83079000Y-78736885D01*
X83083475Y-78752124D01*
X83084865Y-78753329D01*
X83092548Y-78755000D01*
X83819681Y-78755000D01*
X83822733Y-78754923D01*
X83831945Y-78753767D01*
X84015091Y-78716838D01*
X84026833Y-78713248D01*
X84197943Y-78642022D01*
X84208759Y-78636222D01*
X84362779Y-78533115D01*
X84372266Y-78525322D01*
X84503322Y-78394266D01*
X84511115Y-78384779D01*
X84614222Y-78230759D01*
X84620017Y-78219951D01*
X84628639Y-78199239D01*
X84673284Y-78144036D01*
X84740687Y-78121733D01*
X84809447Y-78139411D01*
X84849668Y-78177566D01*
X84867889Y-78204784D01*
X84875678Y-78214266D01*
X85006734Y-78345322D01*
X85016221Y-78353115D01*
X85170241Y-78456222D01*
X85181057Y-78462022D01*
X85352167Y-78533248D01*
X85363909Y-78536838D01*
X85547055Y-78573767D01*
X85556267Y-78574923D01*
X85559319Y-78575000D01*
X87131885Y-78575000D01*
X87147124Y-78570525D01*
X87148329Y-78569135D01*
X87150000Y-78561452D01*
X87150000Y-78556885D01*
X87658000Y-78556885D01*
X87662475Y-78572124D01*
X87663865Y-78573329D01*
X87671548Y-78575000D01*
X89248681Y-78575000D01*
X89251733Y-78574923D01*
X89260945Y-78573767D01*
X89444091Y-78536838D01*
X89455833Y-78533248D01*
X89626943Y-78462022D01*
X89637759Y-78456222D01*
X89791779Y-78353115D01*
X89801266Y-78345322D01*
X89932322Y-78214266D01*
X89940115Y-78204779D01*
X90043222Y-78050759D01*
X90049022Y-78039943D01*
X90090085Y-77941294D01*
X95596709Y-77941294D01*
X95602132Y-78000315D01*
X95604743Y-78013351D01*
X95651715Y-78163243D01*
X95657921Y-78176988D01*
X95738824Y-78310574D01*
X95748131Y-78322443D01*
X95858557Y-78432869D01*
X95870426Y-78442176D01*
X96004012Y-78523079D01*
X96017757Y-78529285D01*
X96167644Y-78576256D01*
X96180694Y-78578869D01*
X96244521Y-78584734D01*
X96250309Y-78585000D01*
X96481885Y-78585000D01*
X96497124Y-78580525D01*
X96498329Y-78579135D01*
X96500000Y-78571452D01*
X96500000Y-78566884D01*
X97008000Y-78566884D01*
X97012475Y-78582123D01*
X97013865Y-78583328D01*
X97021548Y-78584999D01*
X97257705Y-78584999D01*
X97263454Y-78584736D01*
X97327315Y-78578868D01*
X97340351Y-78576257D01*
X97490243Y-78529285D01*
X97503988Y-78523079D01*
X97637574Y-78442176D01*
X97649443Y-78432869D01*
X97759869Y-78322443D01*
X97769176Y-78310574D01*
X97850079Y-78176988D01*
X97856285Y-78163243D01*
X97903256Y-78013356D01*
X97905869Y-78000306D01*
X97910913Y-77945414D01*
X97907525Y-77933876D01*
X97906135Y-77932671D01*
X97898452Y-77931000D01*
X97026115Y-77931000D01*
X97010876Y-77935475D01*
X97009671Y-77936865D01*
X97008000Y-77944548D01*
X97008000Y-78566884D01*
X96500000Y-78566884D01*
X96500000Y-77949115D01*
X96495525Y-77933876D01*
X96494135Y-77932671D01*
X96486452Y-77931000D01*
X95614116Y-77931000D01*
X95598877Y-77935475D01*
X95597672Y-77936865D01*
X95596709Y-77941294D01*
X90090085Y-77941294D01*
X90120248Y-77868833D01*
X90123838Y-77857091D01*
X90160767Y-77673945D01*
X90161923Y-77664733D01*
X90162000Y-77661681D01*
X90162000Y-77339115D01*
X90157525Y-77323876D01*
X90156135Y-77322671D01*
X90148452Y-77321000D01*
X87676115Y-77321000D01*
X87660876Y-77325475D01*
X87659671Y-77326865D01*
X87658000Y-77334548D01*
X87658000Y-78556885D01*
X87150000Y-78556885D01*
X87150000Y-77339115D01*
X87145525Y-77323876D01*
X87144135Y-77322671D01*
X87136452Y-77321000D01*
X84791115Y-77321000D01*
X84775876Y-77325475D01*
X84774671Y-77326865D01*
X84773000Y-77334548D01*
X84773000Y-77375000D01*
X84752998Y-77443121D01*
X84699342Y-77489614D01*
X84647000Y-77501000D01*
X83097115Y-77501000D01*
X83081876Y-77505475D01*
X83080671Y-77506865D01*
X83079000Y-77514548D01*
X83079000Y-78736885D01*
X82571000Y-78736885D01*
X82571000Y-76974885D01*
X83079000Y-76974885D01*
X83083475Y-76990124D01*
X83084865Y-76991329D01*
X83092548Y-76993000D01*
X84587885Y-76993000D01*
X84603124Y-76988525D01*
X84604329Y-76987135D01*
X84606000Y-76979452D01*
X84606000Y-76939000D01*
X84626002Y-76870879D01*
X84679658Y-76824386D01*
X84732000Y-76813000D01*
X87131885Y-76813000D01*
X87147124Y-76808525D01*
X87148329Y-76807135D01*
X87150000Y-76799452D01*
X87150000Y-75577115D01*
X87145525Y-75561876D01*
X87144135Y-75560671D01*
X87136452Y-75559000D01*
X85559319Y-75559000D01*
X85556267Y-75559077D01*
X85547055Y-75560233D01*
X85363909Y-75597162D01*
X85352167Y-75600752D01*
X85181057Y-75671978D01*
X85170241Y-75677778D01*
X85016221Y-75780885D01*
X85006734Y-75788678D01*
X84875678Y-75919734D01*
X84867885Y-75929221D01*
X84764778Y-76083241D01*
X84758983Y-76094049D01*
X84750361Y-76114761D01*
X84705716Y-76169964D01*
X84638313Y-76192267D01*
X84569553Y-76174589D01*
X84529332Y-76136434D01*
X84511111Y-76109216D01*
X84503322Y-76099734D01*
X84372266Y-75968678D01*
X84362779Y-75960885D01*
X84208759Y-75857778D01*
X84197943Y-75851978D01*
X84026833Y-75780752D01*
X84015091Y-75777162D01*
X83831945Y-75740233D01*
X83822733Y-75739077D01*
X83819681Y-75739000D01*
X83097115Y-75739000D01*
X83081876Y-75743475D01*
X83080671Y-75744865D01*
X83079000Y-75752548D01*
X83079000Y-76974885D01*
X82571000Y-76974885D01*
X82571000Y-75757115D01*
X82566525Y-75741876D01*
X82565135Y-75740671D01*
X82557452Y-75739000D01*
X81830319Y-75739000D01*
X81827267Y-75739077D01*
X81818055Y-75740233D01*
X81634909Y-75777162D01*
X81623167Y-75780752D01*
X81452057Y-75851978D01*
X81441241Y-75857778D01*
X81287221Y-75960885D01*
X81277734Y-75968678D01*
X81146678Y-76099734D01*
X81138889Y-76109216D01*
X81074841Y-76204889D01*
X81020324Y-76250369D01*
X80949873Y-76259155D01*
X80885856Y-76228458D01*
X80872493Y-76214430D01*
X80872193Y-76214062D01*
X80858715Y-76197536D01*
X80851770Y-76191790D01*
X80703518Y-76069145D01*
X80703519Y-76069145D01*
X80698770Y-76065217D01*
X80693353Y-76062288D01*
X80693350Y-76062286D01*
X80521590Y-75969416D01*
X80521585Y-75969414D01*
X80516170Y-75966486D01*
X80317871Y-75905102D01*
X80311746Y-75904458D01*
X80311745Y-75904458D01*
X80117554Y-75884048D01*
X80117552Y-75884048D01*
X80111425Y-75883404D01*
X80025515Y-75891223D01*
X79910836Y-75901659D01*
X79910833Y-75901660D01*
X79904697Y-75902218D01*
X79898791Y-75903956D01*
X79898787Y-75903957D01*
X79800166Y-75932983D01*
X79705560Y-75960827D01*
X79521600Y-76056999D01*
X79516800Y-76060859D01*
X79516799Y-76060859D01*
X79483995Y-76087234D01*
X79359823Y-76187071D01*
X79355865Y-76191788D01*
X79355863Y-76191790D01*
X79290629Y-76269533D01*
X79226391Y-76346089D01*
X79223427Y-76351481D01*
X79223424Y-76351485D01*
X79164830Y-76458067D01*
X79126387Y-76527995D01*
X79063621Y-76725861D01*
X79062935Y-76731978D01*
X79062934Y-76731982D01*
X79042341Y-76915580D01*
X79040482Y-76932150D01*
X72258500Y-76932150D01*
X72258500Y-74327600D01*
X73196496Y-74327600D01*
X73197186Y-74334165D01*
X73208506Y-74441865D01*
X73216458Y-74517528D01*
X73275473Y-74699156D01*
X73278776Y-74704878D01*
X73278777Y-74704879D01*
X73295357Y-74733596D01*
X73370960Y-74864544D01*
X73375378Y-74869451D01*
X73375379Y-74869452D01*
X73494325Y-75001555D01*
X73498747Y-75006466D01*
X73555896Y-75047987D01*
X73636926Y-75106859D01*
X73653248Y-75118718D01*
X73659276Y-75121402D01*
X73659278Y-75121403D01*
X73821681Y-75193709D01*
X73827712Y-75196394D01*
X73921113Y-75216247D01*
X74008056Y-75234728D01*
X74008061Y-75234728D01*
X74014513Y-75236100D01*
X74205487Y-75236100D01*
X74211939Y-75234728D01*
X74211944Y-75234728D01*
X74298887Y-75216247D01*
X74392288Y-75196394D01*
X74398319Y-75193709D01*
X74560722Y-75121403D01*
X74560724Y-75121402D01*
X74566752Y-75118718D01*
X74583075Y-75106859D01*
X74664104Y-75047987D01*
X74721253Y-75006466D01*
X74725675Y-75001555D01*
X74844621Y-74869452D01*
X74844622Y-74869451D01*
X74849040Y-74864544D01*
X74924643Y-74733596D01*
X74941223Y-74704879D01*
X74941224Y-74704878D01*
X74944527Y-74699156D01*
X75003542Y-74517528D01*
X75011495Y-74441865D01*
X75022814Y-74334165D01*
X75023504Y-74327600D01*
X75003542Y-74137672D01*
X74944527Y-73956044D01*
X74849040Y-73790656D01*
X74797406Y-73733310D01*
X74725675Y-73653645D01*
X74725674Y-73653644D01*
X74721253Y-73648734D01*
X74566752Y-73536482D01*
X74560724Y-73533798D01*
X74560722Y-73533797D01*
X74398319Y-73461491D01*
X74398318Y-73461491D01*
X74392288Y-73458806D01*
X74284948Y-73435990D01*
X74211944Y-73420472D01*
X74211939Y-73420472D01*
X74205487Y-73419100D01*
X74014513Y-73419100D01*
X74008061Y-73420472D01*
X74008056Y-73420472D01*
X73935052Y-73435990D01*
X73827712Y-73458806D01*
X73821682Y-73461491D01*
X73821681Y-73461491D01*
X73659278Y-73533797D01*
X73659276Y-73533798D01*
X73653248Y-73536482D01*
X73498747Y-73648734D01*
X73494326Y-73653644D01*
X73494325Y-73653645D01*
X73422595Y-73733310D01*
X73370960Y-73790656D01*
X73275473Y-73956044D01*
X73216458Y-74137672D01*
X73196496Y-74327600D01*
X72258500Y-74327600D01*
X72258500Y-73153419D01*
X79116500Y-73153419D01*
X79116501Y-74080580D01*
X79118386Y-74104534D01*
X79120994Y-74137672D01*
X79122743Y-74159904D01*
X79172171Y-74344371D01*
X79175167Y-74350251D01*
X79220324Y-74438876D01*
X79258871Y-74514530D01*
X79263024Y-74519659D01*
X79263027Y-74519663D01*
X79321309Y-74591635D01*
X79379055Y-74662945D01*
X79384186Y-74667100D01*
X79522337Y-74778973D01*
X79522341Y-74778976D01*
X79527470Y-74783129D01*
X79533347Y-74786124D01*
X79533351Y-74786126D01*
X79660675Y-74851000D01*
X79697629Y-74869829D01*
X79704002Y-74871537D01*
X79704003Y-74871537D01*
X79876519Y-74917763D01*
X79876523Y-74917764D01*
X79882096Y-74919257D01*
X79887852Y-74919710D01*
X79958963Y-74925307D01*
X79958970Y-74925307D01*
X79961419Y-74925500D01*
X80424812Y-74925500D01*
X80888580Y-74925499D01*
X80937947Y-74921614D01*
X80962150Y-74919710D01*
X80962152Y-74919710D01*
X80967904Y-74919257D01*
X81152371Y-74869829D01*
X81189325Y-74851000D01*
X81316649Y-74786126D01*
X81316653Y-74786124D01*
X81322530Y-74783129D01*
X81327659Y-74778976D01*
X81327663Y-74778973D01*
X81465814Y-74667100D01*
X81470945Y-74662945D01*
X81528691Y-74591635D01*
X81586973Y-74519663D01*
X81586976Y-74519659D01*
X81591129Y-74514530D01*
X81629677Y-74438876D01*
X81674833Y-74350251D01*
X81677829Y-74344371D01*
X81679260Y-74339030D01*
X81722104Y-74282918D01*
X81788858Y-74258741D01*
X81796650Y-74258500D01*
X87010406Y-74258500D01*
X87078527Y-74278502D01*
X87099501Y-74295405D01*
X88148001Y-75343905D01*
X88182027Y-75406217D01*
X88176962Y-75477032D01*
X88134415Y-75533868D01*
X88067895Y-75558679D01*
X88058906Y-75559000D01*
X87676115Y-75559000D01*
X87660876Y-75563475D01*
X87659671Y-75564865D01*
X87658000Y-75572548D01*
X87658000Y-76794885D01*
X87662475Y-76810124D01*
X87663865Y-76811329D01*
X87671548Y-76813000D01*
X90143885Y-76813000D01*
X90159124Y-76808525D01*
X90160329Y-76807135D01*
X90162000Y-76799452D01*
X90162000Y-76472319D01*
X90161923Y-76469267D01*
X90160767Y-76460055D01*
X90123838Y-76276909D01*
X90120251Y-76265176D01*
X90075605Y-76157921D01*
X90067893Y-76087345D01*
X90099562Y-76023802D01*
X90160557Y-75987468D01*
X90191930Y-75983500D01*
X94010405Y-75983500D01*
X94078526Y-76003502D01*
X94099500Y-76020405D01*
X94171348Y-76092253D01*
X94178888Y-76100539D01*
X94183000Y-76107018D01*
X94188777Y-76112443D01*
X94232652Y-76153644D01*
X94235494Y-76156399D01*
X94255230Y-76176135D01*
X94258427Y-76178615D01*
X94267447Y-76186318D01*
X94299679Y-76216586D01*
X94306625Y-76220405D01*
X94306628Y-76220407D01*
X94317434Y-76226348D01*
X94333953Y-76237199D01*
X94349959Y-76249614D01*
X94357228Y-76252759D01*
X94357232Y-76252762D01*
X94390537Y-76267174D01*
X94401187Y-76272391D01*
X94439940Y-76293695D01*
X94447615Y-76295666D01*
X94447616Y-76295666D01*
X94459562Y-76298733D01*
X94478267Y-76305137D01*
X94496855Y-76313181D01*
X94504678Y-76314420D01*
X94504688Y-76314423D01*
X94540524Y-76320099D01*
X94552144Y-76322505D01*
X94587289Y-76331528D01*
X94594970Y-76333500D01*
X94615224Y-76333500D01*
X94634934Y-76335051D01*
X94654943Y-76338220D01*
X94662835Y-76337474D01*
X94681580Y-76335702D01*
X94698962Y-76334059D01*
X94710819Y-76333500D01*
X95421233Y-76333500D01*
X95432416Y-76334027D01*
X95439909Y-76335702D01*
X95447834Y-76335453D01*
X95447835Y-76335453D01*
X95454056Y-76335257D01*
X95465541Y-76334896D01*
X95534256Y-76352747D01*
X95582412Y-76404915D01*
X95595500Y-76460833D01*
X95595501Y-76593435D01*
X95595501Y-76663634D01*
X95602247Y-76737062D01*
X95604246Y-76743440D01*
X95604246Y-76743441D01*
X95646143Y-76877132D01*
X95653528Y-76900699D01*
X95699554Y-76976698D01*
X95699865Y-76977211D01*
X95718044Y-77045841D01*
X95699865Y-77107753D01*
X95657923Y-77177008D01*
X95651715Y-77190757D01*
X95604744Y-77340644D01*
X95602131Y-77353694D01*
X95597087Y-77408586D01*
X95600475Y-77420124D01*
X95601865Y-77421329D01*
X95609548Y-77423000D01*
X97893884Y-77423000D01*
X97909123Y-77418525D01*
X97910328Y-77417135D01*
X97911291Y-77412706D01*
X97905868Y-77353685D01*
X97903257Y-77340649D01*
X97860491Y-77204179D01*
X97859207Y-77133194D01*
X97896504Y-77072783D01*
X97960541Y-77042127D01*
X97980725Y-77040500D01*
X98489233Y-77040500D01*
X98500416Y-77041027D01*
X98507909Y-77042702D01*
X98515835Y-77042453D01*
X98515836Y-77042453D01*
X98575986Y-77040562D01*
X98579945Y-77040500D01*
X98607856Y-77040500D01*
X98611791Y-77040003D01*
X98611856Y-77039995D01*
X98623693Y-77039062D01*
X98655951Y-77038048D01*
X98659970Y-77037922D01*
X98667889Y-77037673D01*
X98687343Y-77032021D01*
X98706700Y-77028013D01*
X98718930Y-77026468D01*
X98718931Y-77026468D01*
X98726797Y-77025474D01*
X98734168Y-77022555D01*
X98734170Y-77022555D01*
X98767912Y-77009196D01*
X98779142Y-77005351D01*
X98813983Y-76995229D01*
X98813984Y-76995229D01*
X98821593Y-76993018D01*
X98828412Y-76988985D01*
X98828417Y-76988983D01*
X98839028Y-76982707D01*
X98856776Y-76974012D01*
X98875617Y-76966552D01*
X98902529Y-76947000D01*
X98911387Y-76940564D01*
X98921307Y-76934048D01*
X98952535Y-76915580D01*
X98952538Y-76915578D01*
X98959362Y-76911542D01*
X98973683Y-76897221D01*
X98988717Y-76884380D01*
X98998693Y-76877132D01*
X99005107Y-76872472D01*
X99033288Y-76838407D01*
X99041278Y-76829626D01*
X99592258Y-76278647D01*
X99600537Y-76271113D01*
X99607018Y-76267000D01*
X99653644Y-76217348D01*
X99656398Y-76214507D01*
X99676135Y-76194770D01*
X99678615Y-76191573D01*
X99686320Y-76182551D01*
X99691881Y-76176629D01*
X99716586Y-76150321D01*
X99720405Y-76143375D01*
X99720407Y-76143372D01*
X99726348Y-76132566D01*
X99737199Y-76116047D01*
X99744758Y-76106301D01*
X99749614Y-76100041D01*
X99752759Y-76092772D01*
X99752762Y-76092768D01*
X99767174Y-76059463D01*
X99772391Y-76048813D01*
X99793695Y-76010060D01*
X99798733Y-75990437D01*
X99805137Y-75971734D01*
X99810033Y-75960420D01*
X99810033Y-75960419D01*
X99813181Y-75953145D01*
X99816431Y-75932627D01*
X99846843Y-75868473D01*
X99907111Y-75830946D01*
X99978101Y-75831960D01*
X100037273Y-75871192D01*
X100046421Y-75884091D01*
X100048459Y-75886719D01*
X100052494Y-75893541D01*
X100167459Y-76008506D01*
X100174280Y-76012540D01*
X100251557Y-76058241D01*
X100307404Y-76091269D01*
X100315015Y-76093480D01*
X100315017Y-76093481D01*
X100337597Y-76100041D01*
X100463534Y-76136629D01*
X100469941Y-76137133D01*
X100469945Y-76137134D01*
X100497556Y-76139307D01*
X100497562Y-76139307D01*
X100500011Y-76139500D01*
X100580406Y-76139500D01*
X100648527Y-76159502D01*
X100669501Y-76176405D01*
X102460348Y-77967253D01*
X102467888Y-77975539D01*
X102472000Y-77982018D01*
X102477777Y-77987443D01*
X102521651Y-78028643D01*
X102524493Y-78031398D01*
X102544230Y-78051135D01*
X102547427Y-78053615D01*
X102556447Y-78061318D01*
X102588679Y-78091586D01*
X102595625Y-78095405D01*
X102595628Y-78095407D01*
X102606434Y-78101348D01*
X102622953Y-78112199D01*
X102638959Y-78124614D01*
X102646228Y-78127759D01*
X102646232Y-78127762D01*
X102679537Y-78142174D01*
X102690187Y-78147391D01*
X102728940Y-78168695D01*
X102736615Y-78170666D01*
X102736616Y-78170666D01*
X102748562Y-78173733D01*
X102767267Y-78180137D01*
X102785855Y-78188181D01*
X102793678Y-78189420D01*
X102793688Y-78189423D01*
X102829524Y-78195099D01*
X102841144Y-78197505D01*
X102872959Y-78205673D01*
X102883970Y-78208500D01*
X102904224Y-78208500D01*
X102923934Y-78210051D01*
X102943943Y-78213220D01*
X102951835Y-78212474D01*
X102970580Y-78210702D01*
X102987962Y-78209059D01*
X102999819Y-78208500D01*
X107596233Y-78208500D01*
X107607416Y-78209027D01*
X107614909Y-78210702D01*
X107622835Y-78210453D01*
X107622836Y-78210453D01*
X107682986Y-78208562D01*
X107686945Y-78208500D01*
X107714856Y-78208500D01*
X107718791Y-78208003D01*
X107718856Y-78207995D01*
X107730693Y-78207062D01*
X107762951Y-78206048D01*
X107766970Y-78205922D01*
X107774889Y-78205673D01*
X107794343Y-78200021D01*
X107813700Y-78196013D01*
X107825930Y-78194468D01*
X107825931Y-78194468D01*
X107833797Y-78193474D01*
X107841168Y-78190555D01*
X107841170Y-78190555D01*
X107874912Y-78177196D01*
X107886142Y-78173351D01*
X107920983Y-78163229D01*
X107920984Y-78163229D01*
X107928593Y-78161018D01*
X107935412Y-78156985D01*
X107935417Y-78156983D01*
X107946028Y-78150707D01*
X107963776Y-78142012D01*
X107982617Y-78134552D01*
X108018387Y-78108564D01*
X108028307Y-78102048D01*
X108059535Y-78083580D01*
X108059538Y-78083578D01*
X108066362Y-78079542D01*
X108080683Y-78065221D01*
X108095717Y-78052380D01*
X108105694Y-78045131D01*
X108112107Y-78040472D01*
X108140298Y-78006395D01*
X108148288Y-77997616D01*
X108600499Y-77545405D01*
X108662811Y-77511379D01*
X108689594Y-77508500D01*
X108745487Y-77508500D01*
X108751939Y-77507128D01*
X108751944Y-77507128D01*
X108838888Y-77488647D01*
X108932288Y-77468794D01*
X109038897Y-77421329D01*
X109100722Y-77393803D01*
X109100724Y-77393802D01*
X109106752Y-77391118D01*
X109124808Y-77378000D01*
X109179112Y-77338545D01*
X109261253Y-77278866D01*
X109312577Y-77221865D01*
X109384621Y-77141852D01*
X109384622Y-77141851D01*
X109389040Y-77136944D01*
X109451931Y-77028013D01*
X109481223Y-76977279D01*
X109481224Y-76977278D01*
X109484527Y-76971556D01*
X109543542Y-76789928D01*
X109549099Y-76737062D01*
X109562814Y-76606565D01*
X109563504Y-76600000D01*
X109548877Y-76460833D01*
X109544232Y-76416635D01*
X109544232Y-76416633D01*
X109543542Y-76410072D01*
X109484527Y-76228444D01*
X109464830Y-76194328D01*
X109448093Y-76125333D01*
X109471314Y-76058241D01*
X109509811Y-76022876D01*
X109563494Y-75991128D01*
X109575926Y-75981484D01*
X109680484Y-75876926D01*
X109690124Y-75864499D01*
X109765396Y-75737220D01*
X109771643Y-75722784D01*
X109806619Y-75602395D01*
X109806579Y-75588295D01*
X109799309Y-75585000D01*
X106941237Y-75585000D01*
X106873116Y-75564998D01*
X106826623Y-75511342D01*
X106816315Y-75442554D01*
X106829162Y-75344972D01*
X106829162Y-75344971D01*
X106829700Y-75340885D01*
X106829700Y-75285500D01*
X106849702Y-75217379D01*
X106903358Y-75170886D01*
X106955700Y-75159500D01*
X107235484Y-75159500D01*
X107237932Y-75159307D01*
X107237940Y-75159307D01*
X107265844Y-75157111D01*
X107265849Y-75157110D01*
X107272254Y-75156606D01*
X107371005Y-75127916D01*
X107421984Y-75113106D01*
X107421986Y-75113105D01*
X107429597Y-75110894D01*
X107436419Y-75106859D01*
X107443697Y-75103710D01*
X107444278Y-75105053D01*
X107504685Y-75089731D01*
X107555851Y-75104755D01*
X107556303Y-75103710D01*
X107563581Y-75106859D01*
X107570403Y-75110894D01*
X107578014Y-75113105D01*
X107578016Y-75113106D01*
X107628995Y-75127916D01*
X107727746Y-75156606D01*
X107734151Y-75157110D01*
X107734156Y-75157111D01*
X107762060Y-75159307D01*
X107762068Y-75159307D01*
X107764516Y-75159500D01*
X108235484Y-75159500D01*
X108237932Y-75159307D01*
X108237940Y-75159307D01*
X108265844Y-75157111D01*
X108265849Y-75157110D01*
X108272254Y-75156606D01*
X108371005Y-75127916D01*
X108421984Y-75113106D01*
X108421986Y-75113105D01*
X108429597Y-75110894D01*
X108436419Y-75106859D01*
X108443697Y-75103710D01*
X108444278Y-75105053D01*
X108504685Y-75089731D01*
X108555851Y-75104755D01*
X108556303Y-75103710D01*
X108563581Y-75106859D01*
X108570403Y-75110894D01*
X108578014Y-75113105D01*
X108578016Y-75113106D01*
X108628995Y-75127916D01*
X108727746Y-75156606D01*
X108734151Y-75157110D01*
X108734156Y-75157111D01*
X108762060Y-75159307D01*
X108762068Y-75159307D01*
X108764516Y-75159500D01*
X109235484Y-75159500D01*
X109237932Y-75159307D01*
X109237940Y-75159307D01*
X109265844Y-75157111D01*
X109265849Y-75157110D01*
X109272254Y-75156606D01*
X109371005Y-75127916D01*
X109421984Y-75113106D01*
X109421986Y-75113105D01*
X109429597Y-75110894D01*
X109439978Y-75104755D01*
X109457240Y-75094546D01*
X109521379Y-75077000D01*
X109793558Y-75077000D01*
X109808797Y-75072525D01*
X109830060Y-75047987D01*
X109889786Y-75009604D01*
X109925284Y-75004500D01*
X112074390Y-75004500D01*
X112142511Y-75024502D01*
X112186657Y-75073297D01*
X112191871Y-75083530D01*
X112196024Y-75088659D01*
X112196027Y-75088663D01*
X112262610Y-75170886D01*
X112312055Y-75231945D01*
X112317184Y-75236098D01*
X112317186Y-75236100D01*
X112455337Y-75347973D01*
X112455341Y-75347976D01*
X112460470Y-75352129D01*
X112466352Y-75355126D01*
X112466355Y-75355128D01*
X112512669Y-75378726D01*
X112564285Y-75427474D01*
X112581351Y-75496389D01*
X112558451Y-75563590D01*
X112502853Y-75607743D01*
X112488078Y-75612700D01*
X112288067Y-75666293D01*
X112288065Y-75666294D01*
X112282757Y-75667716D01*
X112277776Y-75670039D01*
X112277775Y-75670039D01*
X112080238Y-75762151D01*
X112080233Y-75762154D01*
X112075251Y-75764477D01*
X112003477Y-75814734D01*
X111892211Y-75892643D01*
X111892208Y-75892645D01*
X111887700Y-75895802D01*
X111725802Y-76057700D01*
X111722645Y-76062208D01*
X111722643Y-76062211D01*
X111691771Y-76106301D01*
X111594477Y-76245251D01*
X111592154Y-76250233D01*
X111592151Y-76250238D01*
X111520025Y-76404915D01*
X111497716Y-76452757D01*
X111496294Y-76458065D01*
X111496293Y-76458067D01*
X111460021Y-76593435D01*
X111438457Y-76673913D01*
X111418502Y-76902000D01*
X111438457Y-77130087D01*
X111439881Y-77135400D01*
X111439881Y-77135402D01*
X111495784Y-77344031D01*
X111497716Y-77351243D01*
X111500039Y-77356224D01*
X111500039Y-77356225D01*
X111592151Y-77553762D01*
X111592154Y-77553767D01*
X111594477Y-77558749D01*
X111725802Y-77746300D01*
X111887700Y-77908198D01*
X111892208Y-77911355D01*
X111892211Y-77911357D01*
X111946135Y-77949115D01*
X112075251Y-78039523D01*
X112080233Y-78041846D01*
X112080238Y-78041849D01*
X112251552Y-78121733D01*
X112282757Y-78136284D01*
X112288065Y-78137706D01*
X112288067Y-78137707D01*
X112498598Y-78194119D01*
X112498600Y-78194119D01*
X112503913Y-78195543D01*
X112732000Y-78215498D01*
X112960087Y-78195543D01*
X112965400Y-78194119D01*
X112965402Y-78194119D01*
X113175933Y-78137707D01*
X113175935Y-78137706D01*
X113181243Y-78136284D01*
X113212448Y-78121733D01*
X113383762Y-78041849D01*
X113383767Y-78041846D01*
X113388749Y-78039523D01*
X113517865Y-77949115D01*
X113571789Y-77911357D01*
X113571792Y-77911355D01*
X113576300Y-77908198D01*
X113738198Y-77746300D01*
X113869523Y-77558749D01*
X113870487Y-77556681D01*
X116574000Y-77556681D01*
X116574077Y-77559733D01*
X116575233Y-77568945D01*
X116612162Y-77752091D01*
X116615752Y-77763833D01*
X116686978Y-77934943D01*
X116692778Y-77945759D01*
X116795885Y-78099779D01*
X116803678Y-78109266D01*
X116934734Y-78240322D01*
X116944221Y-78248115D01*
X117098241Y-78351222D01*
X117109057Y-78357022D01*
X117280167Y-78428248D01*
X117291909Y-78431838D01*
X117475055Y-78468767D01*
X117484267Y-78469923D01*
X117487319Y-78470000D01*
X119059885Y-78470000D01*
X119075124Y-78465525D01*
X119076329Y-78464135D01*
X119078000Y-78456452D01*
X119078000Y-78451885D01*
X119586000Y-78451885D01*
X119590475Y-78467124D01*
X119591865Y-78468329D01*
X119599548Y-78470000D01*
X121176681Y-78470000D01*
X121179733Y-78469923D01*
X121188945Y-78468767D01*
X121372091Y-78431838D01*
X121383833Y-78428248D01*
X121554943Y-78357022D01*
X121565759Y-78351222D01*
X121719779Y-78248115D01*
X121729266Y-78240322D01*
X121792162Y-78177426D01*
X121854474Y-78143400D01*
X121925289Y-78148465D01*
X121982125Y-78191012D01*
X122004771Y-78241616D01*
X122041162Y-78422091D01*
X122044752Y-78433833D01*
X122115978Y-78604943D01*
X122121778Y-78615759D01*
X122224885Y-78769779D01*
X122232678Y-78779266D01*
X122363734Y-78910322D01*
X122373221Y-78918115D01*
X122527241Y-79021222D01*
X122538057Y-79027022D01*
X122709167Y-79098248D01*
X122720909Y-79101838D01*
X122904055Y-79138767D01*
X122913267Y-79139923D01*
X122916319Y-79140000D01*
X123638885Y-79140000D01*
X123654124Y-79135525D01*
X123655329Y-79134135D01*
X123657000Y-79126452D01*
X123657000Y-79121885D01*
X124165000Y-79121885D01*
X124169475Y-79137124D01*
X124170865Y-79138329D01*
X124178548Y-79140000D01*
X124905681Y-79140000D01*
X124908733Y-79139923D01*
X124917945Y-79138767D01*
X125101091Y-79101838D01*
X125112833Y-79098248D01*
X125283943Y-79027022D01*
X125294759Y-79021222D01*
X125448779Y-78918115D01*
X125458266Y-78910322D01*
X125589322Y-78779266D01*
X125597115Y-78769779D01*
X125700222Y-78615759D01*
X125706022Y-78604943D01*
X125777248Y-78433833D01*
X125780838Y-78422091D01*
X125817767Y-78238945D01*
X125818923Y-78229733D01*
X125819000Y-78226681D01*
X125819000Y-77904115D01*
X125814525Y-77888876D01*
X125813135Y-77887671D01*
X125805452Y-77886000D01*
X124183115Y-77886000D01*
X124167876Y-77890475D01*
X124166671Y-77891865D01*
X124165000Y-77899548D01*
X124165000Y-79121885D01*
X123657000Y-79121885D01*
X123657000Y-77359885D01*
X124165000Y-77359885D01*
X124169475Y-77375124D01*
X124170865Y-77376329D01*
X124178548Y-77378000D01*
X125800885Y-77378000D01*
X125816124Y-77373525D01*
X125817329Y-77372135D01*
X125819000Y-77364452D01*
X125819000Y-77037319D01*
X125818923Y-77034267D01*
X125817767Y-77025055D01*
X125780838Y-76841909D01*
X125777248Y-76830167D01*
X125706022Y-76659057D01*
X125700222Y-76648241D01*
X125597115Y-76494221D01*
X125589322Y-76484734D01*
X125458266Y-76353678D01*
X125448779Y-76345885D01*
X125294759Y-76242778D01*
X125283943Y-76236978D01*
X125112833Y-76165752D01*
X125101091Y-76162162D01*
X124917945Y-76125233D01*
X124908733Y-76124077D01*
X124905681Y-76124000D01*
X124183115Y-76124000D01*
X124167876Y-76128475D01*
X124166671Y-76129865D01*
X124165000Y-76137548D01*
X124165000Y-77359885D01*
X123657000Y-77359885D01*
X123657000Y-76142115D01*
X123652525Y-76126876D01*
X123651135Y-76125671D01*
X123643452Y-76124000D01*
X122916319Y-76124000D01*
X122913267Y-76124077D01*
X122904055Y-76125233D01*
X122720909Y-76162162D01*
X122709167Y-76165752D01*
X122538057Y-76236978D01*
X122527241Y-76242778D01*
X122373221Y-76345885D01*
X122363734Y-76353678D01*
X122300838Y-76416574D01*
X122238526Y-76450600D01*
X122167711Y-76445535D01*
X122110875Y-76402988D01*
X122088229Y-76352384D01*
X122051838Y-76171909D01*
X122048248Y-76160167D01*
X121977022Y-75989057D01*
X121971222Y-75978241D01*
X121868115Y-75824221D01*
X121860322Y-75814734D01*
X121729266Y-75683678D01*
X121719779Y-75675885D01*
X121565759Y-75572778D01*
X121554943Y-75566978D01*
X121383833Y-75495752D01*
X121372091Y-75492162D01*
X121188945Y-75455233D01*
X121179733Y-75454077D01*
X121176681Y-75454000D01*
X119604115Y-75454000D01*
X119588876Y-75458475D01*
X119587671Y-75459865D01*
X119586000Y-75467548D01*
X119586000Y-78451885D01*
X119078000Y-78451885D01*
X119078000Y-77234115D01*
X119073525Y-77218876D01*
X119072135Y-77217671D01*
X119064452Y-77216000D01*
X116592115Y-77216000D01*
X116576876Y-77220475D01*
X116575671Y-77221865D01*
X116574000Y-77229548D01*
X116574000Y-77556681D01*
X113870487Y-77556681D01*
X113871846Y-77553767D01*
X113871849Y-77553762D01*
X113963961Y-77356225D01*
X113963961Y-77356224D01*
X113966284Y-77351243D01*
X113968217Y-77344031D01*
X114024119Y-77135402D01*
X114024119Y-77135400D01*
X114025543Y-77130087D01*
X114045498Y-76902000D01*
X114025543Y-76673913D01*
X114003979Y-76593435D01*
X113967707Y-76458067D01*
X113967706Y-76458065D01*
X113966284Y-76452757D01*
X113943975Y-76404915D01*
X113871849Y-76250238D01*
X113871846Y-76250233D01*
X113869523Y-76245251D01*
X113772229Y-76106301D01*
X113741357Y-76062211D01*
X113741355Y-76062208D01*
X113738198Y-76057700D01*
X113576300Y-75895802D01*
X113571792Y-75892645D01*
X113571789Y-75892643D01*
X113460523Y-75814734D01*
X113388749Y-75764477D01*
X113383767Y-75762154D01*
X113383762Y-75762151D01*
X113324881Y-75734695D01*
X113271596Y-75687778D01*
X113252135Y-75619501D01*
X113272677Y-75551541D01*
X113326699Y-75505475D01*
X113378131Y-75494500D01*
X116702129Y-75494499D01*
X116721580Y-75494499D01*
X116800904Y-75488257D01*
X116806484Y-75486762D01*
X116808247Y-75486459D01*
X116878771Y-75494638D01*
X116933677Y-75539646D01*
X116955535Y-75607194D01*
X116937403Y-75675837D01*
X116918677Y-75699735D01*
X116803678Y-75814734D01*
X116795885Y-75824221D01*
X116692778Y-75978241D01*
X116686978Y-75989057D01*
X116615752Y-76160167D01*
X116612162Y-76171909D01*
X116575233Y-76355055D01*
X116574077Y-76364267D01*
X116574000Y-76367319D01*
X116574000Y-76689885D01*
X116578475Y-76705124D01*
X116579865Y-76706329D01*
X116587548Y-76708000D01*
X119059885Y-76708000D01*
X119075124Y-76703525D01*
X119076329Y-76702135D01*
X119078000Y-76694452D01*
X119078000Y-75472115D01*
X119073525Y-75456876D01*
X119072135Y-75455671D01*
X119064452Y-75454000D01*
X117487319Y-75454000D01*
X117484267Y-75454077D01*
X117475058Y-75455233D01*
X117382912Y-75473813D01*
X117312181Y-75467671D01*
X117256000Y-75424263D01*
X117232205Y-75357373D01*
X117248351Y-75288237D01*
X117278710Y-75252380D01*
X117298816Y-75236098D01*
X117303945Y-75231945D01*
X117353390Y-75170886D01*
X117419973Y-75088663D01*
X117419976Y-75088659D01*
X117424129Y-75083530D01*
X117427127Y-75077648D01*
X117507833Y-74919251D01*
X117510829Y-74913371D01*
X117513657Y-74902817D01*
X117558763Y-74734481D01*
X117558764Y-74734477D01*
X117560257Y-74728904D01*
X117566500Y-74649581D01*
X117566500Y-74643085D01*
X125003000Y-74643085D01*
X125003193Y-74648010D01*
X125008786Y-74719069D01*
X125010733Y-74730403D01*
X125056931Y-74902817D01*
X125061635Y-74915070D01*
X125142295Y-75073375D01*
X125149448Y-75084390D01*
X125261255Y-75222459D01*
X125270541Y-75231745D01*
X125408610Y-75343552D01*
X125419625Y-75350705D01*
X125577930Y-75431365D01*
X125590183Y-75436069D01*
X125762597Y-75482267D01*
X125773931Y-75484214D01*
X125844990Y-75489807D01*
X125849915Y-75490000D01*
X126038885Y-75490000D01*
X126054124Y-75485525D01*
X126055329Y-75484135D01*
X126057000Y-75476452D01*
X126057000Y-75471885D01*
X126565000Y-75471885D01*
X126569475Y-75487124D01*
X126570865Y-75488329D01*
X126578548Y-75490000D01*
X126772085Y-75490000D01*
X126777010Y-75489807D01*
X126848069Y-75484214D01*
X126859403Y-75482267D01*
X127031817Y-75436069D01*
X127044070Y-75431365D01*
X127202375Y-75350705D01*
X127213390Y-75343552D01*
X127351459Y-75231745D01*
X127360745Y-75222459D01*
X127472552Y-75084390D01*
X127479705Y-75073375D01*
X127560365Y-74915070D01*
X127565069Y-74902817D01*
X127611267Y-74730403D01*
X127613214Y-74719069D01*
X127618807Y-74648010D01*
X127619000Y-74643085D01*
X127619000Y-74454115D01*
X127614525Y-74438876D01*
X127613135Y-74437671D01*
X127605452Y-74436000D01*
X126583115Y-74436000D01*
X126567876Y-74440475D01*
X126566671Y-74441865D01*
X126565000Y-74449548D01*
X126565000Y-75471885D01*
X126057000Y-75471885D01*
X126057000Y-74454115D01*
X126052525Y-74438876D01*
X126051135Y-74437671D01*
X126043452Y-74436000D01*
X125021115Y-74436000D01*
X125005876Y-74440475D01*
X125004671Y-74441865D01*
X125003000Y-74449548D01*
X125003000Y-74643085D01*
X117566500Y-74643085D01*
X117566499Y-73722420D01*
X117560257Y-73643096D01*
X117520295Y-73493957D01*
X117521985Y-73422982D01*
X117544918Y-73381031D01*
X117565299Y-73356395D01*
X117573288Y-73347616D01*
X121148499Y-69772405D01*
X121210811Y-69738379D01*
X121237594Y-69735500D01*
X124936335Y-69735500D01*
X125004456Y-69755502D01*
X125050949Y-69809158D01*
X125053750Y-69816959D01*
X125054094Y-69816827D01*
X125056465Y-69823003D01*
X125058171Y-69829371D01*
X125061164Y-69835244D01*
X125061165Y-69835248D01*
X125116922Y-69944676D01*
X125144871Y-69999530D01*
X125149024Y-70004659D01*
X125149027Y-70004663D01*
X125244738Y-70122856D01*
X125265055Y-70147945D01*
X125270186Y-70152100D01*
X125408337Y-70263973D01*
X125408341Y-70263976D01*
X125413470Y-70268129D01*
X125413542Y-70268166D01*
X125458202Y-70320208D01*
X125467969Y-70390530D01*
X125438167Y-70454968D01*
X125414861Y-70475162D01*
X125413470Y-70475871D01*
X125408341Y-70480024D01*
X125408337Y-70480027D01*
X125271982Y-70590446D01*
X125265055Y-70596055D01*
X125260900Y-70601186D01*
X125149027Y-70739337D01*
X125149024Y-70739341D01*
X125144871Y-70744470D01*
X125141876Y-70750347D01*
X125141874Y-70750351D01*
X125092235Y-70847774D01*
X125058171Y-70914629D01*
X125056463Y-70921002D01*
X125056463Y-70921003D01*
X125011825Y-71087595D01*
X125008743Y-71099096D01*
X125008290Y-71104850D01*
X125008290Y-71104852D01*
X125002694Y-71175960D01*
X125002500Y-71178419D01*
X125002501Y-72105580D01*
X125008743Y-72184904D01*
X125058171Y-72369371D01*
X125061167Y-72375251D01*
X125141343Y-72532605D01*
X125144871Y-72539530D01*
X125149024Y-72544659D01*
X125149027Y-72544663D01*
X125244496Y-72662557D01*
X125265055Y-72687945D01*
X125413470Y-72808129D01*
X125413904Y-72808350D01*
X125458662Y-72860504D01*
X125468431Y-72930825D01*
X125438630Y-72995264D01*
X125412428Y-73017969D01*
X125408610Y-73020448D01*
X125270541Y-73132255D01*
X125261255Y-73141541D01*
X125149448Y-73279610D01*
X125142295Y-73290625D01*
X125061635Y-73448930D01*
X125056931Y-73461183D01*
X125010733Y-73633597D01*
X125008786Y-73644931D01*
X125003193Y-73715990D01*
X125003000Y-73720916D01*
X125003000Y-73909885D01*
X125007475Y-73925124D01*
X125008865Y-73926329D01*
X125016548Y-73928000D01*
X127600885Y-73928000D01*
X127616124Y-73923525D01*
X127617329Y-73922135D01*
X127619000Y-73914452D01*
X127619000Y-73720916D01*
X127618807Y-73715990D01*
X127613214Y-73644931D01*
X127611267Y-73633597D01*
X127565069Y-73461183D01*
X127560365Y-73448930D01*
X127479705Y-73290625D01*
X127472552Y-73279610D01*
X127360745Y-73141541D01*
X127351459Y-73132255D01*
X127213390Y-73020448D01*
X127209572Y-73017969D01*
X127163337Y-72964092D01*
X127153570Y-72893770D01*
X127183372Y-72829331D01*
X127206859Y-72808981D01*
X127208530Y-72808129D01*
X127356945Y-72687945D01*
X127377504Y-72662557D01*
X127472973Y-72544663D01*
X127472976Y-72544659D01*
X127477129Y-72539530D01*
X127480658Y-72532605D01*
X127560833Y-72375251D01*
X127563829Y-72369371D01*
X127584773Y-72291208D01*
X127611763Y-72190481D01*
X127611764Y-72190477D01*
X127613257Y-72184904D01*
X127616470Y-72144077D01*
X127619307Y-72108037D01*
X127619307Y-72108030D01*
X127619500Y-72105581D01*
X127619499Y-71178420D01*
X127613257Y-71099096D01*
X127563829Y-70914629D01*
X127529765Y-70847774D01*
X127480126Y-70750351D01*
X127480124Y-70750347D01*
X127477129Y-70744470D01*
X127472976Y-70739341D01*
X127472973Y-70739337D01*
X127361100Y-70601186D01*
X127356945Y-70596055D01*
X127350018Y-70590446D01*
X127213663Y-70480027D01*
X127213659Y-70480024D01*
X127208530Y-70475871D01*
X127208458Y-70475834D01*
X127163798Y-70423792D01*
X127154031Y-70353470D01*
X127183833Y-70289032D01*
X127207139Y-70268838D01*
X127208530Y-70268129D01*
X127213659Y-70263976D01*
X127213663Y-70263973D01*
X127351814Y-70152100D01*
X127356945Y-70147945D01*
X127377262Y-70122856D01*
X127472973Y-70004663D01*
X127472976Y-70004659D01*
X127477129Y-69999530D01*
X127505079Y-69944676D01*
X127560833Y-69835251D01*
X127563829Y-69829371D01*
X127574424Y-69789829D01*
X127611763Y-69650481D01*
X127611764Y-69650477D01*
X127613257Y-69644904D01*
X127614023Y-69635175D01*
X127619307Y-69568037D01*
X127619307Y-69568030D01*
X127619500Y-69565581D01*
X127619499Y-68638420D01*
X127614504Y-68574947D01*
X127613710Y-68564850D01*
X127613710Y-68564848D01*
X127613257Y-68559096D01*
X127563829Y-68374629D01*
X127534467Y-68317002D01*
X127480126Y-68210351D01*
X127480124Y-68210347D01*
X127477129Y-68204470D01*
X127472976Y-68199341D01*
X127472973Y-68199337D01*
X127361100Y-68061186D01*
X127356945Y-68056055D01*
X127332442Y-68036213D01*
X127213663Y-67940027D01*
X127213659Y-67940024D01*
X127208530Y-67935871D01*
X127208458Y-67935834D01*
X127163798Y-67883792D01*
X127154031Y-67813470D01*
X127183833Y-67749032D01*
X127207139Y-67728838D01*
X127208530Y-67728129D01*
X127213659Y-67723976D01*
X127213663Y-67723973D01*
X127351814Y-67612100D01*
X127356945Y-67607945D01*
X127372691Y-67588500D01*
X127472973Y-67464663D01*
X127472976Y-67464659D01*
X127477129Y-67459530D01*
X127490779Y-67432742D01*
X127560833Y-67295251D01*
X127563829Y-67289371D01*
X127573456Y-67253444D01*
X127611763Y-67110481D01*
X127611764Y-67110477D01*
X127613257Y-67104904D01*
X127615991Y-67070166D01*
X127619307Y-67028037D01*
X127619307Y-67028030D01*
X127619500Y-67025581D01*
X127619499Y-66098420D01*
X127613257Y-66019096D01*
X127563829Y-65834629D01*
X127517142Y-65743000D01*
X127480126Y-65670351D01*
X127480124Y-65670347D01*
X127477129Y-65664470D01*
X127472976Y-65659341D01*
X127472973Y-65659337D01*
X127361100Y-65521186D01*
X127356945Y-65516055D01*
X127300092Y-65470016D01*
X127213663Y-65400027D01*
X127213659Y-65400024D01*
X127208530Y-65395871D01*
X127202653Y-65392876D01*
X127202649Y-65392874D01*
X127044251Y-65312167D01*
X127038371Y-65309171D01*
X127027194Y-65306176D01*
X126859481Y-65261237D01*
X126859477Y-65261236D01*
X126853904Y-65259743D01*
X126844175Y-65258977D01*
X126777037Y-65253693D01*
X126777030Y-65253693D01*
X126774581Y-65253500D01*
X126311188Y-65253500D01*
X125847420Y-65253501D01*
X125798053Y-65257386D01*
X125773850Y-65259290D01*
X125773848Y-65259290D01*
X125768096Y-65259743D01*
X125583629Y-65309171D01*
X125577749Y-65312167D01*
X125419351Y-65392874D01*
X125419347Y-65392876D01*
X125413470Y-65395871D01*
X125408341Y-65400024D01*
X125408337Y-65400027D01*
X125321908Y-65470016D01*
X125265055Y-65516055D01*
X125260900Y-65521186D01*
X125149027Y-65659337D01*
X125149024Y-65659341D01*
X125144871Y-65664470D01*
X125141876Y-65670347D01*
X125141874Y-65670351D01*
X125104858Y-65743000D01*
X125058171Y-65834629D01*
X125056463Y-65841002D01*
X125056463Y-65841003D01*
X125010347Y-66013111D01*
X125008743Y-66019096D01*
X125008290Y-66024850D01*
X125008290Y-66024852D01*
X125002694Y-66095960D01*
X125002500Y-66098419D01*
X125002501Y-67025580D01*
X125008743Y-67104904D01*
X125011309Y-67114481D01*
X125047133Y-67248175D01*
X125058171Y-67289371D01*
X125061167Y-67295251D01*
X125131222Y-67432742D01*
X125144871Y-67459530D01*
X125149024Y-67464659D01*
X125149027Y-67464663D01*
X125249309Y-67588500D01*
X125265055Y-67607945D01*
X125270186Y-67612100D01*
X125408337Y-67723973D01*
X125408341Y-67723976D01*
X125413470Y-67728129D01*
X125413542Y-67728166D01*
X125458202Y-67780208D01*
X125467969Y-67850530D01*
X125438167Y-67914968D01*
X125414861Y-67935162D01*
X125413470Y-67935871D01*
X125408341Y-67940024D01*
X125408337Y-67940027D01*
X125289558Y-68036213D01*
X125265055Y-68056055D01*
X125260900Y-68061186D01*
X125149027Y-68199337D01*
X125149024Y-68199341D01*
X125144871Y-68204470D01*
X125141876Y-68210347D01*
X125141874Y-68210351D01*
X125087533Y-68317002D01*
X125058171Y-68374629D01*
X125056465Y-68380997D01*
X125054094Y-68387173D01*
X125051318Y-68386107D01*
X125021166Y-68435665D01*
X124957330Y-68466738D01*
X124936335Y-68468500D01*
X121001763Y-68468500D01*
X120990579Y-68467973D01*
X120983091Y-68466299D01*
X120975168Y-68466548D01*
X120915033Y-68468438D01*
X120911075Y-68468500D01*
X120883144Y-68468500D01*
X120879229Y-68468995D01*
X120879225Y-68468995D01*
X120879167Y-68469003D01*
X120879138Y-68469006D01*
X120867296Y-68469939D01*
X120823110Y-68471327D01*
X120805744Y-68476372D01*
X120803658Y-68476978D01*
X120784306Y-68480986D01*
X120772068Y-68482532D01*
X120772066Y-68482533D01*
X120764203Y-68483526D01*
X120723086Y-68499806D01*
X120711885Y-68503641D01*
X120669406Y-68515982D01*
X120662587Y-68520015D01*
X120662582Y-68520017D01*
X120651971Y-68526293D01*
X120634221Y-68534990D01*
X120615383Y-68542448D01*
X120584550Y-68564850D01*
X120579625Y-68568428D01*
X120569701Y-68574947D01*
X120538460Y-68593422D01*
X120538455Y-68593426D01*
X120531637Y-68597458D01*
X120517313Y-68611782D01*
X120502281Y-68624621D01*
X120485893Y-68636528D01*
X120457712Y-68670593D01*
X120449722Y-68679373D01*
X118406983Y-70722112D01*
X118344671Y-70756138D01*
X118273856Y-70751073D01*
X118217020Y-70708526D01*
X118192209Y-70642006D01*
X118195845Y-70601689D01*
X118198731Y-70590446D01*
X118205138Y-70571730D01*
X118210034Y-70560417D01*
X118213181Y-70553145D01*
X118215287Y-70539852D01*
X118220097Y-70509481D01*
X118222504Y-70497860D01*
X118231528Y-70462711D01*
X118231528Y-70462710D01*
X118233500Y-70455030D01*
X118233500Y-70434769D01*
X118235051Y-70415058D01*
X118235554Y-70411886D01*
X118238219Y-70395057D01*
X118234059Y-70351046D01*
X118233500Y-70339189D01*
X118233500Y-68403768D01*
X118234027Y-68392585D01*
X118235702Y-68385092D01*
X118235189Y-68368752D01*
X118233562Y-68317002D01*
X118233500Y-68313044D01*
X118233500Y-68285144D01*
X118232996Y-68281153D01*
X118232063Y-68269311D01*
X118230923Y-68233036D01*
X118230674Y-68225111D01*
X118228462Y-68217497D01*
X118228461Y-68217492D01*
X118225023Y-68205659D01*
X118221012Y-68186295D01*
X118219467Y-68174064D01*
X118218474Y-68166203D01*
X118215557Y-68158836D01*
X118215556Y-68158831D01*
X118202198Y-68125092D01*
X118198354Y-68113865D01*
X118188230Y-68079022D01*
X118186018Y-68071407D01*
X118175707Y-68053972D01*
X118167012Y-68036224D01*
X118159552Y-68017383D01*
X118133564Y-67981613D01*
X118127048Y-67971693D01*
X118108580Y-67940465D01*
X118108578Y-67940462D01*
X118104542Y-67933638D01*
X118090221Y-67919317D01*
X118077380Y-67904283D01*
X118070132Y-67894307D01*
X118065472Y-67887893D01*
X118031407Y-67859712D01*
X118022626Y-67851722D01*
X117603647Y-67432742D01*
X117596113Y-67424463D01*
X117592000Y-67417982D01*
X117555442Y-67383652D01*
X117519477Y-67322440D01*
X117519988Y-67259191D01*
X117558763Y-67114481D01*
X117558764Y-67114477D01*
X117560257Y-67108904D01*
X117563625Y-67066109D01*
X117566307Y-67032037D01*
X117566307Y-67032030D01*
X117566500Y-67029581D01*
X117566499Y-66102420D01*
X117560257Y-66023096D01*
X117510829Y-65838629D01*
X117462104Y-65743000D01*
X117427126Y-65674351D01*
X117427124Y-65674347D01*
X117424129Y-65668470D01*
X117419976Y-65663341D01*
X117419973Y-65663337D01*
X117308100Y-65525186D01*
X117303945Y-65520055D01*
X117224661Y-65455852D01*
X117160663Y-65404027D01*
X117160659Y-65404024D01*
X117155530Y-65399871D01*
X117149653Y-65396876D01*
X117149649Y-65396874D01*
X116991251Y-65316167D01*
X116985371Y-65313171D01*
X116964069Y-65307463D01*
X116806481Y-65265237D01*
X116806477Y-65265236D01*
X116800904Y-65263743D01*
X116791175Y-65262977D01*
X116724037Y-65257693D01*
X116724030Y-65257693D01*
X116721581Y-65257500D01*
X114808775Y-65257500D01*
X112894420Y-65257501D01*
X112846943Y-65261237D01*
X112820850Y-65263290D01*
X112820848Y-65263290D01*
X112815096Y-65263743D01*
X112692754Y-65296525D01*
X112656735Y-65306176D01*
X112630629Y-65313171D01*
X112624749Y-65316167D01*
X112466351Y-65396874D01*
X112466347Y-65396876D01*
X112460470Y-65399871D01*
X112455341Y-65404024D01*
X112455337Y-65404027D01*
X112391339Y-65455852D01*
X112312055Y-65520055D01*
X112307900Y-65525186D01*
X112196027Y-65663337D01*
X112196024Y-65663341D01*
X112191871Y-65668470D01*
X112188876Y-65674347D01*
X112188874Y-65674351D01*
X112153896Y-65743000D01*
X112105171Y-65838629D01*
X112103463Y-65845002D01*
X112103463Y-65845003D01*
X112058309Y-66013521D01*
X112055743Y-66023096D01*
X112055290Y-66028850D01*
X112055290Y-66028852D01*
X112049694Y-66099960D01*
X112049500Y-66102419D01*
X112049501Y-66563659D01*
X112049501Y-66774406D01*
X112029499Y-66842527D01*
X111975843Y-66889020D01*
X111905570Y-66899124D01*
X111840989Y-66869631D01*
X111834406Y-66863501D01*
X110503652Y-65532747D01*
X110496112Y-65524461D01*
X110492000Y-65517982D01*
X110442348Y-65471356D01*
X110439507Y-65468602D01*
X110419770Y-65448865D01*
X110416573Y-65446385D01*
X110407551Y-65438680D01*
X110381100Y-65413841D01*
X110375321Y-65408414D01*
X110368375Y-65404595D01*
X110368372Y-65404593D01*
X110357566Y-65398652D01*
X110341047Y-65387801D01*
X110340583Y-65387441D01*
X110325041Y-65375386D01*
X110317772Y-65372241D01*
X110317768Y-65372238D01*
X110284463Y-65357826D01*
X110273813Y-65352609D01*
X110235060Y-65331305D01*
X110215437Y-65326267D01*
X110196734Y-65319863D01*
X110185420Y-65314967D01*
X110185419Y-65314967D01*
X110178145Y-65311819D01*
X110170322Y-65310580D01*
X110170312Y-65310577D01*
X110134476Y-65304901D01*
X110122856Y-65302495D01*
X110087711Y-65293472D01*
X110087710Y-65293472D01*
X110080030Y-65291500D01*
X110059776Y-65291500D01*
X110040065Y-65289949D01*
X110027886Y-65288020D01*
X110020057Y-65286780D01*
X109990786Y-65289547D01*
X109976039Y-65290941D01*
X109964181Y-65291500D01*
X107078767Y-65291500D01*
X107067584Y-65290973D01*
X107060091Y-65289298D01*
X107052165Y-65289547D01*
X107052164Y-65289547D01*
X106992014Y-65291438D01*
X106988055Y-65291500D01*
X106960144Y-65291500D01*
X106956210Y-65291997D01*
X106956209Y-65291997D01*
X106956144Y-65292005D01*
X106944304Y-65292938D01*
X106935338Y-65293220D01*
X106925263Y-65293536D01*
X106856548Y-65275683D01*
X106812188Y-65230598D01*
X106756706Y-65134501D01*
X106733240Y-65093856D01*
X106665894Y-65019060D01*
X106609875Y-64956845D01*
X106609874Y-64956844D01*
X106605453Y-64951934D01*
X106570612Y-64926620D01*
X106559376Y-64918457D01*
X106501122Y-64876133D01*
X106457769Y-64819912D01*
X106451694Y-64749176D01*
X106484825Y-64686384D01*
X106546645Y-64651473D01*
X106601381Y-64650951D01*
X106748056Y-64682128D01*
X106748061Y-64682128D01*
X106754513Y-64683500D01*
X106945487Y-64683500D01*
X106951939Y-64682128D01*
X106951944Y-64682128D01*
X107038887Y-64663647D01*
X107132288Y-64643794D01*
X107138319Y-64641109D01*
X107300722Y-64568803D01*
X107300724Y-64568802D01*
X107306752Y-64566118D01*
X107315863Y-64559499D01*
X107439671Y-64469546D01*
X107461253Y-64453866D01*
X107465664Y-64448967D01*
X107465673Y-64448959D01*
X107467265Y-64447190D01*
X107468443Y-64446465D01*
X107470580Y-64444540D01*
X107470932Y-64444931D01*
X107527711Y-64409950D01*
X107560901Y-64405500D01*
X108911290Y-64405500D01*
X108979411Y-64425502D01*
X109000385Y-64442405D01*
X109091619Y-64533639D01*
X109238301Y-64622472D01*
X109245548Y-64624743D01*
X109245550Y-64624744D01*
X109254214Y-64627459D01*
X109401938Y-64673753D01*
X109475365Y-64680500D01*
X109478263Y-64680500D01*
X109983314Y-64680499D01*
X110488634Y-64680499D01*
X110491492Y-64680236D01*
X110491501Y-64680236D01*
X110527004Y-64676974D01*
X110562062Y-64673753D01*
X110609828Y-64658784D01*
X110718450Y-64624744D01*
X110718452Y-64624743D01*
X110725699Y-64622472D01*
X110872381Y-64533639D01*
X110993639Y-64412381D01*
X111082472Y-64265699D01*
X111133753Y-64102062D01*
X111140500Y-64028635D01*
X111140499Y-63706681D01*
X116574000Y-63706681D01*
X116574077Y-63709733D01*
X116575233Y-63718945D01*
X116612162Y-63902091D01*
X116615752Y-63913833D01*
X116686978Y-64084943D01*
X116692778Y-64095759D01*
X116795885Y-64249779D01*
X116803678Y-64259266D01*
X116934734Y-64390322D01*
X116944221Y-64398115D01*
X117098241Y-64501222D01*
X117109057Y-64507022D01*
X117280167Y-64578248D01*
X117291909Y-64581838D01*
X117475055Y-64618767D01*
X117484267Y-64619923D01*
X117487319Y-64620000D01*
X119059885Y-64620000D01*
X119075124Y-64615525D01*
X119076329Y-64614135D01*
X119078000Y-64606452D01*
X119078000Y-64601885D01*
X119586000Y-64601885D01*
X119590475Y-64617124D01*
X119591865Y-64618329D01*
X119599548Y-64620000D01*
X121176681Y-64620000D01*
X121179733Y-64619923D01*
X121188945Y-64618767D01*
X121372091Y-64581838D01*
X121383833Y-64578248D01*
X121554943Y-64507022D01*
X121565759Y-64501222D01*
X121719779Y-64398115D01*
X121729266Y-64390322D01*
X121860322Y-64259266D01*
X121868115Y-64249779D01*
X121971222Y-64095759D01*
X121977017Y-64084951D01*
X121985639Y-64064239D01*
X122030284Y-64009036D01*
X122097687Y-63986733D01*
X122166447Y-64004411D01*
X122206668Y-64042566D01*
X122224889Y-64069784D01*
X122232678Y-64079266D01*
X122363734Y-64210322D01*
X122373221Y-64218115D01*
X122527241Y-64321222D01*
X122538057Y-64327022D01*
X122709167Y-64398248D01*
X122720909Y-64401838D01*
X122904055Y-64438767D01*
X122913267Y-64439923D01*
X122916319Y-64440000D01*
X123638885Y-64440000D01*
X123654124Y-64435525D01*
X123655329Y-64434135D01*
X123657000Y-64426452D01*
X123657000Y-64421885D01*
X124165000Y-64421885D01*
X124169475Y-64437124D01*
X124170865Y-64438329D01*
X124178548Y-64440000D01*
X124905681Y-64440000D01*
X124908733Y-64439923D01*
X124917945Y-64438767D01*
X125101091Y-64401838D01*
X125112833Y-64398248D01*
X125283943Y-64327022D01*
X125294759Y-64321222D01*
X125448779Y-64218115D01*
X125458266Y-64210322D01*
X125589322Y-64079266D01*
X125597115Y-64069779D01*
X125660422Y-63975212D01*
X125714939Y-63929732D01*
X125785389Y-63920945D01*
X125849407Y-63951642D01*
X125858768Y-63961608D01*
X125858785Y-63961591D01*
X125863066Y-63966024D01*
X125866894Y-63970854D01*
X125871587Y-63974848D01*
X125871588Y-63974849D01*
X125983137Y-64069784D01*
X126024976Y-64105392D01*
X126206180Y-64206664D01*
X126403603Y-64270810D01*
X126609725Y-64295389D01*
X126615860Y-64294917D01*
X126615862Y-64294917D01*
X126810555Y-64279936D01*
X126810560Y-64279935D01*
X126816696Y-64279463D01*
X126822626Y-64277807D01*
X126822628Y-64277807D01*
X126923012Y-64249779D01*
X127016632Y-64223640D01*
X127027570Y-64218115D01*
X127196416Y-64132825D01*
X127196418Y-64132824D01*
X127201917Y-64130046D01*
X127353868Y-64011329D01*
X127360634Y-64006043D01*
X127360635Y-64006042D01*
X127365495Y-64002245D01*
X127501133Y-63845106D01*
X127603667Y-63664614D01*
X127669190Y-63467644D01*
X127695207Y-63261698D01*
X127695428Y-63245848D01*
X127695573Y-63235522D01*
X127695573Y-63235518D01*
X127695622Y-63232000D01*
X127683289Y-63106217D01*
X127675966Y-63031534D01*
X127675965Y-63031531D01*
X127675365Y-63025408D01*
X127626483Y-62863500D01*
X127617152Y-62832593D01*
X127617151Y-62832590D01*
X127615368Y-62826685D01*
X127608089Y-62812995D01*
X127520809Y-62648847D01*
X127520808Y-62648845D01*
X127517913Y-62643401D01*
X127455760Y-62567194D01*
X127390610Y-62487311D01*
X127390607Y-62487308D01*
X127386715Y-62482536D01*
X127381750Y-62478428D01*
X127231518Y-62354145D01*
X127231519Y-62354145D01*
X127226770Y-62350217D01*
X127221353Y-62347288D01*
X127221350Y-62347286D01*
X127049590Y-62254416D01*
X127049585Y-62254414D01*
X127044170Y-62251486D01*
X126845871Y-62190102D01*
X126839746Y-62189458D01*
X126839745Y-62189458D01*
X126645554Y-62169048D01*
X126645552Y-62169048D01*
X126639425Y-62168404D01*
X126553515Y-62176223D01*
X126438836Y-62186659D01*
X126438833Y-62186660D01*
X126432697Y-62187218D01*
X126426791Y-62188956D01*
X126426787Y-62188957D01*
X126316053Y-62221548D01*
X126233560Y-62245827D01*
X126049600Y-62341999D01*
X126044799Y-62345859D01*
X126044793Y-62345863D01*
X126014552Y-62370177D01*
X125948930Y-62397273D01*
X125879075Y-62384589D01*
X125827167Y-62336153D01*
X125812087Y-62296885D01*
X125780838Y-62141909D01*
X125777248Y-62130167D01*
X125706022Y-61959057D01*
X125700222Y-61948241D01*
X125597115Y-61794221D01*
X125589322Y-61784734D01*
X125458266Y-61653678D01*
X125448779Y-61645885D01*
X125294759Y-61542778D01*
X125283943Y-61536978D01*
X125112833Y-61465752D01*
X125101091Y-61462162D01*
X124917945Y-61425233D01*
X124908733Y-61424077D01*
X124905681Y-61424000D01*
X124183115Y-61424000D01*
X124167876Y-61428475D01*
X124166671Y-61429865D01*
X124165000Y-61437548D01*
X124165000Y-64421885D01*
X123657000Y-64421885D01*
X123657000Y-63204115D01*
X123652525Y-63188876D01*
X123651135Y-63187671D01*
X123643452Y-63186000D01*
X122148115Y-63186000D01*
X122132876Y-63190475D01*
X122131671Y-63191865D01*
X122130000Y-63199548D01*
X122130000Y-63240000D01*
X122109998Y-63308121D01*
X122056342Y-63354614D01*
X122004000Y-63366000D01*
X119604115Y-63366000D01*
X119588876Y-63370475D01*
X119587671Y-63371865D01*
X119586000Y-63379548D01*
X119586000Y-64601885D01*
X119078000Y-64601885D01*
X119078000Y-63384115D01*
X119073525Y-63368876D01*
X119072135Y-63367671D01*
X119064452Y-63366000D01*
X116592115Y-63366000D01*
X116576876Y-63370475D01*
X116575671Y-63371865D01*
X116574000Y-63379548D01*
X116574000Y-63706681D01*
X111140499Y-63706681D01*
X111140499Y-63515366D01*
X111138957Y-63498576D01*
X111136652Y-63473496D01*
X111133753Y-63441938D01*
X111131754Y-63435559D01*
X111084744Y-63285550D01*
X111084743Y-63285548D01*
X111082472Y-63278301D01*
X111036135Y-63201789D01*
X111017956Y-63133159D01*
X111036135Y-63071247D01*
X111078077Y-63001992D01*
X111084285Y-62988243D01*
X111130777Y-62839885D01*
X116574000Y-62839885D01*
X116578475Y-62855124D01*
X116579865Y-62856329D01*
X116587548Y-62858000D01*
X119059885Y-62858000D01*
X119075124Y-62853525D01*
X119076329Y-62852135D01*
X119078000Y-62844452D01*
X119078000Y-62839885D01*
X119586000Y-62839885D01*
X119590475Y-62855124D01*
X119591865Y-62856329D01*
X119599548Y-62858000D01*
X121944885Y-62858000D01*
X121960124Y-62853525D01*
X121961329Y-62852135D01*
X121963000Y-62844452D01*
X121963000Y-62804000D01*
X121983002Y-62735879D01*
X122036658Y-62689386D01*
X122089000Y-62678000D01*
X123638885Y-62678000D01*
X123654124Y-62673525D01*
X123655329Y-62672135D01*
X123657000Y-62664452D01*
X123657000Y-61442115D01*
X123652525Y-61426876D01*
X123651135Y-61425671D01*
X123643452Y-61424000D01*
X122916319Y-61424000D01*
X122913267Y-61424077D01*
X122904055Y-61425233D01*
X122720909Y-61462162D01*
X122709167Y-61465752D01*
X122538057Y-61536978D01*
X122527241Y-61542778D01*
X122373221Y-61645885D01*
X122363734Y-61653678D01*
X122232678Y-61784734D01*
X122224885Y-61794221D01*
X122121778Y-61948241D01*
X122115983Y-61959049D01*
X122107361Y-61979761D01*
X122062716Y-62034964D01*
X121995313Y-62057267D01*
X121926553Y-62039589D01*
X121886332Y-62001434D01*
X121868111Y-61974216D01*
X121860322Y-61964734D01*
X121729266Y-61833678D01*
X121719779Y-61825885D01*
X121565759Y-61722778D01*
X121554943Y-61716978D01*
X121383833Y-61645752D01*
X121372091Y-61642162D01*
X121188945Y-61605233D01*
X121179733Y-61604077D01*
X121176681Y-61604000D01*
X119604115Y-61604000D01*
X119588876Y-61608475D01*
X119587671Y-61609865D01*
X119586000Y-61617548D01*
X119586000Y-62839885D01*
X119078000Y-62839885D01*
X119078000Y-61622115D01*
X119073525Y-61606876D01*
X119072135Y-61605671D01*
X119064452Y-61604000D01*
X117487319Y-61604000D01*
X117484267Y-61604077D01*
X117475055Y-61605233D01*
X117291909Y-61642162D01*
X117280167Y-61645752D01*
X117109057Y-61716978D01*
X117098241Y-61722778D01*
X116944221Y-61825885D01*
X116934734Y-61833678D01*
X116803678Y-61964734D01*
X116795885Y-61974221D01*
X116692778Y-62128241D01*
X116686978Y-62139057D01*
X116615752Y-62310167D01*
X116612162Y-62321909D01*
X116575233Y-62505055D01*
X116574077Y-62514267D01*
X116574000Y-62517319D01*
X116574000Y-62839885D01*
X111130777Y-62839885D01*
X111131256Y-62838356D01*
X111133869Y-62825306D01*
X111138913Y-62770414D01*
X111135525Y-62758876D01*
X111134135Y-62757671D01*
X111126452Y-62756000D01*
X108842116Y-62756000D01*
X108826877Y-62760475D01*
X108825672Y-62761865D01*
X108824709Y-62766294D01*
X108830132Y-62825315D01*
X108832743Y-62838351D01*
X108875509Y-62974821D01*
X108876793Y-63045806D01*
X108839496Y-63106217D01*
X108775459Y-63136873D01*
X108755275Y-63138500D01*
X107555499Y-63138500D01*
X107487378Y-63118498D01*
X107471211Y-63104760D01*
X107470580Y-63105461D01*
X107465672Y-63101041D01*
X107461253Y-63096134D01*
X107427000Y-63071247D01*
X107312094Y-62987763D01*
X107312093Y-62987762D01*
X107306752Y-62983882D01*
X107300724Y-62981198D01*
X107300722Y-62981197D01*
X107138319Y-62908891D01*
X107138318Y-62908891D01*
X107132288Y-62906206D01*
X107038888Y-62886353D01*
X106951944Y-62867872D01*
X106951939Y-62867872D01*
X106945487Y-62866500D01*
X106754513Y-62866500D01*
X106748061Y-62867872D01*
X106748056Y-62867872D01*
X106661112Y-62886353D01*
X106567712Y-62906206D01*
X106561682Y-62908891D01*
X106561681Y-62908891D01*
X106399278Y-62981197D01*
X106399276Y-62981198D01*
X106393248Y-62983882D01*
X106387907Y-62987762D01*
X106387906Y-62987763D01*
X106344209Y-63019511D01*
X106238747Y-63096134D01*
X106234326Y-63101044D01*
X106234325Y-63101045D01*
X106141521Y-63204115D01*
X106110960Y-63238056D01*
X106086126Y-63281070D01*
X106026633Y-63384115D01*
X106015473Y-63403444D01*
X105956458Y-63585072D01*
X105955768Y-63591633D01*
X105955768Y-63591635D01*
X105941394Y-63728400D01*
X105936496Y-63775000D01*
X105937186Y-63781565D01*
X105955233Y-63953269D01*
X105956458Y-63964928D01*
X106015473Y-64146556D01*
X106018776Y-64152278D01*
X106018777Y-64152279D01*
X106046767Y-64200759D01*
X106110960Y-64311944D01*
X106115378Y-64316851D01*
X106115379Y-64316852D01*
X106188668Y-64398248D01*
X106238747Y-64453866D01*
X106244089Y-64457747D01*
X106244091Y-64457749D01*
X106281453Y-64484894D01*
X106343078Y-64529667D01*
X106386431Y-64585888D01*
X106392506Y-64656624D01*
X106359375Y-64719416D01*
X106297555Y-64754327D01*
X106242819Y-64754849D01*
X106096144Y-64723672D01*
X106096139Y-64723672D01*
X106089687Y-64722300D01*
X105898713Y-64722300D01*
X105892261Y-64723672D01*
X105892256Y-64723672D01*
X105814637Y-64740171D01*
X105711912Y-64762006D01*
X105705882Y-64764691D01*
X105705881Y-64764691D01*
X105543478Y-64836997D01*
X105543476Y-64836998D01*
X105537448Y-64839682D01*
X105382947Y-64951934D01*
X105378526Y-64956844D01*
X105378525Y-64956845D01*
X105264662Y-65083303D01*
X105204216Y-65120543D01*
X105133233Y-65119191D01*
X105074248Y-65079678D01*
X105062572Y-65063132D01*
X105026124Y-65001501D01*
X105016484Y-64989074D01*
X104911926Y-64884516D01*
X104899499Y-64874876D01*
X104792848Y-64811803D01*
X104744395Y-64759910D01*
X104731690Y-64690059D01*
X104731898Y-64688756D01*
X104732238Y-64687731D01*
X104742500Y-64587572D01*
X104742500Y-64053428D01*
X104741258Y-64041452D01*
X104735580Y-63986733D01*
X104731978Y-63952018D01*
X104691522Y-63830758D01*
X104688937Y-63759808D01*
X104725120Y-63698724D01*
X104788584Y-63666899D01*
X104837241Y-63667634D01*
X104850853Y-63670527D01*
X104850854Y-63670527D01*
X104857313Y-63671900D01*
X105048287Y-63671900D01*
X105054739Y-63670528D01*
X105054744Y-63670528D01*
X105165690Y-63646945D01*
X105235088Y-63632194D01*
X105270302Y-63616516D01*
X105403522Y-63557203D01*
X105403524Y-63557202D01*
X105409552Y-63554518D01*
X105564053Y-63442266D01*
X105590553Y-63412835D01*
X105687421Y-63305252D01*
X105687422Y-63305251D01*
X105691840Y-63300344D01*
X105787327Y-63134956D01*
X105846342Y-62953328D01*
X105847230Y-62944885D01*
X105865614Y-62769965D01*
X105866304Y-62763400D01*
X105853692Y-62643401D01*
X105847032Y-62580035D01*
X105847032Y-62580033D01*
X105846342Y-62573472D01*
X105787327Y-62391844D01*
X105783442Y-62385114D01*
X105730259Y-62293000D01*
X105695956Y-62233586D01*
X108825087Y-62233586D01*
X108828475Y-62245124D01*
X108829865Y-62246329D01*
X108837548Y-62248000D01*
X109709885Y-62248000D01*
X109725124Y-62243525D01*
X109726329Y-62242135D01*
X109728000Y-62234452D01*
X109728000Y-62229885D01*
X110236000Y-62229885D01*
X110240475Y-62245124D01*
X110241865Y-62246329D01*
X110249548Y-62248000D01*
X111121884Y-62248000D01*
X111137123Y-62243525D01*
X111138328Y-62242135D01*
X111139291Y-62237706D01*
X111133868Y-62178685D01*
X111131257Y-62165649D01*
X111084285Y-62015757D01*
X111078079Y-62002012D01*
X110997176Y-61868426D01*
X110987869Y-61856557D01*
X110877443Y-61746131D01*
X110865574Y-61736824D01*
X110731988Y-61655921D01*
X110718243Y-61649715D01*
X110568356Y-61602744D01*
X110555306Y-61600131D01*
X110491479Y-61594266D01*
X110485691Y-61594000D01*
X110254115Y-61594000D01*
X110238876Y-61598475D01*
X110237671Y-61599865D01*
X110236000Y-61607548D01*
X110236000Y-62229885D01*
X109728000Y-62229885D01*
X109728000Y-61612116D01*
X109723525Y-61596877D01*
X109722135Y-61595672D01*
X109714452Y-61594001D01*
X109478295Y-61594001D01*
X109472546Y-61594264D01*
X109408685Y-61600132D01*
X109395649Y-61602743D01*
X109245757Y-61649715D01*
X109232012Y-61655921D01*
X109098426Y-61736824D01*
X109086557Y-61746131D01*
X108976131Y-61856557D01*
X108966824Y-61868426D01*
X108885921Y-62002012D01*
X108879715Y-62015757D01*
X108832744Y-62165644D01*
X108830131Y-62178694D01*
X108825087Y-62233586D01*
X105695956Y-62233586D01*
X105691840Y-62226456D01*
X105616367Y-62142634D01*
X105568475Y-62089445D01*
X105568474Y-62089444D01*
X105564053Y-62084534D01*
X105449676Y-62001434D01*
X105414894Y-61976163D01*
X105414893Y-61976162D01*
X105409552Y-61972282D01*
X105403524Y-61969598D01*
X105403522Y-61969597D01*
X105241119Y-61897291D01*
X105241118Y-61897291D01*
X105235088Y-61894606D01*
X105141687Y-61874753D01*
X105054744Y-61856272D01*
X105054739Y-61856272D01*
X105048287Y-61854900D01*
X104857313Y-61854900D01*
X104850861Y-61856272D01*
X104850856Y-61856272D01*
X104763913Y-61874753D01*
X104670512Y-61894606D01*
X104560103Y-61943763D01*
X104489737Y-61953197D01*
X104442739Y-61935916D01*
X104434577Y-61930885D01*
X104324692Y-61863151D01*
X104303953Y-61856272D01*
X104170262Y-61811928D01*
X104170260Y-61811928D01*
X104163731Y-61809762D01*
X104063572Y-61799500D01*
X103454428Y-61799500D01*
X103451182Y-61799837D01*
X103451178Y-61799837D01*
X103417397Y-61803342D01*
X103353018Y-61810022D01*
X103192151Y-61863692D01*
X103047945Y-61952929D01*
X102928136Y-62072947D01*
X102924296Y-62079177D01*
X102924295Y-62079178D01*
X102904980Y-62110514D01*
X102839151Y-62217308D01*
X102836846Y-62224256D01*
X102836846Y-62224257D01*
X102793764Y-62354145D01*
X102785762Y-62378269D01*
X102775500Y-62478428D01*
X102775500Y-63012572D01*
X102786022Y-63113982D01*
X102839692Y-63274849D01*
X102928929Y-63419055D01*
X102953805Y-63443887D01*
X102987884Y-63506168D01*
X102982882Y-63576988D01*
X102953960Y-63622078D01*
X102928136Y-63647947D01*
X102924296Y-63654177D01*
X102924295Y-63654178D01*
X102914217Y-63670528D01*
X102839151Y-63792308D01*
X102836846Y-63799256D01*
X102836846Y-63799257D01*
X102789493Y-63942022D01*
X102785762Y-63953269D01*
X102780744Y-64002245D01*
X102776352Y-64045112D01*
X102749511Y-64110840D01*
X102691396Y-64151622D01*
X102620458Y-64154510D01*
X102599764Y-64147379D01*
X102507288Y-64106206D01*
X102407254Y-64084943D01*
X102326944Y-64067872D01*
X102326939Y-64067872D01*
X102320487Y-64066500D01*
X102129513Y-64066500D01*
X102123061Y-64067872D01*
X102123056Y-64067872D01*
X102042746Y-64084943D01*
X101942712Y-64106206D01*
X101936682Y-64108891D01*
X101936681Y-64108891D01*
X101774278Y-64181197D01*
X101774276Y-64181198D01*
X101768248Y-64183882D01*
X101762907Y-64187762D01*
X101762906Y-64187763D01*
X101717350Y-64220862D01*
X101613747Y-64296134D01*
X101609326Y-64301044D01*
X101609325Y-64301045D01*
X101569939Y-64344788D01*
X101509494Y-64382028D01*
X101450107Y-64383725D01*
X101398141Y-64372679D01*
X101270144Y-64345472D01*
X101270139Y-64345472D01*
X101263687Y-64344100D01*
X101072713Y-64344100D01*
X101066261Y-64345472D01*
X101066256Y-64345472D01*
X100979313Y-64363953D01*
X100885912Y-64383806D01*
X100879882Y-64386491D01*
X100879881Y-64386491D01*
X100739584Y-64448955D01*
X100711448Y-64461482D01*
X100710789Y-64460003D01*
X100649731Y-64474817D01*
X100620569Y-64469957D01*
X100615122Y-64468375D01*
X100522254Y-64441394D01*
X100515849Y-64440890D01*
X100515844Y-64440889D01*
X100487940Y-64438693D01*
X100487932Y-64438693D01*
X100485484Y-64438500D01*
X100014516Y-64438500D01*
X100012068Y-64438693D01*
X100012060Y-64438693D01*
X99984156Y-64440889D01*
X99984151Y-64440890D01*
X99977746Y-64441394D01*
X99879431Y-64469957D01*
X99828016Y-64484894D01*
X99828014Y-64484895D01*
X99820403Y-64487106D01*
X99813581Y-64491141D01*
X99806303Y-64494290D01*
X99805722Y-64492947D01*
X99745315Y-64508269D01*
X99694149Y-64493245D01*
X99693697Y-64494290D01*
X99686419Y-64491141D01*
X99679597Y-64487106D01*
X99671986Y-64484895D01*
X99671984Y-64484894D01*
X99620569Y-64469957D01*
X99522254Y-64441394D01*
X99515849Y-64440890D01*
X99515844Y-64440889D01*
X99487940Y-64438693D01*
X99487932Y-64438693D01*
X99485484Y-64438500D01*
X99014516Y-64438500D01*
X99012068Y-64438693D01*
X99012060Y-64438693D01*
X98984156Y-64440889D01*
X98984151Y-64440890D01*
X98977746Y-64441394D01*
X98879431Y-64469957D01*
X98828016Y-64484894D01*
X98828014Y-64484895D01*
X98820403Y-64487106D01*
X98813581Y-64491141D01*
X98806303Y-64494290D01*
X98805722Y-64492947D01*
X98745315Y-64508269D01*
X98694149Y-64493245D01*
X98693697Y-64494290D01*
X98686419Y-64491141D01*
X98679597Y-64487106D01*
X98671986Y-64484895D01*
X98671984Y-64484894D01*
X98620569Y-64469957D01*
X98522254Y-64441394D01*
X98515849Y-64440890D01*
X98515844Y-64440889D01*
X98487940Y-64438693D01*
X98487932Y-64438693D01*
X98485484Y-64438500D01*
X98014516Y-64438500D01*
X98012068Y-64438693D01*
X98012060Y-64438693D01*
X97984156Y-64440889D01*
X97984151Y-64440890D01*
X97977746Y-64441394D01*
X97879431Y-64469957D01*
X97828016Y-64484894D01*
X97828014Y-64484895D01*
X97820403Y-64487106D01*
X97813581Y-64491141D01*
X97813580Y-64491141D01*
X97792760Y-64503454D01*
X97728621Y-64521000D01*
X97456442Y-64521000D01*
X97442911Y-64524973D01*
X97441776Y-64532871D01*
X97478357Y-64658784D01*
X97484605Y-64673222D01*
X97490016Y-64682372D01*
X97507474Y-64751188D01*
X97490015Y-64810647D01*
X97485353Y-64818531D01*
X97480106Y-64827403D01*
X97477895Y-64835014D01*
X97477894Y-64835016D01*
X97475411Y-64843563D01*
X97434394Y-64984746D01*
X97431500Y-65021516D01*
X97431500Y-65045405D01*
X97411498Y-65113526D01*
X97394595Y-65134501D01*
X97206499Y-65322596D01*
X97144187Y-65356621D01*
X97117404Y-65359500D01*
X94752665Y-65359500D01*
X94684544Y-65339498D01*
X94638051Y-65285842D01*
X94635250Y-65278041D01*
X94634906Y-65278173D01*
X94632536Y-65272000D01*
X94630829Y-65265629D01*
X94624747Y-65253693D01*
X94547126Y-65101351D01*
X94547124Y-65101347D01*
X94544129Y-65095470D01*
X94539976Y-65090341D01*
X94539973Y-65090337D01*
X94428100Y-64952186D01*
X94423945Y-64947055D01*
X94336365Y-64876134D01*
X94280663Y-64831027D01*
X94280659Y-64831024D01*
X94275530Y-64826871D01*
X94269648Y-64823874D01*
X94269645Y-64823872D01*
X94223331Y-64800274D01*
X94171715Y-64751526D01*
X94154649Y-64682611D01*
X94177549Y-64615410D01*
X94233147Y-64571257D01*
X94247922Y-64566300D01*
X94447933Y-64512707D01*
X94447935Y-64512706D01*
X94453243Y-64511284D01*
X94470762Y-64503115D01*
X94655762Y-64416849D01*
X94655767Y-64416846D01*
X94660749Y-64414523D01*
X94829826Y-64296134D01*
X94843789Y-64286357D01*
X94843792Y-64286355D01*
X94848300Y-64283198D01*
X95010198Y-64121300D01*
X95017523Y-64110840D01*
X95088806Y-64009036D01*
X95098211Y-63995605D01*
X97443381Y-63995605D01*
X97443421Y-64009705D01*
X97450691Y-64013000D01*
X97977885Y-64013000D01*
X97993124Y-64008525D01*
X97994329Y-64007135D01*
X97996000Y-63999452D01*
X97996000Y-63994885D01*
X98504000Y-63994885D01*
X98508475Y-64010124D01*
X98509865Y-64011329D01*
X98517548Y-64013000D01*
X98977885Y-64013000D01*
X98993124Y-64008525D01*
X98994329Y-64007135D01*
X98996000Y-63999452D01*
X98996000Y-63994885D01*
X99504000Y-63994885D01*
X99508475Y-64010124D01*
X99509865Y-64011329D01*
X99517548Y-64013000D01*
X99977885Y-64013000D01*
X99993124Y-64008525D01*
X99994329Y-64007135D01*
X99996000Y-63999452D01*
X99996000Y-63994885D01*
X100504000Y-63994885D01*
X100508475Y-64010124D01*
X100509865Y-64011329D01*
X100517548Y-64013000D01*
X101043558Y-64013000D01*
X101057089Y-64009027D01*
X101058224Y-64001129D01*
X101021643Y-63875216D01*
X101015396Y-63860780D01*
X100940124Y-63733501D01*
X100930484Y-63721074D01*
X100825926Y-63616516D01*
X100813499Y-63606876D01*
X100686220Y-63531604D01*
X100671784Y-63525357D01*
X100528359Y-63483688D01*
X100520391Y-63482232D01*
X100506969Y-63485052D01*
X100504000Y-63496513D01*
X100504000Y-63994885D01*
X99996000Y-63994885D01*
X99996000Y-63498576D01*
X99991656Y-63483781D01*
X99981225Y-63481937D01*
X99971641Y-63483688D01*
X99828216Y-63525357D01*
X99806503Y-63534753D01*
X99805947Y-63533469D01*
X99745326Y-63548851D01*
X99693927Y-63533759D01*
X99693497Y-63534753D01*
X99671784Y-63525357D01*
X99528359Y-63483688D01*
X99520391Y-63482232D01*
X99506969Y-63485052D01*
X99504000Y-63496513D01*
X99504000Y-63994885D01*
X98996000Y-63994885D01*
X98996000Y-63498576D01*
X98991656Y-63483781D01*
X98981225Y-63481937D01*
X98971641Y-63483688D01*
X98828216Y-63525357D01*
X98806503Y-63534753D01*
X98805947Y-63533469D01*
X98745326Y-63548851D01*
X98693927Y-63533759D01*
X98693497Y-63534753D01*
X98671784Y-63525357D01*
X98528359Y-63483688D01*
X98520391Y-63482232D01*
X98506969Y-63485052D01*
X98504000Y-63496513D01*
X98504000Y-63994885D01*
X97996000Y-63994885D01*
X97996000Y-63498576D01*
X97991656Y-63483781D01*
X97981225Y-63481937D01*
X97971641Y-63483688D01*
X97828216Y-63525357D01*
X97813780Y-63531604D01*
X97686501Y-63606876D01*
X97674074Y-63616516D01*
X97569516Y-63721074D01*
X97559876Y-63733501D01*
X97484604Y-63860780D01*
X97478357Y-63875216D01*
X97443381Y-63995605D01*
X95098211Y-63995605D01*
X95141523Y-63933749D01*
X95143846Y-63928767D01*
X95143849Y-63928762D01*
X95235961Y-63731225D01*
X95235961Y-63731224D01*
X95238284Y-63726243D01*
X95249395Y-63684779D01*
X95296119Y-63510402D01*
X95296119Y-63510400D01*
X95297543Y-63505087D01*
X95317498Y-63277000D01*
X95297543Y-63048913D01*
X95288676Y-63015822D01*
X95239707Y-62833067D01*
X95239706Y-62833065D01*
X95238284Y-62827757D01*
X95232125Y-62814548D01*
X95143849Y-62625238D01*
X95143846Y-62625233D01*
X95141523Y-62620251D01*
X95045094Y-62482536D01*
X95013357Y-62437211D01*
X95013355Y-62437208D01*
X95010198Y-62432700D01*
X94848300Y-62270802D01*
X94843792Y-62267645D01*
X94843789Y-62267643D01*
X94732129Y-62189458D01*
X94660749Y-62139477D01*
X94655767Y-62137154D01*
X94655762Y-62137151D01*
X94458225Y-62045039D01*
X94458224Y-62045039D01*
X94453243Y-62042716D01*
X94447935Y-62041294D01*
X94447933Y-62041293D01*
X94237402Y-61984881D01*
X94237400Y-61984881D01*
X94232087Y-61983457D01*
X94004000Y-61963502D01*
X93775913Y-61983457D01*
X93770600Y-61984881D01*
X93770598Y-61984881D01*
X93560067Y-62041293D01*
X93560065Y-62041294D01*
X93554757Y-62042716D01*
X93549776Y-62045039D01*
X93549775Y-62045039D01*
X93352238Y-62137151D01*
X93352233Y-62137154D01*
X93347251Y-62139477D01*
X93275871Y-62189458D01*
X93164211Y-62267643D01*
X93164208Y-62267645D01*
X93159700Y-62270802D01*
X92997802Y-62432700D01*
X92994645Y-62437208D01*
X92994643Y-62437211D01*
X92962906Y-62482536D01*
X92866477Y-62620251D01*
X92864154Y-62625233D01*
X92864151Y-62625238D01*
X92775875Y-62814548D01*
X92769716Y-62827757D01*
X92768294Y-62833065D01*
X92768293Y-62833067D01*
X92719324Y-63015822D01*
X92710457Y-63048913D01*
X92690502Y-63277000D01*
X92710457Y-63505087D01*
X92711881Y-63510400D01*
X92711881Y-63510402D01*
X92758606Y-63684779D01*
X92769716Y-63726243D01*
X92772039Y-63731224D01*
X92772039Y-63731225D01*
X92864151Y-63928762D01*
X92864154Y-63928767D01*
X92866477Y-63933749D01*
X92919194Y-64009036D01*
X92990478Y-64110840D01*
X92997802Y-64121300D01*
X93159700Y-64283198D01*
X93164208Y-64286355D01*
X93164211Y-64286357D01*
X93178174Y-64296134D01*
X93347251Y-64414523D01*
X93352233Y-64416846D01*
X93352238Y-64416849D01*
X93411119Y-64444305D01*
X93464404Y-64491222D01*
X93483865Y-64559499D01*
X93463323Y-64627459D01*
X93409301Y-64673525D01*
X93357869Y-64684500D01*
X90033871Y-64684501D01*
X90014420Y-64684501D01*
X89935096Y-64690743D01*
X89929516Y-64692238D01*
X89927753Y-64692541D01*
X89857229Y-64684362D01*
X89802323Y-64639354D01*
X89780465Y-64571806D01*
X89798597Y-64503163D01*
X89817323Y-64479265D01*
X89932322Y-64364266D01*
X89940115Y-64354779D01*
X90043222Y-64200759D01*
X90049022Y-64189943D01*
X90120248Y-64018833D01*
X90123838Y-64007091D01*
X90160767Y-63823945D01*
X90161923Y-63814733D01*
X90162000Y-63811681D01*
X90162000Y-63489115D01*
X90157525Y-63473876D01*
X90156135Y-63472671D01*
X90148452Y-63471000D01*
X87676115Y-63471000D01*
X87660876Y-63475475D01*
X87659671Y-63476865D01*
X87658000Y-63484548D01*
X87658000Y-64706885D01*
X87662475Y-64722124D01*
X87663865Y-64723329D01*
X87671548Y-64725000D01*
X89248681Y-64725000D01*
X89251733Y-64724923D01*
X89260942Y-64723767D01*
X89353088Y-64705187D01*
X89423819Y-64711329D01*
X89480000Y-64754737D01*
X89503795Y-64821627D01*
X89487649Y-64890763D01*
X89457290Y-64926620D01*
X89432055Y-64947055D01*
X89427900Y-64952186D01*
X89316027Y-65090337D01*
X89316024Y-65090341D01*
X89311871Y-65095470D01*
X89308876Y-65101347D01*
X89308874Y-65101351D01*
X89231253Y-65253693D01*
X89225171Y-65265629D01*
X89223463Y-65272002D01*
X89223463Y-65272003D01*
X89177713Y-65442745D01*
X89175743Y-65450096D01*
X89175290Y-65455852D01*
X89169730Y-65526502D01*
X89169500Y-65529419D01*
X89169501Y-66456580D01*
X89175743Y-66535904D01*
X89225171Y-66720371D01*
X89228167Y-66726251D01*
X89283008Y-66833882D01*
X89311871Y-66890530D01*
X89316024Y-66895659D01*
X89316027Y-66895663D01*
X89393325Y-66991118D01*
X89432055Y-67038945D01*
X89437186Y-67043100D01*
X89575337Y-67154973D01*
X89575341Y-67154976D01*
X89580470Y-67159129D01*
X89580542Y-67159166D01*
X89625202Y-67211208D01*
X89634969Y-67281530D01*
X89605167Y-67345968D01*
X89581861Y-67366162D01*
X89580470Y-67366871D01*
X89575341Y-67371024D01*
X89575337Y-67371027D01*
X89459707Y-67464663D01*
X89432055Y-67487055D01*
X89427900Y-67492186D01*
X89316027Y-67630337D01*
X89316024Y-67630341D01*
X89311871Y-67635470D01*
X89308876Y-67641347D01*
X89308874Y-67641351D01*
X89264659Y-67728129D01*
X89225171Y-67805629D01*
X89223463Y-67812002D01*
X89223463Y-67812003D01*
X89179304Y-67976808D01*
X89175743Y-67990096D01*
X89175290Y-67995852D01*
X89169881Y-68064581D01*
X89169500Y-68069419D01*
X89169501Y-68996580D01*
X89175743Y-69075904D01*
X89225171Y-69260371D01*
X89228167Y-69266251D01*
X89300777Y-69408756D01*
X89311871Y-69430530D01*
X89316024Y-69435659D01*
X89316027Y-69435663D01*
X89415390Y-69558365D01*
X89432055Y-69578945D01*
X89437186Y-69583100D01*
X89575337Y-69694973D01*
X89575341Y-69694976D01*
X89580470Y-69699129D01*
X89580542Y-69699166D01*
X89625202Y-69751208D01*
X89634969Y-69821530D01*
X89605167Y-69885968D01*
X89581861Y-69906162D01*
X89580470Y-69906871D01*
X89575341Y-69911024D01*
X89575337Y-69911027D01*
X89461106Y-70003530D01*
X89432055Y-70027055D01*
X89427900Y-70032186D01*
X89316027Y-70170337D01*
X89316024Y-70170341D01*
X89311871Y-70175470D01*
X89308876Y-70181347D01*
X89308874Y-70181351D01*
X89235661Y-70325041D01*
X89225171Y-70345629D01*
X89223463Y-70352002D01*
X89223463Y-70352003D01*
X89180607Y-70511944D01*
X89175743Y-70530096D01*
X89175290Y-70535852D01*
X89171905Y-70578866D01*
X89169500Y-70609419D01*
X89169501Y-71536580D01*
X89172034Y-71568774D01*
X89174890Y-71605058D01*
X89175743Y-71615904D01*
X89225171Y-71800371D01*
X89228167Y-71806251D01*
X89299387Y-71946028D01*
X89311871Y-71970530D01*
X89316024Y-71975659D01*
X89316027Y-71975663D01*
X89401071Y-72080683D01*
X89432055Y-72118945D01*
X89437186Y-72123100D01*
X89575337Y-72234973D01*
X89575341Y-72234976D01*
X89580470Y-72239129D01*
X89580542Y-72239166D01*
X89625202Y-72291208D01*
X89634969Y-72361530D01*
X89605167Y-72425968D01*
X89581861Y-72446162D01*
X89580470Y-72446871D01*
X89575341Y-72451024D01*
X89575337Y-72451027D01*
X89460675Y-72543879D01*
X89432055Y-72567055D01*
X89427900Y-72572186D01*
X89316027Y-72710337D01*
X89316024Y-72710341D01*
X89311871Y-72715470D01*
X89308876Y-72721347D01*
X89308874Y-72721351D01*
X89248696Y-72839459D01*
X89225171Y-72885629D01*
X89223463Y-72892002D01*
X89223463Y-72892003D01*
X89178215Y-73060872D01*
X89175743Y-73070096D01*
X89175290Y-73075852D01*
X89172167Y-73115538D01*
X89169500Y-73149419D01*
X89169500Y-73219405D01*
X89149498Y-73287526D01*
X89095842Y-73334019D01*
X89025568Y-73344123D01*
X88960988Y-73314629D01*
X88954405Y-73308500D01*
X88328652Y-72682747D01*
X88321112Y-72674461D01*
X88317000Y-72667982D01*
X88308738Y-72660223D01*
X88267349Y-72621357D01*
X88264507Y-72618602D01*
X88244770Y-72598865D01*
X88241573Y-72596385D01*
X88232551Y-72588680D01*
X88217672Y-72574708D01*
X88200321Y-72558414D01*
X88193375Y-72554595D01*
X88193372Y-72554593D01*
X88182566Y-72548652D01*
X88166047Y-72537801D01*
X88159348Y-72532605D01*
X88150041Y-72525386D01*
X88142772Y-72522241D01*
X88142768Y-72522238D01*
X88109463Y-72507826D01*
X88098813Y-72502609D01*
X88060060Y-72481305D01*
X88040437Y-72476267D01*
X88021734Y-72469863D01*
X88010420Y-72464967D01*
X88010419Y-72464967D01*
X88003145Y-72461819D01*
X87995322Y-72460580D01*
X87995312Y-72460577D01*
X87959476Y-72454901D01*
X87947856Y-72452495D01*
X87912711Y-72443472D01*
X87912710Y-72443472D01*
X87905030Y-72441500D01*
X87884776Y-72441500D01*
X87865065Y-72439949D01*
X87852886Y-72438020D01*
X87845057Y-72436780D01*
X87837165Y-72437526D01*
X87801039Y-72440941D01*
X87789181Y-72441500D01*
X82737595Y-72441500D01*
X82669474Y-72421498D01*
X82648499Y-72404595D01*
X81770404Y-71526499D01*
X81736379Y-71464187D01*
X81733500Y-71437404D01*
X81733499Y-70615891D01*
X81733499Y-70613420D01*
X81727257Y-70534096D01*
X81677829Y-70349629D01*
X81661594Y-70317765D01*
X81594126Y-70185351D01*
X81594124Y-70185347D01*
X81591129Y-70179470D01*
X81586976Y-70174341D01*
X81586973Y-70174337D01*
X81475100Y-70036186D01*
X81470945Y-70031055D01*
X81438354Y-70004663D01*
X81327663Y-69915027D01*
X81327659Y-69915024D01*
X81322530Y-69910871D01*
X81322458Y-69910834D01*
X81277798Y-69858792D01*
X81268031Y-69788470D01*
X81297833Y-69724032D01*
X81321139Y-69703838D01*
X81322530Y-69703129D01*
X81327659Y-69698976D01*
X81327663Y-69698973D01*
X81465814Y-69587100D01*
X81470945Y-69582945D01*
X81485535Y-69564928D01*
X81586973Y-69439663D01*
X81586976Y-69439659D01*
X81591129Y-69434530D01*
X81604262Y-69408756D01*
X81674833Y-69270251D01*
X81677829Y-69264371D01*
X81685476Y-69235832D01*
X81725763Y-69085481D01*
X81725764Y-69085477D01*
X81727257Y-69079904D01*
X81731904Y-69020865D01*
X81733307Y-69003037D01*
X81733307Y-69003030D01*
X81733500Y-69000581D01*
X81733499Y-68073420D01*
X81729614Y-68024053D01*
X81727710Y-67999850D01*
X81727710Y-67999848D01*
X81727257Y-67994096D01*
X81677829Y-67809629D01*
X81661443Y-67777469D01*
X81594126Y-67645351D01*
X81594124Y-67645347D01*
X81591129Y-67639470D01*
X81586976Y-67634341D01*
X81586973Y-67634337D01*
X81475100Y-67496186D01*
X81470945Y-67491055D01*
X81322530Y-67370871D01*
X81322096Y-67370650D01*
X81277338Y-67318496D01*
X81267569Y-67248175D01*
X81297370Y-67183736D01*
X81323572Y-67161031D01*
X81327390Y-67158552D01*
X81465459Y-67046745D01*
X81474745Y-67037459D01*
X81586552Y-66899390D01*
X81593705Y-66888375D01*
X81674365Y-66730070D01*
X81679069Y-66717817D01*
X81725267Y-66545403D01*
X81727214Y-66534069D01*
X81732807Y-66463010D01*
X81733000Y-66458085D01*
X81733000Y-66269115D01*
X81728525Y-66253876D01*
X81727135Y-66252671D01*
X81719452Y-66251000D01*
X79135115Y-66251000D01*
X79119876Y-66255475D01*
X79118671Y-66256865D01*
X79117000Y-66264548D01*
X79117000Y-66458085D01*
X79117193Y-66463010D01*
X79122786Y-66534069D01*
X79124733Y-66545403D01*
X79170931Y-66717817D01*
X79175635Y-66730070D01*
X79256295Y-66888375D01*
X79263448Y-66899390D01*
X79375255Y-67037459D01*
X79384541Y-67046745D01*
X79522610Y-67158552D01*
X79526428Y-67161031D01*
X79572663Y-67214908D01*
X79582430Y-67285230D01*
X79552628Y-67349669D01*
X79529141Y-67370019D01*
X79527470Y-67370871D01*
X79379055Y-67491055D01*
X79374900Y-67496186D01*
X79263027Y-67634337D01*
X79263024Y-67634341D01*
X79258871Y-67639470D01*
X79255876Y-67645347D01*
X79255874Y-67645351D01*
X79188557Y-67777469D01*
X79172171Y-67809629D01*
X79170463Y-67816002D01*
X79170463Y-67816003D01*
X79126088Y-67981613D01*
X79122743Y-67994096D01*
X79122290Y-67999850D01*
X79122290Y-67999852D01*
X79116694Y-68070960D01*
X79116500Y-68073419D01*
X79116501Y-69000580D01*
X79122743Y-69079904D01*
X79172171Y-69264371D01*
X79175167Y-69270251D01*
X79245739Y-69408756D01*
X79258871Y-69434530D01*
X79263024Y-69439659D01*
X79263027Y-69439663D01*
X79364465Y-69564928D01*
X79379055Y-69582945D01*
X79384186Y-69587100D01*
X79522337Y-69698973D01*
X79522341Y-69698976D01*
X79527470Y-69703129D01*
X79527542Y-69703166D01*
X79572202Y-69755208D01*
X79581969Y-69825530D01*
X79552167Y-69889968D01*
X79528861Y-69910162D01*
X79527470Y-69910871D01*
X79522341Y-69915024D01*
X79522337Y-69915027D01*
X79411646Y-70004663D01*
X79379055Y-70031055D01*
X79374900Y-70036186D01*
X79263027Y-70174337D01*
X79263024Y-70174341D01*
X79258871Y-70179470D01*
X79255876Y-70185347D01*
X79255874Y-70185351D01*
X79188406Y-70317765D01*
X79172171Y-70349629D01*
X79170463Y-70356002D01*
X79170463Y-70356003D01*
X79128679Y-70511944D01*
X79122743Y-70534096D01*
X79122290Y-70539850D01*
X79122290Y-70539852D01*
X79116694Y-70610960D01*
X79116500Y-70613419D01*
X79116501Y-71540580D01*
X79118270Y-71563056D01*
X79121814Y-71608093D01*
X79122743Y-71619904D01*
X79172171Y-71804371D01*
X79175167Y-71810251D01*
X79244349Y-71946028D01*
X79258871Y-71974530D01*
X79263024Y-71979659D01*
X79263027Y-71979663D01*
X79364993Y-72105580D01*
X79379055Y-72122945D01*
X79384186Y-72127100D01*
X79522337Y-72238973D01*
X79522341Y-72238976D01*
X79527470Y-72243129D01*
X79527542Y-72243166D01*
X79572202Y-72295208D01*
X79581969Y-72365530D01*
X79552167Y-72429968D01*
X79528861Y-72450162D01*
X79527470Y-72450871D01*
X79522341Y-72455024D01*
X79522337Y-72455027D01*
X79411646Y-72544663D01*
X79379055Y-72571055D01*
X79374900Y-72576186D01*
X79263027Y-72714337D01*
X79263024Y-72714341D01*
X79258871Y-72719470D01*
X79255876Y-72725347D01*
X79255874Y-72725351D01*
X79197734Y-72839459D01*
X79172171Y-72889629D01*
X79170463Y-72896002D01*
X79170463Y-72896003D01*
X79124528Y-73067435D01*
X79122743Y-73074096D01*
X79122290Y-73079852D01*
X79118166Y-73132255D01*
X79116500Y-73153419D01*
X72258500Y-73153419D01*
X72258500Y-65724885D01*
X79117000Y-65724885D01*
X79121475Y-65740124D01*
X79122865Y-65741329D01*
X79130548Y-65743000D01*
X80152885Y-65743000D01*
X80168124Y-65738525D01*
X80169329Y-65737135D01*
X80171000Y-65729452D01*
X80171000Y-65724885D01*
X80679000Y-65724885D01*
X80683475Y-65740124D01*
X80684865Y-65741329D01*
X80692548Y-65743000D01*
X81714885Y-65743000D01*
X81730124Y-65738525D01*
X81731329Y-65737135D01*
X81733000Y-65729452D01*
X81733000Y-65535916D01*
X81732807Y-65530990D01*
X81727214Y-65459931D01*
X81725267Y-65448597D01*
X81679069Y-65276183D01*
X81674365Y-65263930D01*
X81593705Y-65105625D01*
X81586552Y-65094610D01*
X81474745Y-64956541D01*
X81465459Y-64947255D01*
X81327390Y-64835448D01*
X81316375Y-64828295D01*
X81158070Y-64747635D01*
X81145817Y-64742931D01*
X80973403Y-64696733D01*
X80962069Y-64694786D01*
X80891010Y-64689193D01*
X80886084Y-64689000D01*
X80697115Y-64689000D01*
X80681876Y-64693475D01*
X80680671Y-64694865D01*
X80679000Y-64702548D01*
X80679000Y-65724885D01*
X80171000Y-65724885D01*
X80171000Y-64707115D01*
X80166525Y-64691876D01*
X80165135Y-64690671D01*
X80157452Y-64689000D01*
X79963916Y-64689000D01*
X79958990Y-64689193D01*
X79887931Y-64694786D01*
X79876597Y-64696733D01*
X79704183Y-64742931D01*
X79691930Y-64747635D01*
X79533625Y-64828295D01*
X79522610Y-64835448D01*
X79384541Y-64947255D01*
X79375255Y-64956541D01*
X79263448Y-65094610D01*
X79256295Y-65105625D01*
X79175635Y-65263930D01*
X79170931Y-65276183D01*
X79124733Y-65448597D01*
X79122786Y-65459931D01*
X79117193Y-65530990D01*
X79117000Y-65535916D01*
X79117000Y-65724885D01*
X72258500Y-65724885D01*
X72258500Y-63141681D01*
X80917000Y-63141681D01*
X80917077Y-63144733D01*
X80918233Y-63153945D01*
X80955162Y-63337091D01*
X80958752Y-63348833D01*
X81029978Y-63519943D01*
X81035778Y-63530759D01*
X81138885Y-63684779D01*
X81146678Y-63694266D01*
X81277734Y-63825322D01*
X81287221Y-63833115D01*
X81441241Y-63936222D01*
X81452057Y-63942022D01*
X81623167Y-64013248D01*
X81634909Y-64016838D01*
X81818055Y-64053767D01*
X81827267Y-64054923D01*
X81830319Y-64055000D01*
X82552885Y-64055000D01*
X82568124Y-64050525D01*
X82569329Y-64049135D01*
X82571000Y-64041452D01*
X82571000Y-64036885D01*
X83079000Y-64036885D01*
X83083475Y-64052124D01*
X83084865Y-64053329D01*
X83092548Y-64055000D01*
X83819681Y-64055000D01*
X83822733Y-64054923D01*
X83831945Y-64053767D01*
X84015091Y-64016838D01*
X84026833Y-64013248D01*
X84197943Y-63942022D01*
X84208759Y-63936222D01*
X84362779Y-63833115D01*
X84372266Y-63825322D01*
X84435162Y-63762426D01*
X84497474Y-63728400D01*
X84568289Y-63733465D01*
X84625125Y-63776012D01*
X84647771Y-63826616D01*
X84684162Y-64007091D01*
X84687752Y-64018833D01*
X84758978Y-64189943D01*
X84764778Y-64200759D01*
X84867885Y-64354779D01*
X84875678Y-64364266D01*
X85006734Y-64495322D01*
X85016221Y-64503115D01*
X85170241Y-64606222D01*
X85181057Y-64612022D01*
X85352167Y-64683248D01*
X85363909Y-64686838D01*
X85547055Y-64723767D01*
X85556267Y-64724923D01*
X85559319Y-64725000D01*
X87131885Y-64725000D01*
X87147124Y-64720525D01*
X87148329Y-64719135D01*
X87150000Y-64711452D01*
X87150000Y-62944885D01*
X87658000Y-62944885D01*
X87662475Y-62960124D01*
X87663865Y-62961329D01*
X87671548Y-62963000D01*
X90143885Y-62963000D01*
X90159124Y-62958525D01*
X90160329Y-62957135D01*
X90162000Y-62949452D01*
X90162000Y-62622319D01*
X90161923Y-62619267D01*
X90160767Y-62610055D01*
X90123838Y-62426909D01*
X90120248Y-62415167D01*
X90049022Y-62244057D01*
X90043222Y-62233241D01*
X89940115Y-62079221D01*
X89932322Y-62069734D01*
X89801266Y-61938678D01*
X89791779Y-61930885D01*
X89637759Y-61827778D01*
X89626943Y-61821978D01*
X89455833Y-61750752D01*
X89444091Y-61747162D01*
X89260945Y-61710233D01*
X89251733Y-61709077D01*
X89248681Y-61709000D01*
X87676115Y-61709000D01*
X87660876Y-61713475D01*
X87659671Y-61714865D01*
X87658000Y-61722548D01*
X87658000Y-62944885D01*
X87150000Y-62944885D01*
X87150000Y-61727115D01*
X87145525Y-61711876D01*
X87144135Y-61710671D01*
X87136452Y-61709000D01*
X85559319Y-61709000D01*
X85556267Y-61709077D01*
X85547055Y-61710233D01*
X85363909Y-61747162D01*
X85352167Y-61750752D01*
X85181057Y-61821978D01*
X85170241Y-61827778D01*
X85016221Y-61930885D01*
X85006734Y-61938678D01*
X84943838Y-62001574D01*
X84881526Y-62035600D01*
X84810711Y-62030535D01*
X84753875Y-61987988D01*
X84731229Y-61937384D01*
X84694838Y-61756909D01*
X84691248Y-61745167D01*
X84620022Y-61574057D01*
X84614222Y-61563241D01*
X84511115Y-61409221D01*
X84503322Y-61399734D01*
X84372266Y-61268678D01*
X84362779Y-61260885D01*
X84208759Y-61157778D01*
X84197943Y-61151978D01*
X84026833Y-61080752D01*
X84015091Y-61077162D01*
X83831945Y-61040233D01*
X83822733Y-61039077D01*
X83819681Y-61039000D01*
X83097115Y-61039000D01*
X83081876Y-61043475D01*
X83080671Y-61044865D01*
X83079000Y-61052548D01*
X83079000Y-64036885D01*
X82571000Y-64036885D01*
X82571000Y-62819115D01*
X82566525Y-62803876D01*
X82565135Y-62802671D01*
X82557452Y-62801000D01*
X80935115Y-62801000D01*
X80919876Y-62805475D01*
X80918671Y-62806865D01*
X80917000Y-62814548D01*
X80917000Y-63141681D01*
X72258500Y-63141681D01*
X72258500Y-62274885D01*
X80917000Y-62274885D01*
X80921475Y-62290124D01*
X80922865Y-62291329D01*
X80930548Y-62293000D01*
X82552885Y-62293000D01*
X82568124Y-62288525D01*
X82569329Y-62287135D01*
X82571000Y-62279452D01*
X82571000Y-61057115D01*
X82566525Y-61041876D01*
X82565135Y-61040671D01*
X82557452Y-61039000D01*
X81830319Y-61039000D01*
X81827267Y-61039077D01*
X81818055Y-61040233D01*
X81634909Y-61077162D01*
X81623167Y-61080752D01*
X81452057Y-61151978D01*
X81441241Y-61157778D01*
X81287221Y-61260885D01*
X81277734Y-61268678D01*
X81146678Y-61399734D01*
X81138885Y-61409221D01*
X81035778Y-61563241D01*
X81029978Y-61574057D01*
X80958752Y-61745167D01*
X80955162Y-61756909D01*
X80918233Y-61940055D01*
X80917077Y-61949267D01*
X80917000Y-61952319D01*
X80917000Y-62274885D01*
X72258500Y-62274885D01*
X72258500Y-60634500D01*
X72278502Y-60566379D01*
X72332158Y-60519886D01*
X72384500Y-60508500D01*
X134615500Y-60508500D01*
X134683621Y-60528502D01*
G37*
%TD.AperFunction*%
%TA.AperFunction,Conductor*%
G36*
X109076344Y-71296690D02*
G01*
X109135960Y-71335244D01*
X109165268Y-71399909D01*
X109166500Y-71417484D01*
X109166500Y-71596233D01*
X109165973Y-71607416D01*
X109164298Y-71614909D01*
X109164547Y-71622835D01*
X109164547Y-71622836D01*
X109166438Y-71682986D01*
X109166500Y-71686945D01*
X109166500Y-71714856D01*
X109166997Y-71718790D01*
X109166997Y-71718791D01*
X109167005Y-71718856D01*
X109167938Y-71730693D01*
X109169327Y-71774889D01*
X109174978Y-71794339D01*
X109178987Y-71813700D01*
X109181526Y-71833797D01*
X109184445Y-71841168D01*
X109184445Y-71841170D01*
X109197804Y-71874912D01*
X109201649Y-71886142D01*
X109213982Y-71928593D01*
X109218015Y-71935412D01*
X109218017Y-71935417D01*
X109224293Y-71946028D01*
X109232988Y-71963776D01*
X109240448Y-71982617D01*
X109245110Y-71989033D01*
X109245110Y-71989034D01*
X109266436Y-72018387D01*
X109272952Y-72028307D01*
X109295458Y-72066362D01*
X109309779Y-72080683D01*
X109322619Y-72095716D01*
X109334528Y-72112107D01*
X109340633Y-72117158D01*
X109340638Y-72117163D01*
X109368598Y-72140294D01*
X109377376Y-72148281D01*
X109558925Y-72329829D01*
X109727878Y-72498782D01*
X109761903Y-72561095D01*
X109764093Y-72574706D01*
X109765989Y-72592745D01*
X109779506Y-72721351D01*
X109781458Y-72739928D01*
X109840473Y-72921556D01*
X109843776Y-72927278D01*
X109843777Y-72927279D01*
X109854705Y-72946207D01*
X109935960Y-73086944D01*
X110063747Y-73228866D01*
X110133590Y-73279610D01*
X110185393Y-73317247D01*
X110218248Y-73341118D01*
X110224276Y-73343802D01*
X110224278Y-73343803D01*
X110366781Y-73407249D01*
X110392712Y-73418794D01*
X110485741Y-73438568D01*
X110573056Y-73457128D01*
X110573061Y-73457128D01*
X110579513Y-73458500D01*
X110770487Y-73458500D01*
X110776939Y-73457128D01*
X110776944Y-73457128D01*
X110864259Y-73438568D01*
X110957288Y-73418794D01*
X110983219Y-73407249D01*
X111125722Y-73343803D01*
X111125724Y-73343802D01*
X111131752Y-73341118D01*
X111164608Y-73317247D01*
X111216410Y-73279610D01*
X111286253Y-73228866D01*
X111414040Y-73086944D01*
X111469928Y-72990142D01*
X111521312Y-72941149D01*
X111591025Y-72927713D01*
X111656936Y-72954100D01*
X111668143Y-72964047D01*
X112021343Y-73317247D01*
X112028887Y-73325537D01*
X112033000Y-73332018D01*
X112038777Y-73337443D01*
X112062795Y-73359997D01*
X112098761Y-73421210D01*
X112098250Y-73484458D01*
X112055743Y-73643096D01*
X112053321Y-73642447D01*
X112026826Y-73696551D01*
X111966086Y-73733310D01*
X111933862Y-73737500D01*
X109641783Y-73737500D01*
X109573662Y-73717498D01*
X109573501Y-73717384D01*
X109570629Y-73714512D01*
X109563807Y-73710477D01*
X109563805Y-73710476D01*
X109436420Y-73635141D01*
X109436419Y-73635141D01*
X109429597Y-73631106D01*
X109421986Y-73628895D01*
X109421984Y-73628894D01*
X109371005Y-73614084D01*
X109272254Y-73585394D01*
X109265849Y-73584890D01*
X109265844Y-73584889D01*
X109237940Y-73582693D01*
X109237932Y-73582693D01*
X109235484Y-73582500D01*
X108764516Y-73582500D01*
X108762068Y-73582693D01*
X108762060Y-73582693D01*
X108734156Y-73584889D01*
X108734151Y-73584890D01*
X108727746Y-73585394D01*
X108628995Y-73614084D01*
X108578016Y-73628894D01*
X108578014Y-73628895D01*
X108570403Y-73631106D01*
X108563581Y-73635141D01*
X108556303Y-73638290D01*
X108555722Y-73636947D01*
X108495315Y-73652269D01*
X108444149Y-73637245D01*
X108443697Y-73638290D01*
X108436419Y-73635141D01*
X108429597Y-73631106D01*
X108421986Y-73628895D01*
X108421984Y-73628894D01*
X108371005Y-73614084D01*
X108272254Y-73585394D01*
X108265849Y-73584890D01*
X108265844Y-73584889D01*
X108237940Y-73582693D01*
X108237932Y-73582693D01*
X108235484Y-73582500D01*
X108028499Y-73582500D01*
X107960378Y-73562498D01*
X107913885Y-73508842D01*
X107904097Y-73440765D01*
X107903742Y-73440728D01*
X107903890Y-73439323D01*
X107903890Y-73439322D01*
X107923704Y-73250800D01*
X107914936Y-73167374D01*
X107904432Y-73067435D01*
X107904432Y-73067433D01*
X107903742Y-73060872D01*
X107844727Y-72879244D01*
X107814621Y-72827099D01*
X107797884Y-72758104D01*
X107821105Y-72691012D01*
X107876912Y-72647125D01*
X107923741Y-72638100D01*
X108020087Y-72638100D01*
X108026539Y-72636728D01*
X108026544Y-72636728D01*
X108113488Y-72618247D01*
X108206888Y-72598394D01*
X108228706Y-72588680D01*
X108375322Y-72523403D01*
X108375324Y-72523402D01*
X108381352Y-72520718D01*
X108535853Y-72408466D01*
X108575736Y-72364171D01*
X108659221Y-72271452D01*
X108659222Y-72271451D01*
X108663640Y-72266544D01*
X108732593Y-72147115D01*
X108755823Y-72106879D01*
X108755824Y-72106878D01*
X108759127Y-72101156D01*
X108818142Y-71919528D01*
X108827980Y-71825930D01*
X108837414Y-71736165D01*
X108838104Y-71729600D01*
X108829071Y-71643659D01*
X108818832Y-71546235D01*
X108818832Y-71546233D01*
X108818142Y-71539672D01*
X108806680Y-71504395D01*
X108798686Y-71479792D01*
X108796659Y-71408824D01*
X108833321Y-71348026D01*
X108897034Y-71316701D01*
X108913569Y-71314953D01*
X108917302Y-71314806D01*
X108945156Y-71312614D01*
X108957763Y-71310312D01*
X109005348Y-71296487D01*
X109076344Y-71296690D01*
G37*
%TD.AperFunction*%
%TD*%
M02*
