M48
; DRILL file {KiCad (6.0.9)} date Sat Mar  4 22:36:28 2023
; FORMAT={-:-/ absolute / inch / decimal}
; #@! TF.CreationDate,2023-03-04T22:36:28+01:00
; #@! TF.GenerationSoftware,Kicad,Pcbnew,(6.0.9)
; #@! TF.FileFunction,Plated,1,4,PTH
FMAT,2
INCH
; #@! TA.AperFunction,Plated,PTH,ViaDrill
T1C0.0157
%
G90
G05
T1
X2.9124Y-3.0846
X2.9163Y-2.565
X2.9177Y-2.9263
X3.0719Y-2.5728
X3.0955Y-2.9636
X3.1476Y-2.4636
X3.3209Y-2.9488
X3.3219Y-2.5571
X3.5827Y-2.4882
X3.5846Y-3.0335
X3.748Y-2.9429
X3.7815Y-2.6624
X3.7815Y-2.7313
X3.7943Y-2.9439
X3.8524Y-2.8386
X3.875Y-2.752
X3.908Y-2.495
X3.9409Y-2.6063
X3.983Y-2.569
X4.0079Y-2.5098
X4.0123Y-2.6058
X4.0246Y-2.5581
X4.0276Y-2.7175
X4.0276Y-2.7805
X4.046Y-2.892
X4.0906Y-2.717
X4.0915Y-2.7805
X4.094Y-2.89
X4.132Y-2.471
X4.141Y-2.539
X4.173Y-2.5839
X4.1772Y-2.9961
X4.2067Y-2.5108
X4.207Y-2.7759
X4.2126Y-2.4409
X4.213Y-2.8839
X4.2156Y-3.0256
X4.249Y-2.824
X4.2579Y-2.6821
X4.2776Y-3.0157
X4.2953Y-2.8652
X4.3573Y-2.8563
X4.3681Y-2.7549
X4.4232Y-2.4754
X4.5463Y-3.0443
X4.5502Y-2.4833
X4.7096Y-2.5738
X4.7264Y-2.8868
X4.872Y-2.564
X4.9852Y-3.0472
X5.0906Y-2.5118
X5.1201Y-2.9134
X5.2175Y-2.5669
T0
M30
