%TF.GenerationSoftware,KiCad,Pcbnew,(6.0.9)*%
%TF.CreationDate,2023-03-04T22:36:08+01:00*%
%TF.ProjectId,nard_sam,6e617264-5f73-4616-9d2e-6b696361645f,rev?*%
%TF.SameCoordinates,Original*%
%TF.FileFunction,Copper,L3,Inr*%
%TF.FilePolarity,Positive*%
%FSLAX46Y46*%
G04 Gerber Fmt 4.6, Leading zero omitted, Abs format (unit mm)*
G04 Created by KiCad (PCBNEW (6.0.9)) date 2023-03-04 22:36:08*
%MOMM*%
%LPD*%
G01*
G04 APERTURE LIST*
%TA.AperFunction,ViaPad*%
%ADD10C,0.800000*%
%TD*%
G04 APERTURE END LIST*
D10*
%TO.N,+5V*%
X74110000Y-74327600D03*
X110675000Y-72550000D03*
X104952800Y-62763400D03*
%TO.N,GND*%
X132525000Y-65200000D03*
X101800000Y-63750000D03*
X103900000Y-69011800D03*
X84350000Y-74900000D03*
X130050000Y-74000000D03*
X91050000Y-77050000D03*
X78625000Y-75275000D03*
X129300000Y-63800000D03*
X91000000Y-63200000D03*
X126625000Y-77400000D03*
X107000000Y-62000000D03*
X115475000Y-77325000D03*
X103925000Y-70625000D03*
X115575000Y-63075000D03*
X99263200Y-63373000D03*
X106100000Y-76100000D03*
X112350000Y-62875000D03*
X74075000Y-65150000D03*
X105181400Y-64490600D03*
X102300000Y-69025000D03*
X73975000Y-78350000D03*
X120050000Y-73325000D03*
X84375000Y-64950000D03*
X79950000Y-62575000D03*
X109100000Y-72775000D03*
X78025000Y-65350000D03*
X123750000Y-65125000D03*
X102300000Y-70625000D03*
X119625000Y-65375000D03*
%TO.N,/PC0*%
X107075000Y-76850000D03*
%TO.N,/PC1*%
X108650000Y-76600000D03*
%TO.N,/USB_DM*%
X102768400Y-73456800D03*
%TO.N,/USB_DP*%
X103987600Y-73406000D03*
%TO.N,/~{RESET}*%
X107924600Y-71729600D03*
%TO.N,/SC1_VCC*%
X101168200Y-65252600D03*
X98425000Y-69900000D03*
%TO.N,/SC2_VCC*%
X105994200Y-65630800D03*
X107010200Y-73250800D03*
%TO.N,/SC1_CLK*%
X96050000Y-67625000D03*
X96050000Y-69375000D03*
%TO.N,/SC1_C4*%
X97850000Y-72100000D03*
X101912250Y-66187250D03*
%TO.N,/SC1_IO*%
X100100000Y-66200000D03*
X95200000Y-74750000D03*
%TO.N,/SC1_C8*%
X102225000Y-64975000D03*
X96375000Y-74775000D03*
%TO.N,/SC2_IO*%
X108150000Y-68125000D03*
X110950000Y-69975000D03*
%TO.N,/SC2_PRsNT*%
X106857800Y-70507600D03*
X106850000Y-63775000D03*
%TD*%
%TA.AperFunction,Conductor*%
%TO.N,+5V*%
G36*
X134683621Y-60528502D02*
G01*
X134730114Y-60582158D01*
X134741500Y-60634500D01*
X134741500Y-80365500D01*
X134721498Y-80433621D01*
X134667842Y-80480114D01*
X134615500Y-80491500D01*
X72384500Y-80491500D01*
X72316379Y-80471498D01*
X72269886Y-80417842D01*
X72258500Y-80365500D01*
X72258500Y-78350000D01*
X73061496Y-78350000D01*
X73081458Y-78539928D01*
X73140473Y-78721556D01*
X73235960Y-78886944D01*
X73363747Y-79028866D01*
X73518248Y-79141118D01*
X73524276Y-79143802D01*
X73524278Y-79143803D01*
X73686681Y-79216109D01*
X73692712Y-79218794D01*
X73786113Y-79238647D01*
X73873056Y-79257128D01*
X73873061Y-79257128D01*
X73879513Y-79258500D01*
X74070487Y-79258500D01*
X74076939Y-79257128D01*
X74076944Y-79257128D01*
X74163887Y-79238647D01*
X74257288Y-79218794D01*
X74263319Y-79216109D01*
X74425722Y-79143803D01*
X74425724Y-79143802D01*
X74431752Y-79141118D01*
X74586253Y-79028866D01*
X74714040Y-78886944D01*
X74809527Y-78721556D01*
X74868542Y-78539928D01*
X74888504Y-78350000D01*
X74876115Y-78232128D01*
X74869232Y-78166635D01*
X74869232Y-78166633D01*
X74868542Y-78160072D01*
X74809527Y-77978444D01*
X74714040Y-77813056D01*
X74627772Y-77717245D01*
X74590675Y-77676045D01*
X74590674Y-77676044D01*
X74586253Y-77671134D01*
X74462506Y-77581226D01*
X74437094Y-77562763D01*
X74437093Y-77562762D01*
X74431752Y-77558882D01*
X74425724Y-77556198D01*
X74425722Y-77556197D01*
X74263319Y-77483891D01*
X74263318Y-77483891D01*
X74257288Y-77481206D01*
X74163888Y-77461353D01*
X74076944Y-77442872D01*
X74076939Y-77442872D01*
X74070487Y-77441500D01*
X73879513Y-77441500D01*
X73873061Y-77442872D01*
X73873056Y-77442872D01*
X73786112Y-77461353D01*
X73692712Y-77481206D01*
X73686682Y-77483891D01*
X73686681Y-77483891D01*
X73524278Y-77556197D01*
X73524276Y-77556198D01*
X73518248Y-77558882D01*
X73512907Y-77562762D01*
X73512906Y-77562763D01*
X73487494Y-77581226D01*
X73363747Y-77671134D01*
X73359326Y-77676044D01*
X73359325Y-77676045D01*
X73322229Y-77717245D01*
X73235960Y-77813056D01*
X73140473Y-77978444D01*
X73081458Y-78160072D01*
X73080768Y-78166633D01*
X73080768Y-78166635D01*
X73073885Y-78232128D01*
X73061496Y-78350000D01*
X72258500Y-78350000D01*
X72258500Y-76932150D01*
X79040482Y-76932150D01*
X79040998Y-76938294D01*
X79041729Y-76947000D01*
X79056995Y-77128794D01*
X79057852Y-77139004D01*
X79115069Y-77338545D01*
X79117887Y-77344027D01*
X79117888Y-77344031D01*
X79154501Y-77415271D01*
X79209955Y-77523173D01*
X79213786Y-77528007D01*
X79213787Y-77528008D01*
X79241725Y-77563257D01*
X79338894Y-77685854D01*
X79343581Y-77689843D01*
X79343584Y-77689846D01*
X79446318Y-77777279D01*
X79496976Y-77820392D01*
X79678180Y-77921664D01*
X79875603Y-77985810D01*
X80081725Y-78010389D01*
X80087860Y-78009917D01*
X80087862Y-78009917D01*
X80282555Y-77994936D01*
X80282560Y-77994935D01*
X80288696Y-77994463D01*
X80294626Y-77992807D01*
X80294628Y-77992807D01*
X80422415Y-77957128D01*
X80488632Y-77938640D01*
X80494132Y-77935862D01*
X80668416Y-77847825D01*
X80668418Y-77847824D01*
X80673917Y-77845046D01*
X80837495Y-77717245D01*
X80949967Y-77586944D01*
X80969109Y-77564768D01*
X80969109Y-77564767D01*
X80973133Y-77560106D01*
X81075667Y-77379614D01*
X81141190Y-77182644D01*
X81157947Y-77050000D01*
X90136496Y-77050000D01*
X90137186Y-77056565D01*
X90155129Y-77227279D01*
X90156458Y-77239928D01*
X90215473Y-77421556D01*
X90310960Y-77586944D01*
X90315378Y-77591851D01*
X90315379Y-77591852D01*
X90428283Y-77717245D01*
X90438747Y-77728866D01*
X90593248Y-77841118D01*
X90599276Y-77843802D01*
X90599278Y-77843803D01*
X90751008Y-77911357D01*
X90767712Y-77918794D01*
X90853101Y-77936944D01*
X90948056Y-77957128D01*
X90948061Y-77957128D01*
X90954513Y-77958500D01*
X91145487Y-77958500D01*
X91151939Y-77957128D01*
X91151944Y-77957128D01*
X91246899Y-77936944D01*
X91332288Y-77918794D01*
X91348992Y-77911357D01*
X91500722Y-77843803D01*
X91500724Y-77843802D01*
X91506752Y-77841118D01*
X91661253Y-77728866D01*
X91671717Y-77717245D01*
X91784621Y-77591852D01*
X91784622Y-77591851D01*
X91789040Y-77586944D01*
X91884527Y-77421556D01*
X91943542Y-77239928D01*
X91944872Y-77227279D01*
X91962814Y-77056565D01*
X91963504Y-77050000D01*
X91961899Y-77034729D01*
X91944232Y-76866635D01*
X91944232Y-76866633D01*
X91943542Y-76860072D01*
X91884527Y-76678444D01*
X91878843Y-76668598D01*
X91805569Y-76541685D01*
X91789040Y-76513056D01*
X91661253Y-76371134D01*
X91506752Y-76258882D01*
X91500724Y-76256198D01*
X91500722Y-76256197D01*
X91338319Y-76183891D01*
X91338318Y-76183891D01*
X91332288Y-76181206D01*
X91238887Y-76161353D01*
X91151944Y-76142872D01*
X91151939Y-76142872D01*
X91145487Y-76141500D01*
X90954513Y-76141500D01*
X90948061Y-76142872D01*
X90948056Y-76142872D01*
X90861113Y-76161353D01*
X90767712Y-76181206D01*
X90761682Y-76183891D01*
X90761681Y-76183891D01*
X90599278Y-76256197D01*
X90599276Y-76256198D01*
X90593248Y-76258882D01*
X90438747Y-76371134D01*
X90310960Y-76513056D01*
X90294431Y-76541685D01*
X90221158Y-76668598D01*
X90215473Y-76678444D01*
X90156458Y-76860072D01*
X90155768Y-76866633D01*
X90155768Y-76866635D01*
X90138101Y-77034729D01*
X90136496Y-77050000D01*
X81157947Y-77050000D01*
X81167207Y-76976698D01*
X81167622Y-76947000D01*
X81151136Y-76778866D01*
X81147966Y-76746534D01*
X81147965Y-76746531D01*
X81147365Y-76740408D01*
X81087368Y-76541685D01*
X81081796Y-76531206D01*
X80992809Y-76363847D01*
X80992808Y-76363845D01*
X80989913Y-76358401D01*
X80911913Y-76262763D01*
X80862610Y-76202311D01*
X80862607Y-76202308D01*
X80858715Y-76197536D01*
X80851770Y-76191790D01*
X80740815Y-76100000D01*
X105186496Y-76100000D01*
X105187186Y-76106565D01*
X105201289Y-76240743D01*
X105206458Y-76289928D01*
X105265473Y-76471556D01*
X105360960Y-76636944D01*
X105365378Y-76641851D01*
X105365379Y-76641852D01*
X105454119Y-76740408D01*
X105488747Y-76778866D01*
X105643248Y-76891118D01*
X105649276Y-76893802D01*
X105649278Y-76893803D01*
X105809799Y-76965271D01*
X105817712Y-76968794D01*
X105910421Y-76988500D01*
X105998056Y-77007128D01*
X105998061Y-77007128D01*
X106004513Y-77008500D01*
X106079702Y-77008500D01*
X106147823Y-77028502D01*
X106194316Y-77082158D01*
X106199535Y-77095563D01*
X106240473Y-77221556D01*
X106243776Y-77227278D01*
X106243777Y-77227279D01*
X106267204Y-77267856D01*
X106335960Y-77386944D01*
X106340378Y-77391851D01*
X106340379Y-77391852D01*
X106353627Y-77406565D01*
X106463747Y-77528866D01*
X106618248Y-77641118D01*
X106624276Y-77643802D01*
X106624278Y-77643803D01*
X106786681Y-77716109D01*
X106792712Y-77718794D01*
X106858365Y-77732749D01*
X106973056Y-77757128D01*
X106973061Y-77757128D01*
X106979513Y-77758500D01*
X107170487Y-77758500D01*
X107176939Y-77757128D01*
X107176944Y-77757128D01*
X107291635Y-77732749D01*
X107357288Y-77718794D01*
X107363319Y-77716109D01*
X107525722Y-77643803D01*
X107525724Y-77643802D01*
X107531752Y-77641118D01*
X107686253Y-77528866D01*
X107796373Y-77406565D01*
X107809621Y-77391852D01*
X107809622Y-77391851D01*
X107814040Y-77386944D01*
X107854510Y-77316848D01*
X107905891Y-77267856D01*
X107975605Y-77254419D01*
X108038279Y-77279510D01*
X108038747Y-77278866D01*
X108042136Y-77281328D01*
X108042138Y-77281330D01*
X108187503Y-77386944D01*
X108193248Y-77391118D01*
X108199276Y-77393802D01*
X108199278Y-77393803D01*
X108261613Y-77421556D01*
X108367712Y-77468794D01*
X108461112Y-77488647D01*
X108548056Y-77507128D01*
X108548061Y-77507128D01*
X108554513Y-77508500D01*
X108745487Y-77508500D01*
X108751939Y-77507128D01*
X108751944Y-77507128D01*
X108838888Y-77488647D01*
X108932288Y-77468794D01*
X109038387Y-77421556D01*
X109100722Y-77393803D01*
X109100724Y-77393802D01*
X109106752Y-77391118D01*
X109115205Y-77384977D01*
X109179112Y-77338545D01*
X109261253Y-77278866D01*
X109265675Y-77273955D01*
X109384621Y-77141852D01*
X109384622Y-77141851D01*
X109389040Y-77136944D01*
X109463197Y-77008500D01*
X109481223Y-76977279D01*
X109481224Y-76977278D01*
X109484527Y-76971556D01*
X109507127Y-76902000D01*
X111418502Y-76902000D01*
X111438457Y-77130087D01*
X111439881Y-77135400D01*
X111439881Y-77135402D01*
X111495784Y-77344031D01*
X111497716Y-77351243D01*
X111500039Y-77356224D01*
X111500039Y-77356225D01*
X111592151Y-77553762D01*
X111592154Y-77553767D01*
X111594477Y-77558749D01*
X111616309Y-77589928D01*
X111713595Y-77728866D01*
X111725802Y-77746300D01*
X111887700Y-77908198D01*
X111892208Y-77911355D01*
X111892211Y-77911357D01*
X111935763Y-77941852D01*
X112075251Y-78039523D01*
X112080233Y-78041846D01*
X112080238Y-78041849D01*
X112277775Y-78133961D01*
X112282757Y-78136284D01*
X112288065Y-78137706D01*
X112288067Y-78137707D01*
X112498598Y-78194119D01*
X112498600Y-78194119D01*
X112503913Y-78195543D01*
X112732000Y-78215498D01*
X112960087Y-78195543D01*
X112965400Y-78194119D01*
X112965402Y-78194119D01*
X113175933Y-78137707D01*
X113175935Y-78137706D01*
X113181243Y-78136284D01*
X113186225Y-78133961D01*
X113383762Y-78041849D01*
X113383767Y-78041846D01*
X113388749Y-78039523D01*
X113528237Y-77941852D01*
X113571789Y-77911357D01*
X113571792Y-77911355D01*
X113576300Y-77908198D01*
X113738198Y-77746300D01*
X113750406Y-77728866D01*
X113847691Y-77589928D01*
X113869523Y-77558749D01*
X113871846Y-77553767D01*
X113871849Y-77553762D01*
X113963961Y-77356225D01*
X113963961Y-77356224D01*
X113966284Y-77351243D01*
X113968217Y-77344031D01*
X113973316Y-77325000D01*
X114561496Y-77325000D01*
X114562186Y-77331565D01*
X114577770Y-77479834D01*
X114581458Y-77514928D01*
X114640473Y-77696556D01*
X114643776Y-77702278D01*
X114643777Y-77702279D01*
X114656292Y-77723955D01*
X114735960Y-77861944D01*
X114740378Y-77866851D01*
X114740379Y-77866852D01*
X114855706Y-77994936D01*
X114863747Y-78003866D01*
X115018248Y-78116118D01*
X115024276Y-78118802D01*
X115024278Y-78118803D01*
X115186681Y-78191109D01*
X115192712Y-78193794D01*
X115286113Y-78213647D01*
X115373056Y-78232128D01*
X115373061Y-78232128D01*
X115379513Y-78233500D01*
X115570487Y-78233500D01*
X115576939Y-78232128D01*
X115576944Y-78232128D01*
X115663887Y-78213647D01*
X115757288Y-78193794D01*
X115763319Y-78191109D01*
X115925722Y-78118803D01*
X115925724Y-78118802D01*
X115931752Y-78116118D01*
X116086253Y-78003866D01*
X116094294Y-77994936D01*
X116209621Y-77866852D01*
X116209622Y-77866851D01*
X116214040Y-77861944D01*
X116293708Y-77723955D01*
X116306223Y-77702279D01*
X116306224Y-77702278D01*
X116309527Y-77696556D01*
X116368542Y-77514928D01*
X116372231Y-77479834D01*
X116380622Y-77400000D01*
X125711496Y-77400000D01*
X125712186Y-77406565D01*
X125728814Y-77564768D01*
X125731458Y-77589928D01*
X125790473Y-77771556D01*
X125793776Y-77777278D01*
X125793777Y-77777279D01*
X125820403Y-77823397D01*
X125885960Y-77936944D01*
X126013747Y-78078866D01*
X126168248Y-78191118D01*
X126174276Y-78193802D01*
X126174278Y-78193803D01*
X126260358Y-78232128D01*
X126342712Y-78268794D01*
X126436113Y-78288647D01*
X126523056Y-78307128D01*
X126523061Y-78307128D01*
X126529513Y-78308500D01*
X126720487Y-78308500D01*
X126726939Y-78307128D01*
X126726944Y-78307128D01*
X126813887Y-78288647D01*
X126907288Y-78268794D01*
X126989642Y-78232128D01*
X127075722Y-78193803D01*
X127075724Y-78193802D01*
X127081752Y-78191118D01*
X127236253Y-78078866D01*
X127364040Y-77936944D01*
X127429597Y-77823397D01*
X127456223Y-77777279D01*
X127456224Y-77777278D01*
X127459527Y-77771556D01*
X127518542Y-77589928D01*
X127521187Y-77564768D01*
X127537814Y-77406565D01*
X127538504Y-77400000D01*
X127533903Y-77356225D01*
X127519232Y-77216635D01*
X127519232Y-77216633D01*
X127518542Y-77210072D01*
X127459527Y-77028444D01*
X127364040Y-76863056D01*
X127355701Y-76853794D01*
X127240675Y-76726045D01*
X127240674Y-76726044D01*
X127236253Y-76721134D01*
X127081752Y-76608882D01*
X127075724Y-76606198D01*
X127075722Y-76606197D01*
X126913319Y-76533891D01*
X126913318Y-76533891D01*
X126907288Y-76531206D01*
X126813887Y-76511353D01*
X126726944Y-76492872D01*
X126726939Y-76492872D01*
X126720487Y-76491500D01*
X126529513Y-76491500D01*
X126523061Y-76492872D01*
X126523056Y-76492872D01*
X126436113Y-76511353D01*
X126342712Y-76531206D01*
X126336682Y-76533891D01*
X126336681Y-76533891D01*
X126174278Y-76606197D01*
X126174276Y-76606198D01*
X126168248Y-76608882D01*
X126013747Y-76721134D01*
X126009326Y-76726044D01*
X126009325Y-76726045D01*
X125894300Y-76853794D01*
X125885960Y-76863056D01*
X125790473Y-77028444D01*
X125731458Y-77210072D01*
X125730768Y-77216633D01*
X125730768Y-77216635D01*
X125716097Y-77356225D01*
X125711496Y-77400000D01*
X116380622Y-77400000D01*
X116387814Y-77331565D01*
X116388504Y-77325000D01*
X116377115Y-77216635D01*
X116369232Y-77141635D01*
X116369232Y-77141633D01*
X116368542Y-77135072D01*
X116309527Y-76953444D01*
X116281847Y-76905500D01*
X116257341Y-76863056D01*
X116214040Y-76788056D01*
X116201344Y-76773955D01*
X116090675Y-76651045D01*
X116090674Y-76651044D01*
X116086253Y-76646134D01*
X115987157Y-76574136D01*
X115937094Y-76537763D01*
X115937093Y-76537762D01*
X115931752Y-76533882D01*
X115925724Y-76531198D01*
X115925722Y-76531197D01*
X115763319Y-76458891D01*
X115763318Y-76458891D01*
X115757288Y-76456206D01*
X115663888Y-76436353D01*
X115576944Y-76417872D01*
X115576939Y-76417872D01*
X115570487Y-76416500D01*
X115379513Y-76416500D01*
X115373061Y-76417872D01*
X115373056Y-76417872D01*
X115286112Y-76436353D01*
X115192712Y-76456206D01*
X115186682Y-76458891D01*
X115186681Y-76458891D01*
X115024278Y-76531197D01*
X115024276Y-76531198D01*
X115018248Y-76533882D01*
X115012907Y-76537762D01*
X115012906Y-76537763D01*
X114962843Y-76574136D01*
X114863747Y-76646134D01*
X114859326Y-76651044D01*
X114859325Y-76651045D01*
X114748657Y-76773955D01*
X114735960Y-76788056D01*
X114692659Y-76863056D01*
X114668154Y-76905500D01*
X114640473Y-76953444D01*
X114581458Y-77135072D01*
X114580768Y-77141633D01*
X114580768Y-77141635D01*
X114572885Y-77216635D01*
X114561496Y-77325000D01*
X113973316Y-77325000D01*
X114024119Y-77135402D01*
X114024119Y-77135400D01*
X114025543Y-77130087D01*
X114045498Y-76902000D01*
X114025543Y-76673913D01*
X114024119Y-76668598D01*
X113967707Y-76458067D01*
X113967706Y-76458065D01*
X113966284Y-76452757D01*
X113946380Y-76410072D01*
X113871849Y-76250238D01*
X113871846Y-76250233D01*
X113869523Y-76245251D01*
X113746212Y-76069145D01*
X113741357Y-76062211D01*
X113741355Y-76062208D01*
X113738198Y-76057700D01*
X113576300Y-75895802D01*
X113571792Y-75892645D01*
X113571789Y-75892643D01*
X113457708Y-75812763D01*
X113388749Y-75764477D01*
X113383767Y-75762154D01*
X113383762Y-75762151D01*
X113186225Y-75670039D01*
X113186224Y-75670039D01*
X113181243Y-75667716D01*
X113175935Y-75666294D01*
X113175933Y-75666293D01*
X112965402Y-75609881D01*
X112965400Y-75609881D01*
X112960087Y-75608457D01*
X112732000Y-75588502D01*
X112503913Y-75608457D01*
X112498600Y-75609881D01*
X112498598Y-75609881D01*
X112288067Y-75666293D01*
X112288065Y-75666294D01*
X112282757Y-75667716D01*
X112277776Y-75670039D01*
X112277775Y-75670039D01*
X112080238Y-75762151D01*
X112080233Y-75762154D01*
X112075251Y-75764477D01*
X112006292Y-75812763D01*
X111892211Y-75892643D01*
X111892208Y-75892645D01*
X111887700Y-75895802D01*
X111725802Y-76057700D01*
X111722645Y-76062208D01*
X111722643Y-76062211D01*
X111717788Y-76069145D01*
X111594477Y-76245251D01*
X111592154Y-76250233D01*
X111592151Y-76250238D01*
X111517620Y-76410072D01*
X111497716Y-76452757D01*
X111496294Y-76458065D01*
X111496293Y-76458067D01*
X111439881Y-76668598D01*
X111438457Y-76673913D01*
X111418502Y-76902000D01*
X109507127Y-76902000D01*
X109543542Y-76789928D01*
X109549367Y-76734511D01*
X109562814Y-76606565D01*
X109563504Y-76600000D01*
X109548673Y-76458891D01*
X109544232Y-76416635D01*
X109544232Y-76416633D01*
X109543542Y-76410072D01*
X109484527Y-76228444D01*
X109465554Y-76195581D01*
X109414160Y-76106565D01*
X109389040Y-76063056D01*
X109384218Y-76057700D01*
X109265675Y-75926045D01*
X109265674Y-75926044D01*
X109261253Y-75921134D01*
X109106752Y-75808882D01*
X109100724Y-75806198D01*
X109100722Y-75806197D01*
X108938319Y-75733891D01*
X108938318Y-75733891D01*
X108932288Y-75731206D01*
X108838888Y-75711353D01*
X108751944Y-75692872D01*
X108751939Y-75692872D01*
X108745487Y-75691500D01*
X108554513Y-75691500D01*
X108548061Y-75692872D01*
X108548056Y-75692872D01*
X108461112Y-75711353D01*
X108367712Y-75731206D01*
X108361682Y-75733891D01*
X108361681Y-75733891D01*
X108199278Y-75806197D01*
X108199276Y-75806198D01*
X108193248Y-75808882D01*
X108038747Y-75921134D01*
X108034326Y-75926044D01*
X108034325Y-75926045D01*
X107915783Y-76057700D01*
X107910960Y-76063056D01*
X107889631Y-76100000D01*
X107870491Y-76133151D01*
X107819109Y-76182144D01*
X107749395Y-76195581D01*
X107686721Y-76170490D01*
X107686253Y-76171134D01*
X107683704Y-76169282D01*
X107650512Y-76145166D01*
X107537094Y-76062763D01*
X107537093Y-76062762D01*
X107531752Y-76058882D01*
X107525724Y-76056198D01*
X107525722Y-76056197D01*
X107363319Y-75983891D01*
X107363318Y-75983891D01*
X107357288Y-75981206D01*
X107253232Y-75959088D01*
X107176944Y-75942872D01*
X107176939Y-75942872D01*
X107170487Y-75941500D01*
X107095298Y-75941500D01*
X107027177Y-75921498D01*
X106980684Y-75867842D01*
X106975465Y-75854437D01*
X106936568Y-75734726D01*
X106934527Y-75728444D01*
X106913990Y-75692872D01*
X106883620Y-75640271D01*
X106839040Y-75563056D01*
X106815793Y-75537237D01*
X106715675Y-75426045D01*
X106715674Y-75426044D01*
X106711253Y-75421134D01*
X106556752Y-75308882D01*
X106550724Y-75306198D01*
X106550722Y-75306197D01*
X106388319Y-75233891D01*
X106388318Y-75233891D01*
X106382288Y-75231206D01*
X106288887Y-75211353D01*
X106201944Y-75192872D01*
X106201939Y-75192872D01*
X106195487Y-75191500D01*
X106004513Y-75191500D01*
X105998061Y-75192872D01*
X105998056Y-75192872D01*
X105911113Y-75211353D01*
X105817712Y-75231206D01*
X105811682Y-75233891D01*
X105811681Y-75233891D01*
X105649278Y-75306197D01*
X105649276Y-75306198D01*
X105643248Y-75308882D01*
X105488747Y-75421134D01*
X105484326Y-75426044D01*
X105484325Y-75426045D01*
X105384208Y-75537237D01*
X105360960Y-75563056D01*
X105316380Y-75640271D01*
X105286011Y-75692872D01*
X105265473Y-75728444D01*
X105206458Y-75910072D01*
X105205768Y-75916633D01*
X105205768Y-75916635D01*
X105190942Y-76057700D01*
X105186496Y-76100000D01*
X80740815Y-76100000D01*
X80703518Y-76069145D01*
X80703519Y-76069145D01*
X80698770Y-76065217D01*
X80693353Y-76062288D01*
X80693350Y-76062286D01*
X80521590Y-75969416D01*
X80521585Y-75969414D01*
X80516170Y-75966486D01*
X80317871Y-75905102D01*
X80311746Y-75904458D01*
X80311745Y-75904458D01*
X80117554Y-75884048D01*
X80117552Y-75884048D01*
X80111425Y-75883404D01*
X80025515Y-75891223D01*
X79910836Y-75901659D01*
X79910833Y-75901660D01*
X79904697Y-75902218D01*
X79898791Y-75903956D01*
X79898787Y-75903957D01*
X79771228Y-75941500D01*
X79705560Y-75960827D01*
X79521600Y-76056999D01*
X79516800Y-76060859D01*
X79516799Y-76060859D01*
X79511379Y-76065217D01*
X79359823Y-76187071D01*
X79355865Y-76191788D01*
X79355863Y-76191790D01*
X79301819Y-76256197D01*
X79226391Y-76346089D01*
X79223427Y-76351481D01*
X79223424Y-76351485D01*
X79166608Y-76454834D01*
X79126387Y-76527995D01*
X79063621Y-76725861D01*
X79062935Y-76731978D01*
X79062934Y-76731982D01*
X79048567Y-76860072D01*
X79040482Y-76932150D01*
X72258500Y-76932150D01*
X72258500Y-75275000D01*
X77711496Y-75275000D01*
X77712186Y-75281565D01*
X77729033Y-75441852D01*
X77731458Y-75464928D01*
X77790473Y-75646556D01*
X77793776Y-75652278D01*
X77793777Y-75652279D01*
X77861047Y-75768794D01*
X77885960Y-75811944D01*
X77890378Y-75816851D01*
X77890379Y-75816852D01*
X78003848Y-75942872D01*
X78013747Y-75953866D01*
X78031117Y-75966486D01*
X78161010Y-76060859D01*
X78168248Y-76066118D01*
X78174276Y-76068802D01*
X78174278Y-76068803D01*
X78318807Y-76133151D01*
X78342712Y-76143794D01*
X78436113Y-76163647D01*
X78523056Y-76182128D01*
X78523061Y-76182128D01*
X78529513Y-76183500D01*
X78720487Y-76183500D01*
X78726939Y-76182128D01*
X78726944Y-76182128D01*
X78813887Y-76163647D01*
X78907288Y-76143794D01*
X78931193Y-76133151D01*
X79075722Y-76068803D01*
X79075724Y-76068802D01*
X79081752Y-76066118D01*
X79088991Y-76060859D01*
X79218883Y-75966486D01*
X79236253Y-75953866D01*
X79246152Y-75942872D01*
X79359621Y-75816852D01*
X79359622Y-75816851D01*
X79364040Y-75811944D01*
X79388953Y-75768794D01*
X79456223Y-75652279D01*
X79456224Y-75652278D01*
X79459527Y-75646556D01*
X79518542Y-75464928D01*
X79520968Y-75441852D01*
X79537814Y-75281565D01*
X79538504Y-75275000D01*
X79518542Y-75085072D01*
X79459527Y-74903444D01*
X79457539Y-74900000D01*
X83436496Y-74900000D01*
X83456458Y-75089928D01*
X83515473Y-75271556D01*
X83610960Y-75436944D01*
X83615378Y-75441851D01*
X83615379Y-75441852D01*
X83707176Y-75543803D01*
X83738747Y-75578866D01*
X83893248Y-75691118D01*
X83899276Y-75693802D01*
X83899278Y-75693803D01*
X84061681Y-75766109D01*
X84067712Y-75768794D01*
X84161113Y-75788647D01*
X84248056Y-75807128D01*
X84248061Y-75807128D01*
X84254513Y-75808500D01*
X84445487Y-75808500D01*
X84451939Y-75807128D01*
X84451944Y-75807128D01*
X84538887Y-75788647D01*
X84632288Y-75768794D01*
X84638319Y-75766109D01*
X84800722Y-75693803D01*
X84800724Y-75693802D01*
X84806752Y-75691118D01*
X84961253Y-75578866D01*
X84992824Y-75543803D01*
X85084621Y-75441852D01*
X85084622Y-75441851D01*
X85089040Y-75436944D01*
X85184527Y-75271556D01*
X85243542Y-75089928D01*
X85263504Y-74900000D01*
X85247738Y-74750000D01*
X94286496Y-74750000D01*
X94287186Y-74756565D01*
X94303011Y-74907128D01*
X94306458Y-74939928D01*
X94365473Y-75121556D01*
X94460960Y-75286944D01*
X94465378Y-75291851D01*
X94465379Y-75291852D01*
X94487889Y-75316852D01*
X94588747Y-75428866D01*
X94743248Y-75541118D01*
X94749276Y-75543802D01*
X94749278Y-75543803D01*
X94897693Y-75609881D01*
X94917712Y-75618794D01*
X95011113Y-75638647D01*
X95098056Y-75657128D01*
X95098061Y-75657128D01*
X95104513Y-75658500D01*
X95295487Y-75658500D01*
X95301939Y-75657128D01*
X95301944Y-75657128D01*
X95388887Y-75638647D01*
X95482288Y-75618794D01*
X95502307Y-75609881D01*
X95650722Y-75543803D01*
X95650724Y-75543802D01*
X95656752Y-75541118D01*
X95696234Y-75512433D01*
X95763100Y-75488574D01*
X95832252Y-75504653D01*
X95844351Y-75512429D01*
X95918248Y-75566118D01*
X95924276Y-75568802D01*
X95924278Y-75568803D01*
X96039642Y-75620166D01*
X96092712Y-75643794D01*
X96186112Y-75663647D01*
X96273056Y-75682128D01*
X96273061Y-75682128D01*
X96279513Y-75683500D01*
X96470487Y-75683500D01*
X96476939Y-75682128D01*
X96476944Y-75682128D01*
X96563888Y-75663647D01*
X96657288Y-75643794D01*
X96710358Y-75620166D01*
X96825722Y-75568803D01*
X96825724Y-75568802D01*
X96831752Y-75566118D01*
X96866162Y-75541118D01*
X96916351Y-75504653D01*
X96986253Y-75453866D01*
X96990675Y-75448955D01*
X97109621Y-75316852D01*
X97109622Y-75316851D01*
X97114040Y-75311944D01*
X97209527Y-75146556D01*
X97268542Y-74964928D01*
X97271860Y-74933365D01*
X97287814Y-74781565D01*
X97288504Y-74775000D01*
X97268542Y-74585072D01*
X97209527Y-74403444D01*
X97191117Y-74371556D01*
X97135251Y-74274794D01*
X97114040Y-74238056D01*
X97108703Y-74232128D01*
X96990675Y-74101045D01*
X96990674Y-74101044D01*
X96986253Y-74096134D01*
X96859258Y-74003866D01*
X96837094Y-73987763D01*
X96837093Y-73987762D01*
X96831752Y-73983882D01*
X96825724Y-73981198D01*
X96825722Y-73981197D01*
X96663319Y-73908891D01*
X96663318Y-73908891D01*
X96657288Y-73906206D01*
X96552305Y-73883891D01*
X96476944Y-73867872D01*
X96476939Y-73867872D01*
X96470487Y-73866500D01*
X96279513Y-73866500D01*
X96273061Y-73867872D01*
X96273056Y-73867872D01*
X96197695Y-73883891D01*
X96092712Y-73906206D01*
X96086682Y-73908891D01*
X96086681Y-73908891D01*
X95924278Y-73981197D01*
X95924276Y-73981198D01*
X95918248Y-73983882D01*
X95890743Y-74003866D01*
X95878767Y-74012567D01*
X95811900Y-74036426D01*
X95742748Y-74020347D01*
X95730649Y-74012571D01*
X95656752Y-73958882D01*
X95650724Y-73956198D01*
X95650722Y-73956197D01*
X95488319Y-73883891D01*
X95488318Y-73883891D01*
X95482288Y-73881206D01*
X95388887Y-73861353D01*
X95301944Y-73842872D01*
X95301939Y-73842872D01*
X95295487Y-73841500D01*
X95104513Y-73841500D01*
X95098061Y-73842872D01*
X95098056Y-73842872D01*
X95011113Y-73861353D01*
X94917712Y-73881206D01*
X94911682Y-73883891D01*
X94911681Y-73883891D01*
X94749278Y-73956197D01*
X94749276Y-73956198D01*
X94743248Y-73958882D01*
X94737907Y-73962762D01*
X94737906Y-73962763D01*
X94703497Y-73987763D01*
X94588747Y-74071134D01*
X94584326Y-74076044D01*
X94584325Y-74076045D01*
X94475311Y-74197118D01*
X94460960Y-74213056D01*
X94365473Y-74378444D01*
X94306458Y-74560072D01*
X94305768Y-74566633D01*
X94305768Y-74566635D01*
X94293972Y-74678866D01*
X94286496Y-74750000D01*
X85247738Y-74750000D01*
X85246483Y-74738056D01*
X85244232Y-74716635D01*
X85244232Y-74716633D01*
X85243542Y-74710072D01*
X85184527Y-74528444D01*
X85089040Y-74363056D01*
X85056545Y-74326966D01*
X84965675Y-74226045D01*
X84965674Y-74226044D01*
X84961253Y-74221134D01*
X84843617Y-74135666D01*
X84812094Y-74112763D01*
X84812093Y-74112762D01*
X84806752Y-74108882D01*
X84800724Y-74106198D01*
X84800722Y-74106197D01*
X84638319Y-74033891D01*
X84638318Y-74033891D01*
X84632288Y-74031206D01*
X84538888Y-74011353D01*
X84451944Y-73992872D01*
X84451939Y-73992872D01*
X84445487Y-73991500D01*
X84254513Y-73991500D01*
X84248061Y-73992872D01*
X84248056Y-73992872D01*
X84161112Y-74011353D01*
X84067712Y-74031206D01*
X84061682Y-74033891D01*
X84061681Y-74033891D01*
X83899278Y-74106197D01*
X83899276Y-74106198D01*
X83893248Y-74108882D01*
X83887907Y-74112762D01*
X83887906Y-74112763D01*
X83856383Y-74135666D01*
X83738747Y-74221134D01*
X83734326Y-74226044D01*
X83734325Y-74226045D01*
X83643456Y-74326966D01*
X83610960Y-74363056D01*
X83515473Y-74528444D01*
X83456458Y-74710072D01*
X83455768Y-74716633D01*
X83455768Y-74716635D01*
X83453517Y-74738056D01*
X83436496Y-74900000D01*
X79457539Y-74900000D01*
X79364040Y-74738056D01*
X79344753Y-74716635D01*
X79240675Y-74601045D01*
X79240674Y-74601044D01*
X79236253Y-74596134D01*
X79081752Y-74483882D01*
X79075724Y-74481198D01*
X79075722Y-74481197D01*
X78913319Y-74408891D01*
X78913318Y-74408891D01*
X78907288Y-74406206D01*
X78806247Y-74384729D01*
X78726944Y-74367872D01*
X78726939Y-74367872D01*
X78720487Y-74366500D01*
X78529513Y-74366500D01*
X78523061Y-74367872D01*
X78523056Y-74367872D01*
X78443753Y-74384729D01*
X78342712Y-74406206D01*
X78336682Y-74408891D01*
X78336681Y-74408891D01*
X78174278Y-74481197D01*
X78174276Y-74481198D01*
X78168248Y-74483882D01*
X78013747Y-74596134D01*
X78009326Y-74601044D01*
X78009325Y-74601045D01*
X77905248Y-74716635D01*
X77885960Y-74738056D01*
X77790473Y-74903444D01*
X77731458Y-75085072D01*
X77711496Y-75275000D01*
X72258500Y-75275000D01*
X72258500Y-73456800D01*
X101854896Y-73456800D01*
X101855586Y-73463365D01*
X101870179Y-73602206D01*
X101874858Y-73646728D01*
X101933873Y-73828356D01*
X102029360Y-73993744D01*
X102033778Y-73998651D01*
X102033779Y-73998652D01*
X102142676Y-74119594D01*
X102157147Y-74135666D01*
X102236386Y-74193237D01*
X102281543Y-74226045D01*
X102311648Y-74247918D01*
X102317676Y-74250602D01*
X102317678Y-74250603D01*
X102461194Y-74314500D01*
X102486112Y-74325594D01*
X102579513Y-74345447D01*
X102666456Y-74363928D01*
X102666461Y-74363928D01*
X102672913Y-74365300D01*
X102863887Y-74365300D01*
X102870339Y-74363928D01*
X102870344Y-74363928D01*
X102957287Y-74345447D01*
X103050688Y-74325594D01*
X103075606Y-74314500D01*
X103219122Y-74250603D01*
X103219124Y-74250602D01*
X103225152Y-74247918D01*
X103246885Y-74232128D01*
X103338899Y-74165276D01*
X103405767Y-74141417D01*
X103474918Y-74157498D01*
X103487021Y-74165276D01*
X103520952Y-74189928D01*
X103530848Y-74197118D01*
X103536876Y-74199802D01*
X103536878Y-74199803D01*
X103699281Y-74272109D01*
X103705312Y-74274794D01*
X103798713Y-74294647D01*
X103885656Y-74313128D01*
X103885661Y-74313128D01*
X103892113Y-74314500D01*
X104083087Y-74314500D01*
X104089539Y-74313128D01*
X104089544Y-74313128D01*
X104176487Y-74294647D01*
X104269888Y-74274794D01*
X104275919Y-74272109D01*
X104438322Y-74199803D01*
X104438324Y-74199802D01*
X104444352Y-74197118D01*
X104463282Y-74183365D01*
X104499757Y-74156864D01*
X104598853Y-74084866D01*
X104603275Y-74079955D01*
X104722221Y-73947852D01*
X104722222Y-73947851D01*
X104726640Y-73942944D01*
X104803354Y-73810072D01*
X104818823Y-73783279D01*
X104818824Y-73783278D01*
X104822127Y-73777556D01*
X104881142Y-73595928D01*
X104901104Y-73406000D01*
X104893281Y-73331565D01*
X104881832Y-73222635D01*
X104881832Y-73222633D01*
X104881142Y-73216072D01*
X104822127Y-73034444D01*
X104726640Y-72869056D01*
X104644594Y-72777934D01*
X104603275Y-72732045D01*
X104603274Y-72732044D01*
X104598853Y-72727134D01*
X104474419Y-72636727D01*
X104449694Y-72618763D01*
X104449693Y-72618762D01*
X104444352Y-72614882D01*
X104438324Y-72612198D01*
X104438322Y-72612197D01*
X104275919Y-72539891D01*
X104275918Y-72539891D01*
X104269888Y-72537206D01*
X104176488Y-72517353D01*
X104089544Y-72498872D01*
X104089539Y-72498872D01*
X104083087Y-72497500D01*
X103892113Y-72497500D01*
X103885661Y-72498872D01*
X103885656Y-72498872D01*
X103798712Y-72517353D01*
X103705312Y-72537206D01*
X103699282Y-72539891D01*
X103699281Y-72539891D01*
X103536878Y-72612197D01*
X103536876Y-72612198D01*
X103530848Y-72614882D01*
X103525507Y-72618762D01*
X103525506Y-72618763D01*
X103417101Y-72697524D01*
X103350233Y-72721383D01*
X103281082Y-72705302D01*
X103268979Y-72697524D01*
X103230494Y-72669563D01*
X103230493Y-72669562D01*
X103225152Y-72665682D01*
X103219124Y-72662998D01*
X103219122Y-72662997D01*
X103056719Y-72590691D01*
X103056718Y-72590691D01*
X103050688Y-72588006D01*
X102956808Y-72568051D01*
X102870344Y-72549672D01*
X102870339Y-72549672D01*
X102863887Y-72548300D01*
X102672913Y-72548300D01*
X102666461Y-72549672D01*
X102666456Y-72549672D01*
X102579992Y-72568051D01*
X102486112Y-72588006D01*
X102480082Y-72590691D01*
X102480081Y-72590691D01*
X102317678Y-72662997D01*
X102317676Y-72662998D01*
X102311648Y-72665682D01*
X102157147Y-72777934D01*
X102152726Y-72782844D01*
X102152725Y-72782845D01*
X102079520Y-72864148D01*
X102029360Y-72919856D01*
X101933873Y-73085244D01*
X101874858Y-73266872D01*
X101874168Y-73273433D01*
X101874168Y-73273435D01*
X101860925Y-73399435D01*
X101854896Y-73456800D01*
X72258500Y-73456800D01*
X72258500Y-72100000D01*
X96936496Y-72100000D01*
X96956458Y-72289928D01*
X97015473Y-72471556D01*
X97110960Y-72636944D01*
X97115378Y-72641851D01*
X97115379Y-72641852D01*
X97180212Y-72713856D01*
X97238747Y-72778866D01*
X97244224Y-72782845D01*
X97370753Y-72874774D01*
X97393248Y-72891118D01*
X97399276Y-72893802D01*
X97399278Y-72893803D01*
X97561681Y-72966109D01*
X97567712Y-72968794D01*
X97661113Y-72988647D01*
X97748056Y-73007128D01*
X97748061Y-73007128D01*
X97754513Y-73008500D01*
X97945487Y-73008500D01*
X97951939Y-73007128D01*
X97951944Y-73007128D01*
X98038887Y-72988647D01*
X98132288Y-72968794D01*
X98138319Y-72966109D01*
X98300722Y-72893803D01*
X98300724Y-72893802D01*
X98306752Y-72891118D01*
X98329248Y-72874774D01*
X98455776Y-72782845D01*
X98461253Y-72778866D01*
X98519788Y-72713856D01*
X98584621Y-72641852D01*
X98584622Y-72641851D01*
X98589040Y-72636944D01*
X98684527Y-72471556D01*
X98743542Y-72289928D01*
X98763504Y-72100000D01*
X98751300Y-71983882D01*
X98744232Y-71916635D01*
X98744232Y-71916633D01*
X98743542Y-71910072D01*
X98684527Y-71728444D01*
X98589040Y-71563056D01*
X98582031Y-71555271D01*
X98465675Y-71426045D01*
X98465674Y-71426044D01*
X98461253Y-71421134D01*
X98306752Y-71308882D01*
X98300724Y-71306198D01*
X98300722Y-71306197D01*
X98138319Y-71233891D01*
X98138318Y-71233891D01*
X98132288Y-71231206D01*
X98038887Y-71211353D01*
X97951944Y-71192872D01*
X97951939Y-71192872D01*
X97945487Y-71191500D01*
X97754513Y-71191500D01*
X97748061Y-71192872D01*
X97748056Y-71192872D01*
X97661113Y-71211353D01*
X97567712Y-71231206D01*
X97561682Y-71233891D01*
X97561681Y-71233891D01*
X97399278Y-71306197D01*
X97399276Y-71306198D01*
X97393248Y-71308882D01*
X97238747Y-71421134D01*
X97234326Y-71426044D01*
X97234325Y-71426045D01*
X97117970Y-71555271D01*
X97110960Y-71563056D01*
X97015473Y-71728444D01*
X96956458Y-71910072D01*
X96955768Y-71916633D01*
X96955768Y-71916635D01*
X96948700Y-71983882D01*
X96936496Y-72100000D01*
X72258500Y-72100000D01*
X72258500Y-69375000D01*
X95136496Y-69375000D01*
X95137186Y-69381565D01*
X95142608Y-69433148D01*
X95156458Y-69564928D01*
X95215473Y-69746556D01*
X95310960Y-69911944D01*
X95315378Y-69916851D01*
X95315379Y-69916852D01*
X95359405Y-69965748D01*
X95438747Y-70053866D01*
X95593248Y-70166118D01*
X95599276Y-70168802D01*
X95599278Y-70168803D01*
X95703695Y-70215292D01*
X95767712Y-70243794D01*
X95842680Y-70259729D01*
X95948056Y-70282128D01*
X95948061Y-70282128D01*
X95954513Y-70283500D01*
X96145487Y-70283500D01*
X96151939Y-70282128D01*
X96151944Y-70282128D01*
X96257320Y-70259729D01*
X96332288Y-70243794D01*
X96396305Y-70215292D01*
X96500722Y-70168803D01*
X96500724Y-70168802D01*
X96506752Y-70166118D01*
X96661253Y-70053866D01*
X96740595Y-69965748D01*
X96784621Y-69916852D01*
X96784622Y-69916851D01*
X96789040Y-69911944D01*
X96795936Y-69900000D01*
X97511496Y-69900000D01*
X97512186Y-69906565D01*
X97527152Y-70048955D01*
X97531458Y-70089928D01*
X97590473Y-70271556D01*
X97593776Y-70277278D01*
X97593777Y-70277279D01*
X97617098Y-70317672D01*
X97685960Y-70436944D01*
X97813747Y-70578866D01*
X97968248Y-70691118D01*
X97974276Y-70693802D01*
X97974278Y-70693803D01*
X98136681Y-70766109D01*
X98142712Y-70768794D01*
X98236112Y-70788647D01*
X98323056Y-70807128D01*
X98323061Y-70807128D01*
X98329513Y-70808500D01*
X98520487Y-70808500D01*
X98526939Y-70807128D01*
X98526944Y-70807128D01*
X98613888Y-70788647D01*
X98707288Y-70768794D01*
X98713319Y-70766109D01*
X98875722Y-70693803D01*
X98875724Y-70693802D01*
X98881752Y-70691118D01*
X98972755Y-70625000D01*
X101386496Y-70625000D01*
X101406458Y-70814928D01*
X101465473Y-70996556D01*
X101560960Y-71161944D01*
X101565378Y-71166851D01*
X101565379Y-71166852D01*
X101593762Y-71198374D01*
X101688747Y-71303866D01*
X101843248Y-71416118D01*
X101849276Y-71418802D01*
X101849278Y-71418803D01*
X102008647Y-71489758D01*
X102017712Y-71493794D01*
X102111112Y-71513647D01*
X102198056Y-71532128D01*
X102198061Y-71532128D01*
X102204513Y-71533500D01*
X102395487Y-71533500D01*
X102401939Y-71532128D01*
X102401944Y-71532128D01*
X102488888Y-71513647D01*
X102582288Y-71493794D01*
X102591353Y-71489758D01*
X102750722Y-71418803D01*
X102750724Y-71418802D01*
X102756752Y-71416118D01*
X102911253Y-71303866D01*
X103018866Y-71184350D01*
X103079310Y-71147112D01*
X103150294Y-71148464D01*
X103206134Y-71184350D01*
X103313747Y-71303866D01*
X103468248Y-71416118D01*
X103474276Y-71418802D01*
X103474278Y-71418803D01*
X103633647Y-71489758D01*
X103642712Y-71493794D01*
X103736112Y-71513647D01*
X103823056Y-71532128D01*
X103823061Y-71532128D01*
X103829513Y-71533500D01*
X104020487Y-71533500D01*
X104026939Y-71532128D01*
X104026944Y-71532128D01*
X104113888Y-71513647D01*
X104207288Y-71493794D01*
X104216353Y-71489758D01*
X104375722Y-71418803D01*
X104375724Y-71418802D01*
X104381752Y-71416118D01*
X104536253Y-71303866D01*
X104631238Y-71198374D01*
X104659621Y-71166852D01*
X104659622Y-71166851D01*
X104664040Y-71161944D01*
X104759527Y-70996556D01*
X104818542Y-70814928D01*
X104838504Y-70625000D01*
X104826855Y-70514164D01*
X104826165Y-70507600D01*
X105944296Y-70507600D01*
X105964258Y-70697528D01*
X106023273Y-70879156D01*
X106118760Y-71044544D01*
X106123178Y-71049451D01*
X106123179Y-71049452D01*
X106212330Y-71148464D01*
X106246547Y-71186466D01*
X106401048Y-71298718D01*
X106407076Y-71301402D01*
X106407078Y-71301403D01*
X106534297Y-71358044D01*
X106575512Y-71376394D01*
X106635642Y-71389175D01*
X106755856Y-71414728D01*
X106755861Y-71414728D01*
X106762313Y-71416100D01*
X106904109Y-71416100D01*
X106972230Y-71436102D01*
X107018723Y-71489758D01*
X107029419Y-71555269D01*
X107011096Y-71729600D01*
X107011786Y-71736165D01*
X107029514Y-71904834D01*
X107031058Y-71919528D01*
X107090073Y-72101156D01*
X107120179Y-72153301D01*
X107136916Y-72222296D01*
X107113695Y-72289388D01*
X107057888Y-72333275D01*
X107011059Y-72342300D01*
X106914713Y-72342300D01*
X106908261Y-72343672D01*
X106908256Y-72343672D01*
X106821312Y-72362153D01*
X106727912Y-72382006D01*
X106721882Y-72384691D01*
X106721881Y-72384691D01*
X106559478Y-72456997D01*
X106559476Y-72456998D01*
X106553448Y-72459682D01*
X106398947Y-72571934D01*
X106394526Y-72576844D01*
X106394525Y-72576845D01*
X106298883Y-72683067D01*
X106271160Y-72713856D01*
X106175673Y-72879244D01*
X106116658Y-73060872D01*
X106115968Y-73067433D01*
X106115968Y-73067435D01*
X106107652Y-73146556D01*
X106096696Y-73250800D01*
X106116658Y-73440728D01*
X106175673Y-73622356D01*
X106178976Y-73628078D01*
X106178977Y-73628079D01*
X106185955Y-73640165D01*
X106271160Y-73787744D01*
X106275578Y-73792651D01*
X106275579Y-73792652D01*
X106380241Y-73908891D01*
X106398947Y-73929666D01*
X106553448Y-74041918D01*
X106559476Y-74044602D01*
X106559478Y-74044603D01*
X106721881Y-74116909D01*
X106727912Y-74119594D01*
X106821313Y-74139447D01*
X106908256Y-74157928D01*
X106908261Y-74157928D01*
X106914713Y-74159300D01*
X107105687Y-74159300D01*
X107112139Y-74157928D01*
X107112144Y-74157928D01*
X107199087Y-74139447D01*
X107292488Y-74119594D01*
X107298519Y-74116909D01*
X107460922Y-74044603D01*
X107460924Y-74044602D01*
X107466952Y-74041918D01*
X107621453Y-73929666D01*
X107640159Y-73908891D01*
X107744821Y-73792652D01*
X107744822Y-73792651D01*
X107749240Y-73787744D01*
X107834445Y-73640165D01*
X107841423Y-73628079D01*
X107841424Y-73628078D01*
X107844727Y-73622356D01*
X107903742Y-73440728D01*
X107923704Y-73250800D01*
X107912748Y-73146556D01*
X107904432Y-73067435D01*
X107904432Y-73067433D01*
X107903742Y-73060872D01*
X107844727Y-72879244D01*
X107814621Y-72827099D01*
X107797884Y-72758104D01*
X107821105Y-72691012D01*
X107876912Y-72647125D01*
X107923741Y-72638100D01*
X108020087Y-72638100D01*
X108026542Y-72636728D01*
X108026551Y-72636727D01*
X108035380Y-72634850D01*
X108106171Y-72640251D01*
X108162804Y-72683067D01*
X108187298Y-72749704D01*
X108187068Y-72761830D01*
X108187186Y-72761830D01*
X108187186Y-72768435D01*
X108186496Y-72775000D01*
X108187186Y-72781565D01*
X108198983Y-72893803D01*
X108206458Y-72964928D01*
X108265473Y-73146556D01*
X108360960Y-73311944D01*
X108365378Y-73316851D01*
X108365379Y-73316852D01*
X108482570Y-73447006D01*
X108488747Y-73453866D01*
X108643248Y-73566118D01*
X108649276Y-73568802D01*
X108649278Y-73568803D01*
X108809561Y-73640165D01*
X108817712Y-73643794D01*
X108911112Y-73663647D01*
X108998056Y-73682128D01*
X108998061Y-73682128D01*
X109004513Y-73683500D01*
X109195487Y-73683500D01*
X109201939Y-73682128D01*
X109201944Y-73682128D01*
X109288888Y-73663647D01*
X109382288Y-73643794D01*
X109390439Y-73640165D01*
X109550722Y-73568803D01*
X109550724Y-73568802D01*
X109556752Y-73566118D01*
X109711253Y-73453866D01*
X109717430Y-73447006D01*
X109827285Y-73325000D01*
X119136496Y-73325000D01*
X119137186Y-73331565D01*
X119151039Y-73463365D01*
X119156458Y-73514928D01*
X119215473Y-73696556D01*
X119310960Y-73861944D01*
X119315378Y-73866851D01*
X119315379Y-73866852D01*
X119428848Y-73992872D01*
X119438747Y-74003866D01*
X119524784Y-74066376D01*
X119583289Y-74108882D01*
X119593248Y-74116118D01*
X119599276Y-74118802D01*
X119599278Y-74118803D01*
X119761681Y-74191109D01*
X119767712Y-74193794D01*
X119858332Y-74213056D01*
X119948056Y-74232128D01*
X119948061Y-74232128D01*
X119954513Y-74233500D01*
X120145487Y-74233500D01*
X120151939Y-74232128D01*
X120151944Y-74232128D01*
X120241668Y-74213056D01*
X120332288Y-74193794D01*
X120338319Y-74191109D01*
X120500722Y-74118803D01*
X120500724Y-74118802D01*
X120506752Y-74116118D01*
X120516712Y-74108882D01*
X120575216Y-74066376D01*
X120661253Y-74003866D01*
X120664734Y-74000000D01*
X129136496Y-74000000D01*
X129137186Y-74006565D01*
X129153050Y-74157498D01*
X129156458Y-74189928D01*
X129215473Y-74371556D01*
X129218776Y-74377278D01*
X129218777Y-74377279D01*
X129234686Y-74404834D01*
X129310960Y-74536944D01*
X129315378Y-74541851D01*
X129315379Y-74541852D01*
X129364255Y-74596134D01*
X129438747Y-74678866D01*
X129520215Y-74738056D01*
X129571064Y-74775000D01*
X129593248Y-74791118D01*
X129599276Y-74793802D01*
X129599278Y-74793803D01*
X129761681Y-74866109D01*
X129767712Y-74868794D01*
X129861112Y-74888647D01*
X129948056Y-74907128D01*
X129948061Y-74907128D01*
X129954513Y-74908500D01*
X130145487Y-74908500D01*
X130151939Y-74907128D01*
X130151944Y-74907128D01*
X130238888Y-74888647D01*
X130332288Y-74868794D01*
X130338319Y-74866109D01*
X130500722Y-74793803D01*
X130500724Y-74793802D01*
X130506752Y-74791118D01*
X130528937Y-74775000D01*
X130579785Y-74738056D01*
X130661253Y-74678866D01*
X130735745Y-74596134D01*
X130784621Y-74541852D01*
X130784622Y-74541851D01*
X130789040Y-74536944D01*
X130865314Y-74404834D01*
X130881223Y-74377279D01*
X130881224Y-74377278D01*
X130884527Y-74371556D01*
X130943542Y-74189928D01*
X130946951Y-74157498D01*
X130962814Y-74006565D01*
X130963504Y-74000000D01*
X130962611Y-73991500D01*
X130944232Y-73816635D01*
X130944232Y-73816633D01*
X130943542Y-73810072D01*
X130884527Y-73628444D01*
X130877384Y-73616071D01*
X130792341Y-73468774D01*
X130789040Y-73463056D01*
X130776344Y-73448955D01*
X130665675Y-73326045D01*
X130665674Y-73326044D01*
X130661253Y-73321134D01*
X130555411Y-73244235D01*
X130512094Y-73212763D01*
X130512093Y-73212762D01*
X130506752Y-73208882D01*
X130500724Y-73206198D01*
X130500722Y-73206197D01*
X130338319Y-73133891D01*
X130338318Y-73133891D01*
X130332288Y-73131206D01*
X130238887Y-73111353D01*
X130151944Y-73092872D01*
X130151939Y-73092872D01*
X130145487Y-73091500D01*
X129954513Y-73091500D01*
X129948061Y-73092872D01*
X129948056Y-73092872D01*
X129861113Y-73111353D01*
X129767712Y-73131206D01*
X129761682Y-73133891D01*
X129761681Y-73133891D01*
X129599278Y-73206197D01*
X129599276Y-73206198D01*
X129593248Y-73208882D01*
X129587907Y-73212762D01*
X129587906Y-73212763D01*
X129544589Y-73244235D01*
X129438747Y-73321134D01*
X129434326Y-73326044D01*
X129434325Y-73326045D01*
X129323657Y-73448955D01*
X129310960Y-73463056D01*
X129307659Y-73468774D01*
X129222617Y-73616071D01*
X129215473Y-73628444D01*
X129156458Y-73810072D01*
X129155768Y-73816633D01*
X129155768Y-73816635D01*
X129137389Y-73991500D01*
X129136496Y-74000000D01*
X120664734Y-74000000D01*
X120671152Y-73992872D01*
X120784621Y-73866852D01*
X120784622Y-73866851D01*
X120789040Y-73861944D01*
X120884527Y-73696556D01*
X120943542Y-73514928D01*
X120948962Y-73463365D01*
X120962814Y-73331565D01*
X120963504Y-73325000D01*
X120951300Y-73208882D01*
X120944232Y-73141635D01*
X120944232Y-73141633D01*
X120943542Y-73135072D01*
X120884527Y-72953444D01*
X120789040Y-72788056D01*
X120783196Y-72781565D01*
X120665675Y-72651045D01*
X120665674Y-72651044D01*
X120661253Y-72646134D01*
X120506752Y-72533882D01*
X120500724Y-72531198D01*
X120500722Y-72531197D01*
X120338319Y-72458891D01*
X120338318Y-72458891D01*
X120332288Y-72456206D01*
X120238888Y-72436353D01*
X120151944Y-72417872D01*
X120151939Y-72417872D01*
X120145487Y-72416500D01*
X119954513Y-72416500D01*
X119948061Y-72417872D01*
X119948056Y-72417872D01*
X119861112Y-72436353D01*
X119767712Y-72456206D01*
X119761682Y-72458891D01*
X119761681Y-72458891D01*
X119599278Y-72531197D01*
X119599276Y-72531198D01*
X119593248Y-72533882D01*
X119438747Y-72646134D01*
X119434326Y-72651044D01*
X119434325Y-72651045D01*
X119316805Y-72781565D01*
X119310960Y-72788056D01*
X119215473Y-72953444D01*
X119156458Y-73135072D01*
X119155768Y-73141633D01*
X119155768Y-73141635D01*
X119148700Y-73208882D01*
X119136496Y-73325000D01*
X109827285Y-73325000D01*
X109834621Y-73316852D01*
X109834622Y-73316851D01*
X109839040Y-73311944D01*
X109934527Y-73146556D01*
X109993542Y-72964928D01*
X110001018Y-72893803D01*
X110012814Y-72781565D01*
X110013504Y-72775000D01*
X109999510Y-72641852D01*
X109994232Y-72591635D01*
X109994232Y-72591633D01*
X109993542Y-72585072D01*
X109934527Y-72403444D01*
X109921700Y-72381226D01*
X109868988Y-72289928D01*
X109839040Y-72238056D01*
X109711253Y-72096134D01*
X109556752Y-71983882D01*
X109550724Y-71981198D01*
X109550722Y-71981197D01*
X109388319Y-71908891D01*
X109388318Y-71908891D01*
X109382288Y-71906206D01*
X109288888Y-71886353D01*
X109201944Y-71867872D01*
X109201939Y-71867872D01*
X109195487Y-71866500D01*
X109004513Y-71866500D01*
X108998058Y-71867872D01*
X108998049Y-71867873D01*
X108989220Y-71869750D01*
X108918429Y-71864349D01*
X108861796Y-71821533D01*
X108837302Y-71754896D01*
X108837532Y-71742770D01*
X108837414Y-71742770D01*
X108837414Y-71736165D01*
X108838104Y-71729600D01*
X108818142Y-71539672D01*
X108759127Y-71358044D01*
X108663640Y-71192656D01*
X108623850Y-71148464D01*
X108540275Y-71055645D01*
X108540274Y-71055644D01*
X108535853Y-71050734D01*
X108381352Y-70938482D01*
X108375324Y-70935798D01*
X108375322Y-70935797D01*
X108212919Y-70863491D01*
X108212918Y-70863491D01*
X108206888Y-70860806D01*
X108113487Y-70840953D01*
X108026544Y-70822472D01*
X108026539Y-70822472D01*
X108020087Y-70821100D01*
X107878291Y-70821100D01*
X107810170Y-70801098D01*
X107763677Y-70747442D01*
X107752981Y-70681931D01*
X107771304Y-70507600D01*
X107751342Y-70317672D01*
X107692327Y-70136044D01*
X107669327Y-70096206D01*
X107600141Y-69976374D01*
X107599348Y-69975000D01*
X110036496Y-69975000D01*
X110037186Y-69981565D01*
X110048980Y-70093774D01*
X110056458Y-70164928D01*
X110115473Y-70346556D01*
X110210960Y-70511944D01*
X110338747Y-70653866D01*
X110493248Y-70766118D01*
X110499276Y-70768802D01*
X110499278Y-70768803D01*
X110661681Y-70841109D01*
X110667712Y-70843794D01*
X110747747Y-70860806D01*
X110848056Y-70882128D01*
X110848061Y-70882128D01*
X110854513Y-70883500D01*
X111045487Y-70883500D01*
X111051939Y-70882128D01*
X111051944Y-70882128D01*
X111152253Y-70860806D01*
X111232288Y-70843794D01*
X111238319Y-70841109D01*
X111400722Y-70768803D01*
X111400724Y-70768802D01*
X111406752Y-70766118D01*
X111561253Y-70653866D01*
X111689040Y-70511944D01*
X111784527Y-70346556D01*
X111843542Y-70164928D01*
X111851021Y-70093774D01*
X111862814Y-69981565D01*
X111863504Y-69975000D01*
X111858452Y-69926936D01*
X111844232Y-69791635D01*
X111844232Y-69791633D01*
X111843542Y-69785072D01*
X111784527Y-69603444D01*
X111777709Y-69591634D01*
X111692341Y-69443774D01*
X111689040Y-69438056D01*
X111561253Y-69296134D01*
X111406752Y-69183882D01*
X111400724Y-69181198D01*
X111400722Y-69181197D01*
X111238319Y-69108891D01*
X111238318Y-69108891D01*
X111232288Y-69106206D01*
X111138887Y-69086353D01*
X111051944Y-69067872D01*
X111051939Y-69067872D01*
X111045487Y-69066500D01*
X110854513Y-69066500D01*
X110848061Y-69067872D01*
X110848056Y-69067872D01*
X110761113Y-69086353D01*
X110667712Y-69106206D01*
X110661682Y-69108891D01*
X110661681Y-69108891D01*
X110499278Y-69181197D01*
X110499276Y-69181198D01*
X110493248Y-69183882D01*
X110338747Y-69296134D01*
X110210960Y-69438056D01*
X110207659Y-69443774D01*
X110122292Y-69591634D01*
X110115473Y-69603444D01*
X110056458Y-69785072D01*
X110055768Y-69791633D01*
X110055768Y-69791635D01*
X110041548Y-69926936D01*
X110036496Y-69975000D01*
X107599348Y-69975000D01*
X107596840Y-69970656D01*
X107557475Y-69926936D01*
X107473475Y-69833645D01*
X107473474Y-69833644D01*
X107469053Y-69828734D01*
X107347295Y-69740271D01*
X107319894Y-69720363D01*
X107319893Y-69720362D01*
X107314552Y-69716482D01*
X107308524Y-69713798D01*
X107308522Y-69713797D01*
X107146119Y-69641491D01*
X107146118Y-69641491D01*
X107140088Y-69638806D01*
X107046688Y-69618953D01*
X106959744Y-69600472D01*
X106959739Y-69600472D01*
X106953287Y-69599100D01*
X106762313Y-69599100D01*
X106755861Y-69600472D01*
X106755856Y-69600472D01*
X106668912Y-69618953D01*
X106575512Y-69638806D01*
X106569482Y-69641491D01*
X106569481Y-69641491D01*
X106407078Y-69713797D01*
X106407076Y-69713798D01*
X106401048Y-69716482D01*
X106395707Y-69720362D01*
X106395706Y-69720363D01*
X106368305Y-69740271D01*
X106246547Y-69828734D01*
X106242126Y-69833644D01*
X106242125Y-69833645D01*
X106158126Y-69926936D01*
X106118760Y-69970656D01*
X106115459Y-69976374D01*
X106046274Y-70096206D01*
X106023273Y-70136044D01*
X105964258Y-70317672D01*
X105944296Y-70507600D01*
X104826165Y-70507600D01*
X104819232Y-70441635D01*
X104819232Y-70441633D01*
X104818542Y-70435072D01*
X104759527Y-70253444D01*
X104752406Y-70241109D01*
X104708422Y-70164928D01*
X104664040Y-70088056D01*
X104636752Y-70057749D01*
X104540675Y-69951045D01*
X104540671Y-69951041D01*
X104536253Y-69946134D01*
X104488245Y-69911254D01*
X104444891Y-69855032D01*
X104438816Y-69784295D01*
X104471948Y-69721504D01*
X104488241Y-69707385D01*
X104511253Y-69690666D01*
X104632303Y-69556226D01*
X104634621Y-69553652D01*
X104634622Y-69553651D01*
X104639040Y-69548744D01*
X104734527Y-69383356D01*
X104793542Y-69201728D01*
X104795953Y-69178794D01*
X104812814Y-69018365D01*
X104813504Y-69011800D01*
X104795243Y-68838056D01*
X104794232Y-68828435D01*
X104794232Y-68828433D01*
X104793542Y-68821872D01*
X104734527Y-68640244D01*
X104704257Y-68587814D01*
X104657140Y-68506206D01*
X104639040Y-68474856D01*
X104511253Y-68332934D01*
X104356752Y-68220682D01*
X104350724Y-68217998D01*
X104350722Y-68217997D01*
X104188319Y-68145691D01*
X104188318Y-68145691D01*
X104182288Y-68143006D01*
X104097577Y-68125000D01*
X107236496Y-68125000D01*
X107256458Y-68314928D01*
X107315473Y-68496556D01*
X107410960Y-68661944D01*
X107415378Y-68666851D01*
X107415379Y-68666852D01*
X107534325Y-68798955D01*
X107538747Y-68803866D01*
X107693248Y-68916118D01*
X107699276Y-68918802D01*
X107699278Y-68918803D01*
X107861681Y-68991109D01*
X107867712Y-68993794D01*
X107942680Y-69009729D01*
X108048056Y-69032128D01*
X108048061Y-69032128D01*
X108054513Y-69033500D01*
X108245487Y-69033500D01*
X108251939Y-69032128D01*
X108251944Y-69032128D01*
X108357320Y-69009729D01*
X108432288Y-68993794D01*
X108438319Y-68991109D01*
X108600722Y-68918803D01*
X108600724Y-68918802D01*
X108606752Y-68916118D01*
X108761253Y-68803866D01*
X108765675Y-68798955D01*
X108884621Y-68666852D01*
X108884622Y-68666851D01*
X108889040Y-68661944D01*
X108984527Y-68496556D01*
X109043542Y-68314928D01*
X109063504Y-68125000D01*
X109043542Y-67935072D01*
X108984527Y-67753444D01*
X108889040Y-67588056D01*
X108761253Y-67446134D01*
X108606752Y-67333882D01*
X108600724Y-67331198D01*
X108600722Y-67331197D01*
X108438319Y-67258891D01*
X108438318Y-67258891D01*
X108432288Y-67256206D01*
X108338888Y-67236353D01*
X108251944Y-67217872D01*
X108251939Y-67217872D01*
X108245487Y-67216500D01*
X108054513Y-67216500D01*
X108048061Y-67217872D01*
X108048056Y-67217872D01*
X107961112Y-67236353D01*
X107867712Y-67256206D01*
X107861682Y-67258891D01*
X107861681Y-67258891D01*
X107699278Y-67331197D01*
X107699276Y-67331198D01*
X107693248Y-67333882D01*
X107538747Y-67446134D01*
X107410960Y-67588056D01*
X107315473Y-67753444D01*
X107256458Y-67935072D01*
X107236496Y-68125000D01*
X104097577Y-68125000D01*
X104088888Y-68123153D01*
X104001944Y-68104672D01*
X104001939Y-68104672D01*
X103995487Y-68103300D01*
X103804513Y-68103300D01*
X103798061Y-68104672D01*
X103798056Y-68104672D01*
X103711112Y-68123153D01*
X103617712Y-68143006D01*
X103611682Y-68145691D01*
X103611681Y-68145691D01*
X103449278Y-68217997D01*
X103449276Y-68217998D01*
X103443248Y-68220682D01*
X103288747Y-68332934D01*
X103284326Y-68337844D01*
X103284325Y-68337845D01*
X103187693Y-68445166D01*
X103127247Y-68482406D01*
X103056264Y-68481054D01*
X103000424Y-68445169D01*
X102911253Y-68346134D01*
X102756752Y-68233882D01*
X102750724Y-68231198D01*
X102750722Y-68231197D01*
X102588319Y-68158891D01*
X102588318Y-68158891D01*
X102582288Y-68156206D01*
X102466362Y-68131565D01*
X102401944Y-68117872D01*
X102401939Y-68117872D01*
X102395487Y-68116500D01*
X102204513Y-68116500D01*
X102198061Y-68117872D01*
X102198056Y-68117872D01*
X102133638Y-68131565D01*
X102017712Y-68156206D01*
X102011682Y-68158891D01*
X102011681Y-68158891D01*
X101849278Y-68231197D01*
X101849276Y-68231198D01*
X101843248Y-68233882D01*
X101688747Y-68346134D01*
X101684326Y-68351044D01*
X101684325Y-68351045D01*
X101567265Y-68481054D01*
X101560960Y-68488056D01*
X101465473Y-68653444D01*
X101406458Y-68835072D01*
X101386496Y-69025000D01*
X101387186Y-69031565D01*
X101405071Y-69201728D01*
X101406458Y-69214928D01*
X101465473Y-69396556D01*
X101560960Y-69561944D01*
X101565378Y-69566851D01*
X101565379Y-69566852D01*
X101587693Y-69591634D01*
X101688747Y-69703866D01*
X101694089Y-69707747D01*
X101694091Y-69707749D01*
X101715171Y-69723064D01*
X101758525Y-69779286D01*
X101764601Y-69850022D01*
X101731469Y-69912814D01*
X101715173Y-69926935D01*
X101688747Y-69946134D01*
X101684329Y-69951041D01*
X101684325Y-69951045D01*
X101588249Y-70057749D01*
X101560960Y-70088056D01*
X101516578Y-70164928D01*
X101472595Y-70241109D01*
X101465473Y-70253444D01*
X101406458Y-70435072D01*
X101405768Y-70441633D01*
X101405768Y-70441635D01*
X101398145Y-70514164D01*
X101386496Y-70625000D01*
X98972755Y-70625000D01*
X99036253Y-70578866D01*
X99164040Y-70436944D01*
X99232902Y-70317672D01*
X99256223Y-70277279D01*
X99256224Y-70277278D01*
X99259527Y-70271556D01*
X99318542Y-70089928D01*
X99322849Y-70048955D01*
X99337814Y-69906565D01*
X99338504Y-69900000D01*
X99330606Y-69824851D01*
X99319232Y-69716635D01*
X99319232Y-69716633D01*
X99318542Y-69710072D01*
X99259527Y-69528444D01*
X99164040Y-69363056D01*
X99036253Y-69221134D01*
X98881752Y-69108882D01*
X98875724Y-69106198D01*
X98875722Y-69106197D01*
X98713319Y-69033891D01*
X98713318Y-69033891D01*
X98707288Y-69031206D01*
X98585105Y-69005235D01*
X98526944Y-68992872D01*
X98526939Y-68992872D01*
X98520487Y-68991500D01*
X98329513Y-68991500D01*
X98323061Y-68992872D01*
X98323056Y-68992872D01*
X98264895Y-69005235D01*
X98142712Y-69031206D01*
X98136682Y-69033891D01*
X98136681Y-69033891D01*
X97974278Y-69106197D01*
X97974276Y-69106198D01*
X97968248Y-69108882D01*
X97813747Y-69221134D01*
X97685960Y-69363056D01*
X97590473Y-69528444D01*
X97531458Y-69710072D01*
X97530768Y-69716633D01*
X97530768Y-69716635D01*
X97519394Y-69824851D01*
X97511496Y-69900000D01*
X96795936Y-69900000D01*
X96884527Y-69746556D01*
X96943542Y-69564928D01*
X96957393Y-69433148D01*
X96962814Y-69381565D01*
X96963504Y-69375000D01*
X96954807Y-69292251D01*
X96944232Y-69191635D01*
X96944232Y-69191633D01*
X96943542Y-69185072D01*
X96884527Y-69003444D01*
X96877406Y-68991109D01*
X96834109Y-68916118D01*
X96789040Y-68838056D01*
X96780701Y-68828794D01*
X96665675Y-68701045D01*
X96665674Y-68701044D01*
X96661253Y-68696134D01*
X96602496Y-68653444D01*
X96531601Y-68601936D01*
X96488247Y-68545714D01*
X96482172Y-68474977D01*
X96515304Y-68412186D01*
X96531601Y-68398064D01*
X96655909Y-68307749D01*
X96655911Y-68307747D01*
X96661253Y-68303866D01*
X96724267Y-68233882D01*
X96784621Y-68166852D01*
X96784622Y-68166851D01*
X96789040Y-68161944D01*
X96884527Y-67996556D01*
X96943542Y-67814928D01*
X96963504Y-67625000D01*
X96943542Y-67435072D01*
X96884527Y-67253444D01*
X96863990Y-67217872D01*
X96792341Y-67093774D01*
X96789040Y-67088056D01*
X96771697Y-67068794D01*
X96665675Y-66951045D01*
X96665674Y-66951044D01*
X96661253Y-66946134D01*
X96506752Y-66833882D01*
X96500724Y-66831198D01*
X96500722Y-66831197D01*
X96338319Y-66758891D01*
X96338318Y-66758891D01*
X96332288Y-66756206D01*
X96238887Y-66736353D01*
X96151944Y-66717872D01*
X96151939Y-66717872D01*
X96145487Y-66716500D01*
X95954513Y-66716500D01*
X95948061Y-66717872D01*
X95948056Y-66717872D01*
X95861113Y-66736353D01*
X95767712Y-66756206D01*
X95761682Y-66758891D01*
X95761681Y-66758891D01*
X95599278Y-66831197D01*
X95599276Y-66831198D01*
X95593248Y-66833882D01*
X95438747Y-66946134D01*
X95434326Y-66951044D01*
X95434325Y-66951045D01*
X95328304Y-67068794D01*
X95310960Y-67088056D01*
X95307659Y-67093774D01*
X95236011Y-67217872D01*
X95215473Y-67253444D01*
X95156458Y-67435072D01*
X95136496Y-67625000D01*
X95156458Y-67814928D01*
X95215473Y-67996556D01*
X95310960Y-68161944D01*
X95315378Y-68166851D01*
X95315379Y-68166852D01*
X95375733Y-68233882D01*
X95438747Y-68303866D01*
X95444089Y-68307747D01*
X95444091Y-68307749D01*
X95568399Y-68398064D01*
X95611753Y-68454286D01*
X95617828Y-68525023D01*
X95584696Y-68587814D01*
X95568399Y-68601936D01*
X95497505Y-68653444D01*
X95438747Y-68696134D01*
X95434326Y-68701044D01*
X95434325Y-68701045D01*
X95319300Y-68828794D01*
X95310960Y-68838056D01*
X95265891Y-68916118D01*
X95222595Y-68991109D01*
X95215473Y-69003444D01*
X95156458Y-69185072D01*
X95155768Y-69191633D01*
X95155768Y-69191635D01*
X95145193Y-69292251D01*
X95136496Y-69375000D01*
X72258500Y-69375000D01*
X72258500Y-65150000D01*
X73161496Y-65150000D01*
X73162186Y-65156565D01*
X73180129Y-65327279D01*
X73181458Y-65339928D01*
X73240473Y-65521556D01*
X73335960Y-65686944D01*
X73340378Y-65691851D01*
X73340379Y-65691852D01*
X73458214Y-65822721D01*
X73463747Y-65828866D01*
X73562843Y-65900864D01*
X73583839Y-65916118D01*
X73618248Y-65941118D01*
X73624276Y-65943802D01*
X73624278Y-65943803D01*
X73773122Y-66010072D01*
X73792712Y-66018794D01*
X73886112Y-66038647D01*
X73973056Y-66057128D01*
X73973061Y-66057128D01*
X73979513Y-66058500D01*
X74170487Y-66058500D01*
X74176939Y-66057128D01*
X74176944Y-66057128D01*
X74263888Y-66038647D01*
X74357288Y-66018794D01*
X74376878Y-66010072D01*
X74525722Y-65943803D01*
X74525724Y-65943802D01*
X74531752Y-65941118D01*
X74566162Y-65916118D01*
X74587157Y-65900864D01*
X74686253Y-65828866D01*
X74691786Y-65822721D01*
X74809621Y-65691852D01*
X74809622Y-65691851D01*
X74814040Y-65686944D01*
X74909527Y-65521556D01*
X74965269Y-65350000D01*
X77111496Y-65350000D01*
X77112186Y-65356565D01*
X77130129Y-65527279D01*
X77131458Y-65539928D01*
X77190473Y-65721556D01*
X77285960Y-65886944D01*
X77290378Y-65891851D01*
X77290379Y-65891852D01*
X77402734Y-66016635D01*
X77413747Y-66028866D01*
X77568248Y-66141118D01*
X77574276Y-66143802D01*
X77574278Y-66143803D01*
X77715245Y-66206565D01*
X77742712Y-66218794D01*
X77836113Y-66238647D01*
X77923056Y-66257128D01*
X77923061Y-66257128D01*
X77929513Y-66258500D01*
X78120487Y-66258500D01*
X78126939Y-66257128D01*
X78126944Y-66257128D01*
X78213887Y-66238647D01*
X78307288Y-66218794D01*
X78334755Y-66206565D01*
X78349500Y-66200000D01*
X99186496Y-66200000D01*
X99187186Y-66206565D01*
X99192645Y-66258500D01*
X99206458Y-66389928D01*
X99265473Y-66571556D01*
X99360960Y-66736944D01*
X99365378Y-66741851D01*
X99365379Y-66741852D01*
X99380721Y-66758891D01*
X99488747Y-66878866D01*
X99643248Y-66991118D01*
X99649276Y-66993802D01*
X99649278Y-66993803D01*
X99792156Y-67057416D01*
X99817712Y-67068794D01*
X99908332Y-67088056D01*
X99998056Y-67107128D01*
X99998061Y-67107128D01*
X100004513Y-67108500D01*
X100195487Y-67108500D01*
X100201939Y-67107128D01*
X100201944Y-67107128D01*
X100291668Y-67088056D01*
X100382288Y-67068794D01*
X100407844Y-67057416D01*
X100550722Y-66993803D01*
X100550724Y-66993802D01*
X100556752Y-66991118D01*
X100711253Y-66878866D01*
X100819279Y-66758891D01*
X100834621Y-66741852D01*
X100834622Y-66741851D01*
X100839040Y-66736944D01*
X100842339Y-66731231D01*
X100842342Y-66731226D01*
X100900687Y-66630169D01*
X100952070Y-66581176D01*
X101021783Y-66567740D01*
X101087694Y-66594127D01*
X101118924Y-66630167D01*
X101173210Y-66724194D01*
X101177628Y-66729101D01*
X101177629Y-66729102D01*
X101184690Y-66736944D01*
X101300997Y-66866116D01*
X101455498Y-66978368D01*
X101461526Y-66981052D01*
X101461528Y-66981053D01*
X101623931Y-67053359D01*
X101629962Y-67056044D01*
X101723362Y-67075897D01*
X101810306Y-67094378D01*
X101810311Y-67094378D01*
X101816763Y-67095750D01*
X102007737Y-67095750D01*
X102014189Y-67094378D01*
X102014194Y-67094378D01*
X102101138Y-67075897D01*
X102194538Y-67056044D01*
X102200569Y-67053359D01*
X102362972Y-66981053D01*
X102362974Y-66981052D01*
X102369002Y-66978368D01*
X102523503Y-66866116D01*
X102639810Y-66736944D01*
X102646871Y-66729102D01*
X102646872Y-66729101D01*
X102651290Y-66724194D01*
X102741619Y-66567740D01*
X102743473Y-66564529D01*
X102743474Y-66564528D01*
X102746777Y-66558806D01*
X102805792Y-66377178D01*
X102825754Y-66187250D01*
X102820905Y-66141118D01*
X102806482Y-66003885D01*
X102806482Y-66003883D01*
X102805792Y-65997322D01*
X102749615Y-65824428D01*
X102747587Y-65753462D01*
X102784250Y-65692664D01*
X102795387Y-65683557D01*
X102823604Y-65663056D01*
X102836253Y-65653866D01*
X102916333Y-65564928D01*
X102959621Y-65516852D01*
X102959622Y-65516851D01*
X102964040Y-65511944D01*
X103059527Y-65346556D01*
X103118542Y-65164928D01*
X103121860Y-65133365D01*
X103137814Y-64981565D01*
X103138504Y-64975000D01*
X103128113Y-64876134D01*
X103119232Y-64791635D01*
X103119232Y-64791633D01*
X103118542Y-64785072D01*
X103059527Y-64603444D01*
X103039710Y-64569119D01*
X103004937Y-64508891D01*
X102994377Y-64490600D01*
X104267896Y-64490600D01*
X104268586Y-64497165D01*
X104286871Y-64671134D01*
X104287858Y-64680528D01*
X104346873Y-64862156D01*
X104442360Y-65027544D01*
X104446778Y-65032451D01*
X104446779Y-65032452D01*
X104565725Y-65164555D01*
X104570147Y-65169466D01*
X104724648Y-65281718D01*
X104730676Y-65284402D01*
X104730678Y-65284403D01*
X104883131Y-65352279D01*
X104899112Y-65359394D01*
X104905573Y-65360767D01*
X104905578Y-65360769D01*
X104993659Y-65379492D01*
X105056133Y-65413220D01*
X105090454Y-65475370D01*
X105092772Y-65515905D01*
X105080696Y-65630800D01*
X105081386Y-65637365D01*
X105098370Y-65798955D01*
X105100658Y-65820728D01*
X105159673Y-66002356D01*
X105162976Y-66008078D01*
X105162977Y-66008079D01*
X105176862Y-66032128D01*
X105255160Y-66167744D01*
X105259578Y-66172651D01*
X105259579Y-66172652D01*
X105336877Y-66258500D01*
X105382947Y-66309666D01*
X105466836Y-66370615D01*
X105502059Y-66396206D01*
X105537448Y-66421918D01*
X105543476Y-66424602D01*
X105543478Y-66424603D01*
X105705881Y-66496909D01*
X105711912Y-66499594D01*
X105805313Y-66519447D01*
X105892256Y-66537928D01*
X105892261Y-66537928D01*
X105898713Y-66539300D01*
X106089687Y-66539300D01*
X106096139Y-66537928D01*
X106096144Y-66537928D01*
X106183087Y-66519447D01*
X106276488Y-66499594D01*
X106282519Y-66496909D01*
X106444922Y-66424603D01*
X106444924Y-66424602D01*
X106450952Y-66421918D01*
X106486342Y-66396206D01*
X106521564Y-66370615D01*
X106605453Y-66309666D01*
X106651523Y-66258500D01*
X106728821Y-66172652D01*
X106728822Y-66172651D01*
X106733240Y-66167744D01*
X106811538Y-66032128D01*
X106825423Y-66008079D01*
X106825424Y-66008078D01*
X106828727Y-66002356D01*
X106887742Y-65820728D01*
X106890031Y-65798955D01*
X106907014Y-65637365D01*
X106907704Y-65630800D01*
X106901477Y-65571556D01*
X106888432Y-65447435D01*
X106888432Y-65447433D01*
X106887742Y-65440872D01*
X106866339Y-65375000D01*
X118711496Y-65375000D01*
X118712186Y-65381565D01*
X118728141Y-65533365D01*
X118731458Y-65564928D01*
X118790473Y-65746556D01*
X118885960Y-65911944D01*
X118890378Y-65916851D01*
X118890379Y-65916852D01*
X118967367Y-66002356D01*
X119013747Y-66053866D01*
X119030598Y-66066109D01*
X119133839Y-66141118D01*
X119168248Y-66166118D01*
X119174276Y-66168802D01*
X119174278Y-66168803D01*
X119289642Y-66220166D01*
X119342712Y-66243794D01*
X119436112Y-66263647D01*
X119523056Y-66282128D01*
X119523061Y-66282128D01*
X119529513Y-66283500D01*
X119720487Y-66283500D01*
X119726939Y-66282128D01*
X119726944Y-66282128D01*
X119813888Y-66263647D01*
X119907288Y-66243794D01*
X119960358Y-66220166D01*
X120075722Y-66168803D01*
X120075724Y-66168802D01*
X120081752Y-66166118D01*
X120116162Y-66141118D01*
X120219402Y-66066109D01*
X120236253Y-66053866D01*
X120282633Y-66002356D01*
X120359621Y-65916852D01*
X120359622Y-65916851D01*
X120364040Y-65911944D01*
X120459527Y-65746556D01*
X120518542Y-65564928D01*
X120521860Y-65533365D01*
X120537814Y-65381565D01*
X120538504Y-65375000D01*
X120532190Y-65314928D01*
X120519232Y-65191635D01*
X120519232Y-65191633D01*
X120518542Y-65185072D01*
X120499023Y-65125000D01*
X122836496Y-65125000D01*
X122837186Y-65131565D01*
X122853996Y-65291500D01*
X122856458Y-65314928D01*
X122915473Y-65496556D01*
X122918776Y-65502278D01*
X122918777Y-65502279D01*
X122933211Y-65527279D01*
X123010960Y-65661944D01*
X123015378Y-65666851D01*
X123015379Y-65666852D01*
X123082909Y-65741852D01*
X123138747Y-65803866D01*
X123293248Y-65916118D01*
X123299276Y-65918802D01*
X123299278Y-65918803D01*
X123461542Y-65991047D01*
X123467712Y-65993794D01*
X123544294Y-66010072D01*
X123648056Y-66032128D01*
X123648061Y-66032128D01*
X123654513Y-66033500D01*
X123845487Y-66033500D01*
X123851939Y-66032128D01*
X123851944Y-66032128D01*
X123955706Y-66010072D01*
X124032288Y-65993794D01*
X124038458Y-65991047D01*
X124200722Y-65918803D01*
X124200724Y-65918802D01*
X124206752Y-65916118D01*
X124361253Y-65803866D01*
X124417091Y-65741852D01*
X124484621Y-65666852D01*
X124484622Y-65666851D01*
X124489040Y-65661944D01*
X124566789Y-65527279D01*
X124581223Y-65502279D01*
X124581224Y-65502278D01*
X124584527Y-65496556D01*
X124643542Y-65314928D01*
X124646005Y-65291500D01*
X124655622Y-65200000D01*
X131611496Y-65200000D01*
X131612186Y-65206565D01*
X131627967Y-65356709D01*
X131631458Y-65389928D01*
X131690473Y-65571556D01*
X131785960Y-65736944D01*
X131790378Y-65741851D01*
X131790379Y-65741852D01*
X131795452Y-65747486D01*
X131913747Y-65878866D01*
X132068248Y-65991118D01*
X132074276Y-65993802D01*
X132074278Y-65993803D01*
X132217904Y-66057749D01*
X132242712Y-66068794D01*
X132336113Y-66088647D01*
X132423056Y-66107128D01*
X132423061Y-66107128D01*
X132429513Y-66108500D01*
X132620487Y-66108500D01*
X132626939Y-66107128D01*
X132626944Y-66107128D01*
X132713887Y-66088647D01*
X132807288Y-66068794D01*
X132832096Y-66057749D01*
X132975722Y-65993803D01*
X132975724Y-65993802D01*
X132981752Y-65991118D01*
X133136253Y-65878866D01*
X133254548Y-65747486D01*
X133259621Y-65741852D01*
X133259622Y-65741851D01*
X133264040Y-65736944D01*
X133359527Y-65571556D01*
X133418542Y-65389928D01*
X133422034Y-65356709D01*
X133437814Y-65206565D01*
X133438504Y-65200000D01*
X133432190Y-65139928D01*
X133419232Y-65016635D01*
X133419232Y-65016633D01*
X133418542Y-65010072D01*
X133359527Y-64828444D01*
X133264040Y-64663056D01*
X133246697Y-64643794D01*
X133140675Y-64526045D01*
X133140674Y-64526044D01*
X133136253Y-64521134D01*
X132981752Y-64408882D01*
X132975724Y-64406198D01*
X132975722Y-64406197D01*
X132813319Y-64333891D01*
X132813318Y-64333891D01*
X132807288Y-64331206D01*
X132694514Y-64307235D01*
X132626944Y-64292872D01*
X132626939Y-64292872D01*
X132620487Y-64291500D01*
X132429513Y-64291500D01*
X132423061Y-64292872D01*
X132423056Y-64292872D01*
X132355486Y-64307235D01*
X132242712Y-64331206D01*
X132236682Y-64333891D01*
X132236681Y-64333891D01*
X132074278Y-64406197D01*
X132074276Y-64406198D01*
X132068248Y-64408882D01*
X131913747Y-64521134D01*
X131909326Y-64526044D01*
X131909325Y-64526045D01*
X131803304Y-64643794D01*
X131785960Y-64663056D01*
X131690473Y-64828444D01*
X131631458Y-65010072D01*
X131630768Y-65016633D01*
X131630768Y-65016635D01*
X131617810Y-65139928D01*
X131611496Y-65200000D01*
X124655622Y-65200000D01*
X124662814Y-65131565D01*
X124663504Y-65125000D01*
X124647049Y-64968435D01*
X124644232Y-64941635D01*
X124644232Y-64941633D01*
X124643542Y-64935072D01*
X124584527Y-64753444D01*
X124489040Y-64588056D01*
X124480386Y-64578444D01*
X124365675Y-64451045D01*
X124365674Y-64451044D01*
X124361253Y-64446134D01*
X124246503Y-64362763D01*
X124212094Y-64337763D01*
X124212093Y-64337762D01*
X124206752Y-64333882D01*
X124200724Y-64331198D01*
X124200722Y-64331197D01*
X124038319Y-64258891D01*
X124038318Y-64258891D01*
X124032288Y-64256206D01*
X123938888Y-64236353D01*
X123851944Y-64217872D01*
X123851939Y-64217872D01*
X123845487Y-64216500D01*
X123654513Y-64216500D01*
X123648061Y-64217872D01*
X123648056Y-64217872D01*
X123561112Y-64236353D01*
X123467712Y-64256206D01*
X123461682Y-64258891D01*
X123461681Y-64258891D01*
X123299278Y-64331197D01*
X123299276Y-64331198D01*
X123293248Y-64333882D01*
X123287907Y-64337762D01*
X123287906Y-64337763D01*
X123253497Y-64362763D01*
X123138747Y-64446134D01*
X123134326Y-64451044D01*
X123134325Y-64451045D01*
X123019615Y-64578444D01*
X123010960Y-64588056D01*
X122915473Y-64753444D01*
X122856458Y-64935072D01*
X122855768Y-64941633D01*
X122855768Y-64941635D01*
X122852951Y-64968435D01*
X122836496Y-65125000D01*
X120499023Y-65125000D01*
X120459527Y-65003444D01*
X120364040Y-64838056D01*
X120355386Y-64828444D01*
X120240675Y-64701045D01*
X120240674Y-64701044D01*
X120236253Y-64696134D01*
X120166102Y-64645166D01*
X120087094Y-64587763D01*
X120087093Y-64587762D01*
X120081752Y-64583882D01*
X120075724Y-64581198D01*
X120075722Y-64581197D01*
X119913319Y-64508891D01*
X119913318Y-64508891D01*
X119907288Y-64506206D01*
X119813888Y-64486353D01*
X119726944Y-64467872D01*
X119726939Y-64467872D01*
X119720487Y-64466500D01*
X119529513Y-64466500D01*
X119523061Y-64467872D01*
X119523056Y-64467872D01*
X119436112Y-64486353D01*
X119342712Y-64506206D01*
X119336682Y-64508891D01*
X119336681Y-64508891D01*
X119174278Y-64581197D01*
X119174276Y-64581198D01*
X119168248Y-64583882D01*
X119162907Y-64587762D01*
X119162906Y-64587763D01*
X119083898Y-64645166D01*
X119013747Y-64696134D01*
X119009326Y-64701044D01*
X119009325Y-64701045D01*
X118894615Y-64828444D01*
X118885960Y-64838056D01*
X118790473Y-65003444D01*
X118731458Y-65185072D01*
X118730768Y-65191633D01*
X118730768Y-65191635D01*
X118717810Y-65314928D01*
X118711496Y-65375000D01*
X106866339Y-65375000D01*
X106828727Y-65259244D01*
X106733240Y-65093856D01*
X106673533Y-65027544D01*
X106609875Y-64956845D01*
X106609874Y-64956844D01*
X106605453Y-64951934D01*
X106593756Y-64943435D01*
X106516532Y-64887329D01*
X106501122Y-64876133D01*
X106457769Y-64819912D01*
X106451694Y-64749176D01*
X106484825Y-64686384D01*
X106546645Y-64651473D01*
X106601381Y-64650951D01*
X106748056Y-64682128D01*
X106748061Y-64682128D01*
X106754513Y-64683500D01*
X106945487Y-64683500D01*
X106951939Y-64682128D01*
X106951944Y-64682128D01*
X107041668Y-64663056D01*
X107132288Y-64643794D01*
X107138319Y-64641109D01*
X107300722Y-64568803D01*
X107300724Y-64568802D01*
X107306752Y-64566118D01*
X107316712Y-64558882D01*
X107382224Y-64511284D01*
X107461253Y-64453866D01*
X107471711Y-64442251D01*
X107584621Y-64316852D01*
X107584622Y-64316851D01*
X107589040Y-64311944D01*
X107670093Y-64171556D01*
X107681223Y-64152279D01*
X107681224Y-64152278D01*
X107684527Y-64146556D01*
X107743542Y-63964928D01*
X107746046Y-63941109D01*
X107762814Y-63781565D01*
X107763504Y-63775000D01*
X107758903Y-63731225D01*
X107744232Y-63591635D01*
X107744232Y-63591633D01*
X107743542Y-63585072D01*
X107684527Y-63403444D01*
X107670741Y-63379565D01*
X107611524Y-63277000D01*
X107589040Y-63238056D01*
X107571679Y-63218774D01*
X107465675Y-63101045D01*
X107465674Y-63101044D01*
X107461253Y-63096134D01*
X107375798Y-63034047D01*
X107332444Y-62977824D01*
X107326369Y-62907088D01*
X107343300Y-62875000D01*
X111436496Y-62875000D01*
X111437186Y-62881565D01*
X111452215Y-63024554D01*
X111456458Y-63064928D01*
X111515473Y-63246556D01*
X111518776Y-63252278D01*
X111518777Y-63252279D01*
X111529705Y-63271206D01*
X111610960Y-63411944D01*
X111615378Y-63416851D01*
X111615379Y-63416852D01*
X111674154Y-63482128D01*
X111738747Y-63553866D01*
X111893248Y-63666118D01*
X111899276Y-63668802D01*
X111899278Y-63668803D01*
X112055307Y-63738271D01*
X112067712Y-63743794D01*
X112133365Y-63757749D01*
X112248056Y-63782128D01*
X112248061Y-63782128D01*
X112254513Y-63783500D01*
X112445487Y-63783500D01*
X112451939Y-63782128D01*
X112451944Y-63782128D01*
X112566635Y-63757749D01*
X112632288Y-63743794D01*
X112644693Y-63738271D01*
X112800722Y-63668803D01*
X112800724Y-63668802D01*
X112806752Y-63666118D01*
X112961253Y-63553866D01*
X113025846Y-63482128D01*
X113084621Y-63416852D01*
X113084622Y-63416851D01*
X113089040Y-63411944D01*
X113170295Y-63271206D01*
X113181223Y-63252279D01*
X113181224Y-63252278D01*
X113184527Y-63246556D01*
X113240269Y-63075000D01*
X114661496Y-63075000D01*
X114662186Y-63081565D01*
X114680129Y-63252279D01*
X114681458Y-63264928D01*
X114740473Y-63446556D01*
X114743776Y-63452278D01*
X114743777Y-63452279D01*
X114761803Y-63483500D01*
X114835960Y-63611944D01*
X114840378Y-63616851D01*
X114840379Y-63616852D01*
X114954355Y-63743435D01*
X114963747Y-63753866D01*
X115002646Y-63782128D01*
X115089328Y-63845106D01*
X115118248Y-63866118D01*
X115124276Y-63868802D01*
X115124278Y-63868803D01*
X115286681Y-63941109D01*
X115292712Y-63943794D01*
X115361263Y-63958365D01*
X115473056Y-63982128D01*
X115473061Y-63982128D01*
X115479513Y-63983500D01*
X115670487Y-63983500D01*
X115676939Y-63982128D01*
X115676944Y-63982128D01*
X115788737Y-63958365D01*
X115857288Y-63943794D01*
X115863319Y-63941109D01*
X116025722Y-63868803D01*
X116025724Y-63868802D01*
X116031752Y-63866118D01*
X116060673Y-63845106D01*
X116147354Y-63782128D01*
X116186253Y-63753866D01*
X116195645Y-63743435D01*
X116309621Y-63616852D01*
X116309622Y-63616851D01*
X116314040Y-63611944D01*
X116388197Y-63483500D01*
X116406223Y-63452279D01*
X116406224Y-63452278D01*
X116409527Y-63446556D01*
X116468542Y-63264928D01*
X116469872Y-63252279D01*
X116473564Y-63217150D01*
X125568482Y-63217150D01*
X125568998Y-63223294D01*
X125569729Y-63232000D01*
X125584126Y-63403444D01*
X125585852Y-63424004D01*
X125643069Y-63623545D01*
X125645887Y-63629027D01*
X125645888Y-63629031D01*
X125717532Y-63768435D01*
X125737955Y-63808173D01*
X125741786Y-63813007D01*
X125741787Y-63813008D01*
X125786010Y-63868803D01*
X125866894Y-63970854D01*
X125871581Y-63974843D01*
X125871584Y-63974846D01*
X125994945Y-64079834D01*
X126024976Y-64105392D01*
X126206180Y-64206664D01*
X126403603Y-64270810D01*
X126609725Y-64295389D01*
X126615860Y-64294917D01*
X126615862Y-64294917D01*
X126810555Y-64279936D01*
X126810560Y-64279935D01*
X126816696Y-64279463D01*
X126822626Y-64277807D01*
X126822628Y-64277807D01*
X126916664Y-64251551D01*
X127016632Y-64223640D01*
X127056190Y-64203658D01*
X127196416Y-64132825D01*
X127196418Y-64132824D01*
X127201917Y-64130046D01*
X127365495Y-64002245D01*
X127501133Y-63845106D01*
X127526757Y-63800000D01*
X128386496Y-63800000D01*
X128387186Y-63806565D01*
X128403946Y-63966024D01*
X128406458Y-63989928D01*
X128465473Y-64171556D01*
X128468776Y-64177278D01*
X128468777Y-64177279D01*
X128480757Y-64198029D01*
X128560960Y-64336944D01*
X128565378Y-64341851D01*
X128565379Y-64341852D01*
X128678289Y-64467251D01*
X128688747Y-64478866D01*
X128735325Y-64512707D01*
X128833289Y-64583882D01*
X128843248Y-64591118D01*
X128849276Y-64593802D01*
X128849278Y-64593803D01*
X129004824Y-64663056D01*
X129017712Y-64668794D01*
X129111112Y-64688647D01*
X129198056Y-64707128D01*
X129198061Y-64707128D01*
X129204513Y-64708500D01*
X129395487Y-64708500D01*
X129401939Y-64707128D01*
X129401944Y-64707128D01*
X129488888Y-64688647D01*
X129582288Y-64668794D01*
X129595176Y-64663056D01*
X129750722Y-64593803D01*
X129750724Y-64593802D01*
X129756752Y-64591118D01*
X129766712Y-64583882D01*
X129864675Y-64512707D01*
X129911253Y-64478866D01*
X129921711Y-64467251D01*
X130034621Y-64341852D01*
X130034622Y-64341851D01*
X130039040Y-64336944D01*
X130119243Y-64198029D01*
X130131223Y-64177279D01*
X130131224Y-64177278D01*
X130134527Y-64171556D01*
X130193542Y-63989928D01*
X130196055Y-63966024D01*
X130212814Y-63806565D01*
X130213504Y-63800000D01*
X130207559Y-63743435D01*
X130194232Y-63616635D01*
X130194232Y-63616633D01*
X130193542Y-63610072D01*
X130134527Y-63428444D01*
X130127835Y-63416852D01*
X130096302Y-63362237D01*
X130039040Y-63263056D01*
X130029337Y-63252279D01*
X129915675Y-63126045D01*
X129915674Y-63126044D01*
X129911253Y-63121134D01*
X129756752Y-63008882D01*
X129750724Y-63006198D01*
X129750722Y-63006197D01*
X129588319Y-62933891D01*
X129588318Y-62933891D01*
X129582288Y-62931206D01*
X129488888Y-62911353D01*
X129401944Y-62892872D01*
X129401939Y-62892872D01*
X129395487Y-62891500D01*
X129204513Y-62891500D01*
X129198061Y-62892872D01*
X129198056Y-62892872D01*
X129111112Y-62911353D01*
X129017712Y-62931206D01*
X129011682Y-62933891D01*
X129011681Y-62933891D01*
X128849278Y-63006197D01*
X128849276Y-63006198D01*
X128843248Y-63008882D01*
X128688747Y-63121134D01*
X128684326Y-63126044D01*
X128684325Y-63126045D01*
X128570664Y-63252279D01*
X128560960Y-63263056D01*
X128503698Y-63362237D01*
X128472166Y-63416852D01*
X128465473Y-63428444D01*
X128406458Y-63610072D01*
X128405768Y-63616633D01*
X128405768Y-63616635D01*
X128392441Y-63743435D01*
X128386496Y-63800000D01*
X127526757Y-63800000D01*
X127603667Y-63664614D01*
X127669190Y-63467644D01*
X127695207Y-63261698D01*
X127695428Y-63245848D01*
X127695573Y-63235522D01*
X127695573Y-63235518D01*
X127695622Y-63232000D01*
X127684751Y-63121134D01*
X127675966Y-63031534D01*
X127675965Y-63031531D01*
X127675365Y-63025408D01*
X127627815Y-62867912D01*
X127617152Y-62832593D01*
X127617151Y-62832590D01*
X127615368Y-62826685D01*
X127611212Y-62818868D01*
X127520809Y-62648847D01*
X127520808Y-62648845D01*
X127517913Y-62643401D01*
X127456772Y-62568435D01*
X127390610Y-62487311D01*
X127390607Y-62487308D01*
X127386715Y-62482536D01*
X127379770Y-62476790D01*
X127231518Y-62354145D01*
X127231519Y-62354145D01*
X127226770Y-62350217D01*
X127221353Y-62347288D01*
X127221350Y-62347286D01*
X127049590Y-62254416D01*
X127049585Y-62254414D01*
X127044170Y-62251486D01*
X126845871Y-62190102D01*
X126839746Y-62189458D01*
X126839745Y-62189458D01*
X126645554Y-62169048D01*
X126645552Y-62169048D01*
X126639425Y-62168404D01*
X126553515Y-62176223D01*
X126438836Y-62186659D01*
X126438833Y-62186660D01*
X126432697Y-62187218D01*
X126426791Y-62188956D01*
X126426787Y-62188957D01*
X126278932Y-62232473D01*
X126233560Y-62245827D01*
X126049600Y-62341999D01*
X125887823Y-62472071D01*
X125883865Y-62476788D01*
X125883863Y-62476790D01*
X125856224Y-62509729D01*
X125754391Y-62631089D01*
X125751427Y-62636481D01*
X125751424Y-62636485D01*
X125684420Y-62758365D01*
X125654387Y-62812995D01*
X125591621Y-63010861D01*
X125590935Y-63016978D01*
X125590934Y-63016982D01*
X125582056Y-63096134D01*
X125568482Y-63217150D01*
X116473564Y-63217150D01*
X116487814Y-63081565D01*
X116488504Y-63075000D01*
X116476207Y-62957996D01*
X116469232Y-62891635D01*
X116469232Y-62891633D01*
X116468542Y-62885072D01*
X116409527Y-62703444D01*
X116392502Y-62673955D01*
X116337793Y-62579197D01*
X116314040Y-62538056D01*
X116298804Y-62521134D01*
X116190675Y-62401045D01*
X116190674Y-62401044D01*
X116186253Y-62396134D01*
X116031752Y-62283882D01*
X116025724Y-62281198D01*
X116025722Y-62281197D01*
X115863319Y-62208891D01*
X115863318Y-62208891D01*
X115857288Y-62206206D01*
X115763887Y-62186353D01*
X115676944Y-62167872D01*
X115676939Y-62167872D01*
X115670487Y-62166500D01*
X115479513Y-62166500D01*
X115473061Y-62167872D01*
X115473056Y-62167872D01*
X115386113Y-62186353D01*
X115292712Y-62206206D01*
X115286682Y-62208891D01*
X115286681Y-62208891D01*
X115124278Y-62281197D01*
X115124276Y-62281198D01*
X115118248Y-62283882D01*
X114963747Y-62396134D01*
X114959326Y-62401044D01*
X114959325Y-62401045D01*
X114851197Y-62521134D01*
X114835960Y-62538056D01*
X114812207Y-62579197D01*
X114757499Y-62673955D01*
X114740473Y-62703444D01*
X114681458Y-62885072D01*
X114680768Y-62891633D01*
X114680768Y-62891635D01*
X114673793Y-62957996D01*
X114661496Y-63075000D01*
X113240269Y-63075000D01*
X113243542Y-63064928D01*
X113247786Y-63024554D01*
X113262814Y-62881565D01*
X113263504Y-62875000D01*
X113258009Y-62822721D01*
X113244232Y-62691635D01*
X113244232Y-62691633D01*
X113243542Y-62685072D01*
X113184527Y-62503444D01*
X113089040Y-62338056D01*
X113008567Y-62248681D01*
X112965675Y-62201045D01*
X112965674Y-62201044D01*
X112961253Y-62196134D01*
X112806752Y-62083882D01*
X112800724Y-62081198D01*
X112800722Y-62081197D01*
X112638319Y-62008891D01*
X112638318Y-62008891D01*
X112632288Y-62006206D01*
X112538887Y-61986353D01*
X112451944Y-61967872D01*
X112451939Y-61967872D01*
X112445487Y-61966500D01*
X112254513Y-61966500D01*
X112248061Y-61967872D01*
X112248056Y-61967872D01*
X112161113Y-61986353D01*
X112067712Y-62006206D01*
X112061682Y-62008891D01*
X112061681Y-62008891D01*
X111899278Y-62081197D01*
X111899276Y-62081198D01*
X111893248Y-62083882D01*
X111738747Y-62196134D01*
X111734326Y-62201044D01*
X111734325Y-62201045D01*
X111691434Y-62248681D01*
X111610960Y-62338056D01*
X111515473Y-62503444D01*
X111456458Y-62685072D01*
X111455768Y-62691633D01*
X111455768Y-62691635D01*
X111441991Y-62822721D01*
X111436496Y-62875000D01*
X107343300Y-62875000D01*
X107359501Y-62844297D01*
X107398611Y-62817004D01*
X107450719Y-62793805D01*
X107450726Y-62793801D01*
X107456752Y-62791118D01*
X107484159Y-62771206D01*
X107593678Y-62691635D01*
X107611253Y-62678866D01*
X107704774Y-62575000D01*
X107734621Y-62541852D01*
X107734622Y-62541851D01*
X107739040Y-62536944D01*
X107814527Y-62406197D01*
X107831223Y-62377279D01*
X107831224Y-62377278D01*
X107834527Y-62371556D01*
X107893542Y-62189928D01*
X107895746Y-62168963D01*
X107912814Y-62006565D01*
X107913504Y-62000000D01*
X107893542Y-61810072D01*
X107834527Y-61628444D01*
X107739040Y-61463056D01*
X107611253Y-61321134D01*
X107456752Y-61208882D01*
X107450724Y-61206198D01*
X107450722Y-61206197D01*
X107288319Y-61133891D01*
X107288318Y-61133891D01*
X107282288Y-61131206D01*
X107188888Y-61111353D01*
X107101944Y-61092872D01*
X107101939Y-61092872D01*
X107095487Y-61091500D01*
X106904513Y-61091500D01*
X106898061Y-61092872D01*
X106898056Y-61092872D01*
X106811112Y-61111353D01*
X106717712Y-61131206D01*
X106711682Y-61133891D01*
X106711681Y-61133891D01*
X106549278Y-61206197D01*
X106549276Y-61206198D01*
X106543248Y-61208882D01*
X106388747Y-61321134D01*
X106260960Y-61463056D01*
X106165473Y-61628444D01*
X106106458Y-61810072D01*
X106086496Y-62000000D01*
X106087186Y-62006565D01*
X106104255Y-62168963D01*
X106106458Y-62189928D01*
X106165473Y-62371556D01*
X106168776Y-62377278D01*
X106168777Y-62377279D01*
X106185473Y-62406197D01*
X106260960Y-62536944D01*
X106265378Y-62541851D01*
X106265379Y-62541852D01*
X106295226Y-62575000D01*
X106388747Y-62678866D01*
X106397289Y-62685072D01*
X106474202Y-62740953D01*
X106517556Y-62797176D01*
X106523631Y-62867912D01*
X106490499Y-62930703D01*
X106451389Y-62957996D01*
X106399281Y-62981195D01*
X106399274Y-62981199D01*
X106393248Y-62983882D01*
X106387907Y-62987762D01*
X106387906Y-62987763D01*
X106347690Y-63016982D01*
X106238747Y-63096134D01*
X106234326Y-63101044D01*
X106234325Y-63101045D01*
X106128322Y-63218774D01*
X106110960Y-63238056D01*
X106088476Y-63277000D01*
X106029260Y-63379565D01*
X106015473Y-63403444D01*
X105956458Y-63585072D01*
X105955769Y-63591631D01*
X105955768Y-63591634D01*
X105945516Y-63689179D01*
X105918503Y-63754835D01*
X105860281Y-63795465D01*
X105789336Y-63798168D01*
X105746145Y-63777944D01*
X105714339Y-63754835D01*
X105638152Y-63699482D01*
X105632124Y-63696798D01*
X105632122Y-63696797D01*
X105469719Y-63624491D01*
X105469718Y-63624491D01*
X105463688Y-63621806D01*
X105370288Y-63601953D01*
X105283344Y-63583472D01*
X105283339Y-63583472D01*
X105276887Y-63582100D01*
X105085913Y-63582100D01*
X105079461Y-63583472D01*
X105079456Y-63583472D01*
X104992512Y-63601953D01*
X104899112Y-63621806D01*
X104893082Y-63624491D01*
X104893081Y-63624491D01*
X104730678Y-63696797D01*
X104730676Y-63696798D01*
X104724648Y-63699482D01*
X104570147Y-63811734D01*
X104565726Y-63816644D01*
X104565725Y-63816645D01*
X104464775Y-63928762D01*
X104442360Y-63953656D01*
X104420731Y-63991118D01*
X104352961Y-64108500D01*
X104346873Y-64119044D01*
X104287858Y-64300672D01*
X104287168Y-64307233D01*
X104287168Y-64307235D01*
X104272273Y-64448955D01*
X104267896Y-64490600D01*
X102994377Y-64490600D01*
X102964040Y-64438056D01*
X102946679Y-64418774D01*
X102840675Y-64301045D01*
X102840674Y-64301044D01*
X102836253Y-64296134D01*
X102736474Y-64223640D01*
X102701224Y-64198029D01*
X102657870Y-64141806D01*
X102651795Y-64071070D01*
X102655452Y-64057157D01*
X102685419Y-63964928D01*
X102693542Y-63939928D01*
X102696694Y-63909944D01*
X102712814Y-63756565D01*
X102713504Y-63750000D01*
X102700213Y-63623545D01*
X102694232Y-63566635D01*
X102694232Y-63566633D01*
X102693542Y-63560072D01*
X102634527Y-63378444D01*
X102539040Y-63213056D01*
X102533196Y-63206565D01*
X102415675Y-63076045D01*
X102415674Y-63076044D01*
X102411253Y-63071134D01*
X102296503Y-62987763D01*
X102262094Y-62962763D01*
X102262093Y-62962762D01*
X102256752Y-62958882D01*
X102250724Y-62956198D01*
X102250722Y-62956197D01*
X102088319Y-62883891D01*
X102088318Y-62883891D01*
X102082288Y-62881206D01*
X101988888Y-62861353D01*
X101901944Y-62842872D01*
X101901939Y-62842872D01*
X101895487Y-62841500D01*
X101704513Y-62841500D01*
X101698061Y-62842872D01*
X101698056Y-62842872D01*
X101611112Y-62861353D01*
X101517712Y-62881206D01*
X101511682Y-62883891D01*
X101511681Y-62883891D01*
X101349278Y-62956197D01*
X101349276Y-62956198D01*
X101343248Y-62958882D01*
X101337907Y-62962762D01*
X101337906Y-62962763D01*
X101303497Y-62987763D01*
X101188747Y-63071134D01*
X101184326Y-63076044D01*
X101184325Y-63076045D01*
X101066805Y-63206565D01*
X101060960Y-63213056D01*
X100965473Y-63378444D01*
X100906458Y-63560072D01*
X100905768Y-63566633D01*
X100905768Y-63566635D01*
X100899787Y-63623545D01*
X100886496Y-63750000D01*
X100887186Y-63756565D01*
X100903307Y-63909944D01*
X100906458Y-63939928D01*
X100965473Y-64121556D01*
X100994341Y-64171556D01*
X101004925Y-64189889D01*
X101021662Y-64258884D01*
X100998441Y-64325976D01*
X100942634Y-64369863D01*
X100922001Y-64376135D01*
X100892370Y-64382433D01*
X100892367Y-64382434D01*
X100885912Y-64383806D01*
X100879882Y-64386491D01*
X100879881Y-64386491D01*
X100717478Y-64458797D01*
X100717476Y-64458798D01*
X100711448Y-64461482D01*
X100706107Y-64465362D01*
X100706106Y-64465363D01*
X100671371Y-64490600D01*
X100556947Y-64573734D01*
X100552526Y-64578644D01*
X100552525Y-64578645D01*
X100436839Y-64707128D01*
X100429160Y-64715656D01*
X100333673Y-64881044D01*
X100274658Y-65062672D01*
X100273969Y-65069231D01*
X100273968Y-65069234D01*
X100262466Y-65178671D01*
X100235453Y-65244327D01*
X100177231Y-65284957D01*
X100137156Y-65291500D01*
X100004513Y-65291500D01*
X99998061Y-65292872D01*
X99998056Y-65292872D01*
X99911113Y-65311353D01*
X99817712Y-65331206D01*
X99811682Y-65333891D01*
X99811681Y-65333891D01*
X99649278Y-65406197D01*
X99649276Y-65406198D01*
X99643248Y-65408882D01*
X99637907Y-65412762D01*
X99637906Y-65412763D01*
X99599218Y-65440872D01*
X99488747Y-65521134D01*
X99484326Y-65526044D01*
X99484325Y-65526045D01*
X99373657Y-65648955D01*
X99360960Y-65663056D01*
X99316380Y-65740271D01*
X99272595Y-65816109D01*
X99265473Y-65828444D01*
X99206458Y-66010072D01*
X99205768Y-66016633D01*
X99205768Y-66016635D01*
X99202371Y-66048955D01*
X99186496Y-66200000D01*
X78349500Y-66200000D01*
X78475722Y-66143803D01*
X78475724Y-66143802D01*
X78481752Y-66141118D01*
X78636253Y-66028866D01*
X78647266Y-66016635D01*
X78759621Y-65891852D01*
X78759622Y-65891851D01*
X78764040Y-65886944D01*
X78859527Y-65721556D01*
X78918542Y-65539928D01*
X78919872Y-65527279D01*
X78937814Y-65356565D01*
X78938504Y-65350000D01*
X78936529Y-65331206D01*
X78919232Y-65166635D01*
X78919232Y-65166633D01*
X78918542Y-65160072D01*
X78859527Y-64978444D01*
X78844222Y-64951934D01*
X78843105Y-64950000D01*
X83461496Y-64950000D01*
X83462186Y-64956565D01*
X83468500Y-65016635D01*
X83481458Y-65139928D01*
X83540473Y-65321556D01*
X83543776Y-65327278D01*
X83543777Y-65327279D01*
X83551080Y-65339928D01*
X83635960Y-65486944D01*
X83640378Y-65491851D01*
X83640379Y-65491852D01*
X83683667Y-65539928D01*
X83763747Y-65628866D01*
X83918248Y-65741118D01*
X83924276Y-65743802D01*
X83924278Y-65743803D01*
X84059183Y-65803866D01*
X84092712Y-65818794D01*
X84158365Y-65832749D01*
X84273056Y-65857128D01*
X84273061Y-65857128D01*
X84279513Y-65858500D01*
X84470487Y-65858500D01*
X84476939Y-65857128D01*
X84476944Y-65857128D01*
X84591635Y-65832749D01*
X84657288Y-65818794D01*
X84690817Y-65803866D01*
X84825722Y-65743803D01*
X84825724Y-65743802D01*
X84831752Y-65741118D01*
X84986253Y-65628866D01*
X85066333Y-65539928D01*
X85109621Y-65491852D01*
X85109622Y-65491851D01*
X85114040Y-65486944D01*
X85198920Y-65339928D01*
X85206223Y-65327279D01*
X85206224Y-65327278D01*
X85209527Y-65321556D01*
X85268542Y-65139928D01*
X85281501Y-65016635D01*
X85287814Y-64956565D01*
X85288504Y-64950000D01*
X85281257Y-64881044D01*
X85269232Y-64766635D01*
X85269232Y-64766633D01*
X85268542Y-64760072D01*
X85209527Y-64578444D01*
X85204966Y-64570543D01*
X85154277Y-64482749D01*
X85114040Y-64413056D01*
X85042752Y-64333882D01*
X84990675Y-64276045D01*
X84990674Y-64276044D01*
X84986253Y-64271134D01*
X84874429Y-64189889D01*
X84837094Y-64162763D01*
X84837093Y-64162762D01*
X84831752Y-64158882D01*
X84825724Y-64156198D01*
X84825722Y-64156197D01*
X84663319Y-64083891D01*
X84663318Y-64083891D01*
X84657288Y-64081206D01*
X84563888Y-64061353D01*
X84476944Y-64042872D01*
X84476939Y-64042872D01*
X84470487Y-64041500D01*
X84279513Y-64041500D01*
X84273061Y-64042872D01*
X84273056Y-64042872D01*
X84186112Y-64061353D01*
X84092712Y-64081206D01*
X84086682Y-64083891D01*
X84086681Y-64083891D01*
X83924278Y-64156197D01*
X83924276Y-64156198D01*
X83918248Y-64158882D01*
X83912907Y-64162762D01*
X83912906Y-64162763D01*
X83875571Y-64189889D01*
X83763747Y-64271134D01*
X83759326Y-64276044D01*
X83759325Y-64276045D01*
X83707249Y-64333882D01*
X83635960Y-64413056D01*
X83595723Y-64482749D01*
X83545035Y-64570543D01*
X83540473Y-64578444D01*
X83481458Y-64760072D01*
X83480768Y-64766633D01*
X83480768Y-64766635D01*
X83468743Y-64881044D01*
X83461496Y-64950000D01*
X78843105Y-64950000D01*
X78781775Y-64843774D01*
X78764040Y-64813056D01*
X78744753Y-64791635D01*
X78640675Y-64676045D01*
X78640674Y-64676044D01*
X78636253Y-64671134D01*
X78517327Y-64584729D01*
X78487094Y-64562763D01*
X78487093Y-64562762D01*
X78481752Y-64558882D01*
X78475724Y-64556198D01*
X78475722Y-64556197D01*
X78313319Y-64483891D01*
X78313318Y-64483891D01*
X78307288Y-64481206D01*
X78201863Y-64458797D01*
X78126944Y-64442872D01*
X78126939Y-64442872D01*
X78120487Y-64441500D01*
X77929513Y-64441500D01*
X77923061Y-64442872D01*
X77923056Y-64442872D01*
X77848137Y-64458797D01*
X77742712Y-64481206D01*
X77736682Y-64483891D01*
X77736681Y-64483891D01*
X77574278Y-64556197D01*
X77574276Y-64556198D01*
X77568248Y-64558882D01*
X77562907Y-64562762D01*
X77562906Y-64562763D01*
X77532673Y-64584729D01*
X77413747Y-64671134D01*
X77409326Y-64676044D01*
X77409325Y-64676045D01*
X77305248Y-64791635D01*
X77285960Y-64813056D01*
X77268225Y-64843774D01*
X77205779Y-64951934D01*
X77190473Y-64978444D01*
X77131458Y-65160072D01*
X77130768Y-65166633D01*
X77130768Y-65166635D01*
X77113471Y-65331206D01*
X77111496Y-65350000D01*
X74965269Y-65350000D01*
X74968542Y-65339928D01*
X74969872Y-65327279D01*
X74987814Y-65156565D01*
X74988504Y-65150000D01*
X74970111Y-64975000D01*
X74969232Y-64966635D01*
X74969232Y-64966633D01*
X74968542Y-64960072D01*
X74909527Y-64778444D01*
X74900037Y-64762006D01*
X74847571Y-64671134D01*
X74814040Y-64613056D01*
X74805386Y-64603444D01*
X74690675Y-64476045D01*
X74690674Y-64476044D01*
X74686253Y-64471134D01*
X74531752Y-64358882D01*
X74525724Y-64356198D01*
X74525722Y-64356197D01*
X74363319Y-64283891D01*
X74363318Y-64283891D01*
X74357288Y-64281206D01*
X74252272Y-64258884D01*
X74176944Y-64242872D01*
X74176939Y-64242872D01*
X74170487Y-64241500D01*
X73979513Y-64241500D01*
X73973061Y-64242872D01*
X73973056Y-64242872D01*
X73897728Y-64258884D01*
X73792712Y-64281206D01*
X73786682Y-64283891D01*
X73786681Y-64283891D01*
X73624278Y-64356197D01*
X73624276Y-64356198D01*
X73618248Y-64358882D01*
X73463747Y-64471134D01*
X73459326Y-64476044D01*
X73459325Y-64476045D01*
X73344615Y-64603444D01*
X73335960Y-64613056D01*
X73302429Y-64671134D01*
X73249964Y-64762006D01*
X73240473Y-64778444D01*
X73181458Y-64960072D01*
X73180768Y-64966633D01*
X73180768Y-64966635D01*
X73179889Y-64975000D01*
X73161496Y-65150000D01*
X72258500Y-65150000D01*
X72258500Y-62575000D01*
X79036496Y-62575000D01*
X79037186Y-62581565D01*
X79044258Y-62648847D01*
X79056458Y-62764928D01*
X79115473Y-62946556D01*
X79210960Y-63111944D01*
X79215378Y-63116851D01*
X79215379Y-63116852D01*
X79305688Y-63217150D01*
X79338747Y-63253866D01*
X79493248Y-63366118D01*
X79499276Y-63368802D01*
X79499278Y-63368803D01*
X79659799Y-63440271D01*
X79667712Y-63443794D01*
X79751125Y-63461524D01*
X79848056Y-63482128D01*
X79848061Y-63482128D01*
X79854513Y-63483500D01*
X80045487Y-63483500D01*
X80051939Y-63482128D01*
X80051944Y-63482128D01*
X80148875Y-63461524D01*
X80232288Y-63443794D01*
X80240201Y-63440271D01*
X80400722Y-63368803D01*
X80400724Y-63368802D01*
X80406752Y-63366118D01*
X80561253Y-63253866D01*
X80594312Y-63217150D01*
X80609754Y-63200000D01*
X90086496Y-63200000D01*
X90087186Y-63206565D01*
X90105068Y-63376699D01*
X90106458Y-63389928D01*
X90165473Y-63571556D01*
X90168776Y-63577278D01*
X90168777Y-63577279D01*
X90193693Y-63620434D01*
X90260960Y-63736944D01*
X90265378Y-63741851D01*
X90265379Y-63741852D01*
X90301137Y-63781565D01*
X90388747Y-63878866D01*
X90457423Y-63928762D01*
X90520852Y-63974846D01*
X90543248Y-63991118D01*
X90549276Y-63993802D01*
X90549278Y-63993803D01*
X90711681Y-64066109D01*
X90717712Y-64068794D01*
X90811113Y-64088647D01*
X90898056Y-64107128D01*
X90898061Y-64107128D01*
X90904513Y-64108500D01*
X91095487Y-64108500D01*
X91101939Y-64107128D01*
X91101944Y-64107128D01*
X91188887Y-64088647D01*
X91282288Y-64068794D01*
X91288319Y-64066109D01*
X91450722Y-63993803D01*
X91450724Y-63993802D01*
X91456752Y-63991118D01*
X91479149Y-63974846D01*
X91542577Y-63928762D01*
X91611253Y-63878866D01*
X91698863Y-63781565D01*
X91734621Y-63741852D01*
X91734622Y-63741851D01*
X91739040Y-63736944D01*
X91806307Y-63620434D01*
X91831223Y-63577279D01*
X91831224Y-63577278D01*
X91834527Y-63571556D01*
X91893542Y-63389928D01*
X91894933Y-63376699D01*
X91905411Y-63277000D01*
X92690502Y-63277000D01*
X92710457Y-63505087D01*
X92711881Y-63510400D01*
X92711881Y-63510402D01*
X92759785Y-63689179D01*
X92769716Y-63726243D01*
X92772039Y-63731224D01*
X92772039Y-63731225D01*
X92864151Y-63928762D01*
X92864154Y-63928767D01*
X92866477Y-63933749D01*
X92914439Y-64002245D01*
X92987879Y-64107128D01*
X92997802Y-64121300D01*
X93159700Y-64283198D01*
X93164208Y-64286355D01*
X93164211Y-64286357D01*
X93178174Y-64296134D01*
X93347251Y-64414523D01*
X93352233Y-64416846D01*
X93352238Y-64416849D01*
X93540925Y-64504834D01*
X93554757Y-64511284D01*
X93560065Y-64512706D01*
X93560067Y-64512707D01*
X93770598Y-64569119D01*
X93770600Y-64569119D01*
X93775913Y-64570543D01*
X94004000Y-64590498D01*
X94232087Y-64570543D01*
X94237400Y-64569119D01*
X94237402Y-64569119D01*
X94447933Y-64512707D01*
X94447935Y-64512706D01*
X94453243Y-64511284D01*
X94467075Y-64504834D01*
X94655762Y-64416849D01*
X94655767Y-64416846D01*
X94660749Y-64414523D01*
X94829826Y-64296134D01*
X94843789Y-64286357D01*
X94843792Y-64286355D01*
X94848300Y-64283198D01*
X95010198Y-64121300D01*
X95020122Y-64107128D01*
X95093561Y-64002245D01*
X95141523Y-63933749D01*
X95143846Y-63928767D01*
X95143849Y-63928762D01*
X95235961Y-63731225D01*
X95235961Y-63731224D01*
X95238284Y-63726243D01*
X95248216Y-63689179D01*
X95296119Y-63510402D01*
X95296119Y-63510400D01*
X95297543Y-63505087D01*
X95309099Y-63373000D01*
X98349696Y-63373000D01*
X98350386Y-63379565D01*
X98368706Y-63553866D01*
X98369658Y-63562928D01*
X98428673Y-63744556D01*
X98431976Y-63750278D01*
X98431977Y-63750279D01*
X98446250Y-63775000D01*
X98524160Y-63909944D01*
X98528578Y-63914851D01*
X98528579Y-63914852D01*
X98603067Y-63997579D01*
X98651947Y-64051866D01*
X98744409Y-64119044D01*
X98795546Y-64156197D01*
X98806448Y-64164118D01*
X98812476Y-64166802D01*
X98812478Y-64166803D01*
X98974881Y-64239109D01*
X98980912Y-64241794D01*
X99048715Y-64256206D01*
X99161256Y-64280128D01*
X99161261Y-64280128D01*
X99167713Y-64281500D01*
X99358687Y-64281500D01*
X99365139Y-64280128D01*
X99365144Y-64280128D01*
X99477685Y-64256206D01*
X99545488Y-64241794D01*
X99551519Y-64239109D01*
X99713922Y-64166803D01*
X99713924Y-64166802D01*
X99719952Y-64164118D01*
X99730855Y-64156197D01*
X99781991Y-64119044D01*
X99874453Y-64051866D01*
X99923333Y-63997579D01*
X99997821Y-63914852D01*
X99997822Y-63914851D01*
X100002240Y-63909944D01*
X100080150Y-63775000D01*
X100094423Y-63750279D01*
X100094424Y-63750278D01*
X100097727Y-63744556D01*
X100156742Y-63562928D01*
X100157695Y-63553866D01*
X100176014Y-63379565D01*
X100176704Y-63373000D01*
X100163667Y-63248955D01*
X100157432Y-63189635D01*
X100157432Y-63189633D01*
X100156742Y-63183072D01*
X100097727Y-63001444D01*
X100075395Y-62962763D01*
X100035043Y-62892872D01*
X100002240Y-62836056D01*
X99874453Y-62694134D01*
X99772762Y-62620251D01*
X99725294Y-62585763D01*
X99725293Y-62585762D01*
X99719952Y-62581882D01*
X99713924Y-62579198D01*
X99713922Y-62579197D01*
X99551519Y-62506891D01*
X99551518Y-62506891D01*
X99545488Y-62504206D01*
X99443539Y-62482536D01*
X99365144Y-62465872D01*
X99365139Y-62465872D01*
X99358687Y-62464500D01*
X99167713Y-62464500D01*
X99161261Y-62465872D01*
X99161256Y-62465872D01*
X99082861Y-62482536D01*
X98980912Y-62504206D01*
X98974882Y-62506891D01*
X98974881Y-62506891D01*
X98812478Y-62579197D01*
X98812476Y-62579198D01*
X98806448Y-62581882D01*
X98801107Y-62585762D01*
X98801106Y-62585763D01*
X98753638Y-62620251D01*
X98651947Y-62694134D01*
X98524160Y-62836056D01*
X98491357Y-62892872D01*
X98451006Y-62962763D01*
X98428673Y-63001444D01*
X98369658Y-63183072D01*
X98368968Y-63189633D01*
X98368968Y-63189635D01*
X98362733Y-63248955D01*
X98349696Y-63373000D01*
X95309099Y-63373000D01*
X95317498Y-63277000D01*
X95297543Y-63048913D01*
X95266003Y-62931206D01*
X95239707Y-62833067D01*
X95239706Y-62833065D01*
X95238284Y-62827757D01*
X95233270Y-62817004D01*
X95143849Y-62625238D01*
X95143846Y-62625233D01*
X95141523Y-62620251D01*
X95059734Y-62503444D01*
X95013357Y-62437211D01*
X95013355Y-62437208D01*
X95010198Y-62432700D01*
X94848300Y-62270802D01*
X94843792Y-62267645D01*
X94843789Y-62267643D01*
X94732129Y-62189458D01*
X94660749Y-62139477D01*
X94655767Y-62137154D01*
X94655762Y-62137151D01*
X94458225Y-62045039D01*
X94458224Y-62045039D01*
X94453243Y-62042716D01*
X94447935Y-62041294D01*
X94447933Y-62041293D01*
X94237402Y-61984881D01*
X94237400Y-61984881D01*
X94232087Y-61983457D01*
X94004000Y-61963502D01*
X93775913Y-61983457D01*
X93770600Y-61984881D01*
X93770598Y-61984881D01*
X93560067Y-62041293D01*
X93560065Y-62041294D01*
X93554757Y-62042716D01*
X93549776Y-62045039D01*
X93549775Y-62045039D01*
X93352238Y-62137151D01*
X93352233Y-62137154D01*
X93347251Y-62139477D01*
X93275871Y-62189458D01*
X93164211Y-62267643D01*
X93164208Y-62267645D01*
X93159700Y-62270802D01*
X92997802Y-62432700D01*
X92994645Y-62437208D01*
X92994643Y-62437211D01*
X92948266Y-62503444D01*
X92866477Y-62620251D01*
X92864154Y-62625233D01*
X92864151Y-62625238D01*
X92774730Y-62817004D01*
X92769716Y-62827757D01*
X92768294Y-62833065D01*
X92768293Y-62833067D01*
X92741997Y-62931206D01*
X92710457Y-63048913D01*
X92690502Y-63277000D01*
X91905411Y-63277000D01*
X91912814Y-63206565D01*
X91913504Y-63200000D01*
X91902179Y-63092251D01*
X91894232Y-63016635D01*
X91894232Y-63016633D01*
X91893542Y-63010072D01*
X91834527Y-62828444D01*
X91825608Y-62812995D01*
X91748126Y-62678794D01*
X91739040Y-62663056D01*
X91715116Y-62636485D01*
X91615675Y-62526045D01*
X91615674Y-62526044D01*
X91611253Y-62521134D01*
X91456752Y-62408882D01*
X91450724Y-62406198D01*
X91450722Y-62406197D01*
X91288319Y-62333891D01*
X91288318Y-62333891D01*
X91282288Y-62331206D01*
X91188887Y-62311353D01*
X91101944Y-62292872D01*
X91101939Y-62292872D01*
X91095487Y-62291500D01*
X90904513Y-62291500D01*
X90898061Y-62292872D01*
X90898056Y-62292872D01*
X90811113Y-62311353D01*
X90717712Y-62331206D01*
X90711682Y-62333891D01*
X90711681Y-62333891D01*
X90549278Y-62406197D01*
X90549276Y-62406198D01*
X90543248Y-62408882D01*
X90388747Y-62521134D01*
X90384326Y-62526044D01*
X90384325Y-62526045D01*
X90284885Y-62636485D01*
X90260960Y-62663056D01*
X90251874Y-62678794D01*
X90174393Y-62812995D01*
X90165473Y-62828444D01*
X90106458Y-63010072D01*
X90105768Y-63016633D01*
X90105768Y-63016635D01*
X90097821Y-63092251D01*
X90086496Y-63200000D01*
X80609754Y-63200000D01*
X80684621Y-63116852D01*
X80684622Y-63116851D01*
X80689040Y-63111944D01*
X80784527Y-62946556D01*
X80843542Y-62764928D01*
X80855743Y-62648847D01*
X80862814Y-62581565D01*
X80863504Y-62575000D01*
X80848138Y-62428803D01*
X80844232Y-62391635D01*
X80844232Y-62391633D01*
X80843542Y-62385072D01*
X80784527Y-62203444D01*
X80764669Y-62169048D01*
X80715498Y-62083882D01*
X80689040Y-62038056D01*
X80660686Y-62006565D01*
X80565675Y-61901045D01*
X80565674Y-61901044D01*
X80561253Y-61896134D01*
X80462157Y-61824136D01*
X80412094Y-61787763D01*
X80412093Y-61787762D01*
X80406752Y-61783882D01*
X80400724Y-61781198D01*
X80400722Y-61781197D01*
X80238319Y-61708891D01*
X80238318Y-61708891D01*
X80232288Y-61706206D01*
X80138888Y-61686353D01*
X80051944Y-61667872D01*
X80051939Y-61667872D01*
X80045487Y-61666500D01*
X79854513Y-61666500D01*
X79848061Y-61667872D01*
X79848056Y-61667872D01*
X79761112Y-61686353D01*
X79667712Y-61706206D01*
X79661682Y-61708891D01*
X79661681Y-61708891D01*
X79499278Y-61781197D01*
X79499276Y-61781198D01*
X79493248Y-61783882D01*
X79487907Y-61787762D01*
X79487906Y-61787763D01*
X79437843Y-61824136D01*
X79338747Y-61896134D01*
X79334326Y-61901044D01*
X79334325Y-61901045D01*
X79239315Y-62006565D01*
X79210960Y-62038056D01*
X79184502Y-62083882D01*
X79135332Y-62169048D01*
X79115473Y-62203444D01*
X79056458Y-62385072D01*
X79055768Y-62391633D01*
X79055768Y-62391635D01*
X79051862Y-62428803D01*
X79036496Y-62575000D01*
X72258500Y-62575000D01*
X72258500Y-60634500D01*
X72278502Y-60566379D01*
X72332158Y-60519886D01*
X72384500Y-60508500D01*
X134615500Y-60508500D01*
X134683621Y-60528502D01*
G37*
%TD.AperFunction*%
%TD*%
M02*
