%TF.GenerationSoftware,KiCad,Pcbnew,8.0.6*%
%TF.CreationDate,2024-11-25T21:01:29+01:00*%
%TF.ProjectId,nard_sam,6e617264-5f73-4616-9d2e-6b696361645f,rev?*%
%TF.SameCoordinates,Original*%
%TF.FileFunction,Copper,L4,Bot*%
%TF.FilePolarity,Positive*%
%FSLAX46Y46*%
G04 Gerber Fmt 4.6, Leading zero omitted, Abs format (unit mm)*
G04 Created by KiCad (PCBNEW 8.0.6) date 2024-11-25 21:01:29*
%MOMM*%
%LPD*%
G01*
G04 APERTURE LIST*
G04 Aperture macros list*
%AMRoundRect*
0 Rectangle with rounded corners*
0 $1 Rounding radius*
0 $2 $3 $4 $5 $6 $7 $8 $9 X,Y pos of 4 corners*
0 Add a 4 corners polygon primitive as box body*
4,1,4,$2,$3,$4,$5,$6,$7,$8,$9,$2,$3,0*
0 Add four circle primitives for the rounded corners*
1,1,$1+$1,$2,$3*
1,1,$1+$1,$4,$5*
1,1,$1+$1,$6,$7*
1,1,$1+$1,$8,$9*
0 Add four rect primitives between the rounded corners*
20,1,$1+$1,$2,$3,$4,$5,0*
20,1,$1+$1,$4,$5,$6,$7,0*
20,1,$1+$1,$6,$7,$8,$9,0*
20,1,$1+$1,$8,$9,$2,$3,0*%
G04 Aperture macros list end*
%TA.AperFunction,SMDPad,CuDef*%
%ADD10C,1.000000*%
%TD*%
%TA.AperFunction,SMDPad,CuDef*%
%ADD11R,1.000000X2.510000*%
%TD*%
%TA.AperFunction,SMDPad,CuDef*%
%ADD12RoundRect,0.325000X0.325000X0.525000X-0.325000X0.525000X-0.325000X-0.525000X0.325000X-0.525000X0*%
%TD*%
%TA.AperFunction,SMDPad,CuDef*%
%ADD13RoundRect,0.300000X-0.300000X-0.700000X0.300000X-0.700000X0.300000X0.700000X-0.300000X0.700000X0*%
%TD*%
%TA.AperFunction,ViaPad*%
%ADD14C,0.800000*%
%TD*%
%TA.AperFunction,Conductor*%
%ADD15C,0.250000*%
%TD*%
%TA.AperFunction,Conductor*%
%ADD16C,1.000000*%
%TD*%
G04 APERTURE END LIST*
D10*
%TO.P,TP1,1,1*%
%TO.N,/~{RESET}*%
X105800000Y-78700000D03*
%TD*%
D11*
%TO.P,J3,1,Pin_1*%
%TO.N,+5V*%
X74110000Y-70345000D03*
%TO.P,J3,2,Pin_2*%
%TO.N,/PA7*%
X76650000Y-73655000D03*
%TO.P,J3,3,Pin_3*%
%TO.N,/PA6*%
X79190000Y-70345000D03*
%TO.P,J3,4,Pin_4*%
%TO.N,/PA4*%
X81730000Y-73655000D03*
%TO.P,J3,5,Pin_5*%
%TO.N,/PB3*%
X84270000Y-70345000D03*
%TO.P,J3,6,Pin_6*%
%TO.N,/PB2*%
X86810000Y-73655000D03*
%TO.P,J3,7,Pin_7*%
%TO.N,/PC3*%
X89350000Y-70345000D03*
%TO.P,J3,8,Pin_8*%
%TO.N,GND*%
X91890000Y-73655000D03*
%TD*%
D12*
%TO.P,J5,1,Pin_1*%
%TO.N,+5V*%
X97800000Y-78700000D03*
%TO.P,J5,2,Pin_2*%
%TO.N,/USB_DM*%
X99800000Y-78700000D03*
%TO.P,J5,3,Pin_3*%
%TO.N,/USB_DP*%
X101800000Y-78700000D03*
%TO.P,J5,4,Pin_4*%
%TO.N,GND*%
X103800000Y-78700000D03*
%TD*%
D11*
%TO.P,J4,1,Pin_1*%
%TO.N,+3.3V*%
X109670000Y-70345000D03*
%TO.P,J4,2,Pin_2*%
%TO.N,/SWCLK*%
X112210000Y-73655000D03*
%TO.P,J4,3,Pin_3*%
%TO.N,GND*%
X114750000Y-70345000D03*
%TO.P,J4,4,Pin_4*%
%TO.N,/SWDIO*%
X117290000Y-73655000D03*
%TO.P,J4,5,Pin_5*%
%TO.N,/UART_TX*%
X119830000Y-70345000D03*
%TO.P,J4,6,Pin_6*%
%TO.N,/UART_RX*%
X122370000Y-73655000D03*
%TO.P,J4,7,Pin_7*%
%TO.N,/PC1*%
X124910000Y-70345000D03*
%TO.P,J4,8,Pin_8*%
%TO.N,/PC0*%
X127450000Y-73655000D03*
%TO.P,J4,9,Pin_9*%
%TO.N,/PB14*%
X129990000Y-70345000D03*
%TO.P,J4,10,Pin_10*%
%TO.N,GND*%
X132530000Y-73655000D03*
%TD*%
D13*
%TO.P,J6,1,Pin_1*%
%TO.N,+5V*%
X74110000Y-67780000D03*
%TO.P,J6,2,Pin_2*%
%TO.N,/PA7*%
X76650000Y-67780000D03*
%TO.P,J6,3,Pin_3*%
%TO.N,/PA6*%
X79190000Y-67780000D03*
%TO.P,J6,4,Pin_4*%
%TO.N,/PA4*%
X81730000Y-67780000D03*
%TO.P,J6,5,Pin_5*%
%TO.N,/PB3*%
X84270000Y-67780000D03*
%TO.P,J6,6,Pin_6*%
%TO.N,/PB2*%
X86810000Y-67780000D03*
%TO.P,J6,7,Pin_7*%
%TO.N,/PC3*%
X89350000Y-67780000D03*
%TO.P,J6,8,Pin_8*%
%TO.N,GND*%
X91890000Y-67780000D03*
%TD*%
%TO.P,J7,1,Pin_1*%
%TO.N,+3.3V*%
X109670000Y-67780000D03*
%TO.P,J7,2,Pin_2*%
%TO.N,/SWCLK*%
X112210000Y-67780000D03*
%TO.P,J7,3,Pin_3*%
%TO.N,GND*%
X114750000Y-67780000D03*
%TO.P,J7,4,Pin_4*%
%TO.N,/SWDIO*%
X117290000Y-67780000D03*
%TO.P,J7,5,Pin_5*%
%TO.N,/UART_TX*%
X119830000Y-67780000D03*
%TO.P,J7,6,Pin_6*%
%TO.N,/UART_RX*%
X122370000Y-67780000D03*
%TO.P,J7,7,Pin_7*%
%TO.N,/PC1*%
X124910000Y-67780000D03*
%TO.P,J7,8,Pin_8*%
%TO.N,/PC0*%
X127450000Y-67780000D03*
%TO.P,J7,9,Pin_9*%
%TO.N,/PB14*%
X129990000Y-67780000D03*
%TO.P,J7,10,Pin_10*%
%TO.N,GND*%
X132530000Y-67780000D03*
%TD*%
D14*
%TO.N,+5V*%
X74110000Y-74327600D03*
X110675000Y-72550000D03*
X104952800Y-62763400D03*
%TO.N,GND*%
X132525000Y-65200000D03*
X101800000Y-63750000D03*
X103900000Y-69011800D03*
X84350000Y-74900000D03*
X130050000Y-74000000D03*
X91050000Y-77050000D03*
X78625000Y-75275000D03*
X129300000Y-63800000D03*
X91000000Y-63200000D03*
X126625000Y-77400000D03*
X107000000Y-62000000D03*
X115475000Y-77325000D03*
X103925000Y-70625000D03*
X115575000Y-63075000D03*
X99263200Y-63373000D03*
X106100000Y-76100000D03*
X112350000Y-62875000D03*
X74075000Y-65150000D03*
X105181400Y-64490600D03*
X102300000Y-69025000D03*
X73975000Y-78350000D03*
X120050000Y-73325000D03*
X84375000Y-64950000D03*
X79950000Y-62575000D03*
X109100000Y-72775000D03*
X78025000Y-65350000D03*
X123750000Y-65125000D03*
X102300000Y-70625000D03*
X119625000Y-65375000D03*
%TO.N,/PC0*%
X107075000Y-76850000D03*
%TO.N,/PC1*%
X108650000Y-76600000D03*
%TO.N,/USB_DM*%
X102768400Y-73456800D03*
%TO.N,/USB_DP*%
X103987600Y-73406000D03*
%TO.N,/~{RESET}*%
X107924600Y-71729600D03*
%TO.N,/SC1_VCC*%
X101168200Y-65252600D03*
X98425000Y-69900000D03*
%TO.N,/SC2_VCC*%
X105994200Y-65630800D03*
X107010200Y-73250800D03*
%TO.N,/SC1_CLK*%
X96050000Y-67625000D03*
X96050000Y-69375000D03*
%TO.N,/SC1_C4*%
X97850000Y-72100000D03*
X101912250Y-66187250D03*
%TO.N,/SC1_IO*%
X100100000Y-66200000D03*
X95200000Y-74750000D03*
%TO.N,/SC1_C8*%
X102225000Y-64975000D03*
X96375000Y-74775000D03*
%TO.N,/SC2_IO*%
X108150000Y-68125000D03*
X110950000Y-69975000D03*
%TO.N,/SC2_PRsNT*%
X106857800Y-70507600D03*
X106850000Y-63775000D03*
%TD*%
D15*
%TO.N,+5V*%
X74110000Y-74327600D02*
X74110000Y-70345000D01*
X97800000Y-78700000D02*
X78500000Y-78700000D01*
X78500000Y-78700000D02*
X74127600Y-74327600D01*
X74127600Y-74327600D02*
X74110000Y-74327600D01*
D16*
X74110000Y-70345000D02*
X74110000Y-67780000D01*
%TO.N,/PA7*%
X76650000Y-73655000D02*
X76650000Y-67780000D01*
%TO.N,/PA6*%
X79190000Y-67780000D02*
X79190000Y-70345000D01*
%TO.N,/PA4*%
X81730000Y-67780000D02*
X81730000Y-73655000D01*
%TO.N,/PB3*%
X84270000Y-70345000D02*
X84270000Y-67780000D01*
%TO.N,/PB2*%
X86810000Y-67780000D02*
X86810000Y-73655000D01*
%TO.N,/PC3*%
X89350000Y-67780000D02*
X89350000Y-70345000D01*
%TO.N,GND*%
X91890000Y-73655000D02*
X91890000Y-67780000D01*
X132530000Y-73655000D02*
X132530000Y-67780000D01*
X114750000Y-67780000D02*
X114750000Y-70345000D01*
%TO.N,/PB14*%
X129990000Y-70345000D02*
X129990000Y-67780000D01*
D15*
%TO.N,/PC0*%
X110700000Y-75750000D02*
X125355000Y-75750000D01*
D16*
X127450000Y-67780000D02*
X127450000Y-73655000D01*
D15*
X125355000Y-75750000D02*
X127450000Y-73655000D01*
X107075000Y-76850000D02*
X107550000Y-77325000D01*
X109125000Y-77325000D02*
X110700000Y-75750000D01*
X107550000Y-77325000D02*
X109125000Y-77325000D01*
%TO.N,/PC1*%
X108650000Y-76600000D02*
X110000000Y-75250000D01*
X124910000Y-74465000D02*
X124910000Y-70345000D01*
X110000000Y-75250000D02*
X124125000Y-75250000D01*
X124125000Y-75250000D02*
X124910000Y-74465000D01*
D16*
X124910000Y-70345000D02*
X124910000Y-67780000D01*
%TO.N,/UART_RX*%
X122370000Y-67780000D02*
X122370000Y-73655000D01*
%TO.N,/UART_TX*%
X119830000Y-70345000D02*
X119830000Y-67780000D01*
%TO.N,/SWDIO*%
X117290000Y-67780000D02*
X117290000Y-73655000D01*
%TO.N,/SWCLK*%
X112210000Y-67780000D02*
X112210000Y-73655000D01*
%TO.N,+3.3V*%
X109670000Y-70345000D02*
X109670000Y-67780000D01*
D15*
%TO.N,/USB_DM*%
X102768400Y-73456800D02*
X99800000Y-76425200D01*
X99800000Y-76425200D02*
X99800000Y-78700000D01*
%TO.N,/USB_DP*%
X101800000Y-75593600D02*
X101800000Y-78700000D01*
X103987600Y-73406000D02*
X101800000Y-75593600D01*
%TO.N,/~{RESET}*%
X105375000Y-78275000D02*
X105800000Y-78700000D01*
X105375000Y-74825000D02*
X105375000Y-78275000D01*
X105975000Y-74225000D02*
X105375000Y-74825000D01*
X107924600Y-73550400D02*
X107250000Y-74225000D01*
X107250000Y-74225000D02*
X105975000Y-74225000D01*
X107924600Y-71729600D02*
X107924600Y-73550400D01*
%TO.N,/SC1_VCC*%
X99297400Y-65252600D02*
X101168200Y-65252600D01*
X98425000Y-69900000D02*
X98425000Y-66125000D01*
X98425000Y-66125000D02*
X99297400Y-65252600D01*
%TO.N,/SC2_VCC*%
X106557495Y-71232600D02*
X107010200Y-71685305D01*
X107010200Y-71685305D02*
X107010200Y-73250800D01*
X105994200Y-70669305D02*
X106557495Y-71232600D01*
X105994200Y-65630800D02*
X105994200Y-70669305D01*
%TO.N,/SC1_CLK*%
X96050000Y-69375000D02*
X96050000Y-67625000D01*
%TO.N,/SC1_C4*%
X99950000Y-68149500D02*
X99950000Y-70075000D01*
X101912250Y-66187250D02*
X99950000Y-68149500D01*
X99950000Y-70075000D02*
X97925000Y-72100000D01*
X97925000Y-72100000D02*
X97850000Y-72100000D01*
%TO.N,/SC1_IO*%
X97925000Y-70875000D02*
X96775000Y-72025000D01*
X99500000Y-66800000D02*
X99500000Y-69850305D01*
X96775000Y-73175000D02*
X95200000Y-74750000D01*
X98475305Y-70875000D02*
X97925000Y-70875000D01*
X99500000Y-69850305D02*
X98475305Y-70875000D01*
X100100000Y-66200000D02*
X99500000Y-66800000D01*
X96775000Y-72025000D02*
X96775000Y-73175000D01*
%TO.N,/SC1_C8*%
X100400000Y-70750000D02*
X96375000Y-74775000D01*
X100400000Y-69100000D02*
X100400000Y-70750000D01*
X102225000Y-64975000D02*
X102800000Y-65550000D01*
X102800000Y-65550000D02*
X102800000Y-66700000D01*
X102800000Y-66700000D02*
X100400000Y-69100000D01*
%TO.N,/SC2_IO*%
X110175000Y-65925000D02*
X110950000Y-66700000D01*
X110950000Y-66700000D02*
X110950000Y-69975000D01*
X108150000Y-68125000D02*
X108150000Y-66750000D01*
X108150000Y-66750000D02*
X108975000Y-65925000D01*
X108975000Y-65925000D02*
X110175000Y-65925000D01*
%TO.N,/SC2_PRsNT*%
X106857800Y-63776600D02*
X106851600Y-63776600D01*
X106857800Y-70507600D02*
X106857800Y-63776600D01*
X106851600Y-63776600D02*
X106850000Y-63775000D01*
%TD*%
%TA.AperFunction,Conductor*%
%TO.N,GND*%
G36*
X108914776Y-72049284D02*
G01*
X108915353Y-72047740D01*
X109060795Y-72101988D01*
X109060803Y-72101990D01*
X109121350Y-72108499D01*
X109121355Y-72108499D01*
X109121362Y-72108500D01*
X109689775Y-72108500D01*
X109757896Y-72128502D01*
X109804389Y-72182158D01*
X109814493Y-72252432D01*
X109809608Y-72273437D01*
X109781457Y-72360072D01*
X109761496Y-72550000D01*
X109781457Y-72739927D01*
X109786807Y-72756391D01*
X109840473Y-72921556D01*
X109840476Y-72921561D01*
X109935958Y-73086941D01*
X109935965Y-73086951D01*
X110063744Y-73228864D01*
X110063747Y-73228866D01*
X110218248Y-73341118D01*
X110392712Y-73418794D01*
X110579513Y-73458500D01*
X110770487Y-73458500D01*
X110957288Y-73418794D01*
X111024251Y-73388979D01*
X111094618Y-73379546D01*
X111158915Y-73409652D01*
X111196729Y-73469741D01*
X111201500Y-73504087D01*
X111201500Y-74490500D01*
X111181498Y-74558621D01*
X111127842Y-74605114D01*
X111075500Y-74616500D01*
X109937603Y-74616500D01*
X109864568Y-74631028D01*
X109815215Y-74640845D01*
X109815213Y-74640845D01*
X109815212Y-74640846D01*
X109699923Y-74688601D01*
X109596171Y-74757926D01*
X109596164Y-74757931D01*
X108699501Y-75654595D01*
X108637189Y-75688621D01*
X108610406Y-75691500D01*
X108554513Y-75691500D01*
X108367711Y-75731206D01*
X108193247Y-75808882D01*
X108038744Y-75921135D01*
X107910965Y-76063048D01*
X107910958Y-76063058D01*
X107870564Y-76133022D01*
X107819181Y-76182014D01*
X107749467Y-76195449D01*
X107687385Y-76171956D01*
X107531752Y-76058882D01*
X107357288Y-75981206D01*
X107170487Y-75941500D01*
X106979513Y-75941500D01*
X106792711Y-75981206D01*
X106618247Y-76058882D01*
X106463744Y-76171135D01*
X106335965Y-76313048D01*
X106335958Y-76313058D01*
X106243619Y-76472994D01*
X106192236Y-76521987D01*
X106122522Y-76535423D01*
X106056612Y-76509036D01*
X106015430Y-76451204D01*
X106008500Y-76409994D01*
X106008500Y-75139594D01*
X106028502Y-75071473D01*
X106045405Y-75050499D01*
X106200499Y-74895405D01*
X106262811Y-74861379D01*
X106289594Y-74858500D01*
X107312393Y-74858500D01*
X107312394Y-74858500D01*
X107434785Y-74834155D01*
X107550075Y-74786400D01*
X107653833Y-74717071D01*
X108416671Y-73954233D01*
X108486000Y-73850475D01*
X108501854Y-73812200D01*
X108533755Y-73735185D01*
X108558100Y-73612794D01*
X108558100Y-72432124D01*
X108578102Y-72364003D01*
X108590458Y-72347820D01*
X108663640Y-72266544D01*
X108759127Y-72101156D01*
X108759127Y-72101154D01*
X108759144Y-72101126D01*
X108810526Y-72052133D01*
X108880240Y-72038697D01*
X108914776Y-72049284D01*
G37*
%TD.AperFunction*%
%TA.AperFunction,Conductor*%
G36*
X135192121Y-60020002D02*
G01*
X135238614Y-60073658D01*
X135250000Y-60126000D01*
X135250000Y-80874000D01*
X135229998Y-80942121D01*
X135176342Y-80988614D01*
X135124000Y-81000000D01*
X71876000Y-81000000D01*
X71807879Y-80979998D01*
X71761386Y-80926342D01*
X71750000Y-80874000D01*
X71750000Y-67034594D01*
X73001500Y-67034594D01*
X73001500Y-68525406D01*
X73016783Y-68661047D01*
X73035791Y-68715370D01*
X73076956Y-68833014D01*
X73076957Y-68833015D01*
X73082185Y-68841335D01*
X73101500Y-68908374D01*
X73101500Y-71648649D01*
X73108009Y-71709196D01*
X73108011Y-71709204D01*
X73159110Y-71846202D01*
X73159112Y-71846207D01*
X73246738Y-71963261D01*
X73363796Y-72050889D01*
X73394531Y-72062353D01*
X73451368Y-72104899D01*
X73476179Y-72171419D01*
X73476500Y-72180409D01*
X73476500Y-73625074D01*
X73456498Y-73693195D01*
X73444137Y-73709384D01*
X73370957Y-73790659D01*
X73275476Y-73956038D01*
X73275473Y-73956045D01*
X73216457Y-74137672D01*
X73196496Y-74327600D01*
X73216457Y-74517527D01*
X73224683Y-74542842D01*
X73275473Y-74699156D01*
X73275476Y-74699161D01*
X73370958Y-74864541D01*
X73370965Y-74864551D01*
X73498744Y-75006464D01*
X73516268Y-75019196D01*
X73653248Y-75118718D01*
X73827712Y-75196394D01*
X74014513Y-75236100D01*
X74088006Y-75236100D01*
X74156127Y-75256102D01*
X74177101Y-75273005D01*
X78096167Y-79192071D01*
X78199925Y-79261400D01*
X78315215Y-79309155D01*
X78437606Y-79333500D01*
X78562393Y-79333500D01*
X96544592Y-79333500D01*
X96612713Y-79353502D01*
X96659206Y-79407158D01*
X96666865Y-79429086D01*
X96688014Y-79514124D01*
X96768567Y-79676543D01*
X96882151Y-79817849D01*
X97023457Y-79931433D01*
X97185876Y-80011986D01*
X97361814Y-80055740D01*
X97402517Y-80058500D01*
X98197482Y-80058499D01*
X98197489Y-80058499D01*
X98197493Y-80058498D01*
X98238186Y-80055740D01*
X98414124Y-80011986D01*
X98576543Y-79931433D01*
X98717849Y-79817849D01*
X98717851Y-79817846D01*
X98721060Y-79815267D01*
X98786686Y-79788179D01*
X98856539Y-79800871D01*
X98878940Y-79815267D01*
X98882148Y-79817846D01*
X98882151Y-79817849D01*
X99023457Y-79931433D01*
X99185876Y-80011986D01*
X99361814Y-80055740D01*
X99402517Y-80058500D01*
X100197482Y-80058499D01*
X100197489Y-80058499D01*
X100197493Y-80058498D01*
X100238186Y-80055740D01*
X100414124Y-80011986D01*
X100576543Y-79931433D01*
X100717849Y-79817849D01*
X100717851Y-79817846D01*
X100721060Y-79815267D01*
X100786686Y-79788179D01*
X100856539Y-79800871D01*
X100878940Y-79815267D01*
X100882148Y-79817846D01*
X100882151Y-79817849D01*
X101023457Y-79931433D01*
X101185876Y-80011986D01*
X101361814Y-80055740D01*
X101402517Y-80058500D01*
X102197482Y-80058499D01*
X102197489Y-80058499D01*
X102197493Y-80058498D01*
X102238186Y-80055740D01*
X102414124Y-80011986D01*
X102576543Y-79931433D01*
X102717849Y-79817849D01*
X102717849Y-79817848D01*
X102721459Y-79814947D01*
X102787085Y-79787858D01*
X102856938Y-79800550D01*
X102879340Y-79814947D01*
X103023728Y-79931011D01*
X103186049Y-80011513D01*
X103361880Y-80055240D01*
X103361887Y-80055241D01*
X103402557Y-80057999D01*
X103546000Y-80057999D01*
X103546000Y-77342000D01*
X104054000Y-77342000D01*
X104054000Y-80057999D01*
X104197440Y-80057999D01*
X104197443Y-80057998D01*
X104238115Y-80055241D01*
X104413951Y-80011513D01*
X104576271Y-79931011D01*
X104717492Y-79817492D01*
X104831011Y-79676271D01*
X104911513Y-79513951D01*
X104912655Y-79509361D01*
X104948503Y-79448079D01*
X105011792Y-79415907D01*
X105082427Y-79423058D01*
X105114864Y-79442364D01*
X105236996Y-79542595D01*
X105412196Y-79636241D01*
X105602299Y-79693908D01*
X105602303Y-79693908D01*
X105602305Y-79693909D01*
X105799997Y-79713380D01*
X105800000Y-79713380D01*
X105800003Y-79713380D01*
X105997694Y-79693909D01*
X105997695Y-79693908D01*
X105997701Y-79693908D01*
X106187804Y-79636241D01*
X106363004Y-79542595D01*
X106516568Y-79416568D01*
X106642595Y-79263004D01*
X106736241Y-79087804D01*
X106793908Y-78897701D01*
X106813380Y-78700000D01*
X106793908Y-78502299D01*
X106736241Y-78312196D01*
X106642595Y-78136996D01*
X106516568Y-77983432D01*
X106363004Y-77857405D01*
X106287548Y-77817073D01*
X106187807Y-77763760D01*
X106187792Y-77763754D01*
X106097924Y-77736493D01*
X106038543Y-77697578D01*
X106009627Y-77632737D01*
X106008500Y-77615919D01*
X106008500Y-77290005D01*
X106028502Y-77221884D01*
X106082158Y-77175391D01*
X106152432Y-77165287D01*
X106217012Y-77194781D01*
X106243619Y-77227005D01*
X106335958Y-77386941D01*
X106335965Y-77386951D01*
X106463744Y-77528864D01*
X106463747Y-77528866D01*
X106618248Y-77641118D01*
X106792712Y-77718794D01*
X106979513Y-77758500D01*
X107035406Y-77758500D01*
X107103527Y-77778502D01*
X107124501Y-77795405D01*
X107146167Y-77817071D01*
X107249925Y-77886400D01*
X107365215Y-77934155D01*
X107487606Y-77958500D01*
X107487607Y-77958500D01*
X109187393Y-77958500D01*
X109187394Y-77958500D01*
X109309785Y-77934155D01*
X109425075Y-77886400D01*
X109528833Y-77817071D01*
X110925499Y-76420405D01*
X110987811Y-76386379D01*
X111014594Y-76383500D01*
X111896027Y-76383500D01*
X111964148Y-76403502D01*
X112010641Y-76457158D01*
X112020745Y-76527432D01*
X112009549Y-76564169D01*
X111974506Y-76636936D01*
X111974503Y-76636943D01*
X111946341Y-76760330D01*
X111934515Y-76812145D01*
X111934515Y-76991855D01*
X111958167Y-77095483D01*
X111974503Y-77167056D01*
X111974506Y-77167063D01*
X112052476Y-77328969D01*
X112052477Y-77328970D01*
X112052478Y-77328972D01*
X112164525Y-77469475D01*
X112305028Y-77581522D01*
X112466941Y-77659496D01*
X112642145Y-77699485D01*
X112821853Y-77699485D01*
X112821855Y-77699485D01*
X112997059Y-77659496D01*
X113158972Y-77581522D01*
X113299475Y-77469475D01*
X113411522Y-77328972D01*
X113489496Y-77167059D01*
X113529485Y-76991855D01*
X113532000Y-76902000D01*
X113529485Y-76812145D01*
X113526238Y-76797921D01*
X113512971Y-76739794D01*
X113489496Y-76636941D01*
X113470694Y-76597900D01*
X113454451Y-76564169D01*
X113442916Y-76494116D01*
X113471085Y-76428947D01*
X113530016Y-76389353D01*
X113567973Y-76383500D01*
X125417393Y-76383500D01*
X125417394Y-76383500D01*
X125539785Y-76359155D01*
X125655075Y-76311400D01*
X125758833Y-76242071D01*
X126600084Y-75400818D01*
X126662395Y-75366795D01*
X126733206Y-75371858D01*
X126803848Y-75398206D01*
X126840798Y-75411989D01*
X126840803Y-75411990D01*
X126901350Y-75418499D01*
X126901355Y-75418499D01*
X126901362Y-75418500D01*
X126901368Y-75418500D01*
X127998632Y-75418500D01*
X127998638Y-75418500D01*
X127998645Y-75418499D01*
X127998649Y-75418499D01*
X128059196Y-75411990D01*
X128059199Y-75411989D01*
X128059201Y-75411989D01*
X128196204Y-75360889D01*
X128196799Y-75360444D01*
X128313261Y-75273261D01*
X128400887Y-75156207D01*
X128400887Y-75156206D01*
X128400889Y-75156204D01*
X128451989Y-75019201D01*
X128453359Y-75006464D01*
X128458499Y-74958647D01*
X128458500Y-74958632D01*
X128458500Y-74958597D01*
X131522000Y-74958597D01*
X131528505Y-75019093D01*
X131579555Y-75155964D01*
X131579555Y-75155965D01*
X131667095Y-75272904D01*
X131784034Y-75360444D01*
X131920906Y-75411494D01*
X131981402Y-75417999D01*
X131981415Y-75418000D01*
X132276000Y-75418000D01*
X132784000Y-75418000D01*
X133078585Y-75418000D01*
X133078597Y-75417999D01*
X133139093Y-75411494D01*
X133275964Y-75360444D01*
X133275965Y-75360444D01*
X133392904Y-75272904D01*
X133480444Y-75155965D01*
X133480444Y-75155964D01*
X133531494Y-75019093D01*
X133537999Y-74958597D01*
X133538000Y-74958585D01*
X133538000Y-73909000D01*
X132784000Y-73909000D01*
X132784000Y-75418000D01*
X132276000Y-75418000D01*
X132276000Y-73909000D01*
X131522000Y-73909000D01*
X131522000Y-74958597D01*
X128458500Y-74958597D01*
X128458500Y-72351402D01*
X131522000Y-72351402D01*
X131522000Y-73401000D01*
X132276000Y-73401000D01*
X132784000Y-73401000D01*
X133538000Y-73401000D01*
X133538000Y-72351414D01*
X133537999Y-72351402D01*
X133531494Y-72290906D01*
X133480444Y-72154035D01*
X133480444Y-72154034D01*
X133392904Y-72037095D01*
X133275965Y-71949555D01*
X133139093Y-71898505D01*
X133078597Y-71892000D01*
X132784000Y-71892000D01*
X132784000Y-73401000D01*
X132276000Y-73401000D01*
X132276000Y-71892000D01*
X131981402Y-71892000D01*
X131920906Y-71898505D01*
X131784035Y-71949555D01*
X131784034Y-71949555D01*
X131667095Y-72037095D01*
X131579555Y-72154034D01*
X131579555Y-72154035D01*
X131528505Y-72290906D01*
X131522000Y-72351402D01*
X128458500Y-72351402D01*
X128458500Y-68908374D01*
X128477815Y-68841335D01*
X128483043Y-68833015D01*
X128543217Y-68661047D01*
X128558500Y-68525406D01*
X128558500Y-67034594D01*
X128881500Y-67034594D01*
X128881500Y-68525406D01*
X128896783Y-68661047D01*
X128915791Y-68715370D01*
X128956956Y-68833014D01*
X128956957Y-68833015D01*
X128962185Y-68841335D01*
X128981500Y-68908374D01*
X128981500Y-71648649D01*
X128988009Y-71709196D01*
X128988011Y-71709204D01*
X129039110Y-71846202D01*
X129039112Y-71846207D01*
X129126738Y-71963261D01*
X129243792Y-72050887D01*
X129243794Y-72050888D01*
X129243796Y-72050889D01*
X129274532Y-72062353D01*
X129380795Y-72101988D01*
X129380803Y-72101990D01*
X129441350Y-72108499D01*
X129441355Y-72108499D01*
X129441362Y-72108500D01*
X129441368Y-72108500D01*
X130538632Y-72108500D01*
X130538638Y-72108500D01*
X130538645Y-72108499D01*
X130538649Y-72108499D01*
X130599196Y-72101990D01*
X130599199Y-72101989D01*
X130599201Y-72101989D01*
X130601435Y-72101156D01*
X130623502Y-72092925D01*
X130736204Y-72050889D01*
X130736799Y-72050444D01*
X130853261Y-71963261D01*
X130940887Y-71846207D01*
X130940887Y-71846206D01*
X130940889Y-71846204D01*
X130991989Y-71709201D01*
X130998500Y-71648638D01*
X130998500Y-69041362D01*
X130998500Y-68908374D01*
X131017815Y-68841335D01*
X131023043Y-68833015D01*
X131083217Y-68661047D01*
X131098500Y-68525406D01*
X131098500Y-68525381D01*
X131422000Y-68525381D01*
X131437272Y-68660929D01*
X131437273Y-68660937D01*
X131497412Y-68832799D01*
X131594282Y-68986967D01*
X131594284Y-68986970D01*
X131723029Y-69115715D01*
X131723032Y-69115717D01*
X131877200Y-69212587D01*
X131877199Y-69212587D01*
X132049062Y-69272726D01*
X132049070Y-69272727D01*
X132184618Y-69288000D01*
X132276000Y-69288000D01*
X132784000Y-69288000D01*
X132875382Y-69288000D01*
X133010929Y-69272727D01*
X133010937Y-69272726D01*
X133182799Y-69212587D01*
X133336967Y-69115717D01*
X133336970Y-69115715D01*
X133465715Y-68986970D01*
X133465717Y-68986967D01*
X133562587Y-68832799D01*
X133622726Y-68660937D01*
X133622727Y-68660929D01*
X133638000Y-68525381D01*
X133638000Y-68034000D01*
X132784000Y-68034000D01*
X132784000Y-69288000D01*
X132276000Y-69288000D01*
X132276000Y-68034000D01*
X131422000Y-68034000D01*
X131422000Y-68525381D01*
X131098500Y-68525381D01*
X131098500Y-67034618D01*
X131422000Y-67034618D01*
X131422000Y-67526000D01*
X132276000Y-67526000D01*
X132784000Y-67526000D01*
X133638000Y-67526000D01*
X133638000Y-67034618D01*
X133622727Y-66899070D01*
X133622726Y-66899062D01*
X133562587Y-66727200D01*
X133465717Y-66573032D01*
X133465715Y-66573029D01*
X133336970Y-66444284D01*
X133336967Y-66444282D01*
X133182799Y-66347412D01*
X133182800Y-66347412D01*
X133010937Y-66287273D01*
X133010929Y-66287272D01*
X132875382Y-66272000D01*
X132784000Y-66272000D01*
X132784000Y-67526000D01*
X132276000Y-67526000D01*
X132276000Y-66272000D01*
X132184618Y-66272000D01*
X132049070Y-66287272D01*
X132049062Y-66287273D01*
X131877200Y-66347412D01*
X131723032Y-66444282D01*
X131723029Y-66444284D01*
X131594284Y-66573029D01*
X131594282Y-66573032D01*
X131497412Y-66727200D01*
X131437273Y-66899062D01*
X131437272Y-66899070D01*
X131422000Y-67034618D01*
X131098500Y-67034618D01*
X131098500Y-67034594D01*
X131083217Y-66898953D01*
X131023043Y-66726985D01*
X131023041Y-66726982D01*
X131023041Y-66726981D01*
X130926112Y-66572720D01*
X130926111Y-66572718D01*
X130797281Y-66443888D01*
X130797279Y-66443887D01*
X130643018Y-66346958D01*
X130643015Y-66346957D01*
X130546028Y-66313020D01*
X130471047Y-66286783D01*
X130335406Y-66271500D01*
X129644594Y-66271500D01*
X129508953Y-66286783D01*
X129508950Y-66286783D01*
X129508950Y-66286784D01*
X129336984Y-66346957D01*
X129336981Y-66346958D01*
X129182720Y-66443887D01*
X129182718Y-66443888D01*
X129053888Y-66572718D01*
X129053887Y-66572720D01*
X128956958Y-66726981D01*
X128956957Y-66726984D01*
X128927819Y-66810256D01*
X128896783Y-66898953D01*
X128881500Y-67034594D01*
X128558500Y-67034594D01*
X128543217Y-66898953D01*
X128483043Y-66726985D01*
X128483041Y-66726982D01*
X128483041Y-66726981D01*
X128386112Y-66572720D01*
X128386111Y-66572718D01*
X128257281Y-66443888D01*
X128257279Y-66443887D01*
X128103018Y-66346958D01*
X128103015Y-66346957D01*
X128006028Y-66313020D01*
X127931047Y-66286783D01*
X127795406Y-66271500D01*
X127104594Y-66271500D01*
X126968953Y-66286783D01*
X126968950Y-66286783D01*
X126968950Y-66286784D01*
X126796984Y-66346957D01*
X126796981Y-66346958D01*
X126642720Y-66443887D01*
X126642718Y-66443888D01*
X126513888Y-66572718D01*
X126513887Y-66572720D01*
X126416958Y-66726981D01*
X126416957Y-66726984D01*
X126387819Y-66810256D01*
X126356783Y-66898953D01*
X126341500Y-67034594D01*
X126341500Y-68525406D01*
X126356783Y-68661047D01*
X126375791Y-68715370D01*
X126416956Y-68833014D01*
X126416957Y-68833015D01*
X126422185Y-68841335D01*
X126441500Y-68908374D01*
X126441500Y-73715404D01*
X126421498Y-73783525D01*
X126404595Y-73804499D01*
X125758595Y-74450499D01*
X125696283Y-74484525D01*
X125625468Y-74479460D01*
X125568632Y-74436913D01*
X125543821Y-74370393D01*
X125543500Y-74361404D01*
X125543500Y-72180409D01*
X125563502Y-72112288D01*
X125617158Y-72065795D01*
X125625469Y-72062353D01*
X125643808Y-72055512D01*
X125656204Y-72050889D01*
X125773261Y-71963261D01*
X125821737Y-71898505D01*
X125860887Y-71846207D01*
X125860887Y-71846206D01*
X125860889Y-71846204D01*
X125911989Y-71709201D01*
X125918500Y-71648638D01*
X125918500Y-69041362D01*
X125918500Y-68908374D01*
X125937815Y-68841335D01*
X125943043Y-68833015D01*
X126003217Y-68661047D01*
X126018500Y-68525406D01*
X126018500Y-67034594D01*
X126003217Y-66898953D01*
X125943043Y-66726985D01*
X125943041Y-66726982D01*
X125943041Y-66726981D01*
X125846112Y-66572720D01*
X125846111Y-66572718D01*
X125717281Y-66443888D01*
X125717279Y-66443887D01*
X125563018Y-66346958D01*
X125563015Y-66346957D01*
X125466028Y-66313020D01*
X125391047Y-66286783D01*
X125255406Y-66271500D01*
X124564594Y-66271500D01*
X124428953Y-66286783D01*
X124428950Y-66286783D01*
X124428950Y-66286784D01*
X124256984Y-66346957D01*
X124256981Y-66346958D01*
X124102720Y-66443887D01*
X124102718Y-66443888D01*
X123973888Y-66572718D01*
X123973887Y-66572720D01*
X123876958Y-66726981D01*
X123876957Y-66726984D01*
X123847819Y-66810256D01*
X123816783Y-66898953D01*
X123801500Y-67034594D01*
X123801500Y-68525406D01*
X123816783Y-68661047D01*
X123835791Y-68715370D01*
X123876956Y-68833014D01*
X123876957Y-68833015D01*
X123882185Y-68841335D01*
X123901500Y-68908374D01*
X123901500Y-71648649D01*
X123908009Y-71709196D01*
X123908011Y-71709204D01*
X123959110Y-71846202D01*
X123959112Y-71846207D01*
X124046738Y-71963261D01*
X124163796Y-72050889D01*
X124194531Y-72062353D01*
X124251368Y-72104899D01*
X124276179Y-72171419D01*
X124276500Y-72180409D01*
X124276500Y-74150404D01*
X124256498Y-74218525D01*
X124239596Y-74239499D01*
X123899501Y-74579595D01*
X123837188Y-74613620D01*
X123810405Y-74616500D01*
X123504500Y-74616500D01*
X123436379Y-74596498D01*
X123389886Y-74542842D01*
X123378500Y-74490500D01*
X123378500Y-68908374D01*
X123397815Y-68841335D01*
X123403043Y-68833015D01*
X123463217Y-68661047D01*
X123478500Y-68525406D01*
X123478500Y-67034594D01*
X123463217Y-66898953D01*
X123403043Y-66726985D01*
X123403041Y-66726982D01*
X123403041Y-66726981D01*
X123306112Y-66572720D01*
X123306111Y-66572718D01*
X123177281Y-66443888D01*
X123177279Y-66443887D01*
X123023018Y-66346958D01*
X123023015Y-66346957D01*
X122926028Y-66313020D01*
X122851047Y-66286783D01*
X122715406Y-66271500D01*
X122024594Y-66271500D01*
X121888953Y-66286783D01*
X121888950Y-66286783D01*
X121888950Y-66286784D01*
X121716984Y-66346957D01*
X121716981Y-66346958D01*
X121562720Y-66443887D01*
X121562718Y-66443888D01*
X121433888Y-66572718D01*
X121433887Y-66572720D01*
X121336958Y-66726981D01*
X121336957Y-66726984D01*
X121307819Y-66810256D01*
X121276783Y-66898953D01*
X121261500Y-67034594D01*
X121261500Y-68525406D01*
X121276783Y-68661047D01*
X121295791Y-68715370D01*
X121336956Y-68833014D01*
X121336957Y-68833015D01*
X121342185Y-68841335D01*
X121361500Y-68908374D01*
X121361500Y-74490500D01*
X121341498Y-74558621D01*
X121287842Y-74605114D01*
X121235500Y-74616500D01*
X118424500Y-74616500D01*
X118356379Y-74596498D01*
X118309886Y-74542842D01*
X118298500Y-74490500D01*
X118298500Y-68908374D01*
X118317815Y-68841335D01*
X118323043Y-68833015D01*
X118383217Y-68661047D01*
X118398500Y-68525406D01*
X118398500Y-67034594D01*
X118721500Y-67034594D01*
X118721500Y-68525406D01*
X118736783Y-68661047D01*
X118755791Y-68715370D01*
X118796956Y-68833014D01*
X118796957Y-68833015D01*
X118802185Y-68841335D01*
X118821500Y-68908374D01*
X118821500Y-71648649D01*
X118828009Y-71709196D01*
X118828011Y-71709204D01*
X118879110Y-71846202D01*
X118879112Y-71846207D01*
X118966738Y-71963261D01*
X119083792Y-72050887D01*
X119083794Y-72050888D01*
X119083796Y-72050889D01*
X119114532Y-72062353D01*
X119220795Y-72101988D01*
X119220803Y-72101990D01*
X119281350Y-72108499D01*
X119281355Y-72108499D01*
X119281362Y-72108500D01*
X119281368Y-72108500D01*
X120378632Y-72108500D01*
X120378638Y-72108500D01*
X120378645Y-72108499D01*
X120378649Y-72108499D01*
X120439196Y-72101990D01*
X120439199Y-72101989D01*
X120439201Y-72101989D01*
X120441435Y-72101156D01*
X120463502Y-72092925D01*
X120576204Y-72050889D01*
X120576799Y-72050444D01*
X120693261Y-71963261D01*
X120780887Y-71846207D01*
X120780887Y-71846206D01*
X120780889Y-71846204D01*
X120831989Y-71709201D01*
X120838500Y-71648638D01*
X120838500Y-69041362D01*
X120838500Y-68908374D01*
X120857815Y-68841335D01*
X120863043Y-68833015D01*
X120923217Y-68661047D01*
X120938500Y-68525406D01*
X120938500Y-67034594D01*
X120923217Y-66898953D01*
X120863043Y-66726985D01*
X120863041Y-66726982D01*
X120863041Y-66726981D01*
X120766112Y-66572720D01*
X120766111Y-66572718D01*
X120637281Y-66443888D01*
X120637279Y-66443887D01*
X120483018Y-66346958D01*
X120483015Y-66346957D01*
X120386028Y-66313020D01*
X120311047Y-66286783D01*
X120175406Y-66271500D01*
X119484594Y-66271500D01*
X119348953Y-66286783D01*
X119348950Y-66286783D01*
X119348950Y-66286784D01*
X119176984Y-66346957D01*
X119176981Y-66346958D01*
X119022720Y-66443887D01*
X119022718Y-66443888D01*
X118893888Y-66572718D01*
X118893887Y-66572720D01*
X118796958Y-66726981D01*
X118796957Y-66726984D01*
X118767819Y-66810256D01*
X118736783Y-66898953D01*
X118721500Y-67034594D01*
X118398500Y-67034594D01*
X118383217Y-66898953D01*
X118323043Y-66726985D01*
X118323041Y-66726982D01*
X118323041Y-66726981D01*
X118226112Y-66572720D01*
X118226111Y-66572718D01*
X118097281Y-66443888D01*
X118097279Y-66443887D01*
X117943018Y-66346958D01*
X117943015Y-66346957D01*
X117846028Y-66313020D01*
X117771047Y-66286783D01*
X117635406Y-66271500D01*
X116944594Y-66271500D01*
X116808953Y-66286783D01*
X116808950Y-66286783D01*
X116808950Y-66286784D01*
X116636984Y-66346957D01*
X116636981Y-66346958D01*
X116482720Y-66443887D01*
X116482718Y-66443888D01*
X116353888Y-66572718D01*
X116353887Y-66572720D01*
X116256958Y-66726981D01*
X116256957Y-66726984D01*
X116227819Y-66810256D01*
X116196783Y-66898953D01*
X116181500Y-67034594D01*
X116181500Y-68525406D01*
X116196783Y-68661047D01*
X116215791Y-68715370D01*
X116256956Y-68833014D01*
X116256957Y-68833015D01*
X116262185Y-68841335D01*
X116281500Y-68908374D01*
X116281500Y-74490500D01*
X116261498Y-74558621D01*
X116207842Y-74605114D01*
X116155500Y-74616500D01*
X113344500Y-74616500D01*
X113276379Y-74596498D01*
X113229886Y-74542842D01*
X113218500Y-74490500D01*
X113218500Y-71648597D01*
X113742000Y-71648597D01*
X113748505Y-71709093D01*
X113799555Y-71845964D01*
X113799555Y-71845965D01*
X113887095Y-71962904D01*
X114004034Y-72050444D01*
X114140906Y-72101494D01*
X114201402Y-72107999D01*
X114201415Y-72108000D01*
X114496000Y-72108000D01*
X115004000Y-72108000D01*
X115298585Y-72108000D01*
X115298597Y-72107999D01*
X115359093Y-72101494D01*
X115495964Y-72050444D01*
X115495965Y-72050444D01*
X115612904Y-71962904D01*
X115700444Y-71845965D01*
X115700444Y-71845964D01*
X115751494Y-71709093D01*
X115757999Y-71648597D01*
X115758000Y-71648585D01*
X115758000Y-70599000D01*
X115004000Y-70599000D01*
X115004000Y-72108000D01*
X114496000Y-72108000D01*
X114496000Y-70599000D01*
X113742000Y-70599000D01*
X113742000Y-71648597D01*
X113218500Y-71648597D01*
X113218500Y-68908374D01*
X113237815Y-68841335D01*
X113243043Y-68833015D01*
X113303217Y-68661047D01*
X113318500Y-68525406D01*
X113318500Y-68525381D01*
X113642000Y-68525381D01*
X113657272Y-68660929D01*
X113657273Y-68660937D01*
X113717411Y-68832798D01*
X113738458Y-68866294D01*
X113757763Y-68934615D01*
X113749829Y-68977352D01*
X113748505Y-68980901D01*
X113748504Y-68980904D01*
X113742000Y-69041399D01*
X113742000Y-70091000D01*
X114496000Y-70091000D01*
X115004000Y-70091000D01*
X115758000Y-70091000D01*
X115758000Y-69041414D01*
X115757999Y-69041402D01*
X115751494Y-68980908D01*
X115750173Y-68977365D01*
X115749962Y-68974420D01*
X115749682Y-68973234D01*
X115749874Y-68973188D01*
X115745107Y-68906549D01*
X115761543Y-68866290D01*
X115782588Y-68832798D01*
X115842726Y-68660937D01*
X115842727Y-68660929D01*
X115858000Y-68525381D01*
X115858000Y-68034000D01*
X115004000Y-68034000D01*
X115004000Y-70091000D01*
X114496000Y-70091000D01*
X114496000Y-68034000D01*
X113642000Y-68034000D01*
X113642000Y-68525381D01*
X113318500Y-68525381D01*
X113318500Y-67034618D01*
X113642000Y-67034618D01*
X113642000Y-67526000D01*
X114496000Y-67526000D01*
X115004000Y-67526000D01*
X115858000Y-67526000D01*
X115858000Y-67034618D01*
X115842727Y-66899070D01*
X115842726Y-66899062D01*
X115782587Y-66727200D01*
X115685717Y-66573032D01*
X115685715Y-66573029D01*
X115556970Y-66444284D01*
X115556967Y-66444282D01*
X115402799Y-66347412D01*
X115402800Y-66347412D01*
X115230937Y-66287273D01*
X115230929Y-66287272D01*
X115095382Y-66272000D01*
X115004000Y-66272000D01*
X115004000Y-67526000D01*
X114496000Y-67526000D01*
X114496000Y-66272000D01*
X114404618Y-66272000D01*
X114269070Y-66287272D01*
X114269062Y-66287273D01*
X114097200Y-66347412D01*
X113943032Y-66444282D01*
X113943029Y-66444284D01*
X113814284Y-66573029D01*
X113814282Y-66573032D01*
X113717412Y-66727200D01*
X113657273Y-66899062D01*
X113657272Y-66899070D01*
X113642000Y-67034618D01*
X113318500Y-67034618D01*
X113318500Y-67034594D01*
X113303217Y-66898953D01*
X113243043Y-66726985D01*
X113243041Y-66726982D01*
X113243041Y-66726981D01*
X113146112Y-66572720D01*
X113146111Y-66572718D01*
X113017281Y-66443888D01*
X113017279Y-66443887D01*
X112863018Y-66346958D01*
X112863015Y-66346957D01*
X112766028Y-66313020D01*
X112691047Y-66286783D01*
X112555406Y-66271500D01*
X111864594Y-66271500D01*
X111728952Y-66286783D01*
X111583228Y-66337774D01*
X111512324Y-66341392D01*
X111450719Y-66306103D01*
X111444216Y-66298780D01*
X111442074Y-66296170D01*
X111442072Y-66296167D01*
X110578833Y-65432929D01*
X110475075Y-65363600D01*
X110359785Y-65315845D01*
X110286086Y-65301185D01*
X110237396Y-65291500D01*
X110237394Y-65291500D01*
X109037394Y-65291500D01*
X108912606Y-65291500D01*
X108912603Y-65291500D01*
X108839568Y-65306028D01*
X108790215Y-65315845D01*
X108790213Y-65315845D01*
X108790212Y-65315846D01*
X108674923Y-65363601D01*
X108571171Y-65432926D01*
X108571164Y-65432931D01*
X107706395Y-66297701D01*
X107644083Y-66331727D01*
X107573268Y-66326662D01*
X107516432Y-66284115D01*
X107491621Y-66217595D01*
X107491300Y-66208606D01*
X107491300Y-64468862D01*
X107511302Y-64400741D01*
X107523664Y-64384551D01*
X107525936Y-64382028D01*
X107589040Y-64311944D01*
X107684527Y-64146556D01*
X107743542Y-63964928D01*
X107763504Y-63775000D01*
X107743542Y-63585072D01*
X107684527Y-63403444D01*
X107589040Y-63238056D01*
X107589038Y-63238054D01*
X107589034Y-63238048D01*
X107583586Y-63231997D01*
X126079415Y-63231997D01*
X126079415Y-63232002D01*
X126099904Y-63381078D01*
X126099906Y-63381086D01*
X126159860Y-63519116D01*
X126209987Y-63580729D01*
X126254831Y-63635849D01*
X126254837Y-63635853D01*
X126254838Y-63635854D01*
X126377767Y-63722627D01*
X126377773Y-63722630D01*
X126377775Y-63722632D01*
X126519573Y-63773028D01*
X126669710Y-63783297D01*
X126817050Y-63752680D01*
X126950665Y-63683446D01*
X127060647Y-63580730D01*
X127138838Y-63452151D01*
X127152487Y-63403438D01*
X127179438Y-63307250D01*
X127179439Y-63307240D01*
X127179674Y-63300351D01*
X127182000Y-63232000D01*
X127179439Y-63156756D01*
X127179438Y-63156754D01*
X127179438Y-63156749D01*
X127138838Y-63011849D01*
X127060647Y-62883270D01*
X127025056Y-62850030D01*
X126950665Y-62780554D01*
X126946138Y-62778208D01*
X126817052Y-62711320D01*
X126743380Y-62696011D01*
X126669710Y-62680703D01*
X126669708Y-62680703D01*
X126519576Y-62690971D01*
X126519574Y-62690971D01*
X126519573Y-62690972D01*
X126400043Y-62733453D01*
X126377772Y-62741369D01*
X126377767Y-62741372D01*
X126254838Y-62828145D01*
X126254829Y-62828153D01*
X126159860Y-62944883D01*
X126099906Y-63082913D01*
X126099904Y-63082921D01*
X126079415Y-63231997D01*
X107583586Y-63231997D01*
X107461255Y-63096135D01*
X107306752Y-62983882D01*
X107132288Y-62906206D01*
X106945487Y-62866500D01*
X106754513Y-62866500D01*
X106567711Y-62906206D01*
X106393247Y-62983882D01*
X106238744Y-63096135D01*
X106110965Y-63238048D01*
X106110958Y-63238058D01*
X106015476Y-63403438D01*
X106015473Y-63403445D01*
X105956457Y-63585072D01*
X105936496Y-63775000D01*
X105956457Y-63964927D01*
X105979062Y-64034496D01*
X106015473Y-64146556D01*
X106015476Y-64146561D01*
X106101832Y-64296135D01*
X106110960Y-64311944D01*
X106175665Y-64383806D01*
X106191936Y-64401876D01*
X106222653Y-64465884D01*
X106224300Y-64486187D01*
X106224300Y-64596511D01*
X106204298Y-64664632D01*
X106150642Y-64711125D01*
X106096290Y-64720001D01*
X106096290Y-64722300D01*
X105898713Y-64722300D01*
X105711911Y-64762006D01*
X105537447Y-64839682D01*
X105382944Y-64951935D01*
X105255165Y-65093848D01*
X105255158Y-65093858D01*
X105159676Y-65259238D01*
X105159673Y-65259245D01*
X105100657Y-65440872D01*
X105080696Y-65630800D01*
X105100657Y-65820727D01*
X105130726Y-65913270D01*
X105159673Y-66002356D01*
X105255160Y-66167744D01*
X105328337Y-66249015D01*
X105359053Y-66313020D01*
X105360700Y-66333324D01*
X105360700Y-70606911D01*
X105360700Y-70731699D01*
X105385045Y-70854090D01*
X105432800Y-70969380D01*
X105502129Y-71073138D01*
X105502131Y-71073140D01*
X106339795Y-71910804D01*
X106373821Y-71973116D01*
X106376700Y-71999899D01*
X106376700Y-72548274D01*
X106356698Y-72616395D01*
X106344337Y-72632584D01*
X106271157Y-72713859D01*
X106175676Y-72879238D01*
X106175673Y-72879245D01*
X106116657Y-73060872D01*
X106096696Y-73250800D01*
X106117348Y-73447296D01*
X106115732Y-73447465D01*
X106110953Y-73510094D01*
X106068136Y-73566727D01*
X106001498Y-73591220D01*
X105993108Y-73591500D01*
X105912603Y-73591500D01*
X105839568Y-73606028D01*
X105790215Y-73615845D01*
X105790213Y-73615845D01*
X105790212Y-73615846D01*
X105674923Y-73663601D01*
X105571171Y-73732926D01*
X105571164Y-73732931D01*
X104882931Y-74421164D01*
X104882926Y-74421171D01*
X104818543Y-74517528D01*
X104813600Y-74524925D01*
X104765845Y-74640215D01*
X104765608Y-74641406D01*
X104741500Y-74762603D01*
X104741500Y-77347799D01*
X104721498Y-77415920D01*
X104667842Y-77462413D01*
X104597568Y-77472517D01*
X104559518Y-77460679D01*
X104413952Y-77388486D01*
X104413953Y-77388486D01*
X104238119Y-77344759D01*
X104238112Y-77344758D01*
X104197442Y-77342000D01*
X104054000Y-77342000D01*
X103546000Y-77342000D01*
X103402559Y-77342000D01*
X103402555Y-77342001D01*
X103361884Y-77344758D01*
X103186048Y-77388486D01*
X103023727Y-77468989D01*
X103023725Y-77468990D01*
X102879339Y-77585052D01*
X102813714Y-77612141D01*
X102743861Y-77599449D01*
X102721459Y-77585052D01*
X102576546Y-77468569D01*
X102576543Y-77468567D01*
X102503515Y-77432347D01*
X102451375Y-77384160D01*
X102433500Y-77319468D01*
X102433500Y-75908194D01*
X102453502Y-75840073D01*
X102470405Y-75819099D01*
X103938100Y-74351405D01*
X104000412Y-74317379D01*
X104027195Y-74314500D01*
X104083087Y-74314500D01*
X104269888Y-74274794D01*
X104444352Y-74197118D01*
X104598853Y-74084866D01*
X104598855Y-74084864D01*
X104726634Y-73942951D01*
X104726635Y-73942949D01*
X104726640Y-73942944D01*
X104822127Y-73777556D01*
X104881142Y-73595928D01*
X104901104Y-73406000D01*
X104881142Y-73216072D01*
X104822127Y-73034444D01*
X104726640Y-72869056D01*
X104726638Y-72869054D01*
X104726634Y-72869048D01*
X104598855Y-72727135D01*
X104444352Y-72614882D01*
X104269888Y-72537206D01*
X104083087Y-72497500D01*
X103892113Y-72497500D01*
X103705311Y-72537206D01*
X103530847Y-72614882D01*
X103417101Y-72697524D01*
X103350233Y-72721383D01*
X103281082Y-72705302D01*
X103268979Y-72697524D01*
X103225154Y-72665683D01*
X103225153Y-72665682D01*
X103050688Y-72588006D01*
X102863887Y-72548300D01*
X102672913Y-72548300D01*
X102486111Y-72588006D01*
X102311647Y-72665682D01*
X102157144Y-72777935D01*
X102029365Y-72919848D01*
X102029358Y-72919858D01*
X101947944Y-73060872D01*
X101933873Y-73085244D01*
X101919399Y-73129786D01*
X101874857Y-73266872D01*
X101857492Y-73432092D01*
X101830479Y-73497749D01*
X101821277Y-73508016D01*
X99396167Y-75933129D01*
X99307931Y-76021364D01*
X99307926Y-76021371D01*
X99238601Y-76125123D01*
X99195804Y-76228444D01*
X99190845Y-76240415D01*
X99187189Y-76258794D01*
X99166500Y-76362803D01*
X99166500Y-77319468D01*
X99146498Y-77387589D01*
X99096485Y-77432347D01*
X99023456Y-77468567D01*
X99023454Y-77468568D01*
X98878938Y-77584732D01*
X98813312Y-77611820D01*
X98743459Y-77599127D01*
X98721059Y-77584732D01*
X98717850Y-77582153D01*
X98717849Y-77582151D01*
X98576543Y-77468567D01*
X98414124Y-77388014D01*
X98238186Y-77344260D01*
X98238182Y-77344259D01*
X98197492Y-77341500D01*
X97402510Y-77341500D01*
X97402504Y-77341501D01*
X97361818Y-77344259D01*
X97359807Y-77344759D01*
X97185876Y-77388014D01*
X97129609Y-77415920D01*
X97023458Y-77468566D01*
X96882151Y-77582151D01*
X96768566Y-77723458D01*
X96688013Y-77885878D01*
X96678355Y-77924714D01*
X96666866Y-77970909D01*
X96631017Y-78032188D01*
X96567727Y-78064358D01*
X96544592Y-78066500D01*
X78814594Y-78066500D01*
X78746473Y-78046498D01*
X78725499Y-78029595D01*
X77642901Y-76946997D01*
X79551415Y-76946997D01*
X79551415Y-76947002D01*
X79571904Y-77096078D01*
X79571906Y-77096086D01*
X79631860Y-77234116D01*
X79677330Y-77290005D01*
X79726831Y-77350849D01*
X79726837Y-77350853D01*
X79726838Y-77350854D01*
X79849767Y-77437627D01*
X79849773Y-77437630D01*
X79849775Y-77437632D01*
X79991573Y-77488028D01*
X80141710Y-77498297D01*
X80289050Y-77467680D01*
X80422665Y-77398446D01*
X80532647Y-77295730D01*
X80610838Y-77167151D01*
X80622671Y-77124916D01*
X80651438Y-77022250D01*
X80651439Y-77022240D01*
X80654000Y-76947004D01*
X80654000Y-76946995D01*
X80651439Y-76871759D01*
X80651438Y-76871749D01*
X80610838Y-76726849D01*
X80532647Y-76598270D01*
X80473629Y-76543151D01*
X80422665Y-76495554D01*
X80383052Y-76475028D01*
X80289052Y-76426320D01*
X80210483Y-76409994D01*
X80141710Y-76395703D01*
X80141708Y-76395703D01*
X79991576Y-76405971D01*
X79991574Y-76405971D01*
X79991573Y-76405972D01*
X79926929Y-76428947D01*
X79849772Y-76456369D01*
X79849767Y-76456372D01*
X79726838Y-76543145D01*
X79726829Y-76543153D01*
X79631860Y-76659883D01*
X79571906Y-76797913D01*
X79571904Y-76797921D01*
X79551415Y-76946997D01*
X77642901Y-76946997D01*
X76329499Y-75633595D01*
X76295473Y-75571283D01*
X76300538Y-75500468D01*
X76343085Y-75443632D01*
X76409605Y-75418821D01*
X76418594Y-75418500D01*
X77198632Y-75418500D01*
X77198638Y-75418500D01*
X77198645Y-75418499D01*
X77198649Y-75418499D01*
X77259196Y-75411990D01*
X77259199Y-75411989D01*
X77259201Y-75411989D01*
X77396204Y-75360889D01*
X77396799Y-75360444D01*
X77513261Y-75273261D01*
X77600887Y-75156207D01*
X77600887Y-75156206D01*
X77600889Y-75156204D01*
X77651989Y-75019201D01*
X77653359Y-75006464D01*
X77658499Y-74958647D01*
X77658500Y-74958632D01*
X77658500Y-68908374D01*
X77677815Y-68841335D01*
X77683043Y-68833015D01*
X77743217Y-68661047D01*
X77758500Y-68525406D01*
X77758500Y-67034594D01*
X78081500Y-67034594D01*
X78081500Y-68525406D01*
X78096783Y-68661047D01*
X78115791Y-68715370D01*
X78156956Y-68833014D01*
X78156957Y-68833015D01*
X78162185Y-68841335D01*
X78181500Y-68908374D01*
X78181500Y-71648649D01*
X78188009Y-71709196D01*
X78188011Y-71709204D01*
X78239110Y-71846202D01*
X78239112Y-71846207D01*
X78326738Y-71963261D01*
X78443792Y-72050887D01*
X78443794Y-72050888D01*
X78443796Y-72050889D01*
X78474532Y-72062353D01*
X78580795Y-72101988D01*
X78580803Y-72101990D01*
X78641350Y-72108499D01*
X78641355Y-72108499D01*
X78641362Y-72108500D01*
X78641368Y-72108500D01*
X79738632Y-72108500D01*
X79738638Y-72108500D01*
X79738645Y-72108499D01*
X79738649Y-72108499D01*
X79799196Y-72101990D01*
X79799199Y-72101989D01*
X79799201Y-72101989D01*
X79801435Y-72101156D01*
X79823502Y-72092925D01*
X79936204Y-72050889D01*
X79936799Y-72050444D01*
X80053261Y-71963261D01*
X80140887Y-71846207D01*
X80140887Y-71846206D01*
X80140889Y-71846204D01*
X80191989Y-71709201D01*
X80198500Y-71648638D01*
X80198500Y-69041362D01*
X80198500Y-68908374D01*
X80217815Y-68841335D01*
X80223043Y-68833015D01*
X80283217Y-68661047D01*
X80298500Y-68525406D01*
X80298500Y-67034594D01*
X80621500Y-67034594D01*
X80621500Y-68525406D01*
X80636783Y-68661047D01*
X80655791Y-68715370D01*
X80696956Y-68833014D01*
X80696957Y-68833015D01*
X80702185Y-68841335D01*
X80721500Y-68908374D01*
X80721500Y-74958632D01*
X80721501Y-74958647D01*
X80728009Y-75019196D01*
X80728011Y-75019204D01*
X80779110Y-75156202D01*
X80779112Y-75156207D01*
X80866738Y-75273261D01*
X80983792Y-75360887D01*
X80983794Y-75360888D01*
X80983796Y-75360889D01*
X81042875Y-75382924D01*
X81120795Y-75411988D01*
X81120803Y-75411990D01*
X81181350Y-75418499D01*
X81181355Y-75418499D01*
X81181362Y-75418500D01*
X81181368Y-75418500D01*
X82278632Y-75418500D01*
X82278638Y-75418500D01*
X82278645Y-75418499D01*
X82278649Y-75418499D01*
X82339196Y-75411990D01*
X82339199Y-75411989D01*
X82339201Y-75411989D01*
X82476204Y-75360889D01*
X82476799Y-75360444D01*
X82593261Y-75273261D01*
X82680887Y-75156207D01*
X82680887Y-75156206D01*
X82680889Y-75156204D01*
X82731989Y-75019201D01*
X82733359Y-75006464D01*
X82738499Y-74958647D01*
X82738500Y-74958632D01*
X82738500Y-68908374D01*
X82757815Y-68841335D01*
X82763043Y-68833015D01*
X82823217Y-68661047D01*
X82838500Y-68525406D01*
X82838500Y-67034594D01*
X83161500Y-67034594D01*
X83161500Y-68525406D01*
X83176783Y-68661047D01*
X83195791Y-68715370D01*
X83236956Y-68833014D01*
X83236957Y-68833015D01*
X83242185Y-68841335D01*
X83261500Y-68908374D01*
X83261500Y-71648649D01*
X83268009Y-71709196D01*
X83268011Y-71709204D01*
X83319110Y-71846202D01*
X83319112Y-71846207D01*
X83406738Y-71963261D01*
X83523792Y-72050887D01*
X83523794Y-72050888D01*
X83523796Y-72050889D01*
X83554532Y-72062353D01*
X83660795Y-72101988D01*
X83660803Y-72101990D01*
X83721350Y-72108499D01*
X83721355Y-72108499D01*
X83721362Y-72108500D01*
X83721368Y-72108500D01*
X84818632Y-72108500D01*
X84818638Y-72108500D01*
X84818645Y-72108499D01*
X84818649Y-72108499D01*
X84879196Y-72101990D01*
X84879199Y-72101989D01*
X84879201Y-72101989D01*
X84881435Y-72101156D01*
X84903502Y-72092925D01*
X85016204Y-72050889D01*
X85016799Y-72050444D01*
X85133261Y-71963261D01*
X85220887Y-71846207D01*
X85220887Y-71846206D01*
X85220889Y-71846204D01*
X85271989Y-71709201D01*
X85278500Y-71648638D01*
X85278500Y-69041362D01*
X85278500Y-68908374D01*
X85297815Y-68841335D01*
X85303043Y-68833015D01*
X85363217Y-68661047D01*
X85378500Y-68525406D01*
X85378500Y-67034594D01*
X85701500Y-67034594D01*
X85701500Y-68525406D01*
X85716783Y-68661047D01*
X85735791Y-68715370D01*
X85776956Y-68833014D01*
X85776957Y-68833015D01*
X85782185Y-68841335D01*
X85801500Y-68908374D01*
X85801500Y-74958632D01*
X85801501Y-74958647D01*
X85808009Y-75019196D01*
X85808011Y-75019204D01*
X85859110Y-75156202D01*
X85859112Y-75156207D01*
X85946738Y-75273261D01*
X86063792Y-75360887D01*
X86063794Y-75360888D01*
X86063796Y-75360889D01*
X86122875Y-75382924D01*
X86200795Y-75411988D01*
X86200803Y-75411990D01*
X86261350Y-75418499D01*
X86261355Y-75418499D01*
X86261362Y-75418500D01*
X86261368Y-75418500D01*
X87358632Y-75418500D01*
X87358638Y-75418500D01*
X87358645Y-75418499D01*
X87358649Y-75418499D01*
X87419196Y-75411990D01*
X87419199Y-75411989D01*
X87419201Y-75411989D01*
X87556204Y-75360889D01*
X87556799Y-75360444D01*
X87673261Y-75273261D01*
X87760887Y-75156207D01*
X87760887Y-75156206D01*
X87760889Y-75156204D01*
X87811989Y-75019201D01*
X87813359Y-75006464D01*
X87818499Y-74958647D01*
X87818500Y-74958632D01*
X87818500Y-74958597D01*
X90882000Y-74958597D01*
X90888505Y-75019093D01*
X90939555Y-75155964D01*
X90939555Y-75155965D01*
X91027095Y-75272904D01*
X91144034Y-75360444D01*
X91280906Y-75411494D01*
X91341402Y-75417999D01*
X91341415Y-75418000D01*
X91636000Y-75418000D01*
X92144000Y-75418000D01*
X92438585Y-75418000D01*
X92438597Y-75417999D01*
X92499093Y-75411494D01*
X92635964Y-75360444D01*
X92635965Y-75360444D01*
X92752904Y-75272904D01*
X92840444Y-75155965D01*
X92840444Y-75155964D01*
X92891494Y-75019093D01*
X92897999Y-74958597D01*
X92898000Y-74958585D01*
X92898000Y-74750000D01*
X94286496Y-74750000D01*
X94306457Y-74939927D01*
X94336526Y-75032470D01*
X94365473Y-75121556D01*
X94365476Y-75121561D01*
X94460958Y-75286941D01*
X94460965Y-75286951D01*
X94588744Y-75428864D01*
X94623154Y-75453864D01*
X94743248Y-75541118D01*
X94917712Y-75618794D01*
X95104513Y-75658500D01*
X95295487Y-75658500D01*
X95482288Y-75618794D01*
X95656752Y-75541118D01*
X95696235Y-75512431D01*
X95763101Y-75488574D01*
X95832253Y-75504654D01*
X95844357Y-75512432D01*
X95918248Y-75566118D01*
X96092712Y-75643794D01*
X96279513Y-75683500D01*
X96470487Y-75683500D01*
X96657288Y-75643794D01*
X96831752Y-75566118D01*
X96986253Y-75453866D01*
X97018548Y-75417999D01*
X97114034Y-75311951D01*
X97114035Y-75311949D01*
X97114040Y-75311944D01*
X97209527Y-75146556D01*
X97268542Y-74964928D01*
X97285907Y-74799703D01*
X97312920Y-74734048D01*
X97322104Y-74723798D01*
X100892072Y-71153833D01*
X100961401Y-71050075D01*
X100995168Y-70968552D01*
X101009155Y-70934785D01*
X101033500Y-70812394D01*
X101033500Y-69414594D01*
X101053502Y-69346473D01*
X101070405Y-69325499D01*
X103292067Y-67103838D01*
X103292067Y-67103837D01*
X103292072Y-67103833D01*
X103361401Y-67000075D01*
X103409155Y-66884784D01*
X103423980Y-66810256D01*
X103433500Y-66762394D01*
X103433500Y-65487606D01*
X103409155Y-65365215D01*
X103389787Y-65318456D01*
X103361401Y-65249925D01*
X103292072Y-65146167D01*
X103172121Y-65026216D01*
X103138095Y-64963904D01*
X103135908Y-64950306D01*
X103118542Y-64785072D01*
X103059527Y-64603444D01*
X102964040Y-64438056D01*
X102964038Y-64438054D01*
X102964034Y-64438048D01*
X102836255Y-64296135D01*
X102681752Y-64183882D01*
X102507288Y-64106206D01*
X102320487Y-64066500D01*
X102129513Y-64066500D01*
X101942711Y-64106206D01*
X101768247Y-64183882D01*
X101613746Y-64296134D01*
X101569936Y-64344789D01*
X101509489Y-64382028D01*
X101450104Y-64383724D01*
X101263687Y-64344100D01*
X101072713Y-64344100D01*
X100885911Y-64383806D01*
X100711447Y-64461482D01*
X100556947Y-64573733D01*
X100553637Y-64577410D01*
X100493191Y-64614650D01*
X100460000Y-64619100D01*
X99235003Y-64619100D01*
X99161968Y-64633628D01*
X99112615Y-64643445D01*
X99112613Y-64643445D01*
X99112612Y-64643446D01*
X98997323Y-64691201D01*
X98893571Y-64760526D01*
X98893564Y-64760531D01*
X97932931Y-65721164D01*
X97932926Y-65721171D01*
X97863601Y-65824923D01*
X97815846Y-65940212D01*
X97791500Y-66062603D01*
X97791500Y-69197474D01*
X97771498Y-69265595D01*
X97759137Y-69281784D01*
X97685957Y-69363059D01*
X97590476Y-69528438D01*
X97590473Y-69528445D01*
X97531457Y-69710072D01*
X97511496Y-69900000D01*
X97531457Y-70089927D01*
X97578368Y-70234300D01*
X97580396Y-70305268D01*
X97543734Y-70366066D01*
X97528545Y-70377997D01*
X97521169Y-70382926D01*
X97521167Y-70382927D01*
X97305095Y-70599000D01*
X96371167Y-71532929D01*
X96282931Y-71621164D01*
X96282926Y-71621171D01*
X96216470Y-71720630D01*
X96213600Y-71724925D01*
X96165845Y-71840215D01*
X96164654Y-71846202D01*
X96141500Y-71962603D01*
X96141500Y-72860406D01*
X96121498Y-72928527D01*
X96104595Y-72949501D01*
X95249501Y-73804595D01*
X95187189Y-73838621D01*
X95160406Y-73841500D01*
X95104513Y-73841500D01*
X94917711Y-73881206D01*
X94743247Y-73958882D01*
X94588744Y-74071135D01*
X94460965Y-74213048D01*
X94460958Y-74213058D01*
X94365476Y-74378438D01*
X94365473Y-74378445D01*
X94306457Y-74560072D01*
X94286496Y-74750000D01*
X92898000Y-74750000D01*
X92898000Y-73909000D01*
X92144000Y-73909000D01*
X92144000Y-75418000D01*
X91636000Y-75418000D01*
X91636000Y-73909000D01*
X90882000Y-73909000D01*
X90882000Y-74958597D01*
X87818500Y-74958597D01*
X87818500Y-72351402D01*
X90882000Y-72351402D01*
X90882000Y-73401000D01*
X91636000Y-73401000D01*
X92144000Y-73401000D01*
X92898000Y-73401000D01*
X92898000Y-72351414D01*
X92897999Y-72351402D01*
X92891494Y-72290906D01*
X92840444Y-72154035D01*
X92840444Y-72154034D01*
X92752904Y-72037095D01*
X92635965Y-71949555D01*
X92499093Y-71898505D01*
X92438597Y-71892000D01*
X92144000Y-71892000D01*
X92144000Y-73401000D01*
X91636000Y-73401000D01*
X91636000Y-71892000D01*
X91341402Y-71892000D01*
X91280906Y-71898505D01*
X91144035Y-71949555D01*
X91144034Y-71949555D01*
X91027095Y-72037095D01*
X90939555Y-72154034D01*
X90939555Y-72154035D01*
X90888505Y-72290906D01*
X90882000Y-72351402D01*
X87818500Y-72351402D01*
X87818500Y-68908374D01*
X87837815Y-68841335D01*
X87843043Y-68833015D01*
X87903217Y-68661047D01*
X87918500Y-68525406D01*
X87918500Y-67034594D01*
X88241500Y-67034594D01*
X88241500Y-68525406D01*
X88256783Y-68661047D01*
X88275791Y-68715370D01*
X88316956Y-68833014D01*
X88316957Y-68833015D01*
X88322185Y-68841335D01*
X88341500Y-68908374D01*
X88341500Y-71648649D01*
X88348009Y-71709196D01*
X88348011Y-71709204D01*
X88399110Y-71846202D01*
X88399112Y-71846207D01*
X88486738Y-71963261D01*
X88603792Y-72050887D01*
X88603794Y-72050888D01*
X88603796Y-72050889D01*
X88634532Y-72062353D01*
X88740795Y-72101988D01*
X88740803Y-72101990D01*
X88801350Y-72108499D01*
X88801355Y-72108499D01*
X88801362Y-72108500D01*
X88801368Y-72108500D01*
X89898632Y-72108500D01*
X89898638Y-72108500D01*
X89898645Y-72108499D01*
X89898649Y-72108499D01*
X89959196Y-72101990D01*
X89959199Y-72101989D01*
X89959201Y-72101989D01*
X89961435Y-72101156D01*
X89983502Y-72092925D01*
X90096204Y-72050889D01*
X90096799Y-72050444D01*
X90213261Y-71963261D01*
X90300887Y-71846207D01*
X90300887Y-71846206D01*
X90300889Y-71846204D01*
X90351989Y-71709201D01*
X90358500Y-71648638D01*
X90358500Y-69041362D01*
X90358500Y-68908374D01*
X90377815Y-68841335D01*
X90383043Y-68833015D01*
X90443217Y-68661047D01*
X90458500Y-68525406D01*
X90458500Y-68525381D01*
X90782000Y-68525381D01*
X90797272Y-68660929D01*
X90797273Y-68660937D01*
X90857412Y-68832799D01*
X90954282Y-68986967D01*
X90954284Y-68986970D01*
X91083029Y-69115715D01*
X91083032Y-69115717D01*
X91237200Y-69212587D01*
X91237199Y-69212587D01*
X91409062Y-69272726D01*
X91409070Y-69272727D01*
X91544618Y-69288000D01*
X91636000Y-69288000D01*
X92144000Y-69288000D01*
X92235382Y-69288000D01*
X92370929Y-69272727D01*
X92370937Y-69272726D01*
X92542799Y-69212587D01*
X92696967Y-69115717D01*
X92696970Y-69115715D01*
X92825715Y-68986970D01*
X92825717Y-68986967D01*
X92922587Y-68832799D01*
X92982726Y-68660937D01*
X92982727Y-68660929D01*
X92998000Y-68525381D01*
X92998000Y-68034000D01*
X92144000Y-68034000D01*
X92144000Y-69288000D01*
X91636000Y-69288000D01*
X91636000Y-68034000D01*
X90782000Y-68034000D01*
X90782000Y-68525381D01*
X90458500Y-68525381D01*
X90458500Y-67625000D01*
X95136496Y-67625000D01*
X95156457Y-67814927D01*
X95186526Y-67907470D01*
X95215473Y-67996556D01*
X95310960Y-68161944D01*
X95384137Y-68243215D01*
X95414853Y-68307220D01*
X95416500Y-68327524D01*
X95416500Y-68672474D01*
X95396498Y-68740595D01*
X95384137Y-68756784D01*
X95310957Y-68838059D01*
X95215476Y-69003438D01*
X95215473Y-69003445D01*
X95156457Y-69185072D01*
X95136496Y-69375000D01*
X95156457Y-69564927D01*
X95186526Y-69657470D01*
X95215473Y-69746556D01*
X95215476Y-69746561D01*
X95310958Y-69911941D01*
X95310965Y-69911951D01*
X95438744Y-70053864D01*
X95488382Y-70089928D01*
X95593248Y-70166118D01*
X95767712Y-70243794D01*
X95954513Y-70283500D01*
X96145487Y-70283500D01*
X96332288Y-70243794D01*
X96506752Y-70166118D01*
X96661253Y-70053866D01*
X96789040Y-69911944D01*
X96884527Y-69746556D01*
X96943542Y-69564928D01*
X96963504Y-69375000D01*
X96943542Y-69185072D01*
X96884527Y-69003444D01*
X96789040Y-68838056D01*
X96715863Y-68756784D01*
X96685146Y-68692776D01*
X96683500Y-68672474D01*
X96683500Y-68327524D01*
X96703502Y-68259403D01*
X96715858Y-68243220D01*
X96789040Y-68161944D01*
X96884527Y-67996556D01*
X96943542Y-67814928D01*
X96963504Y-67625000D01*
X96943542Y-67435072D01*
X96884527Y-67253444D01*
X96789040Y-67088056D01*
X96789038Y-67088054D01*
X96789034Y-67088048D01*
X96661255Y-66946135D01*
X96506752Y-66833882D01*
X96332288Y-66756206D01*
X96145487Y-66716500D01*
X95954513Y-66716500D01*
X95767711Y-66756206D01*
X95593247Y-66833882D01*
X95438744Y-66946135D01*
X95310965Y-67088048D01*
X95310958Y-67088058D01*
X95215476Y-67253438D01*
X95215473Y-67253445D01*
X95156457Y-67435072D01*
X95136496Y-67625000D01*
X90458500Y-67625000D01*
X90458500Y-67034618D01*
X90782000Y-67034618D01*
X90782000Y-67526000D01*
X91636000Y-67526000D01*
X92144000Y-67526000D01*
X92998000Y-67526000D01*
X92998000Y-67034618D01*
X92982727Y-66899070D01*
X92982726Y-66899062D01*
X92922587Y-66727200D01*
X92825717Y-66573032D01*
X92825715Y-66573029D01*
X92696970Y-66444284D01*
X92696967Y-66444282D01*
X92542799Y-66347412D01*
X92542800Y-66347412D01*
X92370937Y-66287273D01*
X92370929Y-66287272D01*
X92235382Y-66272000D01*
X92144000Y-66272000D01*
X92144000Y-67526000D01*
X91636000Y-67526000D01*
X91636000Y-66272000D01*
X91544618Y-66272000D01*
X91409070Y-66287272D01*
X91409062Y-66287273D01*
X91237200Y-66347412D01*
X91083032Y-66444282D01*
X91083029Y-66444284D01*
X90954284Y-66573029D01*
X90954282Y-66573032D01*
X90857412Y-66727200D01*
X90797273Y-66899062D01*
X90797272Y-66899070D01*
X90782000Y-67034618D01*
X90458500Y-67034618D01*
X90458500Y-67034594D01*
X90443217Y-66898953D01*
X90383043Y-66726985D01*
X90383041Y-66726982D01*
X90383041Y-66726981D01*
X90286112Y-66572720D01*
X90286111Y-66572718D01*
X90157281Y-66443888D01*
X90157279Y-66443887D01*
X90003018Y-66346958D01*
X90003015Y-66346957D01*
X89906028Y-66313020D01*
X89831047Y-66286783D01*
X89695406Y-66271500D01*
X89004594Y-66271500D01*
X88868953Y-66286783D01*
X88868950Y-66286783D01*
X88868950Y-66286784D01*
X88696984Y-66346957D01*
X88696981Y-66346958D01*
X88542720Y-66443887D01*
X88542718Y-66443888D01*
X88413888Y-66572718D01*
X88413887Y-66572720D01*
X88316958Y-66726981D01*
X88316957Y-66726984D01*
X88287819Y-66810256D01*
X88256783Y-66898953D01*
X88241500Y-67034594D01*
X87918500Y-67034594D01*
X87903217Y-66898953D01*
X87843043Y-66726985D01*
X87843041Y-66726982D01*
X87843041Y-66726981D01*
X87746112Y-66572720D01*
X87746111Y-66572718D01*
X87617281Y-66443888D01*
X87617279Y-66443887D01*
X87463018Y-66346958D01*
X87463015Y-66346957D01*
X87366028Y-66313020D01*
X87291047Y-66286783D01*
X87155406Y-66271500D01*
X86464594Y-66271500D01*
X86328953Y-66286783D01*
X86328950Y-66286783D01*
X86328950Y-66286784D01*
X86156984Y-66346957D01*
X86156981Y-66346958D01*
X86002720Y-66443887D01*
X86002718Y-66443888D01*
X85873888Y-66572718D01*
X85873887Y-66572720D01*
X85776958Y-66726981D01*
X85776957Y-66726984D01*
X85747819Y-66810256D01*
X85716783Y-66898953D01*
X85701500Y-67034594D01*
X85378500Y-67034594D01*
X85363217Y-66898953D01*
X85303043Y-66726985D01*
X85303041Y-66726982D01*
X85303041Y-66726981D01*
X85206112Y-66572720D01*
X85206111Y-66572718D01*
X85077281Y-66443888D01*
X85077279Y-66443887D01*
X84923018Y-66346958D01*
X84923015Y-66346957D01*
X84826028Y-66313020D01*
X84751047Y-66286783D01*
X84615406Y-66271500D01*
X83924594Y-66271500D01*
X83788953Y-66286783D01*
X83788950Y-66286783D01*
X83788950Y-66286784D01*
X83616984Y-66346957D01*
X83616981Y-66346958D01*
X83462720Y-66443887D01*
X83462718Y-66443888D01*
X83333888Y-66572718D01*
X83333887Y-66572720D01*
X83236958Y-66726981D01*
X83236957Y-66726984D01*
X83207819Y-66810256D01*
X83176783Y-66898953D01*
X83161500Y-67034594D01*
X82838500Y-67034594D01*
X82823217Y-66898953D01*
X82763043Y-66726985D01*
X82763041Y-66726982D01*
X82763041Y-66726981D01*
X82666112Y-66572720D01*
X82666111Y-66572718D01*
X82537281Y-66443888D01*
X82537279Y-66443887D01*
X82383018Y-66346958D01*
X82383015Y-66346957D01*
X82286028Y-66313020D01*
X82211047Y-66286783D01*
X82075406Y-66271500D01*
X81384594Y-66271500D01*
X81248953Y-66286783D01*
X81248950Y-66286783D01*
X81248950Y-66286784D01*
X81076984Y-66346957D01*
X81076981Y-66346958D01*
X80922720Y-66443887D01*
X80922718Y-66443888D01*
X80793888Y-66572718D01*
X80793887Y-66572720D01*
X80696958Y-66726981D01*
X80696957Y-66726984D01*
X80667819Y-66810256D01*
X80636783Y-66898953D01*
X80621500Y-67034594D01*
X80298500Y-67034594D01*
X80283217Y-66898953D01*
X80223043Y-66726985D01*
X80223041Y-66726982D01*
X80223041Y-66726981D01*
X80126112Y-66572720D01*
X80126111Y-66572718D01*
X79997281Y-66443888D01*
X79997279Y-66443887D01*
X79843018Y-66346958D01*
X79843015Y-66346957D01*
X79746028Y-66313020D01*
X79671047Y-66286783D01*
X79535406Y-66271500D01*
X78844594Y-66271500D01*
X78708953Y-66286783D01*
X78708950Y-66286783D01*
X78708950Y-66286784D01*
X78536984Y-66346957D01*
X78536981Y-66346958D01*
X78382720Y-66443887D01*
X78382718Y-66443888D01*
X78253888Y-66572718D01*
X78253887Y-66572720D01*
X78156958Y-66726981D01*
X78156957Y-66726984D01*
X78127819Y-66810256D01*
X78096783Y-66898953D01*
X78081500Y-67034594D01*
X77758500Y-67034594D01*
X77743217Y-66898953D01*
X77683043Y-66726985D01*
X77683041Y-66726982D01*
X77683041Y-66726981D01*
X77586112Y-66572720D01*
X77586111Y-66572718D01*
X77457281Y-66443888D01*
X77457279Y-66443887D01*
X77303018Y-66346958D01*
X77303015Y-66346957D01*
X77206028Y-66313020D01*
X77131047Y-66286783D01*
X76995406Y-66271500D01*
X76304594Y-66271500D01*
X76168953Y-66286783D01*
X76168950Y-66286783D01*
X76168950Y-66286784D01*
X75996984Y-66346957D01*
X75996981Y-66346958D01*
X75842720Y-66443887D01*
X75842718Y-66443888D01*
X75713888Y-66572718D01*
X75713887Y-66572720D01*
X75616958Y-66726981D01*
X75616957Y-66726984D01*
X75587819Y-66810256D01*
X75556783Y-66898953D01*
X75541500Y-67034594D01*
X75541500Y-68525406D01*
X75556783Y-68661047D01*
X75575791Y-68715370D01*
X75616956Y-68833014D01*
X75616957Y-68833015D01*
X75622185Y-68841335D01*
X75641500Y-68908374D01*
X75641500Y-74641406D01*
X75621498Y-74709527D01*
X75567842Y-74756020D01*
X75497568Y-74766124D01*
X75432988Y-74736630D01*
X75426405Y-74730501D01*
X75055055Y-74359151D01*
X75021029Y-74296839D01*
X75018840Y-74283226D01*
X75003542Y-74137672D01*
X74986383Y-74084864D01*
X74944527Y-73956044D01*
X74876733Y-73838621D01*
X74849042Y-73790659D01*
X74849041Y-73790658D01*
X74849040Y-73790656D01*
X74775863Y-73709384D01*
X74745146Y-73645376D01*
X74743500Y-73625074D01*
X74743500Y-72180409D01*
X74763502Y-72112288D01*
X74817158Y-72065795D01*
X74825469Y-72062353D01*
X74843808Y-72055512D01*
X74856204Y-72050889D01*
X74973261Y-71963261D01*
X75021737Y-71898505D01*
X75060887Y-71846207D01*
X75060887Y-71846206D01*
X75060889Y-71846204D01*
X75111989Y-71709201D01*
X75118500Y-71648638D01*
X75118500Y-69041362D01*
X75118500Y-68908374D01*
X75137815Y-68841335D01*
X75143043Y-68833015D01*
X75203217Y-68661047D01*
X75218500Y-68525406D01*
X75218500Y-67034594D01*
X75203217Y-66898953D01*
X75143043Y-66726985D01*
X75143041Y-66726982D01*
X75143041Y-66726981D01*
X75046112Y-66572720D01*
X75046111Y-66572718D01*
X74917281Y-66443888D01*
X74917279Y-66443887D01*
X74763018Y-66346958D01*
X74763015Y-66346957D01*
X74666028Y-66313020D01*
X74591047Y-66286783D01*
X74455406Y-66271500D01*
X73764594Y-66271500D01*
X73628953Y-66286783D01*
X73628950Y-66286783D01*
X73628950Y-66286784D01*
X73456984Y-66346957D01*
X73456981Y-66346958D01*
X73302720Y-66443887D01*
X73302718Y-66443888D01*
X73173888Y-66572718D01*
X73173887Y-66572720D01*
X73076958Y-66726981D01*
X73076957Y-66726984D01*
X73047819Y-66810256D01*
X73016783Y-66898953D01*
X73001500Y-67034594D01*
X71750000Y-67034594D01*
X71750000Y-63187145D01*
X93206515Y-63187145D01*
X93206515Y-63366855D01*
X93223727Y-63442264D01*
X93246503Y-63542056D01*
X93246506Y-63542063D01*
X93324476Y-63703969D01*
X93324477Y-63703970D01*
X93324478Y-63703972D01*
X93436525Y-63844475D01*
X93577028Y-63956522D01*
X93738941Y-64034496D01*
X93914145Y-64074485D01*
X94093853Y-64074485D01*
X94093855Y-64074485D01*
X94269059Y-64034496D01*
X94430972Y-63956522D01*
X94571475Y-63844475D01*
X94683522Y-63703972D01*
X94761496Y-63542059D01*
X94801485Y-63366855D01*
X94804000Y-63277000D01*
X94801485Y-63187145D01*
X94761496Y-63011941D01*
X94683522Y-62850028D01*
X94614439Y-62763400D01*
X104039296Y-62763400D01*
X104059257Y-62953327D01*
X104078303Y-63011943D01*
X104118273Y-63134956D01*
X104118276Y-63134961D01*
X104213758Y-63300341D01*
X104213765Y-63300351D01*
X104341544Y-63442264D01*
X104341547Y-63442266D01*
X104496048Y-63554518D01*
X104670512Y-63632194D01*
X104857313Y-63671900D01*
X105048287Y-63671900D01*
X105235088Y-63632194D01*
X105409552Y-63554518D01*
X105564053Y-63442266D01*
X105599008Y-63403445D01*
X105691834Y-63300351D01*
X105691835Y-63300349D01*
X105691840Y-63300344D01*
X105787327Y-63134956D01*
X105846342Y-62953328D01*
X105866304Y-62763400D01*
X105846342Y-62573472D01*
X105787327Y-62391844D01*
X105691840Y-62226456D01*
X105691838Y-62226454D01*
X105691834Y-62226448D01*
X105564055Y-62084535D01*
X105409552Y-61972282D01*
X105235088Y-61894606D01*
X105048287Y-61854900D01*
X104857313Y-61854900D01*
X104670511Y-61894606D01*
X104496047Y-61972282D01*
X104341544Y-62084535D01*
X104213765Y-62226448D01*
X104213758Y-62226458D01*
X104118276Y-62391838D01*
X104118273Y-62391845D01*
X104059257Y-62573472D01*
X104039296Y-62763400D01*
X94614439Y-62763400D01*
X94571475Y-62709525D01*
X94430972Y-62597478D01*
X94430970Y-62597477D01*
X94430969Y-62597476D01*
X94269063Y-62519506D01*
X94269064Y-62519506D01*
X94269059Y-62519504D01*
X94269057Y-62519503D01*
X94269056Y-62519503D01*
X94197483Y-62503167D01*
X94093855Y-62479515D01*
X94093853Y-62479515D01*
X93914147Y-62479515D01*
X93914145Y-62479515D01*
X93834169Y-62497768D01*
X93738943Y-62519503D01*
X93738936Y-62519506D01*
X93577030Y-62597476D01*
X93436525Y-62709525D01*
X93324476Y-62850030D01*
X93246506Y-63011936D01*
X93246503Y-63011943D01*
X93230305Y-63082913D01*
X93206515Y-63187145D01*
X71750000Y-63187145D01*
X71750000Y-60126000D01*
X71770002Y-60057879D01*
X71823658Y-60011386D01*
X71876000Y-60000000D01*
X135124000Y-60000000D01*
X135192121Y-60020002D01*
G37*
%TD.AperFunction*%
%TD*%
M02*
